  0
SECTION
  2
HEADER
  9
$ACADVER
  1
AC1014
  9
$HANDSEED
  5
FFFF
  9
$MEASUREMENT
 70
     1
  0
ENDSEC
  0
SECTION
  2
TABLES
  0
TABLE
  2
VPORT
  5
8
330
0
100
AcDbSymbolTable
 70
     4
  0
VPORT
  5
2E
330
8
100
AcDbSymbolTableRecord
100
AcDbViewportTableRecord
  2
*ACTIVE
 70
     0
 10
0.0
 20
0.0
 11
1.0
 21
1.0
 12
210.0
 22
148.5
 13
0.0
 23
0.0
 14
10.0
 24
10.0
 15
10.0
 25
10.0
 16
0.0
 26
0.0
 36
1.0
 17
0.0
 27
0.0
 37
0.0
 40
341.0
 41
1.24
 42
50.0
 43
0.0
 44
0.0
 50
0.0
 51
0.0
 71
     0
 72
   100
 73
     1
 74
     3
 75
     0
 76
     0
 77
     0
 78
     0
  0
ENDTAB
  0
TABLE
  2
LTYPE
  5
5
330
0
100
AcDbSymbolTable
 70
     1
  0
LTYPE
  5
14
330
5
100
AcDbSymbolTableRecord
100
AcDbLinetypeTableRecord
  2
BYBLOCK
 70
     0
  3

 72
    65
 73
     0
 40
0.0
  0
LTYPE
  5
15
330
5
100
AcDbSymbolTableRecord
100
AcDbLinetypeTableRecord
  2
BYLAYER
 70
     0
  3

 72
    65
 73
     0
 40
0.0
  0
LTYPE
  5
16
330
5
100
AcDbSymbolTableRecord
100
AcDbLinetypeTableRecord
  2
CONTINUOUS
 70
     0
  3
Solid line
 72
    65
 73
     0
 40
0.0
  0
ENDTAB
  0
TABLE
  2
LAYER
  5
2
100
AcDbSymbolTable
 70
2
  0
LAYER
  5
50
100
AcDbSymbolTableRecord
100
AcDbLayerTableRecord
  2
0
 70
0
  6
CONTINUOUS
  0
LAYER
  5
51
100
AcDbSymbolTableRecord
100
AcDbLayerTableRecord
  2
Layer_1
 70
0
  6
CONTINUOUS
  0
ENDTAB
  0
TABLE
  2
STYLE
  5
3
330
0
100
AcDbSymbolTable
 70
     1
  0
STYLE
  5
11
330
3
100
AcDbSymbolTableRecord
100
AcDbTextStyleTableRecord
  2
STANDARD
 70
     0
 40
0.0
 41
1.0
 50
0.0
 71
     0
 42
2.5
  3
txt
  4

  0
ENDTAB
  0
TABLE
  2
VIEW
  5
6
330
0
100
AcDbSymbolTable
 70
     0
  0
ENDTAB
  0
TABLE
  2
UCS
  5
7
330
0
100
AcDbSymbolTable
 70
     0
  0
ENDTAB
  0
TABLE
  2
APPID
  5
9
330
0
100
AcDbSymbolTable
 70
     2
  0
APPID
  5
12
330
9
100
AcDbSymbolTableRecord
100
AcDbRegAppTableRecord
  2
ACAD
 70
     0
  0
ENDTAB
  0
TABLE
  2
DIMSTYLE
  5
A
330
0
100
AcDbSymbolTable
 70
     1
  0
DIMSTYLE
105
27
330
A
100
AcDbSymbolTableRecord
100
AcDbDimStyleTableRecord
  2
ISO-25
 70
     0
  3

  4

  5

  6

  7

 40
1.0
 41
2.5
 42
0.625
 43
3.75
 44
1.25
 45
0.0
 46
0.0
 47
0.0
 48
0.0
140
2.5
141
2.5
142
0.0
143
0.03937007874016
144
1.0
145
0.0
146
1.0
147
0.625
 71
     0
 72
     0
 73
     0
 74
     0
 75
     0
 76
     0
 77
     1
 78
     8
170
     0
171
     3
172
     1
173
     0
174
     0
175
     0
176
     0
177
     0
178
     0
270
     2
271
     2
272
     2
273
     2
274
     3
340
11
275
     0
280
     0
281
     0
282
     0
283
     0
284
     8
285
     0
286
     0
287
     3
288
     0
  0
ENDTAB
  0
TABLE
  2
BLOCK_RECORD
  5
1
330
0
100
AcDbSymbolTable
 70
     1
  0
BLOCK_RECORD
  5
1F
330
1
100
AcDbSymbolTableRecord
100
AcDbBlockTableRecord
  2
*MODEL_SPACE
  0
BLOCK_RECORD
  5
1B
330
1
100
AcDbSymbolTableRecord
100
AcDbBlockTableRecord
  2
*PAPER_SPACE
  0
ENDTAB
  0
ENDSEC
  0
SECTION
  2
BLOCKS
  0
BLOCK
  5
20
330
1F
100
AcDbEntity
  8
0
100
AcDbBlockBegin
  2
*MODEL_SPACE
 70
     0
 10
0.0
 20
0.0
 30
0.0
  3
*MODEL_SPACE
  1

  0
ENDBLK
  5
21
330
1F
100
AcDbEntity
  8
0
100
AcDbBlockEnd
  0
BLOCK
  5
1C
330
1B
100
AcDbEntity
 67
     1
  8
0
100
AcDbBlockBegin
  2
*PAPER_SPACE
  1

  0
ENDBLK
  5
1D
330
1B
100
AcDbEntity
 67
     1
  8
0
100
AcDbBlockEnd
  0
ENDSEC
  0
SECTION
  2
ENTITIES
  0
LINE
  5
100
100
AcDbEntity
  8
Layer_1
 62
7
100
AcDbLine
 10
0.000012
 20
619.999974
 30
0.0
 11
499.999984
 21
619.999974
 31
0.0
  0
LINE
  5
101
100
AcDbEntity
  8
Layer_1
 62
7
100
AcDbLine
 10
499.999984
 20
619.999974
 30
0.0
 11
499.999984
 21
-279.999970
 31
0.0
  0
LINE
  5
102
100
AcDbEntity
  8
Layer_1
 62
7
100
AcDbLine
 10
499.999984
 20
-279.999970
 30
0.0
 11
0.000012
 21
-279.999970
 31
0.0
  0
LINE
  5
103
100
AcDbEntity
  8
Layer_1
 62
7
100
AcDbLine
 10
0.000012
 20
-279.999970
 30
0.0
 11
0.000012
 21
619.999974
 31
0.0
  0
LINE
  5
104
100
AcDbEntity
  8
Layer_1
 62
7
100
AcDbLine
 10
278.791406
 20
347.314494
 30
0.0
 11
210.292732
 21
415.813156
 31
0.0
  0
LINE
  5
105
100
AcDbEntity
  8
Layer_1
 62
7
100
AcDbLine
 10
210.292732
 20
415.813156
 30
0.0
 11
210.292732
 21
419.316296
 31
0.0
  0
LINE
  5
106
100
AcDbEntity
  8
Layer_1
 62
7
100
AcDbLine
 10
210.292732
 20
419.316296
 30
0.0
 11
193.638968
 21
419.316296
 31
0.0
  0
LINE
  5
107
100
AcDbEntity
  8
Layer_1
 62
7
100
AcDbLine
 10
193.638968
 20
419.316296
 30
0.0
 11
193.638968
 21
408.166063
 31
0.0
  0
LINE
  5
108
100
AcDbEntity
  8
Layer_1
 62
7
100
AcDbLine
 10
193.638968
 20
408.166063
 30
0.0
 11
198.639184
 21
408.166063
 31
0.0
  0
LINE
  5
109
100
AcDbEntity
  8
Layer_1
 62
7
100
AcDbLine
 10
198.639184
 20
408.166063
 30
0.0
 11
198.639184
 21
401.165964
 31
0.0
  0
LINE
  5
10a
100
AcDbEntity
  8
Layer_1
 62
7
100
AcDbLine
 10
198.639184
 20
401.165964
 30
0.0
 11
208.789475
 21
391.015703
 31
0.0
  0
LINE
  5
10b
100
AcDbEntity
  8
Layer_1
 62
7
100
AcDbLine
 10
208.789475
 20
391.015703
 30
0.0
 11
208.789475
 21
341.314336
 31
0.0
  0
LINE
  5
10c
100
AcDbEntity
  8
Layer_1
 62
7
100
AcDbLine
 10
208.789475
 20
341.314336
 30
0.0
 11
228.490094
 21
341.314336
 31
0.0
  0
LINE
  5
10d
100
AcDbEntity
  8
Layer_1
 62
7
100
AcDbLine
 10
228.490094
 20
341.314336
 30
0.0
 11
228.490094
 21
336.314119
 31
0.0
  0
LINE
  5
10e
100
AcDbEntity
  8
Layer_1
 62
7
100
AcDbLine
 10
228.490094
 20
336.314119
 30
0.0
 11
243.790434
 21
336.314119
 31
0.0
  0
LINE
  5
10f
100
AcDbEntity
  8
Layer_1
 62
7
100
AcDbLine
 10
243.790434
 20
336.314119
 30
0.0
 11
243.790434
 21
341.314336
 31
0.0
  0
LINE
  5
110
100
AcDbEntity
  8
Layer_1
 62
7
100
AcDbLine
 10
243.790434
 20
341.314336
 30
0.0
 11
263.491058
 21
341.314336
 31
0.0
  0
LINE
  5
111
100
AcDbEntity
  8
Layer_1
 62
7
100
AcDbLine
 10
263.491058
 20
341.314336
 30
0.0
 11
263.491058
 21
336.314119
 31
0.0
  0
LINE
  5
112
100
AcDbEntity
  8
Layer_1
 62
7
100
AcDbLine
 10
263.491058
 20
336.314119
 30
0.0
 11
272.878591
 21
336.314119
 31
0.0
  0
LINE
  5
113
100
AcDbEntity
  8
Layer_1
 62
7
100
AcDbLine
 10
272.878591
 20
336.314119
 30
0.0
 11
272.878591
 21
341.314336
 31
0.0
  0
LINE
  5
114
100
AcDbEntity
  8
Layer_1
 62
7
100
AcDbLine
 10
272.878591
 20
341.314336
 30
0.0
 11
278.791406
 21
341.314336
 31
0.0
  0
LINE
  5
115
100
AcDbEntity
  8
Layer_1
 62
7
100
AcDbLine
 10
278.791406
 20
341.314336
 30
0.0
 11
278.791406
 21
347.314494
 31
0.0
  0
LINE
  5
116
100
AcDbEntity
  8
Layer_1
 62
7
100
AcDbLine
 10
272.878591
 20
345.551790
 30
0.0
 11
271.640939
 21
344.314669
 31
0.0
  0
LINE
  5
117
100
AcDbEntity
  8
Layer_1
 62
7
100
AcDbLine
 10
271.640939
 20
344.314669
 30
0.0
 11
207.292907
 21
408.662689
 31
0.0
  0
LINE
  5
118
100
AcDbEntity
  8
Layer_1
 62
7
100
AcDbLine
 10
207.292907
 20
408.662689
 30
0.0
 11
208.530057
 21
409.900318
 31
0.0
  0
LINE
  5
119
100
AcDbEntity
  8
Layer_1
 62
7
100
AcDbLine
 10
208.530057
 20
409.900318
 30
0.0
 11
272.878591
 21
345.551790
 31
0.0
  0
LINE
  5
11a
100
AcDbEntity
  8
Layer_1
 62
7
100
AcDbLine
 10
349.134100
 20
330.152474
 30
0.0
 11
490.626271
 21
575.223837
 31
0.0
  0
LINE
  5
11b
100
AcDbEntity
  8
Layer_1
 62
7
100
AcDbLine
 10
490.626271
 20
575.223837
 30
0.0
 11
468.200215
 21
614.066421
 31
0.0
  0
LINE
  5
11c
100
AcDbEntity
  8
Layer_1
 62
7
100
AcDbLine
 10
468.200215
 20
614.066421
 30
0.0
 11
185.216497
 21
614.066421
 31
0.0
  0
LINE
  5
11d
100
AcDbEntity
  8
Layer_1
 62
7
100
AcDbLine
 10
185.216497
 20
614.066421
 30
0.0
 11
162.790441
 21
575.223837
 31
0.0
  0
LINE
  5
11e
100
AcDbEntity
  8
Layer_1
 62
7
100
AcDbLine
 10
162.790441
 20
575.223837
 30
0.0
 11
304.282581
 21
330.152474
 31
0.0
  0
LINE
  5
11f
100
AcDbEntity
  8
Layer_1
 62
7
100
AcDbLine
 10
304.282581
 20
330.152474
 30
0.0
 11
349.134100
 21
330.152474
 31
0.0
  0
SPLINE
  5
120
100
AcDbEntity
  8
Layer_1
 62
7
100
AcDbSpline
 70
8
 71
3
 72
8
 73
4
 74
0
 40
0
 40
0
 40
0
 40
0
 40
1
 40
1
 40
1
 40
1
 10
326.708101
 20
337.125170
 30
0.0
 10
325.327526
 20
337.125170
 30
0.0
 10
324.208515
 20
338.244237
 30
0.0
 10
324.208515
 20
339.624756
 30
0.0
  0
SPLINE
  5
121
100
AcDbEntity
  8
Layer_1
 62
7
100
AcDbSpline
 70
8
 71
3
 72
8
 73
4
 74
0
 40
0
 40
0
 40
0
 40
0
 40
1
 40
1
 40
1
 40
1
 10
324.208515
 20
339.624756
 30
0.0
 10
324.208515
 20
341.005331
 30
0.0
 10
325.327526
 20
342.124878
 30
0.0
 10
326.708101
 20
342.124878
 30
0.0
  0
SPLINE
  5
122
100
AcDbEntity
  8
Layer_1
 62
7
100
AcDbSpline
 70
8
 71
3
 72
8
 73
4
 74
0
 40
0
 40
0
 40
0
 40
0
 40
1
 40
1
 40
1
 40
1
 10
326.708101
 20
342.124878
 30
0.0
 10
328.088647
 20
342.124878
 30
0.0
 10
329.208194
 20
341.005331
 30
0.0
 10
329.208194
 20
339.624756
 30
0.0
  0
SPLINE
  5
123
100
AcDbEntity
  8
Layer_1
 62
7
100
AcDbSpline
 70
8
 71
3
 72
8
 73
4
 74
0
 40
0
 40
0
 40
0
 40
0
 40
1
 40
1
 40
1
 40
1
 10
329.208194
 20
339.624756
 30
0.0
 10
329.208194
 20
338.244237
 30
0.0
 10
328.088647
 20
337.125170
 30
0.0
 10
326.708101
 20
337.125170
 30
0.0
  0
LINE
  5
124
100
AcDbEntity
  8
Layer_1
 62
7
100
AcDbLine
 10
326.708101
 20
337.125170
 30
0.0
 11
326.708101
 21
337.125170
 31
0.0
  0
SPLINE
  5
125
100
AcDbEntity
  8
Layer_1
 62
7
100
AcDbSpline
 70
8
 71
3
 72
8
 73
4
 74
0
 40
0
 40
0
 40
0
 40
0
 40
1
 40
1
 40
1
 40
1
 10
471.209861
 20
587.409120
 30
0.0
 10
469.829315
 20
587.409120
 30
0.0
 10
468.710275
 20
588.528159
 30
0.0
 10
468.710275
 20
589.908706
 30
0.0
  0
SPLINE
  5
126
100
AcDbEntity
  8
Layer_1
 62
7
100
AcDbSpline
 70
8
 71
3
 72
8
 73
4
 74
0
 40
0
 40
0
 40
0
 40
0
 40
1
 40
1
 40
1
 40
1
 10
468.710275
 20
589.908706
 30
0.0
 10
468.710275
 20
591.289252
 30
0.0
 10
469.829315
 20
592.408828
 30
0.0
 10
471.209861
 20
592.408828
 30
0.0
  0
SPLINE
  5
127
100
AcDbEntity
  8
Layer_1
 62
7
100
AcDbSpline
 70
8
 71
3
 72
8
 73
4
 74
0
 40
0
 40
0
 40
0
 40
0
 40
1
 40
1
 40
1
 40
1
 10
471.209861
 20
592.408828
 30
0.0
 10
472.590408
 20
592.408828
 30
0.0
 10
473.709475
 20
591.289252
 30
0.0
 10
473.709475
 20
589.908706
 30
0.0
  0
SPLINE
  5
128
100
AcDbEntity
  8
Layer_1
 62
7
100
AcDbSpline
 70
8
 71
3
 72
8
 73
4
 74
0
 40
0
 40
0
 40
0
 40
0
 40
1
 40
1
 40
1
 40
1
 10
473.709475
 20
589.908706
 30
0.0
 10
473.709475
 20
588.528159
 30
0.0
 10
472.590408
 20
587.409120
 30
0.0
 10
471.209861
 20
587.409120
 30
0.0
  0
LINE
  5
129
100
AcDbEntity
  8
Layer_1
 62
7
100
AcDbLine
 10
471.209861
 20
587.409120
 30
0.0
 11
471.209861
 21
587.409120
 31
0.0
  0
SPLINE
  5
12a
100
AcDbEntity
  8
Layer_1
 62
7
100
AcDbSpline
 70
8
 71
3
 72
8
 73
4
 74
0
 40
0
 40
0
 40
0
 40
0
 40
1
 40
1
 40
1
 40
1
 10
182.206851
 20
587.409120
 30
0.0
 10
180.826333
 20
587.409120
 30
0.0
 10
179.707265
 20
588.528159
 30
0.0
 10
179.707265
 20
589.908706
 30
0.0
  0
SPLINE
  5
12b
100
AcDbEntity
  8
Layer_1
 62
7
100
AcDbSpline
 70
8
 71
3
 72
8
 73
4
 74
0
 40
0
 40
0
 40
0
 40
0
 40
1
 40
1
 40
1
 40
1
 10
179.707265
 20
589.908706
 30
0.0
 10
179.707265
 20
591.289252
 30
0.0
 10
180.826333
 20
592.408828
 30
0.0
 10
182.206851
 20
592.408828
 30
0.0
  0
SPLINE
  5
12c
100
AcDbEntity
  8
Layer_1
 62
7
100
AcDbSpline
 70
8
 71
3
 72
8
 73
4
 74
0
 40
0
 40
0
 40
0
 40
0
 40
1
 40
1
 40
1
 40
1
 10
182.206851
 20
592.408828
 30
0.0
 10
183.587426
 20
592.408828
 30
0.0
 10
184.706408
 20
591.289252
 30
0.0
 10
184.706408
 20
589.908706
 30
0.0
  0
SPLINE
  5
12d
100
AcDbEntity
  8
Layer_1
 62
7
100
AcDbSpline
 70
8
 71
3
 72
8
 73
4
 74
0
 40
0
 40
0
 40
0
 40
0
 40
1
 40
1
 40
1
 40
1
 10
184.706408
 20
589.908706
 30
0.0
 10
184.706408
 20
588.528159
 30
0.0
 10
183.587426
 20
587.409120
 30
0.0
 10
182.206851
 20
587.409120
 30
0.0
  0
LINE
  5
12e
100
AcDbEntity
  8
Layer_1
 62
7
100
AcDbLine
 10
182.206851
 20
587.409120
 30
0.0
 11
182.206851
 21
587.409120
 31
0.0
  0
LINE
  5
12f
100
AcDbEntity
  8
Layer_1
 62
7
100
AcDbLine
 10
15.308891
 20
437.194755
 30
0.0
 11
15.308891
 21
452.195149
 31
0.0
  0
LINE
  5
130
100
AcDbEntity
  8
Layer_1
 62
7
100
AcDbLine
 10
15.308891
 20
452.195149
 30
0.0
 11
25.309152
 21
452.195149
 31
0.0
  0
LINE
  5
131
100
AcDbEntity
  8
Layer_1
 62
7
100
AcDbLine
 10
25.309152
 20
452.195149
 30
0.0
 11
25.309152
 21
447.195018
 31
0.0
  0
LINE
  5
132
100
AcDbEntity
  8
Layer_1
 62
7
100
AcDbLine
 10
25.309152
 20
447.195018
 30
0.0
 11
35.159417
 21
447.195018
 31
0.0
  0
LINE
  5
133
100
AcDbEntity
  8
Layer_1
 62
7
100
AcDbLine
 10
35.159417
 20
447.195018
 30
0.0
 11
35.159417
 21
452.195149
 31
0.0
  0
LINE
  5
134
100
AcDbEntity
  8
Layer_1
 62
7
100
AcDbLine
 10
35.159417
 20
452.195149
 30
0.0
 11
55.459945
 21
452.195149
 31
0.0
  0
LINE
  5
135
100
AcDbEntity
  8
Layer_1
 62
7
100
AcDbLine
 10
55.459945
 20
452.195149
 30
0.0
 11
55.459945
 21
447.195018
 31
0.0
  0
LINE
  5
136
100
AcDbEntity
  8
Layer_1
 62
7
100
AcDbLine
 10
55.459945
 20
447.195018
 30
0.0
 11
75.160467
 21
447.195018
 31
0.0
  0
LINE
  5
137
100
AcDbEntity
  8
Layer_1
 62
7
100
AcDbLine
 10
75.160467
 20
447.195018
 30
0.0
 11
75.160467
 21
452.195149
 31
0.0
  0
LINE
  5
138
100
AcDbEntity
  8
Layer_1
 62
7
100
AcDbLine
 10
75.160467
 20
452.195149
 30
0.0
 11
95.460994
 21
452.195149
 31
0.0
  0
LINE
  5
139
100
AcDbEntity
  8
Layer_1
 62
7
100
AcDbLine
 10
95.460994
 20
452.195149
 30
0.0
 11
95.460994
 21
447.195018
 31
0.0
  0
LINE
  5
13a
100
AcDbEntity
  8
Layer_1
 62
7
100
AcDbLine
 10
95.460994
 20
447.195018
 30
0.0
 11
115.161517
 21
447.195018
 31
0.0
  0
LINE
  5
13b
100
AcDbEntity
  8
Layer_1
 62
7
100
AcDbLine
 10
115.161517
 20
447.195018
 30
0.0
 11
115.161517
 21
452.195149
 31
0.0
  0
LINE
  5
13c
100
AcDbEntity
  8
Layer_1
 62
7
100
AcDbLine
 10
115.161517
 20
452.195149
 30
0.0
 11
135.462044
 21
452.195149
 31
0.0
  0
LINE
  5
13d
100
AcDbEntity
  8
Layer_1
 62
7
100
AcDbLine
 10
135.462044
 20
452.195149
 30
0.0
 11
135.462044
 21
447.195018
 31
0.0
  0
LINE
  5
13e
100
AcDbEntity
  8
Layer_1
 62
7
100
AcDbLine
 10
135.462044
 20
447.195018
 30
0.0
 11
145.312306
 21
447.195018
 31
0.0
  0
LINE
  5
13f
100
AcDbEntity
  8
Layer_1
 62
7
100
AcDbLine
 10
145.312306
 20
447.195018
 30
0.0
 11
145.312306
 21
452.195149
 31
0.0
  0
LINE
  5
140
100
AcDbEntity
  8
Layer_1
 62
7
100
AcDbLine
 10
145.312306
 20
452.195149
 30
0.0
 11
155.312568
 21
452.195149
 31
0.0
  0
LINE
  5
141
100
AcDbEntity
  8
Layer_1
 62
7
100
AcDbLine
 10
155.312568
 20
452.195149
 30
0.0
 11
155.312568
 21
437.194755
 31
0.0
  0
LINE
  5
142
100
AcDbEntity
  8
Layer_1
 62
7
100
AcDbLine
 10
155.312568
 20
437.194755
 30
0.0
 11
160.312699
 21
437.194755
 31
0.0
  0
LINE
  5
143
100
AcDbEntity
  8
Layer_1
 62
7
100
AcDbLine
 10
160.312699
 20
437.194755
 30
0.0
 11
160.312699
 21
417.194233
 31
0.0
  0
LINE
  5
144
100
AcDbEntity
  8
Layer_1
 62
7
100
AcDbLine
 10
160.312699
 20
417.194233
 30
0.0
 11
155.312568
 21
417.194233
 31
0.0
  0
LINE
  5
145
100
AcDbEntity
  8
Layer_1
 62
7
100
AcDbLine
 10
155.312568
 20
417.194233
 30
0.0
 11
155.312568
 21
402.193839
 31
0.0
  0
LINE
  5
146
100
AcDbEntity
  8
Layer_1
 62
7
100
AcDbLine
 10
155.312568
 20
402.193839
 30
0.0
 11
160.312699
 21
402.193839
 31
0.0
  0
LINE
  5
147
100
AcDbEntity
  8
Layer_1
 62
7
100
AcDbLine
 10
160.312699
 20
402.193839
 30
0.0
 11
160.312699
 21
382.193267
 31
0.0
  0
LINE
  5
148
100
AcDbEntity
  8
Layer_1
 62
7
100
AcDbLine
 10
160.312699
 20
382.193267
 30
0.0
 11
155.312568
 21
382.193267
 31
0.0
  0
LINE
  5
149
100
AcDbEntity
  8
Layer_1
 62
7
100
AcDbLine
 10
155.312568
 20
382.193267
 30
0.0
 11
155.312568
 21
367.192873
 31
0.0
  0
LINE
  5
14a
100
AcDbEntity
  8
Layer_1
 62
7
100
AcDbLine
 10
155.312568
 20
367.192873
 30
0.0
 11
160.312699
 21
367.192873
 31
0.0
  0
LINE
  5
14b
100
AcDbEntity
  8
Layer_1
 62
7
100
AcDbLine
 10
160.312699
 20
367.192873
 30
0.0
 11
160.312699
 21
347.192376
 31
0.0
  0
LINE
  5
14c
100
AcDbEntity
  8
Layer_1
 62
7
100
AcDbLine
 10
160.312699
 20
347.192376
 30
0.0
 11
155.312568
 21
347.192376
 31
0.0
  0
LINE
  5
14d
100
AcDbEntity
  8
Layer_1
 62
7
100
AcDbLine
 10
155.312568
 20
347.192376
 30
0.0
 11
155.312568
 21
332.191982
 31
0.0
  0
LINE
  5
14e
100
AcDbEntity
  8
Layer_1
 62
7
100
AcDbLine
 10
155.312568
 20
332.191982
 30
0.0
 11
15.308891
 21
332.191982
 31
0.0
  0
LINE
  5
14f
100
AcDbEntity
  8
Layer_1
 62
7
100
AcDbLine
 10
15.308891
 20
332.191982
 30
0.0
 11
15.308891
 21
347.192376
 31
0.0
  0
LINE
  5
150
100
AcDbEntity
  8
Layer_1
 62
7
100
AcDbLine
 10
15.308891
 20
347.192376
 30
0.0
 11
10.308760
 21
347.192376
 31
0.0
  0
LINE
  5
151
100
AcDbEntity
  8
Layer_1
 62
7
100
AcDbLine
 10
10.308760
 20
347.192376
 30
0.0
 11
10.308760
 21
367.192873
 31
0.0
  0
LINE
  5
152
100
AcDbEntity
  8
Layer_1
 62
7
100
AcDbLine
 10
10.308760
 20
367.192873
 30
0.0
 11
15.308891
 21
367.192873
 31
0.0
  0
LINE
  5
153
100
AcDbEntity
  8
Layer_1
 62
7
100
AcDbLine
 10
15.308891
 20
367.192873
 30
0.0
 11
15.308891
 21
382.193267
 31
0.0
  0
LINE
  5
154
100
AcDbEntity
  8
Layer_1
 62
7
100
AcDbLine
 10
15.308891
 20
382.193267
 30
0.0
 11
10.308760
 21
382.193267
 31
0.0
  0
LINE
  5
155
100
AcDbEntity
  8
Layer_1
 62
7
100
AcDbLine
 10
10.308760
 20
382.193267
 30
0.0
 11
10.308760
 21
402.193839
 31
0.0
  0
LINE
  5
156
100
AcDbEntity
  8
Layer_1
 62
7
100
AcDbLine
 10
10.308760
 20
402.193839
 30
0.0
 11
15.308891
 21
402.193839
 31
0.0
  0
LINE
  5
157
100
AcDbEntity
  8
Layer_1
 62
7
100
AcDbLine
 10
15.308891
 20
402.193839
 30
0.0
 11
15.308891
 21
417.194233
 31
0.0
  0
LINE
  5
158
100
AcDbEntity
  8
Layer_1
 62
7
100
AcDbLine
 10
15.308891
 20
417.194233
 30
0.0
 11
10.308760
 21
417.194233
 31
0.0
  0
LINE
  5
159
100
AcDbEntity
  8
Layer_1
 62
7
100
AcDbLine
 10
10.308760
 20
417.194233
 30
0.0
 11
10.308760
 21
437.194755
 31
0.0
  0
LINE
  5
15a
100
AcDbEntity
  8
Layer_1
 62
7
100
AcDbLine
 10
10.308760
 20
437.194755
 30
0.0
 11
15.308891
 21
437.194755
 31
0.0
  0
LINE
  5
15b
100
AcDbEntity
  8
Layer_1
 62
7
100
AcDbLine
 10
154.165504
 20
460.508820
 30
0.0
 11
154.165504
 21
475.509457
 31
0.0
  0
LINE
  5
15c
100
AcDbEntity
  8
Layer_1
 62
7
100
AcDbLine
 10
154.165504
 20
475.509457
 30
0.0
 11
159.165720
 21
475.509457
 31
0.0
  0
LINE
  5
15d
100
AcDbEntity
  8
Layer_1
 62
7
100
AcDbLine
 10
159.165720
 20
475.509457
 30
0.0
 11
159.165720
 21
495.509784
 31
0.0
  0
LINE
  5
15e
100
AcDbEntity
  8
Layer_1
 62
7
100
AcDbLine
 10
159.165720
 20
495.509784
 30
0.0
 11
154.165504
 21
495.509784
 31
0.0
  0
LINE
  5
15f
100
AcDbEntity
  8
Layer_1
 62
7
100
AcDbLine
 10
154.165504
 20
495.509784
 30
0.0
 11
154.165504
 21
501.422602
 31
0.0
  0
LINE
  5
160
100
AcDbEntity
  8
Layer_1
 62
7
100
AcDbLine
 10
154.165504
 20
501.422602
 30
0.0
 11
144.165609
 21
501.422602
 31
0.0
  0
LINE
  5
161
100
AcDbEntity
  8
Layer_1
 62
7
100
AcDbLine
 10
144.165609
 20
501.422602
 30
0.0
 11
144.165609
 21
510.509901
 31
0.0
  0
LINE
  5
162
100
AcDbEntity
  8
Layer_1
 62
7
100
AcDbLine
 10
144.165609
 20
510.509901
 30
0.0
 11
159.165720
 21
510.509901
 31
0.0
  0
LINE
  5
163
100
AcDbEntity
  8
Layer_1
 62
7
100
AcDbLine
 10
159.165720
 20
510.509901
 30
0.0
 11
159.165720
 21
530.510748
 31
0.0
  0
LINE
  5
164
100
AcDbEntity
  8
Layer_1
 62
7
100
AcDbLine
 10
159.165720
 20
530.510748
 30
0.0
 11
144.165609
 21
530.510748
 31
0.0
  0
LINE
  5
165
100
AcDbEntity
  8
Layer_1
 62
7
100
AcDbLine
 10
144.165609
 20
530.510748
 30
0.0
 11
144.165609
 21
545.510865
 31
0.0
  0
LINE
  5
166
100
AcDbEntity
  8
Layer_1
 62
7
100
AcDbLine
 10
144.165609
 20
545.510865
 30
0.0
 11
159.165720
 21
545.510865
 31
0.0
  0
LINE
  5
167
100
AcDbEntity
  8
Layer_1
 62
7
100
AcDbLine
 10
159.165720
 20
545.510865
 30
0.0
 11
159.165720
 21
565.511723
 31
0.0
  0
LINE
  5
168
100
AcDbEntity
  8
Layer_1
 62
7
100
AcDbLine
 10
159.165720
 20
565.511723
 30
0.0
 11
154.165504
 21
565.511723
 31
0.0
  0
LINE
  5
169
100
AcDbEntity
  8
Layer_1
 62
7
100
AcDbLine
 10
154.165504
 20
565.511723
 30
0.0
 11
154.165504
 21
580.511835
 31
0.0
  0
LINE
  5
16a
100
AcDbEntity
  8
Layer_1
 62
7
100
AcDbLine
 10
154.165504
 20
580.511835
 30
0.0
 11
139.014996
 21
580.511835
 31
0.0
  0
LINE
  5
16b
100
AcDbEntity
  8
Layer_1
 62
7
100
AcDbLine
 10
139.014996
 20
580.511835
 30
0.0
 11
139.014996
 21
575.511619
 31
0.0
  0
LINE
  5
16c
100
AcDbEntity
  8
Layer_1
 62
7
100
AcDbLine
 10
139.014996
 20
575.511619
 30
0.0
 11
119.314925
 21
575.511619
 31
0.0
  0
LINE
  5
16d
100
AcDbEntity
  8
Layer_1
 62
7
100
AcDbLine
 10
119.314925
 20
575.511619
 30
0.0
 11
119.314925
 21
580.511835
 31
0.0
  0
LINE
  5
16e
100
AcDbEntity
  8
Layer_1
 62
7
100
AcDbLine
 10
119.314925
 20
580.511835
 30
0.0
 11
104.164418
 21
580.511835
 31
0.0
  0
LINE
  5
16f
100
AcDbEntity
  8
Layer_1
 62
7
100
AcDbLine
 10
104.164418
 20
580.511835
 30
0.0
 11
104.164418
 21
575.511619
 31
0.0
  0
LINE
  5
170
100
AcDbEntity
  8
Layer_1
 62
7
100
AcDbLine
 10
104.164418
 20
575.511619
 30
0.0
 11
92.863308
 21
555.578996
 31
0.0
  0
SPLINE
  5
171
100
AcDbEntity
  8
Layer_1
 62
7
100
AcDbSpline
 70
8
 71
3
 72
8
 73
4
 74
0
 40
0
 40
0
 40
0
 40
0
 40
1
 40
1
 40
1
 40
1
 10
92.863308
 20
555.578996
 30
0.0
 10
90.139299
 20
550.774473
 30
0.0
 10
84.036046
 20
549.088280
 30
0.0
 10
79.231579
 20
551.812289
 30
0.0
  0
SPLINE
  5
172
100
AcDbEntity
  8
Layer_1
 62
7
100
AcDbSpline
 70
8
 71
3
 72
8
 73
4
 74
0
 40
0
 40
0
 40
0
 40
0
 40
1
 40
1
 40
1
 40
1
 10
79.231579
 20
551.812289
 30
0.0
 10
77.658360
 20
552.704252
 30
0.0
 10
76.356328
 20
554.005777
 30
0.0
 10
75.464364
 20
555.578996
 30
0.0
  0
LINE
  5
173
100
AcDbEntity
  8
Layer_1
 62
7
100
AcDbLine
 10
75.464364
 20
555.578996
 30
0.0
 11
64.163255
 21
575.511619
 31
0.0
  0
LINE
  5
174
100
AcDbEntity
  8
Layer_1
 62
7
100
AcDbLine
 10
64.163255
 20
575.511619
 30
0.0
 11
64.163255
 21
580.511835
 31
0.0
  0
LINE
  5
175
100
AcDbEntity
  8
Layer_1
 62
7
100
AcDbLine
 10
64.163255
 20
580.511835
 30
0.0
 11
49.012775
 21
580.511835
 31
0.0
  0
LINE
  5
176
100
AcDbEntity
  8
Layer_1
 62
7
100
AcDbLine
 10
49.012775
 20
580.511835
 30
0.0
 11
49.012775
 21
575.511619
 31
0.0
  0
LINE
  5
177
100
AcDbEntity
  8
Layer_1
 62
7
100
AcDbLine
 10
49.012775
 20
575.511619
 30
0.0
 11
29.312165
 21
575.511619
 31
0.0
  0
LINE
  5
178
100
AcDbEntity
  8
Layer_1
 62
7
100
AcDbLine
 10
29.312165
 20
575.511619
 30
0.0
 11
29.312165
 21
580.511835
 31
0.0
  0
LINE
  5
179
100
AcDbEntity
  8
Layer_1
 62
7
100
AcDbLine
 10
29.312165
 20
580.511835
 30
0.0
 11
14.162166
 21
580.511835
 31
0.0
  0
LINE
  5
17a
100
AcDbEntity
  8
Layer_1
 62
7
100
AcDbLine
 10
14.162166
 20
580.511835
 30
0.0
 11
14.162166
 21
565.511723
 31
0.0
  0
LINE
  5
17b
100
AcDbEntity
  8
Layer_1
 62
7
100
AcDbLine
 10
14.162166
 20
565.511723
 30
0.0
 11
9.161950
 21
565.511723
 31
0.0
  0
LINE
  5
17c
100
AcDbEntity
  8
Layer_1
 62
7
100
AcDbLine
 10
9.161950
 20
565.511723
 30
0.0
 11
9.161950
 21
545.510865
 31
0.0
  0
LINE
  5
17d
100
AcDbEntity
  8
Layer_1
 62
7
100
AcDbLine
 10
9.161950
 20
545.510865
 30
0.0
 11
24.162060
 21
545.510865
 31
0.0
  0
LINE
  5
17e
100
AcDbEntity
  8
Layer_1
 62
7
100
AcDbLine
 10
24.162060
 20
545.510865
 30
0.0
 11
24.162060
 21
530.510748
 31
0.0
  0
LINE
  5
17f
100
AcDbEntity
  8
Layer_1
 62
7
100
AcDbLine
 10
24.162060
 20
530.510748
 30
0.0
 11
9.161950
 21
530.510748
 31
0.0
  0
LINE
  5
180
100
AcDbEntity
  8
Layer_1
 62
7
100
AcDbLine
 10
9.161950
 20
530.510748
 30
0.0
 11
9.161950
 21
510.509901
 31
0.0
  0
LINE
  5
181
100
AcDbEntity
  8
Layer_1
 62
7
100
AcDbLine
 10
9.161950
 20
510.509901
 30
0.0
 11
24.162060
 21
510.509901
 31
0.0
  0
LINE
  5
182
100
AcDbEntity
  8
Layer_1
 62
7
100
AcDbLine
 10
24.162060
 20
510.509901
 30
0.0
 11
24.162060
 21
501.422602
 31
0.0
  0
LINE
  5
183
100
AcDbEntity
  8
Layer_1
 62
7
100
AcDbLine
 10
24.162060
 20
501.422602
 30
0.0
 11
14.162166
 21
501.422602
 31
0.0
  0
LINE
  5
184
100
AcDbEntity
  8
Layer_1
 62
7
100
AcDbLine
 10
14.162166
 20
501.422602
 30
0.0
 11
14.162166
 21
495.509784
 31
0.0
  0
LINE
  5
185
100
AcDbEntity
  8
Layer_1
 62
7
100
AcDbLine
 10
14.162166
 20
495.509784
 30
0.0
 11
9.161950
 21
495.509784
 31
0.0
  0
LINE
  5
186
100
AcDbEntity
  8
Layer_1
 62
7
100
AcDbLine
 10
9.161950
 20
495.509784
 30
0.0
 11
9.161950
 21
475.509457
 31
0.0
  0
LINE
  5
187
100
AcDbEntity
  8
Layer_1
 62
7
100
AcDbLine
 10
9.161950
 20
475.509457
 30
0.0
 11
14.162166
 21
475.509457
 31
0.0
  0
LINE
  5
188
100
AcDbEntity
  8
Layer_1
 62
7
100
AcDbLine
 10
14.162166
 20
475.509457
 30
0.0
 11
14.162166
 21
460.508820
 31
0.0
  0
LINE
  5
189
100
AcDbEntity
  8
Layer_1
 62
7
100
AcDbLine
 10
14.162166
 20
460.508820
 30
0.0
 11
154.165504
 21
460.508820
 31
0.0
  0
SPLINE
  5
18a
100
AcDbEntity
  8
Layer_1
 62
7
100
AcDbSpline
 70
8
 71
3
 72
8
 73
4
 74
0
 40
0
 40
0
 40
0
 40
0
 40
1
 40
1
 40
1
 40
1
 10
84.163582
 20
518.010219
 30
0.0
 10
82.782810
 20
518.010219
 30
0.0
 10
81.663460
 20
519.129581
 30
0.0
 10
81.663460
 20
520.510327
 30
0.0
  0
SPLINE
  5
18b
100
AcDbEntity
  8
Layer_1
 62
7
100
AcDbSpline
 70
8
 71
3
 72
8
 73
4
 74
0
 40
0
 40
0
 40
0
 40
0
 40
1
 40
1
 40
1
 40
1
 10
81.663460
 20
520.510327
 30
0.0
 10
81.663460
 20
521.891074
 30
0.0
 10
82.782810
 20
523.010433
 30
0.0
 10
84.163582
 20
523.010433
 30
0.0
  0
SPLINE
  5
18c
100
AcDbEntity
  8
Layer_1
 62
7
100
AcDbSpline
 70
8
 71
3
 72
8
 73
4
 74
0
 40
0
 40
0
 40
0
 40
0
 40
1
 40
1
 40
1
 40
1
 10
84.163582
 20
523.010433
 30
0.0
 10
85.544326
 20
523.010433
 30
0.0
 10
86.663676
 20
521.891074
 30
0.0
 10
86.663676
 20
520.510327
 30
0.0
  0
SPLINE
  5
18d
100
AcDbEntity
  8
Layer_1
 62
7
100
AcDbSpline
 70
8
 71
3
 72
8
 73
4
 74
0
 40
0
 40
0
 40
0
 40
0
 40
1
 40
1
 40
1
 40
1
 10
86.663676
 20
520.510327
 30
0.0
 10
86.663676
 20
519.129581
 30
0.0
 10
85.544326
 20
518.010219
 30
0.0
 10
84.163582
 20
518.010219
 30
0.0
  0
LINE
  5
18e
100
AcDbEntity
  8
Layer_1
 62
7
100
AcDbLine
 10
84.163582
 20
518.010219
 30
0.0
 11
84.163582
 21
518.010219
 31
0.0
  0
LINE
  5
18f
100
AcDbEntity
  8
Layer_1
 62
7
100
AcDbLine
 10
50.662788
 20
526.100681
 30
0.0
 11
47.662963
 21
526.100681
 31
0.0
  0
SPLINE
  5
190
100
AcDbEntity
  8
Layer_1
 62
7
100
AcDbSpline
 70
8
 71
3
 72
8
 73
4
 74
0
 40
0
 40
0
 40
0
 40
0
 40
1
 40
1
 40
1
 40
1
 10
47.662963
 20
526.100681
 30
0.0
 10
46.642080
 20
526.100681
 30
0.0
 10
45.784887
 20
526.869664
 30
0.0
 10
45.674453
 20
527.884552
 30
0.0
  0
SPLINE
  5
191
100
AcDbEntity
  8
Layer_1
 62
7
100
AcDbSpline
 70
8
 71
3
 72
8
 73
4
 74
0
 40
0
 40
0
 40
0
 40
0
 40
1
 40
1
 40
1
 40
1
 10
45.674453
 20
527.884552
 30
0.0
 10
45.632825
 20
528.267149
 30
0.0
 10
45.375495
 20
528.591863
 30
0.0
 10
45.012473
 20
528.719644
 30
0.0
  0
SPLINE
  5
192
100
AcDbEntity
  8
Layer_1
 62
7
100
AcDbSpline
 70
8
 71
3
 72
8
 73
4
 74
0
 40
0
 40
0
 40
0
 40
0
 40
1
 40
1
 40
1
 40
1
 10
45.012473
 20
528.719644
 30
0.0
 10
38.500392
 20
531.011893
 30
0.0
 10
35.079351
 20
538.149225
 30
0.0
 10
37.371588
 20
544.661306
 30
0.0
  0
SPLINE
  5
193
100
AcDbEntity
  8
Layer_1
 62
7
100
AcDbSpline
 70
8
 71
3
 72
8
 73
4
 74
0
 40
0
 40
0
 40
0
 40
0
 40
1
 40
1
 40
1
 40
1
 10
37.371588
 20
544.661306
 30
0.0
 10
39.663882
 20
551.173394
 30
0.0
 10
46.801169
 20
554.594436
 30
0.0
 10
53.313278
 20
552.302199
 30
0.0
  0
SPLINE
  5
194
100
AcDbEntity
  8
Layer_1
 62
7
100
AcDbSpline
 70
8
 71
3
 72
8
 73
4
 74
0
 40
0
 40
0
 40
0
 40
0
 40
1
 40
1
 40
1
 40
1
 10
53.313278
 20
552.302199
 30
0.0
 10
59.825330
 20
550.009933
 30
0.0
 10
63.246428
 20
542.872609
 30
0.0
 10
60.954134
 20
536.360520
 30
0.0
  0
SPLINE
  5
195
100
AcDbEntity
  8
Layer_1
 62
7
100
AcDbSpline
 70
8
 71
3
 72
8
 73
4
 74
0
 40
0
 40
0
 40
0
 40
0
 40
1
 40
1
 40
1
 40
1
 10
60.954134
 20
536.360520
 30
0.0
 10
59.696467
 20
532.787519
 30
0.0
 10
56.886268
 20
529.977334
 30
0.0
 10
53.313278
 20
528.719644
 30
0.0
  0
SPLINE
  5
196
100
AcDbEntity
  8
Layer_1
 62
7
100
AcDbSpline
 70
8
 71
3
 72
8
 73
4
 74
0
 40
0
 40
0
 40
0
 40
0
 40
1
 40
1
 40
1
 40
1
 10
53.313278
 20
528.719644
 30
0.0
 10
52.950255
 20
528.591863
 30
0.0
 10
52.692925
 20
528.267149
 30
0.0
 10
52.651297
 20
527.884552
 30
0.0
  0
SPLINE
  5
197
100
AcDbEntity
  8
Layer_1
 62
7
100
AcDbSpline
 70
8
 71
3
 72
8
 73
4
 74
0
 40
0
 40
0
 40
0
 40
0
 40
1
 40
1
 40
1
 40
1
 10
52.651297
 20
527.884552
 30
0.0
 10
52.540864
 20
526.869664
 30
0.0
 10
51.683670
 20
526.100681
 30
0.0
 10
50.662788
 20
526.100681
 30
0.0
  0
LINE
  5
198
100
AcDbEntity
  8
Layer_1
 62
7
100
AcDbLine
 10
50.662788
 20
526.100681
 30
0.0
 11
50.662788
 21
526.100681
 31
0.0
  0
SPLINE
  5
199
100
AcDbEntity
  8
Layer_1
 62
7
100
AcDbSpline
 70
8
 71
3
 72
8
 73
4
 74
0
 40
0
 40
0
 40
0
 40
0
 40
1
 40
1
 40
1
 40
1
 10
114.164341
 20
561.011210
 30
0.0
 10
112.783569
 20
561.011210
 30
0.0
 10
111.664756
 20
562.130560
 30
0.0
 10
111.664756
 20
563.511332
 30
0.0
  0
SPLINE
  5
19a
100
AcDbEntity
  8
Layer_1
 62
7
100
AcDbSpline
 70
8
 71
3
 72
8
 73
4
 74
0
 40
0
 40
0
 40
0
 40
0
 40
1
 40
1
 40
1
 40
1
 10
111.664756
 20
563.511332
 30
0.0
 10
111.664756
 20
564.892076
 30
0.0
 10
112.783569
 20
566.011426
 30
0.0
 10
114.164341
 20
566.011426
 30
0.0
  0
SPLINE
  5
19b
100
AcDbEntity
  8
Layer_1
 62
7
100
AcDbSpline
 70
8
 71
3
 72
8
 73
4
 74
0
 40
0
 40
0
 40
0
 40
0
 40
1
 40
1
 40
1
 40
1
 10
114.164341
 20
566.011426
 30
0.0
 10
115.545057
 20
566.011426
 30
0.0
 10
116.664435
 20
564.892076
 30
0.0
 10
116.664435
 20
563.511332
 30
0.0
  0
SPLINE
  5
19c
100
AcDbEntity
  8
Layer_1
 62
7
100
AcDbSpline
 70
8
 71
3
 72
8
 73
4
 74
0
 40
0
 40
0
 40
0
 40
0
 40
1
 40
1
 40
1
 40
1
 10
116.664435
 20
563.511332
 30
0.0
 10
116.664435
 20
562.130560
 30
0.0
 10
115.545057
 20
561.011210
 30
0.0
 10
114.164341
 20
561.011210
 30
0.0
  0
LINE
  5
19d
100
AcDbEntity
  8
Layer_1
 62
7
100
AcDbLine
 10
114.164341
 20
561.011210
 30
0.0
 11
114.164341
 21
561.011210
 31
0.0
  0
SPLINE
  5
19e
100
AcDbEntity
  8
Layer_1
 62
7
100
AcDbSpline
 70
8
 71
3
 72
8
 73
4
 74
0
 40
0
 40
0
 40
0
 40
0
 40
1
 40
1
 40
1
 40
1
 10
54.162823
 20
561.011210
 30
0.0
 10
52.782079
 20
561.011210
 30
0.0
 10
51.662729
 20
562.130560
 30
0.0
 10
51.662729
 20
563.511332
 30
0.0
  0
SPLINE
  5
19f
100
AcDbEntity
  8
Layer_1
 62
7
100
AcDbSpline
 70
8
 71
3
 72
8
 73
4
 74
0
 40
0
 40
0
 40
0
 40
0
 40
1
 40
1
 40
1
 40
1
 10
51.662729
 20
563.511332
 30
0.0
 10
51.662729
 20
564.892076
 30
0.0
 10
52.782079
 20
566.011426
 30
0.0
 10
54.162823
 20
566.011426
 30
0.0
  0
SPLINE
  5
1a0
100
AcDbEntity
  8
Layer_1
 62
7
100
AcDbSpline
 70
8
 71
3
 72
8
 73
4
 74
0
 40
0
 40
0
 40
0
 40
0
 40
1
 40
1
 40
1
 40
1
 10
54.162823
 20
566.011426
 30
0.0
 10
55.543595
 20
566.011426
 30
0.0
 10
56.662945
 20
564.892076
 30
0.0
 10
56.662945
 20
563.511332
 30
0.0
  0
SPLINE
  5
1a1
100
AcDbEntity
  8
Layer_1
 62
7
100
AcDbSpline
 70
8
 71
3
 72
8
 73
4
 74
0
 40
0
 40
0
 40
0
 40
0
 40
1
 40
1
 40
1
 40
1
 10
56.662945
 20
563.511332
 30
0.0
 10
56.662945
 20
562.130560
 30
0.0
 10
55.543595
 20
561.011210
 30
0.0
 10
54.162823
 20
561.011210
 30
0.0
  0
LINE
  5
1a2
100
AcDbEntity
  8
Layer_1
 62
7
100
AcDbLine
 10
54.162823
 20
561.011210
 30
0.0
 11
54.162823
 21
561.011210
 31
0.0
  0
LINE
  5
1a3
100
AcDbEntity
  8
Layer_1
 62
7
100
AcDbLine
 10
31.662399
 20
567.511606
 30
0.0
 11
19.662083
 21
567.511606
 31
0.0
  0
SPLINE
  5
1a4
100
AcDbEntity
  8
Layer_1
 62
7
100
AcDbSpline
 70
8
 71
3
 72
8
 73
4
 74
0
 40
0
 40
0
 40
0
 40
0
 40
1
 40
1
 40
1
 40
1
 10
19.662083
 20
567.511606
 30
0.0
 10
18.281369
 20
567.511606
 30
0.0
 10
17.161990
 20
568.630956
 30
0.0
 10
17.161990
 20
570.011700
 30
0.0
  0
SPLINE
  5
1a5
100
AcDbEntity
  8
Layer_1
 62
7
100
AcDbSpline
 70
8
 71
3
 72
8
 73
4
 74
0
 40
0
 40
0
 40
0
 40
0
 40
1
 40
1
 40
1
 40
1
 10
17.161990
 20
570.011700
 30
0.0
 10
17.161990
 20
571.392444
 30
0.0
 10
18.281369
 20
572.511794
 30
0.0
 10
19.662083
 20
572.511794
 30
0.0
  0
LINE
  5
1a6
100
AcDbEntity
  8
Layer_1
 62
7
100
AcDbLine
 10
19.662083
 20
572.511794
 30
0.0
 11
31.662399
 21
572.511794
 31
0.0
  0
SPLINE
  5
1a7
100
AcDbEntity
  8
Layer_1
 62
7
100
AcDbSpline
 70
8
 71
3
 72
8
 73
4
 74
0
 40
0
 40
0
 40
0
 40
0
 40
1
 40
1
 40
1
 40
1
 10
31.662399
 20
572.511794
 30
0.0
 10
33.043171
 20
572.511794
 30
0.0
 10
34.162496
 20
571.392444
 30
0.0
 10
34.162496
 20
570.011700
 30
0.0
  0
SPLINE
  5
1a8
100
AcDbEntity
  8
Layer_1
 62
7
100
AcDbSpline
 70
8
 71
3
 72
8
 73
4
 74
0
 40
0
 40
0
 40
0
 40
0
 40
1
 40
1
 40
1
 40
1
 10
34.162496
 20
570.011700
 30
0.0
 10
34.162496
 20
568.630956
 30
0.0
 10
33.043171
 20
567.511606
 30
0.0
 10
31.662399
 20
567.511606
 30
0.0
  0
LINE
  5
1a9
100
AcDbEntity
  8
Layer_1
 62
7
100
AcDbLine
 10
31.662399
 20
567.511606
 30
0.0
 11
31.662399
 21
567.511606
 31
0.0
  0
LINE
  5
1aa
100
AcDbEntity
  8
Layer_1
 62
7
100
AcDbLine
 10
418.832181
 20
432.243361
 30
0.0
 11
483.180571
 21
496.591751
 31
0.0
  0
LINE
  5
1ab
100
AcDbEntity
  8
Layer_1
 62
7
100
AcDbLine
 10
483.180571
 20
496.591751
 30
0.0
 11
483.180571
 21
497.829239
 31
0.0
  0
LINE
  5
1ac
100
AcDbEntity
  8
Layer_1
 62
7
100
AcDbLine
 10
483.180571
 20
497.829239
 30
0.0
 11
486.180650
 21
497.829239
 31
0.0
  0
LINE
  5
1ad
100
AcDbEntity
  8
Layer_1
 62
7
100
AcDbLine
 10
486.180650
 20
497.829239
 30
0.0
 11
486.180650
 21
507.245330
 31
0.0
  0
LINE
  5
1ae
100
AcDbEntity
  8
Layer_1
 62
7
100
AcDbLine
 10
486.180650
 20
507.245330
 30
0.0
 11
496.834229
 21
507.245330
 31
0.0
  0
LINE
  5
1af
100
AcDbEntity
  8
Layer_1
 62
7
100
AcDbLine
 10
496.834229
 20
507.245330
 30
0.0
 11
496.834229
 21
496.095040
 31
0.0
  0
LINE
  5
1b0
100
AcDbEntity
  8
Layer_1
 62
7
100
AcDbLine
 10
496.834229
 20
496.095040
 30
0.0
 11
491.834097
 21
496.095040
 31
0.0
  0
LINE
  5
1b1
100
AcDbEntity
  8
Layer_1
 62
7
100
AcDbLine
 10
491.834097
 20
496.095040
 30
0.0
 11
491.834097
 21
489.094856
 31
0.0
  0
LINE
  5
1b2
100
AcDbEntity
  8
Layer_1
 62
7
100
AcDbLine
 10
491.834097
 20
489.094856
 30
0.0
 11
481.683834
 21
478.944592
 31
0.0
  0
LINE
  5
1b3
100
AcDbEntity
  8
Layer_1
 62
7
100
AcDbLine
 10
481.683834
 20
478.944592
 30
0.0
 11
481.683834
 21
429.243282
 31
0.0
  0
LINE
  5
1b4
100
AcDbEntity
  8
Layer_1
 62
7
100
AcDbLine
 10
481.683834
 20
429.243282
 30
0.0
 11
461.983311
 21
429.243282
 31
0.0
  0
LINE
  5
1b5
100
AcDbEntity
  8
Layer_1
 62
7
100
AcDbLine
 10
461.983311
 20
429.243282
 30
0.0
 11
461.983311
 21
424.243151
 31
0.0
  0
LINE
  5
1b6
100
AcDbEntity
  8
Layer_1
 62
7
100
AcDbLine
 10
461.983311
 20
424.243151
 30
0.0
 11
446.682915
 21
424.243151
 31
0.0
  0
LINE
  5
1b7
100
AcDbEntity
  8
Layer_1
 62
7
100
AcDbLine
 10
446.682915
 20
424.243151
 30
0.0
 11
446.682915
 21
429.243282
 31
0.0
  0
LINE
  5
1b8
100
AcDbEntity
  8
Layer_1
 62
7
100
AcDbLine
 10
446.682915
 20
429.243282
 30
0.0
 11
426.982392
 21
429.243282
 31
0.0
  0
LINE
  5
1b9
100
AcDbEntity
  8
Layer_1
 62
7
100
AcDbLine
 10
426.982392
 20
429.243282
 30
0.0
 11
426.982392
 21
424.243151
 31
0.0
  0
LINE
  5
1ba
100
AcDbEntity
  8
Layer_1
 62
7
100
AcDbLine
 10
426.982392
 20
424.243151
 30
0.0
 11
417.594693
 21
424.243151
 31
0.0
  0
LINE
  5
1bb
100
AcDbEntity
  8
Layer_1
 62
7
100
AcDbLine
 10
417.594693
 20
424.243151
 30
0.0
 11
417.594693
 21
432.243361
 31
0.0
  0
LINE
  5
1bc
100
AcDbEntity
  8
Layer_1
 62
7
100
AcDbLine
 10
417.594693
 20
432.243361
 30
0.0
 11
418.832181
 21
432.243361
 31
0.0
  0
LINE
  5
1bd
100
AcDbEntity
  8
Layer_1
 62
7
100
AcDbLine
 10
368.410951
 20
339.360821
 30
0.0
 11
368.410951
 21
345.360951
 31
0.0
  0
LINE
  5
1be
100
AcDbEntity
  8
Layer_1
 62
7
100
AcDbLine
 10
368.410951
 20
345.360951
 30
0.0
 11
378.561214
 21
345.360951
 31
0.0
  0
LINE
  5
1bf
100
AcDbEntity
  8
Layer_1
 62
7
100
AcDbLine
 10
378.561214
 20
345.360951
 30
0.0
 11
389.168085
 21
355.967851
 31
0.0
  0
LINE
  5
1c0
100
AcDbEntity
  8
Layer_1
 62
7
100
AcDbLine
 10
389.168085
 20
355.967851
 30
0.0
 11
389.168085
 21
366.118114
 31
0.0
  0
LINE
  5
1c1
100
AcDbEntity
  8
Layer_1
 62
7
100
AcDbLine
 10
389.168085
 20
366.118114
 30
0.0
 11
436.909446
 21
413.859504
 31
0.0
  0
LINE
  5
1c2
100
AcDbEntity
  8
Layer_1
 62
7
100
AcDbLine
 10
436.909446
 20
413.859504
 30
0.0
 11
436.909446
 21
417.362869
 31
0.0
  0
LINE
  5
1c3
100
AcDbEntity
  8
Layer_1
 62
7
100
AcDbLine
 10
436.909446
 20
417.362869
 30
0.0
 11
453.563183
 21
417.362869
 31
0.0
  0
LINE
  5
1c4
100
AcDbEntity
  8
Layer_1
 62
7
100
AcDbLine
 10
453.563183
 20
417.362869
 30
0.0
 11
453.563183
 21
406.212580
 31
0.0
  0
LINE
  5
1c5
100
AcDbEntity
  8
Layer_1
 62
7
100
AcDbLine
 10
453.563183
 20
406.212580
 30
0.0
 11
448.563051
 21
406.212580
 31
0.0
  0
LINE
  5
1c6
100
AcDbEntity
  8
Layer_1
 62
7
100
AcDbLine
 10
448.563051
 20
406.212580
 30
0.0
 11
448.563051
 21
399.212396
 31
0.0
  0
LINE
  5
1c7
100
AcDbEntity
  8
Layer_1
 62
7
100
AcDbLine
 10
448.563051
 20
399.212396
 30
0.0
 11
438.412788
 21
389.062132
 31
0.0
  0
LINE
  5
1c8
100
AcDbEntity
  8
Layer_1
 62
7
100
AcDbLine
 10
438.412788
 20
389.062132
 30
0.0
 11
438.412788
 21
339.360821
 31
0.0
  0
LINE
  5
1c9
100
AcDbEntity
  8
Layer_1
 62
7
100
AcDbLine
 10
438.412788
 20
339.360821
 30
0.0
 11
418.712265
 21
339.360821
 31
0.0
  0
LINE
  5
1ca
100
AcDbEntity
  8
Layer_1
 62
7
100
AcDbLine
 10
418.712265
 20
339.360821
 30
0.0
 11
418.712265
 21
334.360690
 31
0.0
  0
LINE
  5
1cb
100
AcDbEntity
  8
Layer_1
 62
7
100
AcDbLine
 10
418.712265
 20
334.360690
 30
0.0
 11
403.411869
 21
334.360690
 31
0.0
  0
LINE
  5
1cc
100
AcDbEntity
  8
Layer_1
 62
7
100
AcDbLine
 10
403.411869
 20
334.360690
 30
0.0
 11
403.411869
 21
339.360821
 31
0.0
  0
LINE
  5
1cd
100
AcDbEntity
  8
Layer_1
 62
7
100
AcDbLine
 10
403.411869
 20
339.360821
 30
0.0
 11
383.711346
 21
339.360821
 31
0.0
  0
LINE
  5
1ce
100
AcDbEntity
  8
Layer_1
 62
7
100
AcDbLine
 10
383.711346
 20
339.360821
 30
0.0
 11
383.711346
 21
334.360690
 31
0.0
  0
LINE
  5
1cf
100
AcDbEntity
  8
Layer_1
 62
7
100
AcDbLine
 10
383.711346
 20
334.360690
 30
0.0
 11
374.323676
 21
334.360690
 31
0.0
  0
LINE
  5
1d0
100
AcDbEntity
  8
Layer_1
 62
7
100
AcDbLine
 10
374.323676
 20
334.360690
 30
0.0
 11
374.323676
 21
339.360821
 31
0.0
  0
LINE
  5
1d1
100
AcDbEntity
  8
Layer_1
 62
7
100
AcDbLine
 10
374.323676
 20
339.360821
 30
0.0
 11
368.410951
 21
339.360821
 31
0.0
  0
LINE
  5
1d2
100
AcDbEntity
  8
Layer_1
 62
7
100
AcDbLine
 10
165.312577
 20
495.919444
 30
0.0
 11
165.312577
 21
488.919260
 31
0.0
  0
LINE
  5
1d3
100
AcDbEntity
  8
Layer_1
 62
7
100
AcDbLine
 10
165.312577
 20
488.919260
 30
0.0
 11
175.462840
 21
478.768997
 31
0.0
  0
LINE
  5
1d4
100
AcDbEntity
  8
Layer_1
 62
7
100
AcDbLine
 10
175.462840
 20
478.768997
 30
0.0
 11
175.462840
 21
429.067686
 31
0.0
  0
LINE
  5
1d5
100
AcDbEntity
  8
Layer_1
 62
7
100
AcDbLine
 10
175.462840
 20
429.067686
 30
0.0
 11
195.163363
 21
429.067686
 31
0.0
  0
LINE
  5
1d6
100
AcDbEntity
  8
Layer_1
 62
7
100
AcDbLine
 10
195.163363
 20
429.067686
 30
0.0
 11
195.163363
 21
424.067555
 31
0.0
  0
LINE
  5
1d7
100
AcDbEntity
  8
Layer_1
 62
7
100
AcDbLine
 10
195.163363
 20
424.067555
 30
0.0
 11
210.463759
 21
424.067555
 31
0.0
  0
LINE
  5
1d8
100
AcDbEntity
  8
Layer_1
 62
7
100
AcDbLine
 10
210.463759
 20
424.067555
 30
0.0
 11
210.463759
 21
429.067686
 31
0.0
  0
LINE
  5
1d9
100
AcDbEntity
  8
Layer_1
 62
7
100
AcDbLine
 10
210.463759
 20
429.067686
 30
0.0
 11
230.164276
 21
429.067686
 31
0.0
  0
LINE
  5
1da
100
AcDbEntity
  8
Layer_1
 62
7
100
AcDbLine
 10
230.164276
 20
429.067686
 30
0.0
 11
230.164276
 21
424.067555
 31
0.0
  0
LINE
  5
1db
100
AcDbEntity
  8
Layer_1
 62
7
100
AcDbLine
 10
230.164276
 20
424.067555
 30
0.0
 11
239.551961
 21
424.067555
 31
0.0
  0
LINE
  5
1dc
100
AcDbEntity
  8
Layer_1
 62
7
100
AcDbLine
 10
239.551961
 20
424.067555
 30
0.0
 11
239.551961
 21
432.067765
 31
0.0
  0
LINE
  5
1dd
100
AcDbEntity
  8
Layer_1
 62
7
100
AcDbLine
 10
239.551961
 20
432.067765
 30
0.0
 11
238.314490
 21
432.067765
 31
0.0
  0
LINE
  5
1de
100
AcDbEntity
  8
Layer_1
 62
7
100
AcDbLine
 10
238.314490
 20
432.067765
 30
0.0
 11
173.966103
 21
496.416183
 31
0.0
  0
LINE
  5
1df
100
AcDbEntity
  8
Layer_1
 62
7
100
AcDbLine
 10
173.966103
 20
496.416183
 30
0.0
 11
173.966103
 21
497.653643
 31
0.0
  0
LINE
  5
1e0
100
AcDbEntity
  8
Layer_1
 62
7
100
AcDbLine
 10
173.966103
 20
497.653643
 30
0.0
 11
170.966024
 21
497.653643
 31
0.0
  0
LINE
  5
1e1
100
AcDbEntity
  8
Layer_1
 62
7
100
AcDbLine
 10
170.966024
 20
497.653643
 30
0.0
 11
170.966024
 21
507.069762
 31
0.0
  0
LINE
  5
1e2
100
AcDbEntity
  8
Layer_1
 62
7
100
AcDbLine
 10
170.966024
 20
507.069762
 30
0.0
 11
160.312445
 21
507.069762
 31
0.0
  0
LINE
  5
1e3
100
AcDbEntity
  8
Layer_1
 62
7
100
AcDbLine
 10
160.312445
 20
507.069762
 30
0.0
 11
160.312445
 21
495.919444
 31
0.0
  0
LINE
  5
1e4
100
AcDbEntity
  8
Layer_1
 62
7
100
AcDbLine
 10
160.312445
 20
495.919444
 30
0.0
 11
165.312577
 21
495.919444
 31
0.0
  0
LINE
  5
1e5
100
AcDbEntity
  8
Layer_1
 62
7
100
AcDbLine
 10
333.541209
 20
22.924163
 30
0.0
 11
487.794340
 21
290.098550
 31
0.0
  0
LINE
  5
1e6
100
AcDbEntity
  8
Layer_1
 62
7
100
AcDbLine
 10
487.794340
 20
290.098550
 30
0.0
 11
471.749329
 21
317.889616
 31
0.0
  0
LINE
  5
1e7
100
AcDbEntity
  8
Layer_1
 62
7
100
AcDbLine
 10
471.749329
 20
317.889616
 30
0.0
 11
163.243095
 21
317.889616
 31
0.0
  0
LINE
  5
1e8
100
AcDbEntity
  8
Layer_1
 62
7
100
AcDbLine
 10
163.243095
 20
317.889616
 30
0.0
 11
147.197547
 21
290.098550
 31
0.0
  0
LINE
  5
1e9
100
AcDbEntity
  8
Layer_1
 62
7
100
AcDbLine
 10
147.197547
 20
290.098550
 30
0.0
 11
301.451187
 21
22.924163
 31
0.0
  0
LINE
  5
1ea
100
AcDbEntity
  8
Layer_1
 62
7
100
AcDbLine
 10
301.451187
 20
22.924163
 30
0.0
 11
333.541209
 21
22.924163
 31
0.0
  0
SPLINE
  5
1eb
100
AcDbEntity
  8
Layer_1
 62
7
100
AcDbSpline
 70
8
 71
3
 72
8
 73
4
 74
0
 40
0
 40
0
 40
0
 40
0
 40
1
 40
1
 40
1
 40
1
 10
326.495136
 20
35.616930
 30
0.0
 10
325.114561
 20
35.616930
 30
0.0
 10
323.995550
 20
36.735992
 30
0.0
 10
323.995550
 20
38.116518
 30
0.0
  0
SPLINE
  5
1ec
100
AcDbEntity
  8
Layer_1
 62
7
100
AcDbSpline
 70
8
 71
3
 72
8
 73
4
 74
0
 40
0
 40
0
 40
0
 40
0
 40
1
 40
1
 40
1
 40
1
 10
323.995550
 20
38.116518
 30
0.0
 10
323.995550
 20
39.497079
 30
0.0
 10
325.114561
 20
40.616107
 30
0.0
 10
326.495136
 20
40.616107
 30
0.0
  0
SPLINE
  5
1ed
100
AcDbEntity
  8
Layer_1
 62
7
100
AcDbSpline
 70
8
 71
3
 72
8
 73
4
 74
0
 40
0
 40
0
 40
0
 40
0
 40
1
 40
1
 40
1
 40
1
 10
326.495136
 20
40.616107
 30
0.0
 10
327.875654
 20
40.616107
 30
0.0
 10
328.994722
 20
39.497079
 30
0.0
 10
328.994722
 20
38.116518
 30
0.0
  0
SPLINE
  5
1ee
100
AcDbEntity
  8
Layer_1
 62
7
100
AcDbSpline
 70
8
 71
3
 72
8
 73
4
 74
0
 40
0
 40
0
 40
0
 40
0
 40
1
 40
1
 40
1
 40
1
 10
328.994722
 20
38.116518
 30
0.0
 10
328.994722
 20
36.735992
 30
0.0
 10
327.875654
 20
35.616930
 30
0.0
 10
326.495136
 20
35.616930
 30
0.0
  0
LINE
  5
1ef
100
AcDbEntity
  8
Layer_1
 62
7
100
AcDbLine
 10
326.495136
 20
35.616930
 30
0.0
 11
326.495136
 21
35.616930
 31
0.0
  0
SPLINE
  5
1f0
100
AcDbEntity
  8
Layer_1
 62
7
100
AcDbSpline
 70
8
 71
3
 72
8
 73
4
 74
0
 40
0
 40
0
 40
0
 40
0
 40
1
 40
1
 40
1
 40
1
 10
308.497260
 20
35.616930
 30
0.0
 10
307.116713
 20
35.616930
 30
0.0
 10
305.997674
 20
36.735992
 30
0.0
 10
305.997674
 20
38.116518
 30
0.0
  0
SPLINE
  5
1f1
100
AcDbEntity
  8
Layer_1
 62
7
100
AcDbSpline
 70
8
 71
3
 72
8
 73
4
 74
0
 40
0
 40
0
 40
0
 40
0
 40
1
 40
1
 40
1
 40
1
 10
305.997674
 20
38.116518
 30
0.0
 10
305.997674
 20
39.497079
 30
0.0
 10
307.116713
 20
40.616107
 30
0.0
 10
308.497260
 20
40.616107
 30
0.0
  0
SPLINE
  5
1f2
100
AcDbEntity
  8
Layer_1
 62
7
100
AcDbSpline
 70
8
 71
3
 72
8
 73
4
 74
0
 40
0
 40
0
 40
0
 40
0
 40
1
 40
1
 40
1
 40
1
 10
308.497260
 20
40.616107
 30
0.0
 10
309.877834
 20
40.616107
 30
0.0
 10
310.996846
 20
39.497079
 30
0.0
 10
310.996846
 20
38.116518
 30
0.0
  0
SPLINE
  5
1f3
100
AcDbEntity
  8
Layer_1
 62
7
100
AcDbSpline
 70
8
 71
3
 72
8
 73
4
 74
0
 40
0
 40
0
 40
0
 40
0
 40
1
 40
1
 40
1
 40
1
 10
310.996846
 20
38.116518
 30
0.0
 10
310.996846
 20
36.735992
 30
0.0
 10
309.877834
 20
35.616930
 30
0.0
 10
308.497260
 20
35.616930
 30
0.0
  0
LINE
  5
1f4
100
AcDbEntity
  8
Layer_1
 62
7
100
AcDbLine
 10
308.497260
 20
35.616930
 30
0.0
 11
308.497260
 21
35.616930
 31
0.0
  0
LINE
  5
1f5
100
AcDbEntity
  8
Layer_1
 62
7
100
AcDbLine
 10
337.009748
 20
56.428578
 30
0.0
 11
297.982139
 21
56.428578
 31
0.0
  0
SPLINE
  5
1f6
100
AcDbEntity
  8
Layer_1
 62
7
100
AcDbSpline
 70
8
 71
3
 72
8
 73
4
 74
0
 40
0
 40
0
 40
0
 40
0
 40
1
 40
1
 40
1
 40
1
 10
297.982139
 20
56.428578
 30
0.0
 10
296.601593
 20
56.428578
 30
0.0
 10
295.482553
 20
57.548157
 30
0.0
 10
295.482553
 20
58.928683
 30
0.0
  0
SPLINE
  5
1f7
100
AcDbEntity
  8
Layer_1
 62
7
100
AcDbSpline
 70
8
 71
3
 72
8
 73
4
 74
0
 40
0
 40
0
 40
0
 40
0
 40
1
 40
1
 40
1
 40
1
 10
295.482553
 20
58.928683
 30
0.0
 10
295.482553
 20
60.309244
 30
0.0
 10
296.601593
 20
61.428272
 30
0.0
 10
297.982139
 20
61.428272
 30
0.0
  0
LINE
  5
1f8
100
AcDbEntity
  8
Layer_1
 62
7
100
AcDbLine
 10
297.982139
 20
61.428272
 30
0.0
 11
337.009748
 21
61.428272
 31
0.0
  0
SPLINE
  5
1f9
100
AcDbEntity
  8
Layer_1
 62
7
100
AcDbSpline
 70
8
 71
3
 72
8
 73
4
 74
0
 40
0
 40
0
 40
0
 40
0
 40
1
 40
1
 40
1
 40
1
 10
337.009748
 20
61.428272
 30
0.0
 10
338.390295
 20
61.428272
 30
0.0
 10
339.509842
 20
60.309244
 30
0.0
 10
339.509842
 20
58.928683
 30
0.0
  0
SPLINE
  5
1fa
100
AcDbEntity
  8
Layer_1
 62
7
100
AcDbSpline
 70
8
 71
3
 72
8
 73
4
 74
0
 40
0
 40
0
 40
0
 40
0
 40
1
 40
1
 40
1
 40
1
 10
339.509842
 20
58.928683
 30
0.0
 10
339.509842
 20
57.548157
 30
0.0
 10
338.390295
 20
56.428578
 30
0.0
 10
337.009748
 20
56.428578
 30
0.0
  0
LINE
  5
1fb
100
AcDbEntity
  8
Layer_1
 62
7
100
AcDbLine
 10
337.009748
 20
56.428578
 30
0.0
 11
337.009748
 21
56.428578
 31
0.0
  0
LINE
  5
1fc
100
AcDbEntity
  8
Layer_1
 62
7
100
AcDbLine
 10
342.783027
 20
66.427449
 30
0.0
 11
292.209368
 21
66.427449
 31
0.0
  0
SPLINE
  5
1fd
100
AcDbEntity
  8
Layer_1
 62
7
100
AcDbSpline
 70
8
 71
3
 72
8
 73
4
 74
0
 40
0
 40
0
 40
0
 40
0
 40
1
 40
1
 40
1
 40
1
 10
292.209368
 20
66.427449
 30
0.0
 10
290.828850
 20
66.427449
 30
0.0
 10
289.709782
 20
67.546997
 30
0.0
 10
289.709782
 20
68.927557
 30
0.0
  0
SPLINE
  5
1fe
100
AcDbEntity
  8
Layer_1
 62
7
100
AcDbSpline
 70
8
 71
3
 72
8
 73
4
 74
0
 40
0
 40
0
 40
0
 40
0
 40
1
 40
1
 40
1
 40
1
 10
289.709782
 20
68.927557
 30
0.0
 10
289.709782
 20
70.308081
 30
0.0
 10
290.828850
 20
71.427146
 30
0.0
 10
292.209368
 20
71.427146
 30
0.0
  0
LINE
  5
1ff
100
AcDbEntity
  8
Layer_1
 62
7
100
AcDbLine
 10
292.209368
 20
71.427146
 30
0.0
 11
342.783027
 21
71.427146
 31
0.0
  0
SPLINE
  5
200
100
AcDbEntity
  8
Layer_1
 62
7
100
AcDbSpline
 70
8
 71
3
 72
8
 73
4
 74
0
 40
0
 40
0
 40
0
 40
0
 40
1
 40
1
 40
1
 40
1
 10
342.783027
 20
71.427146
 30
0.0
 10
344.163602
 20
71.427146
 30
0.0
 10
345.282613
 20
70.308081
 30
0.0
 10
345.282613
 20
68.927557
 30
0.0
  0
SPLINE
  5
201
100
AcDbEntity
  8
Layer_1
 62
7
100
AcDbSpline
 70
8
 71
3
 72
8
 73
4
 74
0
 40
0
 40
0
 40
0
 40
0
 40
1
 40
1
 40
1
 40
1
 10
345.282613
 20
68.927557
 30
0.0
 10
345.282613
 20
67.546997
 30
0.0
 10
344.163602
 20
66.427449
 30
0.0
 10
342.783027
 20
66.427449
 30
0.0
  0
LINE
  5
202
100
AcDbEntity
  8
Layer_1
 62
7
100
AcDbLine
 10
342.783027
 20
66.427449
 30
0.0
 11
342.783027
 21
66.427449
 31
0.0
  0
LINE
  5
203
100
AcDbEntity
  8
Layer_1
 62
7
100
AcDbLine
 10
348.555798
 20
76.426323
 30
0.0
 11
286.436597
 21
76.426323
 31
0.0
  0
SPLINE
  5
204
100
AcDbEntity
  8
Layer_1
 62
7
100
AcDbSpline
 70
8
 71
3
 72
8
 73
4
 74
0
 40
0
 40
0
 40
0
 40
0
 40
1
 40
1
 40
1
 40
1
 10
286.436597
 20
76.426323
 30
0.0
 10
285.056051
 20
76.426323
 30
0.0
 10
283.937011
 20
77.545905
 30
0.0
 10
283.937011
 20
78.926429
 30
0.0
  0
SPLINE
  5
205
100
AcDbEntity
  8
Layer_1
 62
7
100
AcDbSpline
 70
8
 71
3
 72
8
 73
4
 74
0
 40
0
 40
0
 40
0
 40
0
 40
1
 40
1
 40
1
 40
1
 10
283.937011
 20
78.926429
 30
0.0
 10
283.937011
 20
80.306989
 30
0.0
 10
285.056051
 20
81.426017
 30
0.0
 10
286.436597
 20
81.426017
 30
0.0
  0
LINE
  5
206
100
AcDbEntity
  8
Layer_1
 62
7
100
AcDbLine
 10
286.436597
 20
81.426017
 30
0.0
 11
348.555798
 21
81.426017
 31
0.0
  0
SPLINE
  5
207
100
AcDbEntity
  8
Layer_1
 62
7
100
AcDbSpline
 70
8
 71
3
 72
8
 73
4
 74
0
 40
0
 40
0
 40
0
 40
0
 40
1
 40
1
 40
1
 40
1
 10
348.555798
 20
81.426017
 30
0.0
 10
349.936317
 20
81.426017
 30
0.0
 10
351.055384
 20
80.306989
 30
0.0
 10
351.055384
 20
78.926429
 30
0.0
  0
SPLINE
  5
208
100
AcDbEntity
  8
Layer_1
 62
7
100
AcDbSpline
 70
8
 71
3
 72
8
 73
4
 74
0
 40
0
 40
0
 40
0
 40
0
 40
1
 40
1
 40
1
 40
1
 10
351.055384
 20
78.926429
 30
0.0
 10
351.055384
 20
77.545905
 30
0.0
 10
349.936317
 20
76.426323
 30
0.0
 10
348.555798
 20
76.426323
 30
0.0
  0
LINE
  5
209
100
AcDbEntity
  8
Layer_1
 62
7
100
AcDbLine
 10
348.555798
 20
76.426323
 30
0.0
 11
348.555798
 21
76.426323
 31
0.0
  0
LINE
  5
20a
100
AcDbEntity
  8
Layer_1
 62
7
100
AcDbLine
 10
354.328569
 20
86.425195
 30
0.0
 11
280.663821
 21
86.425195
 31
0.0
  0
SPLINE
  5
20b
100
AcDbEntity
  8
Layer_1
 62
7
100
AcDbSpline
 70
8
 71
3
 72
8
 73
4
 74
0
 40
0
 40
0
 40
0
 40
0
 40
1
 40
1
 40
1
 40
1
 10
280.663821
 20
86.425195
 30
0.0
 10
279.283263
 20
86.425195
 30
0.0
 10
278.164232
 20
87.544739
 30
0.0
 10
278.164232
 20
88.925302
 30
0.0
  0
SPLINE
  5
20c
100
AcDbEntity
  8
Layer_1
 62
7
100
AcDbSpline
 70
8
 71
3
 72
8
 73
4
 74
0
 40
0
 40
0
 40
0
 40
0
 40
1
 40
1
 40
1
 40
1
 10
278.164232
 20
88.925302
 30
0.0
 10
278.164232
 20
90.305826
 30
0.0
 10
279.283263
 20
91.424891
 30
0.0
 10
280.663821
 20
91.424891
 30
0.0
  0
LINE
  5
20d
100
AcDbEntity
  8
Layer_1
 62
7
100
AcDbLine
 10
280.663821
 20
91.424891
 30
0.0
 11
354.328569
 21
91.424891
 31
0.0
  0
SPLINE
  5
20e
100
AcDbEntity
  8
Layer_1
 62
7
100
AcDbSpline
 70
8
 71
3
 72
8
 73
4
 74
0
 40
0
 40
0
 40
0
 40
0
 40
1
 40
1
 40
1
 40
1
 10
354.328569
 20
91.424891
 30
0.0
 10
355.709116
 20
91.424891
 30
0.0
 10
356.828155
 20
90.305826
 30
0.0
 10
356.828155
 20
88.925302
 30
0.0
  0
SPLINE
  5
20f
100
AcDbEntity
  8
Layer_1
 62
7
100
AcDbSpline
 70
8
 71
3
 72
8
 73
4
 74
0
 40
0
 40
0
 40
0
 40
0
 40
1
 40
1
 40
1
 40
1
 10
356.828155
 20
88.925302
 30
0.0
 10
356.828155
 20
87.544739
 30
0.0
 10
355.709116
 20
86.425195
 30
0.0
 10
354.328569
 20
86.425195
 30
0.0
  0
LINE
  5
210
100
AcDbEntity
  8
Layer_1
 62
7
100
AcDbLine
 10
354.328569
 20
86.425195
 30
0.0
 11
354.328569
 21
86.425195
 31
0.0
  0
SPLINE
  5
211
100
AcDbEntity
  8
Layer_1
 62
7
100
AcDbSpline
 70
8
 71
3
 72
8
 73
4
 74
0
 40
0
 40
0
 40
0
 40
0
 40
1
 40
1
 40
1
 40
1
 10
278.659811
 20
113.893286
 30
0.0
 10
271.757079
 20
113.893286
 30
0.0
 10
266.161346
 20
119.488982
 30
0.0
 10
266.161346
 20
126.391748
 30
0.0
  0
SPLINE
  5
212
100
AcDbEntity
  8
Layer_1
 62
7
100
AcDbSpline
 70
8
 71
3
 72
8
 73
4
 74
0
 40
0
 40
0
 40
0
 40
0
 40
1
 40
1
 40
1
 40
1
 10
266.161346
 20
126.391748
 30
0.0
 10
266.161346
 20
133.294481
 30
0.0
 10
271.757079
 20
138.890211
 30
0.0
 10
278.659811
 20
138.890211
 30
0.0
  0
SPLINE
  5
213
100
AcDbEntity
  8
Layer_1
 62
7
100
AcDbSpline
 70
8
 71
3
 72
8
 73
4
 74
0
 40
0
 40
0
 40
0
 40
0
 40
1
 40
1
 40
1
 40
1
 10
278.659811
 20
138.890211
 30
0.0
 10
285.562583
 20
138.890211
 30
0.0
 10
291.158260
 20
133.294481
 30
0.0
 10
291.158260
 20
126.391748
 30
0.0
  0
SPLINE
  5
214
100
AcDbEntity
  8
Layer_1
 62
7
100
AcDbSpline
 70
8
 71
3
 72
8
 73
4
 74
0
 40
0
 40
0
 40
0
 40
0
 40
1
 40
1
 40
1
 40
1
 10
291.158260
 20
126.391748
 30
0.0
 10
291.158260
 20
119.488982
 30
0.0
 10
285.562583
 20
113.893286
 30
0.0
 10
278.659811
 20
113.893286
 30
0.0
  0
LINE
  5
215
100
AcDbEntity
  8
Layer_1
 62
7
100
AcDbLine
 10
278.659811
 20
113.893286
 30
0.0
 11
278.659811
 21
113.893286
 31
0.0
  0
SPLINE
  5
216
100
AcDbEntity
  8
Layer_1
 62
7
100
AcDbSpline
 70
8
 71
3
 72
8
 73
4
 74
0
 40
0
 40
0
 40
0
 40
0
 40
1
 40
1
 40
1
 40
1
 10
289.496874
 20
141.117464
 30
0.0
 10
288.116356
 20
141.117464
 30
0.0
 10
286.997288
 20
142.236495
 30
0.0
 10
286.997288
 20
143.617052
 30
0.0
  0
SPLINE
  5
217
100
AcDbEntity
  8
Layer_1
 62
7
100
AcDbSpline
 70
8
 71
3
 72
8
 73
4
 74
0
 40
0
 40
0
 40
0
 40
0
 40
1
 40
1
 40
1
 40
1
 10
286.997288
 20
143.617052
 30
0.0
 10
286.997288
 20
144.997613
 30
0.0
 10
288.116356
 20
146.116641
 30
0.0
 10
289.496874
 20
146.116641
 30
0.0
  0
SPLINE
  5
218
100
AcDbEntity
  8
Layer_1
 62
7
100
AcDbSpline
 70
8
 71
3
 72
8
 73
4
 74
0
 40
0
 40
0
 40
0
 40
0
 40
1
 40
1
 40
1
 40
1
 10
289.496874
 20
146.116641
 30
0.0
 10
290.877449
 20
146.116641
 30
0.0
 10
291.996968
 20
144.997613
 30
0.0
 10
291.996968
 20
143.617052
 30
0.0
  0
SPLINE
  5
219
100
AcDbEntity
  8
Layer_1
 62
7
100
AcDbSpline
 70
8
 71
3
 72
8
 73
4
 74
0
 40
0
 40
0
 40
0
 40
0
 40
1
 40
1
 40
1
 40
1
 10
291.996968
 20
143.617052
 30
0.0
 10
291.996968
 20
142.236495
 30
0.0
 10
290.877449
 20
141.117464
 30
0.0
 10
289.496874
 20
141.117464
 30
0.0
  0
LINE
  5
21a
100
AcDbEntity
  8
Layer_1
 62
7
100
AcDbLine
 10
289.496874
 20
141.117464
 30
0.0
 11
289.496874
 21
141.117464
 31
0.0
  0
SPLINE
  5
21b
100
AcDbEntity
  8
Layer_1
 62
7
100
AcDbSpline
 70
8
 71
3
 72
8
 73
4
 74
0
 40
0
 40
0
 40
0
 40
0
 40
1
 40
1
 40
1
 40
1
 10
441.135160
 20
236.618613
 30
0.0
 10
440.248700
 20
236.595583
 30
0.0
 10
439.377847
 20
237.046171
 30
0.0
 10
438.903262
 20
237.868146
 30
0.0
  0
LINE
  5
21c
100
AcDbEntity
  8
Layer_1
 62
7
100
AcDbLine
 10
438.903262
 20
237.868146
 30
0.0
 11
402.070890
 21
301.663737
 31
0.0
  0
SPLINE
  5
21d
100
AcDbEntity
  8
Layer_1
 62
7
100
AcDbSpline
 70
8
 71
3
 72
8
 73
4
 74
0
 40
0
 40
0
 40
0
 40
0
 40
1
 40
1
 40
1
 40
1
 10
402.070890
 20
301.663737
 30
0.0
 10
401.380603
 20
302.859329
 30
0.0
 10
401.789966
 20
304.387726
 30
0.0
 10
402.985544
 20
305.078000
 30
0.0
  0
SPLINE
  5
21e
100
AcDbEntity
  8
Layer_1
 62
7
100
AcDbSpline
 70
8
 71
3
 72
8
 73
4
 74
0
 40
0
 40
0
 40
0
 40
0
 40
1
 40
1
 40
1
 40
1
 10
402.985544
 20
305.078000
 30
0.0
 10
404.181151
 20
305.768276
 30
0.0
 10
405.710033
 20
305.358918
 30
0.0
 10
406.400349
 20
304.163326
 30
0.0
  0
LINE
  5
21f
100
AcDbEntity
  8
Layer_1
 62
7
100
AcDbLine
 10
406.400349
 20
304.163326
 30
0.0
 11
443.232720
 21
240.367737
 31
0.0
  0
SPLINE
  5
220
100
AcDbEntity
  8
Layer_1
 62
7
100
AcDbSpline
 70
8
 71
3
 72
8
 73
4
 74
0
 40
0
 40
0
 40
0
 40
0
 40
1
 40
1
 40
1
 40
1
 10
443.232720
 20
240.367737
 30
0.0
 10
443.922951
 20
239.172134
 30
0.0
 10
443.513588
 20
237.643237
 30
0.0
 10
442.318038
 20
236.952959
 30
0.0
  0
SPLINE
  5
221
100
AcDbEntity
  8
Layer_1
 62
7
100
AcDbSpline
 70
8
 71
3
 72
8
 73
4
 74
0
 40
0
 40
0
 40
0
 40
0
 40
1
 40
1
 40
1
 40
1
 10
442.318038
 20
236.952959
 30
0.0
 10
441.944404
 20
236.737245
 30
0.0
 10
441.538117
 20
236.629075
 30
0.0
 10
441.135160
 20
236.618613
 30
0.0
  0
LINE
  5
222
100
AcDbEntity
  8
Layer_1
 62
7
100
AcDbLine
 10
441.135160
 20
236.618613
 30
0.0
 11
441.135160
 21
236.618613
 31
0.0
  0
SPLINE
  5
223
100
AcDbEntity
  8
Layer_1
 62
7
100
AcDbSpline
 70
8
 71
3
 72
8
 73
4
 74
0
 40
0
 40
0
 40
0
 40
0
 40
1
 40
1
 40
1
 40
1
 10
330.470603
 20
242.129386
 30
0.0
 10
329.090028
 20
242.129386
 30
0.0
 10
327.971017
 20
243.248450
 30
0.0
 10
327.971017
 20
244.628974
 30
0.0
  0
SPLINE
  5
224
100
AcDbEntity
  8
Layer_1
 62
7
100
AcDbSpline
 70
8
 71
3
 72
8
 73
4
 74
0
 40
0
 40
0
 40
0
 40
0
 40
1
 40
1
 40
1
 40
1
 10
327.971017
 20
244.628974
 30
0.0
 10
327.971017
 20
246.009535
 30
0.0
 10
329.090028
 20
247.128563
 30
0.0
 10
330.470603
 20
247.128563
 30
0.0
  0
SPLINE
  5
225
100
AcDbEntity
  8
Layer_1
 62
7
100
AcDbSpline
 70
8
 71
3
 72
8
 73
4
 74
0
 40
0
 40
0
 40
0
 40
0
 40
1
 40
1
 40
1
 40
1
 10
330.470603
 20
247.128563
 30
0.0
 10
331.851149
 20
247.128563
 30
0.0
 10
332.970189
 20
246.009535
 30
0.0
 10
332.970189
 20
244.628974
 30
0.0
  0
SPLINE
  5
226
100
AcDbEntity
  8
Layer_1
 62
7
100
AcDbSpline
 70
8
 71
3
 72
8
 73
4
 74
0
 40
0
 40
0
 40
0
 40
0
 40
1
 40
1
 40
1
 40
1
 10
332.970189
 20
244.628974
 30
0.0
 10
332.970189
 20
243.248450
 30
0.0
 10
331.851149
 20
242.129386
 30
0.0
 10
330.470603
 20
242.129386
 30
0.0
  0
LINE
  5
227
100
AcDbEntity
  8
Layer_1
 62
7
100
AcDbLine
 10
330.470603
 20
242.129386
 30
0.0
 11
330.470603
 21
242.129386
 31
0.0
  0
SPLINE
  5
228
100
AcDbEntity
  8
Layer_1
 62
7
100
AcDbSpline
 70
8
 71
3
 72
8
 73
4
 74
0
 40
0
 40
0
 40
0
 40
0
 40
1
 40
1
 40
1
 40
1
 10
446.907931
 20
246.617484
 30
0.0
 10
446.021443
 20
246.594454
 30
0.0
 10
445.150590
 20
247.045070
 30
0.0
 10
444.676033
 20
247.867020
 30
0.0
  0
LINE
  5
229
100
AcDbEntity
  8
Layer_1
 62
7
100
AcDbLine
 10
444.676033
 20
247.867020
 30
0.0
 11
413.616432
 21
301.663737
 31
0.0
  0
SPLINE
  5
22a
100
AcDbEntity
  8
Layer_1
 62
7
100
AcDbSpline
 70
8
 71
3
 72
8
 73
4
 74
0
 40
0
 40
0
 40
0
 40
0
 40
1
 40
1
 40
1
 40
1
 10
413.616432
 20
301.663737
 30
0.0
 10
412.926173
 20
302.859329
 30
0.0
 10
413.336045
 20
304.387726
 30
0.0
 10
414.531623
 20
305.078000
 30
0.0
  0
SPLINE
  5
22b
100
AcDbEntity
  8
Layer_1
 62
7
100
AcDbSpline
 70
8
 71
3
 72
8
 73
4
 74
0
 40
0
 40
0
 40
0
 40
0
 40
1
 40
1
 40
1
 40
1
 10
414.531623
 20
305.078000
 30
0.0
 10
415.727229
 20
305.768276
 30
0.0
 10
417.255603
 20
305.358918
 30
0.0
 10
417.945891
 20
304.163326
 30
0.0
  0
LINE
  5
22c
100
AcDbEntity
  8
Layer_1
 62
7
100
AcDbLine
 10
417.945891
 20
304.163326
 30
0.0
 11
449.005463
 21
250.366609
 31
0.0
  0
SPLINE
  5
22d
100
AcDbEntity
  8
Layer_1
 62
7
100
AcDbSpline
 70
8
 71
3
 72
8
 73
4
 74
0
 40
0
 40
0
 40
0
 40
0
 40
1
 40
1
 40
1
 40
1
 10
449.005463
 20
250.366609
 30
0.0
 10
449.695750
 20
249.171045
 30
0.0
 10
449.286387
 20
247.642111
 30
0.0
 10
448.090809
 20
246.951832
 30
0.0
  0
SPLINE
  5
22e
100
AcDbEntity
  8
Layer_1
 62
7
100
AcDbSpline
 70
8
 71
3
 72
8
 73
4
 74
0
 40
0
 40
0
 40
0
 40
0
 40
1
 40
1
 40
1
 40
1
 10
448.090809
 20
246.951832
 30
0.0
 10
447.717203
 20
246.736113
 30
0.0
 10
447.310860
 20
246.627949
 30
0.0
 10
446.907931
 20
246.617484
 30
0.0
  0
LINE
  5
22f
100
AcDbEntity
  8
Layer_1
 62
7
100
AcDbLine
 10
446.907931
 20
246.617484
 30
0.0
 11
446.907931
 21
246.617484
 31
0.0
  0
SPLINE
  5
230
100
AcDbEntity
  8
Layer_1
 62
7
100
AcDbSpline
 70
8
 71
3
 72
8
 73
4
 74
0
 40
0
 40
0
 40
0
 40
0
 40
1
 40
1
 40
1
 40
1
 10
452.680730
 20
256.616358
 30
0.0
 10
451.794242
 20
256.593328
 30
0.0
 10
450.923361
 20
257.043916
 30
0.0
 10
450.448804
 20
257.865894
 30
0.0
  0
LINE
  5
231
100
AcDbEntity
  8
Layer_1
 62
7
100
AcDbLine
 10
450.448804
 20
257.865894
 30
0.0
 11
425.162003
 21
301.663737
 31
0.0
  0
SPLINE
  5
232
100
AcDbEntity
  8
Layer_1
 62
7
100
AcDbSpline
 70
8
 71
3
 72
8
 73
4
 74
0
 40
0
 40
0
 40
0
 40
0
 40
1
 40
1
 40
1
 40
1
 10
425.162003
 20
301.663737
 30
0.0
 10
424.471659
 20
302.859329
 30
0.0
 10
424.881587
 20
304.387726
 30
0.0
 10
426.077165
 20
305.078000
 30
0.0
  0
SPLINE
  5
233
100
AcDbEntity
  8
Layer_1
 62
7
100
AcDbSpline
 70
8
 71
3
 72
8
 73
4
 74
0
 40
0
 40
0
 40
0
 40
0
 40
1
 40
1
 40
1
 40
1
 10
426.077165
 20
305.078000
 30
0.0
 10
427.272771
 20
305.768276
 30
0.0
 10
428.801174
 20
305.358918
 30
0.0
 10
429.491433
 20
304.163326
 30
0.0
  0
LINE
  5
234
100
AcDbEntity
  8
Layer_1
 62
7
100
AcDbLine
 10
429.491433
 20
304.163326
 30
0.0
 11
454.778262
 21
260.365483
 31
0.0
  0
SPLINE
  5
235
100
AcDbEntity
  8
Layer_1
 62
7
100
AcDbSpline
 70
8
 71
3
 72
8
 73
4
 74
0
 40
0
 40
0
 40
0
 40
0
 40
1
 40
1
 40
1
 40
1
 10
454.778262
 20
260.365483
 30
0.0
 10
455.468550
 20
259.169882
 30
0.0
 10
455.059186
 20
257.640982
 30
0.0
 10
453.863608
 20
256.950704
 30
0.0
  0
SPLINE
  5
236
100
AcDbEntity
  8
Layer_1
 62
7
100
AcDbSpline
 70
8
 71
3
 72
8
 73
4
 74
0
 40
0
 40
0
 40
0
 40
0
 40
1
 40
1
 40
1
 40
1
 10
453.863608
 20
256.950704
 30
0.0
 10
453.489974
 20
256.734990
 30
0.0
 10
453.083659
 20
256.626823
 30
0.0
 10
452.680730
 20
256.616358
 30
0.0
  0
LINE
  5
237
100
AcDbEntity
  8
Layer_1
 62
7
100
AcDbLine
 10
452.680730
 20
256.616358
 30
0.0
 11
452.680730
 21
256.616358
 31
0.0
  0
SPLINE
  5
238
100
AcDbEntity
  8
Layer_1
 62
7
100
AcDbSpline
 70
8
 71
3
 72
8
 73
4
 74
0
 40
0
 40
0
 40
0
 40
0
 40
1
 40
1
 40
1
 40
1
 10
203.080964
 20
256.888694
 30
0.0
 10
202.528768
 20
256.888694
 30
0.0
 10
202.081022
 20
257.336391
 30
0.0
 10
202.081022
 20
257.888630
 30
0.0
  0
SPLINE
  5
239
100
AcDbEntity
  8
Layer_1
 62
7
100
AcDbSpline
 70
8
 71
3
 72
8
 73
4
 74
0
 40
0
 40
0
 40
0
 40
0
 40
1
 40
1
 40
1
 40
1
 10
202.081022
 20
257.888630
 30
0.0
 10
202.081022
 20
258.440834
 30
0.0
 10
202.528768
 20
258.888568
 30
0.0
 10
203.080964
 20
258.888568
 30
0.0
  0
SPLINE
  5
23a
100
AcDbEntity
  8
Layer_1
 62
7
100
AcDbSpline
 70
8
 71
3
 72
8
 73
4
 74
0
 40
0
 40
0
 40
0
 40
0
 40
1
 40
1
 40
1
 40
1
 10
203.080964
 20
258.888568
 30
0.0
 10
203.633188
 20
258.888568
 30
0.0
 10
204.080905
 20
258.440834
 30
0.0
 10
204.080905
 20
257.888630
 30
0.0
  0
SPLINE
  5
23b
100
AcDbEntity
  8
Layer_1
 62
7
100
AcDbSpline
 70
8
 71
3
 72
8
 73
4
 74
0
 40
0
 40
0
 40
0
 40
0
 40
1
 40
1
 40
1
 40
1
 10
204.080905
 20
257.888630
 30
0.0
 10
204.080905
 20
257.336391
 30
0.0
 10
203.633188
 20
256.888694
 30
0.0
 10
203.080964
 20
256.888694
 30
0.0
  0
LINE
  5
23c
100
AcDbEntity
  8
Layer_1
 62
7
100
AcDbLine
 10
203.080964
 20
256.888694
 30
0.0
 11
203.080964
 21
256.888694
 31
0.0
  0
SPLINE
  5
23d
100
AcDbEntity
  8
Layer_1
 62
7
100
AcDbSpline
 70
8
 71
3
 72
8
 73
4
 74
0
 40
0
 40
0
 40
0
 40
0
 40
1
 40
1
 40
1
 40
1
 10
192.725524
 20
261.610368
 30
0.0
 10
192.543943
 20
261.610368
 30
0.0
 10
192.363518
 20
261.635429
 30
0.0
 10
192.188597
 20
261.684265
 30
0.0
  0
SPLINE
  5
23e
100
AcDbEntity
  8
Layer_1
 62
7
100
AcDbSpline
 70
8
 71
3
 72
8
 73
4
 74
0
 40
0
 40
0
 40
0
 40
0
 40
1
 40
1
 40
1
 40
1
 10
192.188597
 20
261.684265
 30
0.0
 10
182.358712
 20
264.425910
 30
0.0
 10
176.526843
 20
274.526197
 30
0.0
 10
179.067436
 20
284.410006
 30
0.0
  0
SPLINE
  5
23f
100
AcDbEntity
  8
Layer_1
 62
7
100
AcDbSpline
 70
8
 71
3
 72
8
 73
4
 74
0
 40
0
 40
0
 40
0
 40
0
 40
1
 40
1
 40
1
 40
1
 10
179.067436
 20
284.410006
 30
0.0
 10
179.342405
 20
285.479668
 30
0.0
 10
180.432771
 20
286.123634
 30
0.0
 10
181.502421
 20
285.848679
 30
0.0
  0
SPLINE
  5
240
100
AcDbEntity
  8
Layer_1
 62
7
100
AcDbSpline
 70
8
 71
3
 72
8
 73
4
 74
0
 40
0
 40
0
 40
0
 40
0
 40
1
 40
1
 40
1
 40
1
 10
181.502421
 20
285.848679
 30
0.0
 10
181.678330
 20
285.803490
 30
0.0
 10
181.846958
 20
285.734848
 30
0.0
 10
182.004212
 20
285.644043
 30
0.0
  0
LINE
  5
241
100
AcDbEntity
  8
Layer_1
 62
7
100
AcDbLine
 10
182.004212
 20
285.644043
 30
0.0
 11
184.495529
 21
284.205370
 31
0.0
  0
SPLINE
  5
242
100
AcDbEntity
  8
Layer_1
 62
7
100
AcDbSpline
 70
8
 71
3
 72
8
 73
4
 74
0
 40
0
 40
0
 40
0
 40
0
 40
1
 40
1
 40
1
 40
1
 10
184.495529
 20
284.205370
 30
0.0
 10
185.237463
 20
283.776993
 30
0.0
 10
185.624390
 20
282.923821
 30
0.0
 10
185.457230
 20
282.083536
 30
0.0
  0
SPLINE
  5
243
100
AcDbEntity
  8
Layer_1
 62
7
100
AcDbSpline
 70
8
 71
3
 72
8
 73
4
 74
0
 40
0
 40
0
 40
0
 40
0
 40
1
 40
1
 40
1
 40
1
 10
185.457230
 20
282.083536
 30
0.0
 10
184.282451
 20
276.177897
 30
0.0
 10
187.666550
 20
270.315938
 30
0.0
 10
193.368370
 20
268.380498
 30
0.0
  0
SPLINE
  5
244
100
AcDbEntity
  8
Layer_1
 62
7
100
AcDbSpline
 70
8
 71
3
 72
8
 73
4
 74
0
 40
0
 40
0
 40
0
 40
0
 40
1
 40
1
 40
1
 40
1
 10
193.368370
 20
268.380498
 30
0.0
 10
194.179618
 20
268.105120
 30
0.0
 10
194.725408
 20
267.343791
 30
0.0
 10
194.725408
 20
266.487072
 30
0.0
  0
LINE
  5
245
100
AcDbEntity
  8
Layer_1
 62
7
100
AcDbLine
 10
194.725408
 20
266.487072
 30
0.0
 11
194.725408
 21
263.610245
 31
0.0
  0
SPLINE
  5
246
100
AcDbEntity
  8
Layer_1
 62
7
100
AcDbSpline
 70
8
 71
3
 72
8
 73
4
 74
0
 40
0
 40
0
 40
0
 40
0
 40
1
 40
1
 40
1
 40
1
 10
194.725408
 20
263.610245
 30
0.0
 10
194.725408
 20
262.505805
 30
0.0
 10
193.829973
 20
261.610368
 30
0.0
 10
192.725524
 20
261.610368
 30
0.0
  0
LINE
  5
247
100
AcDbEntity
  8
Layer_1
 62
7
100
AcDbLine
 10
192.725524
 20
261.610368
 30
0.0
 11
192.725524
 21
261.610368
 31
0.0
  0
SPLINE
  5
248
100
AcDbEntity
  8
Layer_1
 62
7
100
AcDbSpline
 70
8
 71
3
 72
8
 73
4
 74
0
 40
0
 40
0
 40
0
 40
0
 40
1
 40
1
 40
1
 40
1
 10
201.665026
 20
261.610932
 30
0.0
 10
200.812885
 20
261.636106
 30
0.0
 10
200.039568
 20
262.208490
 30
0.0
 10
199.798465
 20
263.072857
 30
0.0
  0
SPLINE
  5
249
100
AcDbEntity
  8
Layer_1
 62
7
100
AcDbSpline
 70
8
 71
3
 72
8
 73
4
 74
0
 40
0
 40
0
 40
0
 40
0
 40
1
 40
1
 40
1
 40
1
 10
199.798465
 20
263.072857
 30
0.0
 10
199.749697
 20
263.247765
 30
0.0
 10
199.724579
 20
263.428683
 30
0.0
 10
199.724579
 20
263.610293
 30
0.0
  0
LINE
  5
24a
100
AcDbEntity
  8
Layer_1
 62
7
100
AcDbLine
 10
199.724579
 20
263.610293
 30
0.0
 11
199.724579
 21
266.487120
 31
0.0
  0
SPLINE
  5
24b
100
AcDbEntity
  8
Layer_1
 62
7
100
AcDbSpline
 70
8
 71
3
 72
8
 73
4
 74
0
 40
0
 40
0
 40
0
 40
0
 40
1
 40
1
 40
1
 40
1
 10
199.724579
 20
266.487120
 30
0.0
 10
199.724579
 20
267.343839
 30
0.0
 10
200.270341
 20
268.105168
 30
0.0
 10
201.081588
 20
268.380546
 30
0.0
  0
SPLINE
  5
24c
100
AcDbEntity
  8
Layer_1
 62
7
100
AcDbSpline
 70
8
 71
3
 72
8
 73
4
 74
0
 40
0
 40
0
 40
0
 40
0
 40
1
 40
1
 40
1
 40
1
 10
201.081588
 20
268.380546
 30
0.0
 10
206.783437
 20
270.315986
 30
0.0
 10
210.168044
 20
276.177945
 30
0.0
 10
208.993265
 20
282.083584
 30
0.0
  0
SPLINE
  5
24d
100
AcDbEntity
  8
Layer_1
 62
7
100
AcDbSpline
 70
8
 71
3
 72
8
 73
4
 74
0
 40
0
 40
0
 40
0
 40
0
 40
1
 40
1
 40
1
 40
1
 10
208.993265
 20
282.083584
 30
0.0
 10
208.826105
 20
282.923869
 30
0.0
 10
209.212467
 20
283.777041
 30
0.0
 10
209.954430
 20
284.205418
 30
0.0
  0
LINE
  5
24e
100
AcDbEntity
  8
Layer_1
 62
7
100
AcDbLine
 10
209.954430
 20
284.205418
 30
0.0
 11
212.445775
 21
285.644091
 31
0.0
  0
SPLINE
  5
24f
100
AcDbEntity
  8
Layer_1
 62
7
100
AcDbSpline
 70
8
 71
3
 72
8
 73
4
 74
0
 40
0
 40
0
 40
0
 40
0
 40
1
 40
1
 40
1
 40
1
 10
212.445775
 20
285.644091
 30
0.0
 10
213.402217
 20
286.196329
 30
0.0
 10
214.625693
 20
285.868285
 30
0.0
 10
215.177895
 20
284.911834
 30
0.0
  0
SPLINE
  5
250
100
AcDbEntity
  8
Layer_1
 62
7
100
AcDbSpline
 70
8
 71
3
 72
8
 73
4
 74
0
 40
0
 40
0
 40
0
 40
0
 40
1
 40
1
 40
1
 40
1
 10
215.177895
 20
284.911834
 30
0.0
 10
215.268705
 20
284.754566
 30
0.0
 10
215.337347
 20
284.585918
 30
0.0
 10
215.382534
 20
284.410054
 30
0.0
  0
SPLINE
  5
251
100
AcDbEntity
  8
Layer_1
 62
7
100
AcDbSpline
 70
8
 71
3
 72
8
 73
4
 74
0
 40
0
 40
0
 40
0
 40
0
 40
1
 40
1
 40
1
 40
1
 10
215.382534
 20
284.410054
 30
0.0
 10
217.923135
 20
274.526245
 30
0.0
 10
212.091783
 20
264.425958
 30
0.0
 10
202.261898
 20
261.684313
 30
0.0
  0
SPLINE
  5
252
100
AcDbEntity
  8
Layer_1
 62
7
100
AcDbSpline
 70
8
 71
3
 72
8
 73
4
 74
0
 40
0
 40
0
 40
0
 40
0
 40
1
 40
1
 40
1
 40
1
 10
202.261898
 20
261.684313
 30
0.0
 10
202.062424
 20
261.628678
 30
0.0
 10
201.861679
 20
261.605121
 30
0.0
 10
201.665026
 20
261.610932
 30
0.0
  0
LINE
  5
253
100
AcDbEntity
  8
Layer_1
 62
7
100
AcDbLine
 10
201.665026
 20
261.610932
 30
0.0
 11
201.665026
 21
261.610932
 31
0.0
  0
SPLINE
  5
254
100
AcDbEntity
  8
Layer_1
 62
7
100
AcDbSpline
 70
8
 71
3
 72
8
 73
4
 74
0
 40
0
 40
0
 40
0
 40
0
 40
1
 40
1
 40
1
 40
1
 10
458.453473
 20
266.615277
 30
0.0
 10
457.567013
 20
266.592248
 30
0.0
 10
456.696132
 20
267.042863
 30
0.0
 10
456.221575
 20
267.864813
 30
0.0
  0
LINE
  5
255
100
AcDbEntity
  8
Layer_1
 62
7
100
AcDbLine
 10
456.221575
 20
267.864813
 30
0.0
 11
436.707545
 21
301.663785
 31
0.0
  0
SPLINE
  5
256
100
AcDbEntity
  8
Layer_1
 62
7
100
AcDbSpline
 70
8
 71
3
 72
8
 73
4
 74
0
 40
0
 40
0
 40
0
 40
0
 40
1
 40
1
 40
1
 40
1
 10
436.707545
 20
301.663785
 30
0.0
 10
436.017229
 20
302.859377
 30
0.0
 10
436.427100
 20
304.387774
 30
0.0
 10
437.622735
 20
305.078048
 30
0.0
  0
SPLINE
  5
257
100
AcDbEntity
  8
Layer_1
 62
7
100
AcDbSpline
 70
8
 71
3
 72
8
 73
4
 74
0
 40
0
 40
0
 40
0
 40
0
 40
1
 40
1
 40
1
 40
1
 10
437.622735
 20
305.078048
 30
0.0
 10
438.818313
 20
305.768324
 30
0.0
 10
440.347224
 20
305.358966
 30
0.0
 10
441.037483
 20
304.163374
 30
0.0
  0
LINE
  5
258
100
AcDbEntity
  8
Layer_1
 62
7
100
AcDbLine
 10
441.037483
 20
304.163374
 30
0.0
 11
460.551033
 21
270.364356
 31
0.0
  0
SPLINE
  5
259
100
AcDbEntity
  8
Layer_1
 62
7
100
AcDbSpline
 70
8
 71
3
 72
8
 73
4
 74
0
 40
0
 40
0
 40
0
 40
0
 40
1
 40
1
 40
1
 40
1
 10
460.551033
 20
270.364356
 30
0.0
 10
461.241321
 20
269.168753
 30
0.0
 10
460.831985
 20
267.639823
 30
0.0
 10
459.636351
 20
266.949578
 30
0.0
  0
SPLINE
  5
25a
100
AcDbEntity
  8
Layer_1
 62
7
100
AcDbSpline
 70
8
 71
3
 72
8
 73
4
 74
0
 40
0
 40
0
 40
0
 40
0
 40
1
 40
1
 40
1
 40
1
 10
459.636351
 20
266.949578
 30
0.0
 10
459.262773
 20
266.733864
 30
0.0
 10
458.856402
 20
266.625696
 30
0.0
 10
458.453473
 20
266.615229
 30
0.0
  0
LINE
  5
25b
100
AcDbEntity
  8
Layer_1
 62
7
100
AcDbLine
 10
458.453473
 20
266.615229
 30
0.0
 11
458.453473
 21
266.615277
 31
0.0
  0
SPLINE
  5
25c
100
AcDbEntity
  8
Layer_1
 62
7
100
AcDbSpline
 70
8
 71
3
 72
8
 73
4
 74
0
 40
0
 40
0
 40
0
 40
0
 40
1
 40
1
 40
1
 40
1
 10
238.957322
 20
266.650419
 30
0.0
 10
237.576800
 20
266.650419
 30
0.0
 10
236.457736
 20
267.769478
 30
0.0
 10
236.457736
 20
269.150005
 30
0.0
  0
SPLINE
  5
25d
100
AcDbEntity
  8
Layer_1
 62
7
100
AcDbSpline
 70
8
 71
3
 72
8
 73
4
 74
0
 40
0
 40
0
 40
0
 40
0
 40
1
 40
1
 40
1
 40
1
 10
236.457736
 20
269.150005
 30
0.0
 10
236.457736
 20
270.530568
 30
0.0
 10
237.576800
 20
271.649596
 30
0.0
 10
238.957322
 20
271.649596
 30
0.0
  0
SPLINE
  5
25e
100
AcDbEntity
  8
Layer_1
 62
7
100
AcDbSpline
 70
8
 71
3
 72
8
 73
4
 74
0
 40
0
 40
0
 40
0
 40
0
 40
1
 40
1
 40
1
 40
1
 10
238.957322
 20
271.649596
 30
0.0
 10
240.337888
 20
271.649596
 30
0.0
 10
241.457429
 20
270.530568
 30
0.0
 10
241.457429
 20
269.150005
 30
0.0
  0
SPLINE
  5
25f
100
AcDbEntity
  8
Layer_1
 62
7
100
AcDbSpline
 70
8
 71
3
 72
8
 73
4
 74
0
 40
0
 40
0
 40
0
 40
0
 40
1
 40
1
 40
1
 40
1
 10
241.457429
 20
269.150005
 30
0.0
 10
241.457429
 20
267.769478
 30
0.0
 10
240.337888
 20
266.650419
 30
0.0
 10
238.957322
 20
266.650419
 30
0.0
  0
LINE
  5
260
100
AcDbEntity
  8
Layer_1
 62
7
100
AcDbLine
 10
238.957322
 20
266.650419
 30
0.0
 11
238.957322
 21
266.650419
 31
0.0
  0
SPLINE
  5
261
100
AcDbEntity
  8
Layer_1
 62
7
100
AcDbSpline
 70
8
 71
3
 72
8
 73
4
 74
0
 40
0
 40
0
 40
0
 40
0
 40
1
 40
1
 40
1
 40
1
 10
175.371031
 20
272.887245
 30
0.0
 10
174.818806
 20
272.887245
 30
0.0
 10
174.371597
 20
273.334432
 30
0.0
 10
174.371597
 20
273.886670
 30
0.0
  0
SPLINE
  5
262
100
AcDbEntity
  8
Layer_1
 62
7
100
AcDbSpline
 70
8
 71
3
 72
8
 73
4
 74
0
 40
0
 40
0
 40
0
 40
0
 40
1
 40
1
 40
1
 40
1
 10
174.371597
 20
273.886670
 30
0.0
 10
174.371597
 20
274.438869
 30
0.0
 10
174.818806
 20
274.886606
 30
0.0
 10
175.371031
 20
274.886606
 30
0.0
  0
SPLINE
  5
263
100
AcDbEntity
  8
Layer_1
 62
7
100
AcDbSpline
 70
8
 71
3
 72
8
 73
4
 74
0
 40
0
 40
0
 40
0
 40
0
 40
1
 40
1
 40
1
 40
1
 10
175.371031
 20
274.886606
 30
0.0
 10
175.923255
 20
274.886606
 30
0.0
 10
176.370972
 20
274.438869
 30
0.0
 10
176.370972
 20
273.886670
 30
0.0
  0
SPLINE
  5
264
100
AcDbEntity
  8
Layer_1
 62
7
100
AcDbSpline
 70
8
 71
3
 72
8
 73
4
 74
0
 40
0
 40
0
 40
0
 40
0
 40
1
 40
1
 40
1
 40
1
 10
176.370972
 20
273.886670
 30
0.0
 10
176.370972
 20
273.334432
 30
0.0
 10
175.923255
 20
272.887245
 30
0.0
 10
175.371031
 20
272.887245
 30
0.0
  0
LINE
  5
265
100
AcDbEntity
  8
Layer_1
 62
7
100
AcDbLine
 10
175.371031
 20
272.887245
 30
0.0
 11
175.371031
 21
272.887245
 31
0.0
  0
SPLINE
  5
266
100
AcDbEntity
  8
Layer_1
 62
7
100
AcDbSpline
 70
8
 71
3
 72
8
 73
4
 74
0
 40
0
 40
0
 40
0
 40
0
 40
1
 40
1
 40
1
 40
1
 10
219.078951
 20
284.598675
 30
0.0
 10
218.526712
 20
284.598675
 30
0.0
 10
218.079012
 20
285.045859
 30
0.0
 10
218.079012
 20
285.598097
 30
0.0
  0
SPLINE
  5
267
100
AcDbEntity
  8
Layer_1
 62
7
100
AcDbSpline
 70
8
 71
3
 72
8
 73
4
 74
0
 40
0
 40
0
 40
0
 40
0
 40
1
 40
1
 40
1
 40
1
 10
218.079012
 20
285.598097
 30
0.0
 10
218.079012
 20
286.150302
 30
0.0
 10
218.526712
 20
286.598036
 30
0.0
 10
219.078951
 20
286.598036
 30
0.0
  0
SPLINE
  5
268
100
AcDbEntity
  8
Layer_1
 62
7
100
AcDbSpline
 70
8
 71
3
 72
8
 73
4
 74
0
 40
0
 40
0
 40
0
 40
0
 40
1
 40
1
 40
1
 40
1
 10
219.078951
 20
286.598036
 30
0.0
 10
219.631155
 20
286.598036
 30
0.0
 10
220.078890
 20
286.150302
 30
0.0
 10
220.078890
 20
285.598097
 30
0.0
  0
SPLINE
  5
269
100
AcDbEntity
  8
Layer_1
 62
7
100
AcDbSpline
 70
8
 71
3
 72
8
 73
4
 74
0
 40
0
 40
0
 40
0
 40
0
 40
1
 40
1
 40
1
 40
1
 10
220.078890
 20
285.598097
 30
0.0
 10
220.078890
 20
285.045859
 30
0.0
 10
219.631155
 20
284.598675
 30
0.0
 10
219.078951
 20
284.598675
 30
0.0
  0
LINE
  5
26a
100
AcDbEntity
  8
Layer_1
 62
7
100
AcDbLine
 10
219.078951
 20
284.598675
 30
0.0
 11
219.078951
 21
284.598675
 31
0.0
  0
SPLINE
  5
26b
100
AcDbEntity
  8
Layer_1
 62
7
100
AcDbSpline
 70
8
 71
3
 72
8
 73
4
 74
0
 40
0
 40
0
 40
0
 40
0
 40
1
 40
1
 40
1
 40
1
 10
471.114216
 20
286.105042
 30
0.0
 10
469.733670
 20
286.105042
 30
0.0
 10
468.614630
 20
287.224073
 30
0.0
 10
468.614630
 20
288.604633
 30
0.0
  0
SPLINE
  5
26c
100
AcDbEntity
  8
Layer_1
 62
7
100
AcDbSpline
 70
8
 71
3
 72
8
 73
4
 74
0
 40
0
 40
0
 40
0
 40
0
 40
1
 40
1
 40
1
 40
1
 10
468.614630
 20
288.604633
 30
0.0
 10
468.614630
 20
289.985158
 30
0.0
 10
469.733670
 20
291.104223
 30
0.0
 10
471.114216
 20
291.104223
 30
0.0
  0
SPLINE
  5
26d
100
AcDbEntity
  8
Layer_1
 62
7
100
AcDbSpline
 70
8
 71
3
 72
8
 73
4
 74
0
 40
0
 40
0
 40
0
 40
0
 40
1
 40
1
 40
1
 40
1
 10
471.114216
 20
291.104223
 30
0.0
 10
472.494791
 20
291.104220
 30
0.0
 10
473.614310
 20
289.985158
 30
0.0
 10
473.614310
 20
288.604633
 30
0.0
  0
SPLINE
  5
26e
100
AcDbEntity
  8
Layer_1
 62
7
100
AcDbSpline
 70
8
 71
3
 72
8
 73
4
 74
0
 40
0
 40
0
 40
0
 40
0
 40
1
 40
1
 40
1
 40
1
 10
473.614310
 20
288.604633
 30
0.0
 10
473.614310
 20
287.224073
 30
0.0
 10
472.494791
 20
286.105042
 30
0.0
 10
471.114216
 20
286.105042
 30
0.0
  0
LINE
  5
26f
100
AcDbEntity
  8
Layer_1
 62
7
100
AcDbLine
 10
471.114216
 20
286.105042
 30
0.0
 11
471.114216
 21
286.105042
 31
0.0
  0
SPLINE
  5
270
100
AcDbEntity
  8
Layer_1
 62
7
100
AcDbSpline
 70
8
 71
3
 72
8
 73
4
 74
0
 40
0
 40
0
 40
0
 40
0
 40
1
 40
1
 40
1
 40
1
 10
163.877671
 20
286.105042
 30
0.0
 10
162.497097
 20
286.105042
 30
0.0
 10
161.378086
 20
287.224073
 30
0.0
 10
161.378086
 20
288.604633
 30
0.0
  0
SPLINE
  5
271
100
AcDbEntity
  8
Layer_1
 62
7
100
AcDbSpline
 70
8
 71
3
 72
8
 73
4
 74
0
 40
0
 40
0
 40
0
 40
0
 40
1
 40
1
 40
1
 40
1
 10
161.378086
 20
288.604633
 30
0.0
 10
161.378086
 20
289.985158
 30
0.0
 10
162.497097
 20
291.104223
 30
0.0
 10
163.877671
 20
291.104223
 30
0.0
  0
SPLINE
  5
272
100
AcDbEntity
  8
Layer_1
 62
7
100
AcDbSpline
 70
8
 71
3
 72
8
 73
4
 74
0
 40
0
 40
0
 40
0
 40
0
 40
1
 40
1
 40
1
 40
1
 10
163.877671
 20
291.104223
 30
0.0
 10
165.258190
 20
291.104220
 30
0.0
 10
166.377765
 20
289.985158
 30
0.0
 10
166.377765
 20
288.604633
 30
0.0
  0
SPLINE
  5
273
100
AcDbEntity
  8
Layer_1
 62
7
100
AcDbSpline
 70
8
 71
3
 72
8
 73
4
 74
0
 40
0
 40
0
 40
0
 40
0
 40
1
 40
1
 40
1
 40
1
 10
166.377765
 20
288.604633
 30
0.0
 10
166.377765
 20
287.224073
 30
0.0
 10
165.258190
 20
286.105042
 30
0.0
 10
163.877671
 20
286.105042
 30
0.0
  0
LINE
  5
274
100
AcDbEntity
  8
Layer_1
 62
7
100
AcDbLine
 10
163.877671
 20
286.105042
 30
0.0
 11
163.877671
 21
286.105042
 31
0.0
  0
SPLINE
  5
275
100
AcDbEntity
  8
Layer_1
 62
7
100
AcDbSpline
 70
8
 71
3
 72
8
 73
4
 74
0
 40
0
 40
0
 40
0
 40
0
 40
1
 40
1
 40
1
 40
1
 10
206.373255
 20
288.268738
 30
0.0
 10
205.926949
 20
288.287026
 30
0.0
 10
205.488884
 20
288.454883
 30
0.0
 10
205.136642
 20
288.763795
 30
0.0
  0
SPLINE
  5
276
100
AcDbEntity
  8
Layer_1
 62
7
100
AcDbSpline
 70
8
 71
3
 72
8
 73
4
 74
0
 40
0
 40
0
 40
0
 40
0
 40
1
 40
1
 40
1
 40
1
 10
205.136642
 20
288.763795
 30
0.0
 10
200.609572
 20
292.734028
 30
0.0
 10
193.840895
 20
292.734028
 30
0.0
 10
189.313853
 20
288.763795
 30
0.0
  0
SPLINE
  5
277
100
AcDbEntity
  8
Layer_1
 62
7
100
AcDbSpline
 70
8
 71
3
 72
8
 73
4
 74
0
 40
0
 40
0
 40
0
 40
0
 40
1
 40
1
 40
1
 40
1
 10
189.313853
 20
288.763795
 30
0.0
 10
188.669737
 20
288.198930
 30
0.0
 10
187.737049
 20
288.107044
 30
0.0
 10
186.995115
 20
288.535387
 30
0.0
  0
LINE
  5
278
100
AcDbEntity
  8
Layer_1
 62
7
100
AcDbLine
 10
186.995115
 20
288.535387
 30
0.0
 11
184.503798
 21
289.973542
 31
0.0
  0
SPLINE
  5
279
100
AcDbEntity
  8
Layer_1
 62
7
100
AcDbSpline
 70
8
 71
3
 72
8
 73
4
 74
0
 40
0
 40
0
 40
0
 40
0
 40
1
 40
1
 40
1
 40
1
 10
184.503798
 20
289.973542
 30
0.0
 10
183.547319
 20
290.525744
 30
0.0
 10
183.219856
 20
291.748672
 30
0.0
 10
183.772052
 20
292.705160
 30
0.0
  0
SPLINE
  5
27a
100
AcDbEntity
  8
Layer_1
 62
7
100
AcDbSpline
 70
8
 71
3
 72
8
 73
4
 74
0
 40
0
 40
0
 40
0
 40
0
 40
1
 40
1
 40
1
 40
1
 10
183.772052
 20
292.705160
 30
0.0
 10
183.862872
 20
292.862394
 30
0.0
 10
183.974632
 20
293.007002
 30
0.0
 10
184.104341
 20
293.134073
 30
0.0
  0
SPLINE
  5
27b
100
AcDbEntity
  8
Layer_1
 62
7
100
AcDbSpline
 70
8
 71
3
 72
8
 73
4
 74
0
 40
0
 40
0
 40
0
 40
0
 40
1
 40
1
 40
1
 40
1
 10
184.104341
 20
293.134073
 30
0.0
 10
191.393661
 20
300.276214
 30
0.0
 10
203.056834
 20
300.276214
 30
0.0
 10
210.346154
 20
293.134073
 30
0.0
  0
SPLINE
  5
27c
100
AcDbEntity
  8
Layer_1
 62
7
100
AcDbSpline
 70
8
 71
3
 72
8
 73
4
 74
0
 40
0
 40
0
 40
0
 40
0
 40
1
 40
1
 40
1
 40
1
 10
210.346154
 20
293.134073
 30
0.0
 10
211.135022
 20
292.361139
 30
0.0
 10
211.147947
 20
291.094704
 30
0.0
 10
210.375082
 20
290.305822
 30
0.0
  0
SPLINE
  5
27d
100
AcDbEntity
  8
Layer_1
 62
7
100
AcDbSpline
 70
8
 71
3
 72
8
 73
4
 74
0
 40
0
 40
0
 40
0
 40
0
 40
1
 40
1
 40
1
 40
1
 10
210.375082
 20
290.305822
 30
0.0
 10
210.247969
 20
290.176107
 30
0.0
 10
210.103471
 20
290.064310
 30
0.0
 10
209.946189
 20
289.973542
 30
0.0
  0
LINE
  5
27e
100
AcDbEntity
  8
Layer_1
 62
7
100
AcDbLine
 10
209.946189
 20
289.973542
 30
0.0
 11
207.454844
 21
288.535387
 31
0.0
  0
SPLINE
  5
27f
100
AcDbEntity
  8
Layer_1
 62
7
100
AcDbSpline
 70
8
 71
3
 72
8
 73
4
 74
0
 40
0
 40
0
 40
0
 40
0
 40
1
 40
1
 40
1
 40
1
 10
207.454844
 20
288.535387
 30
0.0
 10
207.176629
 20
288.374757
 30
0.0
 10
206.871519
 20
288.287102
 30
0.0
 10
206.564997
 20
288.270287
 30
0.0
  0
SPLINE
  5
280
100
AcDbEntity
  8
Layer_1
 62
7
100
AcDbSpline
 70
8
 71
3
 72
8
 73
4
 74
0
 40
0
 40
0
 40
0
 40
0
 40
1
 40
1
 40
1
 40
1
 10
206.564997
 20
288.270287
 30
0.0
 10
206.501130
 20
288.266788
 30
0.0
 10
206.437037
 20
288.266110
 30
0.0
 10
206.373255
 20
288.268876
 30
0.0
  0
LINE
  5
281
100
AcDbEntity
  8
Layer_1
 62
7
100
AcDbLine
 10
206.373255
 20
288.268876
 30
0.0
 11
206.373255
 21
288.268738
 31
0.0
  0
SPLINE
  5
282
100
AcDbEntity
  8
Layer_1
 62
7
100
AcDbSpline
 70
8
 71
3
 72
8
 73
4
 74
0
 40
0
 40
0
 40
0
 40
0
 40
1
 40
1
 40
1
 40
1
 10
191.369531
 20
300.596666
 30
0.0
 10
190.817335
 20
300.596666
 30
0.0
 10
190.369590
 20
301.044384
 30
0.0
 10
190.369590
 20
301.596605
 30
0.0
  0
SPLINE
  5
283
100
AcDbEntity
  8
Layer_1
 62
7
100
AcDbSpline
 70
8
 71
3
 72
8
 73
4
 74
0
 40
0
 40
0
 40
0
 40
0
 40
1
 40
1
 40
1
 40
1
 10
190.369590
 20
301.596605
 30
0.0
 10
190.369590
 20
302.148824
 30
0.0
 10
190.817335
 20
302.596544
 30
0.0
 10
191.369531
 20
302.596544
 30
0.0
  0
SPLINE
  5
284
100
AcDbEntity
  8
Layer_1
 62
7
100
AcDbSpline
 70
8
 71
3
 72
8
 73
4
 74
0
 40
0
 40
0
 40
0
 40
0
 40
1
 40
1
 40
1
 40
1
 10
191.369531
 20
302.596544
 30
0.0
 10
191.921756
 20
302.596544
 30
0.0
 10
192.369473
 20
302.148824
 30
0.0
 10
192.369473
 20
301.596605
 30
0.0
  0
SPLINE
  5
285
100
AcDbEntity
  8
Layer_1
 62
7
100
AcDbSpline
 70
8
 71
3
 72
8
 73
4
 74
0
 40
0
 40
0
 40
0
 40
0
 40
1
 40
1
 40
1
 40
1
 10
192.369473
 20
301.596605
 30
0.0
 10
192.369473
 20
301.044384
 30
0.0
 10
191.921756
 20
300.596666
 30
0.0
 10
191.369531
 20
300.596666
 30
0.0
  0
LINE
  5
286
100
AcDbEntity
  8
Layer_1
 62
7
100
AcDbLine
 10
191.369531
 20
300.596666
 30
0.0
 11
191.369531
 21
300.596666
 31
0.0
  0
SPLINE
  5
287
100
AcDbEntity
  8
Layer_1
 62
7
100
AcDbSpline
 70
8
 71
3
 72
8
 73
4
 74
0
 40
0
 40
0
 40
0
 40
0
 40
1
 40
1
 40
1
 40
1
 10
462.115278
 20
301.691691
 30
0.0
 10
460.734703
 20
301.691691
 30
0.0
 10
459.615692
 20
302.810731
 30
0.0
 10
459.615692
 20
304.191280
 30
0.0
  0
SPLINE
  5
288
100
AcDbEntity
  8
Layer_1
 62
7
100
AcDbSpline
 70
8
 71
3
 72
8
 73
4
 74
0
 40
0
 40
0
 40
0
 40
0
 40
1
 40
1
 40
1
 40
1
 10
459.615692
 20
304.191280
 30
0.0
 10
459.615692
 20
305.571835
 30
0.0
 10
460.734703
 20
306.690869
 30
0.0
 10
462.115278
 20
306.690869
 30
0.0
  0
SPLINE
  5
289
100
AcDbEntity
  8
Layer_1
 62
7
100
AcDbSpline
 70
8
 71
3
 72
8
 73
4
 74
0
 40
0
 40
0
 40
0
 40
0
 40
1
 40
1
 40
1
 40
1
 10
462.115278
 20
306.690869
 30
0.0
 10
463.495796
 20
306.690869
 30
0.0
 10
464.615400
 20
305.571835
 30
0.0
 10
464.615400
 20
304.191280
 30
0.0
  0
SPLINE
  5
28a
100
AcDbEntity
  8
Layer_1
 62
7
100
AcDbSpline
 70
8
 71
3
 72
8
 73
4
 74
0
 40
0
 40
0
 40
0
 40
0
 40
1
 40
1
 40
1
 40
1
 10
464.615400
 20
304.191280
 30
0.0
 10
464.615400
 20
302.810731
 30
0.0
 10
463.495796
 20
301.691691
 30
0.0
 10
462.115278
 20
301.691691
 30
0.0
  0
LINE
  5
28b
100
AcDbEntity
  8
Layer_1
 62
7
100
AcDbLine
 10
462.115278
 20
301.691691
 30
0.0
 11
462.115278
 21
301.691691
 31
0.0
  0
SPLINE
  5
28c
100
AcDbEntity
  8
Layer_1
 62
7
100
AcDbSpline
 70
8
 71
3
 72
8
 73
4
 74
0
 40
0
 40
0
 40
0
 40
0
 40
1
 40
1
 40
1
 40
1
 10
172.876609
 20
301.691691
 30
0.0
 10
171.496035
 20
301.691691
 30
0.0
 10
170.377024
 20
302.810731
 30
0.0
 10
170.377024
 20
304.191280
 30
0.0
  0
SPLINE
  5
28d
100
AcDbEntity
  8
Layer_1
 62
7
100
AcDbSpline
 70
8
 71
3
 72
8
 73
4
 74
0
 40
0
 40
0
 40
0
 40
0
 40
1
 40
1
 40
1
 40
1
 10
170.377024
 20
304.191280
 30
0.0
 10
170.377024
 20
305.571835
 30
0.0
 10
171.496035
 20
306.690869
 30
0.0
 10
172.876609
 20
306.690869
 30
0.0
  0
SPLINE
  5
28e
100
AcDbEntity
  8
Layer_1
 62
7
100
AcDbSpline
 70
8
 71
3
 72
8
 73
4
 74
0
 40
0
 40
0
 40
0
 40
0
 40
1
 40
1
 40
1
 40
1
 10
172.876609
 20
306.690869
 30
0.0
 10
174.257156
 20
306.690869
 30
0.0
 10
175.376703
 20
305.571835
 30
0.0
 10
175.376703
 20
304.191280
 30
0.0
  0
SPLINE
  5
28f
100
AcDbEntity
  8
Layer_1
 62
7
100
AcDbSpline
 70
8
 71
3
 72
8
 73
4
 74
0
 40
0
 40
0
 40
0
 40
0
 40
1
 40
1
 40
1
 40
1
 10
175.376703
 20
304.191280
 30
0.0
 10
175.376703
 20
302.810731
 30
0.0
 10
174.257156
 20
301.691691
 30
0.0
 10
172.876609
 20
301.691691
 30
0.0
  0
LINE
  5
290
100
AcDbEntity
  8
Layer_1
 62
7
100
AcDbLine
 10
172.876609
 20
301.691691
 30
0.0
 11
172.876609
 21
301.691691
 31
0.0
  0
LINE
  5
291
100
AcDbEntity
  8
Layer_1
 62
7
100
AcDbLine
 10
20.283705
 20
-78.936641
 30
0.0
 11
33.045195
 21
-128.930503
 31
0.0
  0
LINE
  5
292
100
AcDbEntity
  8
Layer_1
 62
7
100
AcDbLine
 10
33.045195
 20
-128.930503
 30
0.0
 11
316.028953
 21
-128.930503
 31
0.0
  0
LINE
  5
293
100
AcDbEntity
  8
Layer_1
 62
7
100
AcDbLine
 10
316.028953
 20
-128.930503
 30
0.0
 11
328.790449
 21
-78.936641
 31
0.0
  0
LINE
  5
294
100
AcDbEntity
  8
Layer_1
 62
7
100
AcDbLine
 10
328.790449
 20
-78.936641
 30
0.0
 11
20.283705
 21
-78.936641
 31
0.0
  0
SPLINE
  5
295
100
AcDbEntity
  8
Layer_1
 62
7
100
AcDbSpline
 70
8
 71
3
 72
8
 73
4
 74
0
 40
0
 40
0
 40
0
 40
0
 40
1
 40
1
 40
1
 40
1
 10
30.957473
 20
-90.781903
 30
0.0
 10
32.337988
 20
-90.781903
 30
0.0
 10
33.457070
 20
-91.901422
 30
0.0
 10
33.457070
 20
-93.282054
 30
0.0
  0
SPLINE
  5
296
100
AcDbEntity
  8
Layer_1
 62
7
100
AcDbSpline
 70
8
 71
3
 72
8
 73
4
 74
0
 40
0
 40
0
 40
0
 40
0
 40
1
 40
1
 40
1
 40
1
 10
33.457070
 20
-93.282054
 30
0.0
 10
33.457070
 20
-94.662600
 30
0.0
 10
32.337988
 20
-95.781611
 30
0.0
 10
30.957473
 20
-95.781611
 30
0.0
  0
SPLINE
  5
297
100
AcDbEntity
  8
Layer_1
 62
7
100
AcDbSpline
 70
8
 71
3
 72
8
 73
4
 74
0
 40
0
 40
0
 40
0
 40
0
 40
1
 40
1
 40
1
 40
1
 10
30.957473
 20
-95.781611
 30
0.0
 10
29.576904
 20
-95.781611
 30
0.0
 10
28.457876
 20
-94.662600
 30
0.0
 10
28.457876
 20
-93.282054
 30
0.0
  0
SPLINE
  5
298
100
AcDbEntity
  8
Layer_1
 62
7
100
AcDbSpline
 70
8
 71
3
 72
8
 73
4
 74
0
 40
0
 40
0
 40
0
 40
0
 40
1
 40
1
 40
1
 40
1
 10
28.457876
 20
-93.282054
 30
0.0
 10
28.457876
 20
-91.901422
 30
0.0
 10
29.576904
 20
-90.781903
 30
0.0
 10
30.957473
 20
-90.781903
 30
0.0
  0
LINE
  5
299
100
AcDbEntity
  8
Layer_1
 62
7
100
AcDbLine
 10
30.957473
 20
-90.781903
 30
0.0
 11
30.957473
 21
-90.781903
 31
0.0
  0
SPLINE
  5
29a
100
AcDbEntity
  8
Layer_1
 62
7
100
AcDbSpline
 70
8
 71
3
 72
8
 73
4
 74
0
 40
0
 40
0
 40
0
 40
0
 40
1
 40
1
 40
1
 40
1
 10
318.117200
 20
-90.781903
 30
0.0
 10
319.497774
 20
-90.781903
 30
0.0
 10
320.616785
 20
-91.901422
 30
0.0
 10
320.616785
 20
-93.282054
 30
0.0
  0
SPLINE
  5
29b
100
AcDbEntity
  8
Layer_1
 62
7
100
AcDbSpline
 70
8
 71
3
 72
8
 73
4
 74
0
 40
0
 40
0
 40
0
 40
0
 40
1
 40
1
 40
1
 40
1
 10
320.616785
 20
-93.282054
 30
0.0
 10
320.616785
 20
-94.662600
 30
0.0
 10
319.497774
 20
-95.781611
 30
0.0
 10
318.117200
 20
-95.781611
 30
0.0
  0
SPLINE
  5
29c
100
AcDbEntity
  8
Layer_1
 62
7
100
AcDbSpline
 70
8
 71
3
 72
8
 73
4
 74
0
 40
0
 40
0
 40
0
 40
0
 40
1
 40
1
 40
1
 40
1
 10
318.117200
 20
-95.781611
 30
0.0
 10
316.736653
 20
-95.781611
 30
0.0
 10
315.617106
 20
-94.662600
 30
0.0
 10
315.617106
 20
-93.282054
 30
0.0
  0
SPLINE
  5
29d
100
AcDbEntity
  8
Layer_1
 62
7
100
AcDbSpline
 70
8
 71
3
 72
8
 73
4
 74
0
 40
0
 40
0
 40
0
 40
0
 40
1
 40
1
 40
1
 40
1
 10
315.617106
 20
-93.282054
 30
0.0
 10
315.617106
 20
-91.901422
 30
0.0
 10
316.736653
 20
-90.781903
 30
0.0
 10
318.117200
 20
-90.781903
 30
0.0
  0
LINE
  5
29e
100
AcDbEntity
  8
Layer_1
 62
7
100
AcDbLine
 10
318.117200
 20
-90.781903
 30
0.0
 11
318.117200
 21
-90.781903
 31
0.0
  0
SPLINE
  5
29f
100
AcDbEntity
  8
Layer_1
 62
7
100
AcDbSpline
 70
8
 71
3
 72
8
 73
4
 74
0
 40
0
 40
0
 40
0
 40
0
 40
1
 40
1
 40
1
 40
1
 10
36.438793
 20
-112.085533
 30
0.0
 10
37.819362
 20
-112.085533
 30
0.0
 10
38.938895
 20
-113.204600
 30
0.0
 10
38.938895
 20
-114.585119
 30
0.0
  0
SPLINE
  5
2a0
100
AcDbEntity
  8
Layer_1
 62
7
100
AcDbSpline
 70
8
 71
3
 72
8
 73
4
 74
0
 40
0
 40
0
 40
0
 40
0
 40
1
 40
1
 40
1
 40
1
 10
38.938895
 20
-114.585119
 30
0.0
 10
38.938895
 20
-115.965665
 30
0.0
 10
37.819362
 20
-117.085241
 30
0.0
 10
36.438793
 20
-117.085241
 30
0.0
  0
SPLINE
  5
2a1
100
AcDbEntity
  8
Layer_1
 62
7
100
AcDbSpline
 70
8
 71
3
 72
8
 73
4
 74
0
 40
0
 40
0
 40
0
 40
0
 40
1
 40
1
 40
1
 40
1
 10
36.438793
 20
-117.085241
 30
0.0
 10
35.058277
 20
-117.085241
 30
0.0
 10
33.939196
 20
-115.965665
 30
0.0
 10
33.939196
 20
-114.585119
 30
0.0
  0
SPLINE
  5
2a2
100
AcDbEntity
  8
Layer_1
 62
7
100
AcDbSpline
 70
8
 71
3
 72
8
 73
4
 74
0
 40
0
 40
0
 40
0
 40
0
 40
1
 40
1
 40
1
 40
1
 10
33.939196
 20
-114.585119
 30
0.0
 10
33.939196
 20
-113.204600
 30
0.0
 10
35.058277
 20
-112.085533
 30
0.0
 10
36.438793
 20
-112.085533
 30
0.0
  0
LINE
  5
2a3
100
AcDbEntity
  8
Layer_1
 62
7
100
AcDbLine
 10
36.438793
 20
-112.085533
 30
0.0
 11
36.438793
 21
-112.085533
 31
0.0
  0
SPLINE
  5
2a4
100
AcDbEntity
  8
Layer_1
 62
7
100
AcDbSpline
 70
8
 71
3
 72
8
 73
4
 74
0
 40
0
 40
0
 40
0
 40
0
 40
1
 40
1
 40
1
 40
1
 10
312.635371
 20
-112.085533
 30
0.0
 10
314.015918
 20
-112.085533
 30
0.0
 10
315.134957
 20
-113.204600
 30
0.0
 10
315.134957
 20
-114.585119
 30
0.0
  0
SPLINE
  5
2a5
100
AcDbEntity
  8
Layer_1
 62
7
100
AcDbSpline
 70
8
 71
3
 72
8
 73
4
 74
0
 40
0
 40
0
 40
0
 40
0
 40
1
 40
1
 40
1
 40
1
 10
315.134957
 20
-114.585119
 30
0.0
 10
315.134957
 20
-115.965665
 30
0.0
 10
314.015918
 20
-117.085241
 30
0.0
 10
312.635371
 20
-117.085241
 30
0.0
  0
SPLINE
  5
2a6
100
AcDbEntity
  8
Layer_1
 62
7
100
AcDbSpline
 70
8
 71
3
 72
8
 73
4
 74
0
 40
0
 40
0
 40
0
 40
0
 40
1
 40
1
 40
1
 40
1
 10
312.635371
 20
-117.085241
 30
0.0
 10
311.254853
 20
-117.085241
 30
0.0
 10
310.135786
 20
-115.965665
 30
0.0
 10
310.135786
 20
-114.585119
 30
0.0
  0
SPLINE
  5
2a7
100
AcDbEntity
  8
Layer_1
 62
7
100
AcDbSpline
 70
8
 71
3
 72
8
 73
4
 74
0
 40
0
 40
0
 40
0
 40
0
 40
1
 40
1
 40
1
 40
1
 10
310.135786
 20
-114.585119
 30
0.0
 10
310.135786
 20
-113.204600
 30
0.0
 10
311.254853
 20
-112.085533
 30
0.0
 10
312.635371
 20
-112.085533
 30
0.0
  0
LINE
  5
2a8
100
AcDbEntity
  8
Layer_1
 62
7
100
AcDbLine
 10
312.635371
 20
-112.085533
 30
0.0
 11
312.635371
 21
-112.085533
 31
0.0
  0
LINE
  5
2a9
100
AcDbEntity
  8
Layer_1
 62
7
100
AcDbLine
 10
21.105820
 20
-141.000273
 30
0.0
 11
33.867317
 21
-190.994642
 31
0.0
  0
LINE
  5
2aa
100
AcDbEntity
  8
Layer_1
 62
7
100
AcDbLine
 10
33.867317
 20
-190.994642
 30
0.0
 11
316.851066
 21
-190.994642
 31
0.0
  0
LINE
  5
2ab
100
AcDbEntity
  8
Layer_1
 62
7
100
AcDbLine
 10
316.851066
 20
-190.994642
 30
0.0
 11
329.612563
 21
-141.000273
 31
0.0
  0
LINE
  5
2ac
100
AcDbEntity
  8
Layer_1
 62
7
100
AcDbLine
 10
329.612563
 20
-141.000273
 30
0.0
 11
21.105820
 21
-141.000273
 31
0.0
  0
SPLINE
  5
2ad
100
AcDbEntity
  8
Layer_1
 62
7
100
AcDbSpline
 70
8
 71
3
 72
8
 73
4
 74
0
 40
0
 40
0
 40
0
 40
0
 40
1
 40
1
 40
1
 40
1
 10
31.779606
 20
-152.846071
 30
0.0
 10
33.160152
 20
-152.846071
 30
0.0
 10
34.279164
 20
-153.965110
 30
0.0
 10
34.279164
 20
-155.345657
 30
0.0
  0
SPLINE
  5
2ae
100
AcDbEntity
  8
Layer_1
 62
7
100
AcDbSpline
 70
8
 71
3
 72
8
 73
4
 74
0
 40
0
 40
0
 40
0
 40
0
 40
1
 40
1
 40
1
 40
1
 10
34.279164
 20
-155.345657
 30
0.0
 10
34.279164
 20
-156.726203
 30
0.0
 10
33.160152
 20
-157.845243
 30
0.0
 10
31.779606
 20
-157.845243
 30
0.0
  0
SPLINE
  5
2af
100
AcDbEntity
  8
Layer_1
 62
7
100
AcDbSpline
 70
8
 71
3
 72
8
 73
4
 74
0
 40
0
 40
0
 40
0
 40
0
 40
1
 40
1
 40
1
 40
1
 10
31.779606
 20
-157.845243
 30
0.0
 10
30.399059
 20
-157.845243
 30
0.0
 10
29.279484
 20
-156.726203
 30
0.0
 10
29.279484
 20
-155.345657
 30
0.0
  0
SPLINE
  5
2b0
100
AcDbEntity
  8
Layer_1
 62
7
100
AcDbSpline
 70
8
 71
3
 72
8
 73
4
 74
0
 40
0
 40
0
 40
0
 40
0
 40
1
 40
1
 40
1
 40
1
 10
29.279484
 20
-155.345657
 30
0.0
 10
29.279484
 20
-153.965110
 30
0.0
 10
30.399059
 20
-152.846071
 30
0.0
 10
31.779606
 20
-152.846071
 30
0.0
  0
LINE
  5
2b1
100
AcDbEntity
  8
Layer_1
 62
7
100
AcDbLine
 10
31.779606
 20
-152.846071
 30
0.0
 11
31.779606
 21
-152.846071
 31
0.0
  0
SPLINE
  5
2b2
100
AcDbEntity
  8
Layer_1
 62
7
100
AcDbSpline
 70
8
 71
3
 72
8
 73
4
 74
0
 40
0
 40
0
 40
0
 40
0
 40
1
 40
1
 40
1
 40
1
 10
318.938777
 20
-152.846071
 30
0.0
 10
320.319323
 20
-152.846071
 30
0.0
 10
321.438927
 20
-153.965110
 30
0.0
 10
321.438927
 20
-155.345657
 30
0.0
  0
SPLINE
  5
2b3
100
AcDbEntity
  8
Layer_1
 62
7
100
AcDbSpline
 70
8
 71
3
 72
8
 73
4
 74
0
 40
0
 40
0
 40
0
 40
0
 40
1
 40
1
 40
1
 40
1
 10
321.438927
 20
-155.345657
 30
0.0
 10
321.438927
 20
-156.726203
 30
0.0
 10
320.319323
 20
-157.845243
 30
0.0
 10
318.938777
 20
-157.845243
 30
0.0
  0
SPLINE
  5
2b4
100
AcDbEntity
  8
Layer_1
 62
7
100
AcDbSpline
 70
8
 71
3
 72
8
 73
4
 74
0
 40
0
 40
0
 40
0
 40
0
 40
1
 40
1
 40
1
 40
1
 10
318.938777
 20
-157.845243
 30
0.0
 10
317.558230
 20
-157.845243
 30
0.0
 10
316.439219
 20
-156.726203
 30
0.0
 10
316.439219
 20
-155.345657
 30
0.0
  0
SPLINE
  5
2b5
100
AcDbEntity
  8
Layer_1
 62
7
100
AcDbSpline
 70
8
 71
3
 72
8
 73
4
 74
0
 40
0
 40
0
 40
0
 40
0
 40
1
 40
1
 40
1
 40
1
 10
316.439219
 20
-155.345657
 30
0.0
 10
316.439219
 20
-153.965110
 30
0.0
 10
317.558230
 20
-152.846071
 30
0.0
 10
318.938777
 20
-152.846071
 30
0.0
  0
LINE
  5
2b6
100
AcDbEntity
  8
Layer_1
 62
7
100
AcDbLine
 10
318.938777
 20
-152.846071
 30
0.0
 11
318.938777
 21
-152.846071
 31
0.0
  0
SPLINE
  5
2b7
100
AcDbEntity
  8
Layer_1
 62
7
100
AcDbSpline
 70
8
 71
3
 72
8
 73
4
 74
0
 40
0
 40
0
 40
0
 40
0
 40
1
 40
1
 40
1
 40
1
 10
37.260926
 20
-174.149164
 30
0.0
 10
38.641444
 20
-174.149164
 30
0.0
 10
39.761020
 20
-175.268740
 30
0.0
 10
39.761020
 20
-176.649258
 30
0.0
  0
SPLINE
  5
2b8
100
AcDbEntity
  8
Layer_1
 62
7
100
AcDbSpline
 70
8
 71
3
 72
8
 73
4
 74
0
 40
0
 40
0
 40
0
 40
0
 40
1
 40
1
 40
1
 40
1
 10
39.761020
 20
-176.649258
 30
0.0
 10
39.761020
 20
-178.029805
 30
0.0
 10
38.641444
 20
-179.148844
 30
0.0
 10
37.260926
 20
-179.148844
 30
0.0
  0
SPLINE
  5
2b9
100
AcDbEntity
  8
Layer_1
 62
7
100
AcDbSpline
 70
8
 71
3
 72
8
 73
4
 74
0
 40
0
 40
0
 40
0
 40
0
 40
1
 40
1
 40
1
 40
1
 10
37.260926
 20
-179.148844
 30
0.0
 10
35.880323
 20
-179.148844
 30
0.0
 10
34.761312
 20
-178.029805
 30
0.0
 10
34.761312
 20
-176.649258
 30
0.0
  0
SPLINE
  5
2ba
100
AcDbEntity
  8
Layer_1
 62
7
100
AcDbSpline
 70
8
 71
3
 72
8
 73
4
 74
0
 40
0
 40
0
 40
0
 40
0
 40
1
 40
1
 40
1
 40
1
 10
34.761312
 20
-176.649258
 30
0.0
 10
34.761312
 20
-175.268740
 30
0.0
 10
35.880323
 20
-174.149164
 30
0.0
 10
37.260926
 20
-174.149164
 30
0.0
  0
LINE
  5
2bb
100
AcDbEntity
  8
Layer_1
 62
7
100
AcDbLine
 10
37.260926
 20
-174.149164
 30
0.0
 11
37.260926
 21
-174.149164
 31
0.0
  0
SPLINE
  5
2bc
100
AcDbEntity
  8
Layer_1
 62
7
100
AcDbSpline
 70
8
 71
3
 72
8
 73
4
 74
0
 40
0
 40
0
 40
0
 40
0
 40
1
 40
1
 40
1
 40
1
 10
313.457457
 20
-174.149164
 30
0.0
 10
314.838031
 20
-174.149164
 30
0.0
 10
315.957071
 20
-175.268740
 30
0.0
 10
315.957071
 20
-176.649258
 30
0.0
  0
SPLINE
  5
2bd
100
AcDbEntity
  8
Layer_1
 62
7
100
AcDbSpline
 70
8
 71
3
 72
8
 73
4
 74
0
 40
0
 40
0
 40
0
 40
0
 40
1
 40
1
 40
1
 40
1
 10
315.957071
 20
-176.649258
 30
0.0
 10
315.957071
 20
-178.029805
 30
0.0
 10
314.838031
 20
-179.148844
 30
0.0
 10
313.457457
 20
-179.148844
 30
0.0
  0
SPLINE
  5
2be
100
AcDbEntity
  8
Layer_1
 62
7
100
AcDbSpline
 70
8
 71
3
 72
8
 73
4
 74
0
 40
0
 40
0
 40
0
 40
0
 40
1
 40
1
 40
1
 40
1
 10
313.457457
 20
-179.148844
 30
0.0
 10
312.076910
 20
-179.148844
 30
0.0
 10
310.957363
 20
-178.029805
 30
0.0
 10
310.957363
 20
-176.649258
 30
0.0
  0
SPLINE
  5
2bf
100
AcDbEntity
  8
Layer_1
 62
7
100
AcDbSpline
 70
8
 71
3
 72
8
 73
4
 74
0
 40
0
 40
0
 40
0
 40
0
 40
1
 40
1
 40
1
 40
1
 10
310.957363
 20
-176.649258
 30
0.0
 10
310.957363
 20
-175.268740
 30
0.0
 10
312.076910
 20
-174.149164
 30
0.0
 10
313.457457
 20
-174.149164
 30
0.0
  0
LINE
  5
2c0
100
AcDbEntity
  8
Layer_1
 62
7
100
AcDbLine
 10
313.457457
 20
-174.149164
 30
0.0
 11
313.457457
 21
-174.149164
 31
0.0
  0
LINE
  5
2c1
100
AcDbEntity
  8
Layer_1
 62
7
100
AcDbLine
 10
27.998479
 20
-18.958378
 30
0.0
 11
15.236990
 21
-68.952748
 31
0.0
  0
LINE
  5
2c2
100
AcDbEntity
  8
Layer_1
 62
7
100
AcDbLine
 10
15.236990
 20
-68.952748
 30
0.0
 11
323.743723
 21
-68.952748
 31
0.0
  0
LINE
  5
2c3
100
AcDbEntity
  8
Layer_1
 62
7
100
AcDbLine
 10
323.743723
 20
-68.952748
 30
0.0
 11
310.982226
 21
-18.958378
 31
0.0
  0
LINE
  5
2c4
100
AcDbEntity
  8
Layer_1
 62
7
100
AcDbLine
 10
310.982226
 20
-18.958378
 30
0.0
 11
27.998479
 21
-18.958378
 31
0.0
  0
SPLINE
  5
2c5
100
AcDbEntity
  8
Layer_1
 62
7
100
AcDbSpline
 70
8
 71
3
 72
8
 73
4
 74
0
 40
0
 40
0
 40
0
 40
0
 40
1
 40
1
 40
1
 40
1
 10
31.392078
 20
-30.804176
 30
0.0
 10
32.772647
 20
-30.804176
 30
0.0
 10
33.891650
 20
-31.923244
 30
0.0
 10
33.891650
 20
-33.303790
 30
0.0
  0
SPLINE
  5
2c6
100
AcDbEntity
  8
Layer_1
 62
7
100
AcDbSpline
 70
8
 71
3
 72
8
 73
4
 74
0
 40
0
 40
0
 40
0
 40
0
 40
1
 40
1
 40
1
 40
1
 10
33.891650
 20
-33.303790
 30
0.0
 10
33.891650
 20
-34.684337
 30
0.0
 10
32.772647
 20
-35.803376
 30
0.0
 10
31.392078
 20
-35.803376
 30
0.0
  0
SPLINE
  5
2c7
100
AcDbEntity
  8
Layer_1
 62
7
100
AcDbSpline
 70
8
 71
3
 72
8
 73
4
 74
0
 40
0
 40
0
 40
0
 40
0
 40
1
 40
1
 40
1
 40
1
 10
31.392078
 20
-35.803376
 30
0.0
 10
30.011563
 20
-35.803376
 30
0.0
 10
28.892481
 20
-34.684337
 30
0.0
 10
28.892481
 20
-33.303790
 30
0.0
  0
SPLINE
  5
2c8
100
AcDbEntity
  8
Layer_1
 62
7
100
AcDbSpline
 70
8
 71
3
 72
8
 73
4
 74
0
 40
0
 40
0
 40
0
 40
0
 40
1
 40
1
 40
1
 40
1
 10
28.892481
 20
-33.303790
 30
0.0
 10
28.892481
 20
-31.923244
 30
0.0
 10
30.011563
 20
-30.804176
 30
0.0
 10
31.392078
 20
-30.804176
 30
0.0
  0
LINE
  5
2c9
100
AcDbEntity
  8
Layer_1
 62
7
100
AcDbLine
 10
31.392078
 20
-30.804176
 30
0.0
 11
31.392078
 21
-30.804176
 31
0.0
  0
SPLINE
  5
2ca
100
AcDbEntity
  8
Layer_1
 62
7
100
AcDbSpline
 70
8
 71
3
 72
8
 73
4
 74
0
 40
0
 40
0
 40
0
 40
0
 40
1
 40
1
 40
1
 40
1
 10
307.588137
 20
-30.804176
 30
0.0
 10
308.968684
 20
-30.804176
 30
0.0
 10
310.088231
 20
-31.923244
 30
0.0
 10
310.088231
 20
-33.303790
 30
0.0
  0
SPLINE
  5
2cb
100
AcDbEntity
  8
Layer_1
 62
7
100
AcDbSpline
 70
8
 71
3
 72
8
 73
4
 74
0
 40
0
 40
0
 40
0
 40
0
 40
1
 40
1
 40
1
 40
1
 10
310.088231
 20
-33.303790
 30
0.0
 10
310.088231
 20
-34.684337
 30
0.0
 10
308.968684
 20
-35.803376
 30
0.0
 10
307.588137
 20
-35.803376
 30
0.0
  0
SPLINE
  5
2cc
100
AcDbEntity
  8
Layer_1
 62
7
100
AcDbSpline
 70
8
 71
3
 72
8
 73
4
 74
0
 40
0
 40
0
 40
0
 40
0
 40
1
 40
1
 40
1
 40
1
 10
307.588137
 20
-35.803376
 30
0.0
 10
306.207591
 20
-35.803376
 30
0.0
 10
305.088551
 20
-34.684337
 30
0.0
 10
305.088551
 20
-33.303790
 30
0.0
  0
SPLINE
  5
2cd
100
AcDbEntity
  8
Layer_1
 62
7
100
AcDbSpline
 70
8
 71
3
 72
8
 73
4
 74
0
 40
0
 40
0
 40
0
 40
0
 40
1
 40
1
 40
1
 40
1
 10
305.088551
 20
-33.303790
 30
0.0
 10
305.088551
 20
-31.923244
 30
0.0
 10
306.207591
 20
-30.804176
 30
0.0
 10
307.588137
 20
-30.804176
 30
0.0
  0
LINE
  5
2ce
100
AcDbEntity
  8
Layer_1
 62
7
100
AcDbLine
 10
307.588137
 20
-30.804176
 30
0.0
 11
307.588137
 21
-30.804176
 31
0.0
  0
LINE
  5
2cf
100
AcDbEntity
  8
Layer_1
 62
7
100
AcDbLine
 10
155.733836
 20
-46.455431
 30
0.0
 11
159.733071
 21
-46.455431
 31
0.0
  0
SPLINE
  5
2d0
100
AcDbEntity
  8
Layer_1
 62
7
100
AcDbSpline
 70
8
 71
3
 72
8
 73
4
 74
0
 40
0
 40
0
 40
0
 40
0
 40
1
 40
1
 40
1
 40
1
 10
159.733071
 20
-46.455431
 30
0.0
 10
161.113635
 20
-46.455431
 30
0.0
 10
162.232663
 20
-47.574470
 30
0.0
 10
162.232663
 20
-48.955017
 30
0.0
  0
SPLINE
  5
2d1
100
AcDbEntity
  8
Layer_1
 62
7
100
AcDbSpline
 70
8
 71
3
 72
8
 73
4
 74
0
 40
0
 40
0
 40
0
 40
0
 40
1
 40
1
 40
1
 40
1
 10
162.232663
 20
-48.955017
 30
0.0
 10
162.232663
 20
-50.335591
 30
0.0
 10
161.113635
 20
-51.454631
 30
0.0
 10
159.733071
 20
-51.454631
 30
0.0
  0
LINE
  5
2d2
100
AcDbEntity
  8
Layer_1
 62
7
100
AcDbLine
 10
159.733071
 20
-51.454631
 30
0.0
 11
155.733836
 21
-51.454631
 31
0.0
  0
SPLINE
  5
2d3
100
AcDbEntity
  8
Layer_1
 62
7
100
AcDbSpline
 70
8
 71
3
 72
8
 73
4
 74
0
 40
0
 40
0
 40
0
 40
0
 40
1
 40
1
 40
1
 40
1
 10
155.733836
 20
-51.454631
 30
0.0
 10
154.353272
 20
-51.454631
 30
0.0
 10
153.233728
 20
-50.335591
 30
0.0
 10
153.233728
 20
-48.955017
 30
0.0
  0
SPLINE
  5
2d4
100
AcDbEntity
  8
Layer_1
 62
7
100
AcDbSpline
 70
8
 71
3
 72
8
 73
4
 74
0
 40
0
 40
0
 40
0
 40
0
 40
1
 40
1
 40
1
 40
1
 10
153.233728
 20
-48.955017
 30
0.0
 10
153.233728
 20
-47.574470
 30
0.0
 10
154.353272
 20
-46.455431
 30
0.0
 10
155.733836
 20
-46.455431
 30
0.0
  0
LINE
  5
2d5
100
AcDbEntity
  8
Layer_1
 62
7
100
AcDbLine
 10
155.733836
 20
-46.455431
 30
0.0
 11
155.733836
 21
-46.455431
 31
0.0
  0
SPLINE
  5
2d6
100
AcDbEntity
  8
Layer_1
 62
7
100
AcDbSpline
 70
8
 71
3
 72
8
 73
4
 74
0
 40
0
 40
0
 40
0
 40
0
 40
1
 40
1
 40
1
 40
1
 10
25.910228
 20
-52.107806
 30
0.0
 10
27.290772
 20
-52.107806
 30
0.0
 10
28.410330
 20
-53.226817
 30
0.0
 10
28.410330
 20
-54.607392
 30
0.0
  0
SPLINE
  5
2d7
100
AcDbEntity
  8
Layer_1
 62
7
100
AcDbSpline
 70
8
 71
3
 72
8
 73
4
 74
0
 40
0
 40
0
 40
0
 40
0
 40
1
 40
1
 40
1
 40
1
 10
28.410330
 20
-54.607392
 30
0.0
 10
28.410330
 20
-55.987938
 30
0.0
 10
27.290772
 20
-57.106978
 30
0.0
 10
25.910228
 20
-57.106978
 30
0.0
  0
SPLINE
  5
2d8
100
AcDbEntity
  8
Layer_1
 62
7
100
AcDbSpline
 70
8
 71
3
 72
8
 73
4
 74
0
 40
0
 40
0
 40
0
 40
0
 40
1
 40
1
 40
1
 40
1
 10
25.910228
 20
-57.106978
 30
0.0
 10
24.529659
 20
-57.106978
 30
0.0
 10
23.410657
 20
-55.987938
 30
0.0
 10
23.410657
 20
-54.607392
 30
0.0
  0
SPLINE
  5
2d9
100
AcDbEntity
  8
Layer_1
 62
7
100
AcDbSpline
 70
8
 71
3
 72
8
 73
4
 74
0
 40
0
 40
0
 40
0
 40
0
 40
1
 40
1
 40
1
 40
1
 10
23.410657
 20
-54.607392
 30
0.0
 10
23.410657
 20
-53.226817
 30
0.0
 10
24.529659
 20
-52.107806
 30
0.0
 10
25.910228
 20
-52.107806
 30
0.0
  0
LINE
  5
2da
100
AcDbEntity
  8
Layer_1
 62
7
100
AcDbLine
 10
25.910228
 20
-52.107806
 30
0.0
 11
25.910228
 21
-52.107806
 31
0.0
  0
SPLINE
  5
2db
100
AcDbEntity
  8
Layer_1
 62
7
100
AcDbSpline
 70
8
 71
3
 72
8
 73
4
 74
0
 40
0
 40
0
 40
0
 40
0
 40
1
 40
1
 40
1
 40
1
 10
313.069965
 20
-52.107806
 30
0.0
 10
314.450540
 20
-52.107806
 30
0.0
 10
315.569551
 20
-53.226817
 30
0.0
 10
315.569551
 20
-54.607392
 30
0.0
  0
SPLINE
  5
2dc
100
AcDbEntity
  8
Layer_1
 62
7
100
AcDbSpline
 70
8
 71
3
 72
8
 73
4
 74
0
 40
0
 40
0
 40
0
 40
0
 40
1
 40
1
 40
1
 40
1
 10
315.569551
 20
-54.607392
 30
0.0
 10
315.569551
 20
-55.987938
 30
0.0
 10
314.450540
 20
-57.106978
 30
0.0
 10
313.069965
 20
-57.106978
 30
0.0
  0
SPLINE
  5
2dd
100
AcDbEntity
  8
Layer_1
 62
7
100
AcDbSpline
 70
8
 71
3
 72
8
 73
4
 74
0
 40
0
 40
0
 40
0
 40
0
 40
1
 40
1
 40
1
 40
1
 10
313.069965
 20
-57.106978
 30
0.0
 10
311.689391
 20
-57.106978
 30
0.0
 10
310.570380
 20
-55.987938
 30
0.0
 10
310.570380
 20
-54.607392
 30
0.0
  0
SPLINE
  5
2de
100
AcDbEntity
  8
Layer_1
 62
7
100
AcDbSpline
 70
8
 71
3
 72
8
 73
4
 74
0
 40
0
 40
0
 40
0
 40
0
 40
1
 40
1
 40
1
 40
1
 10
310.570380
 20
-54.607392
 30
0.0
 10
310.570380
 20
-53.226817
 30
0.0
 10
311.689391
 20
-52.107806
 30
0.0
 10
313.069965
 20
-52.107806
 30
0.0
  0
LINE
  5
2df
100
AcDbEntity
  8
Layer_1
 62
7
100
AcDbLine
 10
313.069965
 20
-52.107806
 30
0.0
 11
313.069965
 21
-52.107806
 31
0.0
  0
LINE
  5
2e0
100
AcDbEntity
  8
Layer_1
 62
7
100
AcDbLine
 10
142.418311
 20
160.868609
 30
0.0
 11
142.418311
 21
165.868819
 31
0.0
  0
LINE
  5
2e1
100
AcDbEntity
  8
Layer_1
 62
7
100
AcDbLine
 10
142.418311
 20
165.868819
 30
0.0
 11
157.418423
 21
165.868819
 31
0.0
  0
LINE
  5
2e2
100
AcDbEntity
  8
Layer_1
 62
7
100
AcDbLine
 10
157.418423
 20
165.868819
 30
0.0
 11
157.418423
 21
176.869184
 31
0.0
  0
LINE
  5
2e3
100
AcDbEntity
  8
Layer_1
 62
7
100
AcDbLine
 10
157.418423
 20
176.869184
 30
0.0
 11
162.418639
 21
176.869184
 31
0.0
  0
LINE
  5
2e4
100
AcDbEntity
  8
Layer_1
 62
7
100
AcDbLine
 10
162.418639
 20
176.869184
 30
0.0
 11
162.418639
 21
196.869511
 31
0.0
  0
LINE
  5
2e5
100
AcDbEntity
  8
Layer_1
 62
7
100
AcDbLine
 10
162.418639
 20
196.869511
 30
0.0
 11
157.418423
 21
196.869511
 31
0.0
  0
LINE
  5
2e6
100
AcDbEntity
  8
Layer_1
 62
7
100
AcDbLine
 10
157.418423
 20
196.869511
 30
0.0
 11
157.418423
 21
212.870083
 31
0.0
  0
LINE
  5
2e7
100
AcDbEntity
  8
Layer_1
 62
7
100
AcDbLine
 10
157.418423
 20
212.870083
 30
0.0
 11
162.418639
 21
212.870083
 31
0.0
  0
LINE
  5
2e8
100
AcDbEntity
  8
Layer_1
 62
7
100
AcDbLine
 10
162.418639
 20
212.870083
 30
0.0
 11
162.418639
 21
232.870411
 31
0.0
  0
LINE
  5
2e9
100
AcDbEntity
  8
Layer_1
 62
7
100
AcDbLine
 10
162.418639
 20
232.870411
 30
0.0
 11
147.568387
 21
232.870411
 31
0.0
  0
LINE
  5
2ea
100
AcDbEntity
  8
Layer_1
 62
7
100
AcDbLine
 10
147.568387
 20
232.870411
 30
0.0
 11
147.568387
 21
248.870972
 31
0.0
  0
LINE
  5
2eb
100
AcDbEntity
  8
Layer_1
 62
7
100
AcDbLine
 10
147.568387
 20
248.870972
 30
0.0
 11
137.418096
 21
248.870972
 31
0.0
  0
LINE
  5
2ec
100
AcDbEntity
  8
Layer_1
 62
7
100
AcDbLine
 10
137.418096
 20
248.870972
 30
0.0
 11
137.418096
 21
243.870784
 31
0.0
  0
LINE
  5
2ed
100
AcDbEntity
  8
Layer_1
 62
7
100
AcDbLine
 10
137.418096
 20
243.870784
 30
0.0
 11
117.417260
 21
243.870784
 31
0.0
  0
LINE
  5
2ee
100
AcDbEntity
  8
Layer_1
 62
7
100
AcDbLine
 10
117.417260
 20
243.870784
 30
0.0
 11
117.417260
 21
248.870972
 31
0.0
  0
LINE
  5
2ef
100
AcDbEntity
  8
Layer_1
 62
7
100
AcDbLine
 10
117.417260
 20
248.870972
 30
0.0
 11
97.416933
 21
248.870972
 31
0.0
  0
LINE
  5
2f0
100
AcDbEntity
  8
Layer_1
 62
7
100
AcDbLine
 10
97.416933
 20
248.870972
 30
0.0
 11
97.416933
 21
243.870784
 31
0.0
  0
LINE
  5
2f1
100
AcDbEntity
  8
Layer_1
 62
7
100
AcDbLine
 10
97.416933
 20
243.870784
 30
0.0
 11
77.416577
 21
243.870784
 31
0.0
  0
LINE
  5
2f2
100
AcDbEntity
  8
Layer_1
 62
7
100
AcDbLine
 10
77.416577
 20
243.870784
 30
0.0
 11
77.416577
 21
248.870972
 31
0.0
  0
LINE
  5
2f3
100
AcDbEntity
  8
Layer_1
 62
7
100
AcDbLine
 10
77.416577
 20
248.870972
 30
0.0
 11
57.415742
 21
248.870972
 31
0.0
  0
LINE
  5
2f4
100
AcDbEntity
  8
Layer_1
 62
7
100
AcDbLine
 10
57.415742
 20
248.870972
 30
0.0
 11
57.415742
 21
243.870784
 31
0.0
  0
LINE
  5
2f5
100
AcDbEntity
  8
Layer_1
 62
7
100
AcDbLine
 10
57.415742
 20
243.870784
 30
0.0
 11
37.415414
 21
243.870784
 31
0.0
  0
LINE
  5
2f6
100
AcDbEntity
  8
Layer_1
 62
7
100
AcDbLine
 10
37.415414
 20
243.870784
 30
0.0
 11
37.415414
 21
248.870972
 31
0.0
  0
LINE
  5
2f7
100
AcDbEntity
  8
Layer_1
 62
7
100
AcDbLine
 10
37.415414
 20
248.870972
 30
0.0
 11
27.265124
 21
248.870972
 31
0.0
  0
LINE
  5
2f8
100
AcDbEntity
  8
Layer_1
 62
7
100
AcDbLine
 10
27.265124
 20
248.870972
 30
0.0
 11
27.265124
 21
232.870411
 31
0.0
  0
LINE
  5
2f9
100
AcDbEntity
  8
Layer_1
 62
7
100
AcDbLine
 10
27.265124
 20
232.870411
 30
0.0
 11
12.414873
 21
232.870411
 31
0.0
  0
LINE
  5
2fa
100
AcDbEntity
  8
Layer_1
 62
7
100
AcDbLine
 10
12.414873
 20
232.870411
 30
0.0
 11
12.414873
 21
212.870083
 31
0.0
  0
LINE
  5
2fb
100
AcDbEntity
  8
Layer_1
 62
7
100
AcDbLine
 10
12.414873
 20
212.870083
 30
0.0
 11
17.415089
 21
212.870083
 31
0.0
  0
LINE
  5
2fc
100
AcDbEntity
  8
Layer_1
 62
7
100
AcDbLine
 10
17.415089
 20
212.870083
 30
0.0
 11
17.415089
 21
196.869511
 31
0.0
  0
LINE
  5
2fd
100
AcDbEntity
  8
Layer_1
 62
7
100
AcDbLine
 10
17.415089
 20
196.869511
 30
0.0
 11
12.414873
 21
196.869511
 31
0.0
  0
LINE
  5
2fe
100
AcDbEntity
  8
Layer_1
 62
7
100
AcDbLine
 10
12.414873
 20
196.869511
 30
0.0
 11
12.414873
 21
176.869184
 31
0.0
  0
LINE
  5
2ff
100
AcDbEntity
  8
Layer_1
 62
7
100
AcDbLine
 10
12.414873
 20
176.869184
 30
0.0
 11
17.415089
 21
176.869184
 31
0.0
  0
LINE
  5
300
100
AcDbEntity
  8
Layer_1
 62
7
100
AcDbLine
 10
17.415089
 20
176.869184
 30
0.0
 11
17.415089
 21
165.868819
 31
0.0
  0
LINE
  5
301
100
AcDbEntity
  8
Layer_1
 62
7
100
AcDbLine
 10
17.415089
 20
165.868819
 30
0.0
 11
32.415227
 21
165.868819
 31
0.0
  0
LINE
  5
302
100
AcDbEntity
  8
Layer_1
 62
7
100
AcDbLine
 10
32.415227
 20
165.868819
 30
0.0
 11
32.415227
 21
160.868609
 31
0.0
  0
LINE
  5
303
100
AcDbEntity
  8
Layer_1
 62
7
100
AcDbLine
 10
32.415227
 20
160.868609
 30
0.0
 11
52.415554
 21
160.868609
 31
0.0
  0
LINE
  5
304
100
AcDbEntity
  8
Layer_1
 62
7
100
AcDbLine
 10
52.415554
 20
160.868609
 30
0.0
 11
52.415554
 21
165.868819
 31
0.0
  0
LINE
  5
305
100
AcDbEntity
  8
Layer_1
 62
7
100
AcDbLine
 10
52.415554
 20
165.868819
 30
0.0
 11
67.416174
 21
165.868819
 31
0.0
  0
LINE
  5
306
100
AcDbEntity
  8
Layer_1
 62
7
100
AcDbLine
 10
67.416174
 20
165.868819
 30
0.0
 11
76.863647
 21
197.974860
 31
0.0
  0
SPLINE
  5
307
100
AcDbEntity
  8
Layer_1
 62
7
100
AcDbSpline
 70
8
 71
3
 72
8
 73
4
 74
0
 40
0
 40
0
 40
0
 40
0
 40
1
 40
1
 40
1
 40
1
 10
76.863647
 20
197.974860
 30
0.0
 10
78.578684
 20
203.803073
 30
0.0
 10
84.694044
 20
207.137501
 30
0.0
 10
90.522244
 20
205.422493
 30
0.0
  0
SPLINE
  5
308
100
AcDbEntity
  8
Layer_1
 62
7
100
AcDbSpline
 70
8
 71
3
 72
8
 73
4
 74
0
 40
0
 40
0
 40
0
 40
0
 40
1
 40
1
 40
1
 40
1
 10
90.522244
 20
205.422493
 30
0.0
 10
94.109119
 20
204.366982
 30
0.0
 10
96.913872
 20
201.561777
 30
0.0
 10
97.969355
 20
197.974860
 30
0.0
  0
LINE
  5
309
100
AcDbEntity
  8
Layer_1
 62
7
100
AcDbLine
 10
97.969355
 20
197.974860
 30
0.0
 11
107.417336
 21
165.868819
 31
0.0
  0
LINE
  5
30a
100
AcDbEntity
  8
Layer_1
 62
7
100
AcDbLine
 10
107.417336
 20
165.868819
 30
0.0
 11
122.417448
 21
165.868819
 31
0.0
  0
LINE
  5
30b
100
AcDbEntity
  8
Layer_1
 62
7
100
AcDbLine
 10
122.417448
 20
165.868819
 30
0.0
 11
122.417448
 21
160.868609
 31
0.0
  0
LINE
  5
30c
100
AcDbEntity
  8
Layer_1
 62
7
100
AcDbLine
 10
122.417448
 20
160.868609
 30
0.0
 11
142.418311
 21
160.868609
 31
0.0
  0
SPLINE
  5
30d
100
AcDbEntity
  8
Layer_1
 62
7
100
AcDbSpline
 70
8
 71
3
 72
8
 73
4
 74
0
 40
0
 40
0
 40
0
 40
0
 40
1
 40
1
 40
1
 40
1
 10
135.168107
 20
182.651254
 30
0.0
 10
134.615798
 20
182.651254
 30
0.0
 10
134.168166
 20
183.099403
 30
0.0
 10
134.168166
 20
183.651720
 30
0.0
  0
SPLINE
  5
30e
100
AcDbEntity
  8
Layer_1
 62
7
100
AcDbSpline
 70
8
 71
3
 72
8
 73
4
 74
0
 40
0
 40
0
 40
0
 40
0
 40
1
 40
1
 40
1
 40
1
 10
134.168166
 20
183.651720
 30
0.0
 10
134.168166
 20
184.204012
 30
0.0
 10
134.615798
 20
184.651662
 30
0.0
 10
135.168107
 20
184.651662
 30
0.0
  0
SPLINE
  5
30f
100
AcDbEntity
  8
Layer_1
 62
7
100
AcDbSpline
 70
8
 71
3
 72
8
 73
4
 74
0
 40
0
 40
0
 40
0
 40
0
 40
1
 40
1
 40
1
 40
1
 10
135.168107
 20
184.651662
 30
0.0
 10
135.720388
 20
184.651662
 30
0.0
 10
136.168049
 20
184.204012
 30
0.0
 10
136.168049
 20
183.651720
 30
0.0
  0
SPLINE
  5
310
100
AcDbEntity
  8
Layer_1
 62
7
100
AcDbSpline
 70
8
 71
3
 72
8
 73
4
 74
0
 40
0
 40
0
 40
0
 40
0
 40
1
 40
1
 40
1
 40
1
 10
136.168049
 20
183.651720
 30
0.0
 10
136.168049
 20
183.099403
 30
0.0
 10
135.720388
 20
182.651254
 30
0.0
 10
135.168107
 20
182.651254
 30
0.0
  0
LINE
  5
311
100
AcDbEntity
  8
Layer_1
 62
7
100
AcDbLine
 10
135.168107
 20
182.651254
 30
0.0
 11
135.168107
 21
182.651254
 31
0.0
  0
SPLINE
  5
312
100
AcDbEntity
  8
Layer_1
 62
7
100
AcDbSpline
 70
8
 71
3
 72
8
 73
4
 74
0
 40
0
 40
0
 40
0
 40
0
 40
1
 40
1
 40
1
 40
1
 10
110.667266
 20
182.651254
 30
0.0
 10
110.114958
 20
182.651254
 30
0.0
 10
109.667325
 20
183.099403
 30
0.0
 10
109.667325
 20
183.651720
 30
0.0
  0
SPLINE
  5
313
100
AcDbEntity
  8
Layer_1
 62
7
100
AcDbSpline
 70
8
 71
3
 72
8
 73
4
 74
0
 40
0
 40
0
 40
0
 40
0
 40
1
 40
1
 40
1
 40
1
 10
109.667325
 20
183.651720
 30
0.0
 10
109.667325
 20
184.204012
 30
0.0
 10
110.114958
 20
184.651662
 30
0.0
 10
110.667266
 20
184.651662
 30
0.0
  0
SPLINE
  5
314
100
AcDbEntity
  8
Layer_1
 62
7
100
AcDbSpline
 70
8
 71
3
 72
8
 73
4
 74
0
 40
0
 40
0
 40
0
 40
0
 40
1
 40
1
 40
1
 40
1
 10
110.667266
 20
184.651662
 30
0.0
 10
111.219575
 20
184.651662
 30
0.0
 10
111.667208
 20
184.204012
 30
0.0
 10
111.667208
 20
183.651720
 30
0.0
  0
SPLINE
  5
315
100
AcDbEntity
  8
Layer_1
 62
7
100
AcDbSpline
 70
8
 71
3
 72
8
 73
4
 74
0
 40
0
 40
0
 40
0
 40
0
 40
1
 40
1
 40
1
 40
1
 10
111.667208
 20
183.651720
 30
0.0
 10
111.667208
 20
183.099403
 30
0.0
 10
111.219575
 20
182.651254
 30
0.0
 10
110.667266
 20
182.651254
 30
0.0
  0
LINE
  5
316
100
AcDbEntity
  8
Layer_1
 62
7
100
AcDbLine
 10
110.667266
 20
182.651254
 30
0.0
 11
110.667266
 21
182.651254
 31
0.0
  0
SPLINE
  5
317
100
AcDbEntity
  8
Layer_1
 62
7
100
AcDbSpline
 70
8
 71
3
 72
8
 73
4
 74
0
 40
0
 40
0
 40
0
 40
0
 40
1
 40
1
 40
1
 40
1
 10
64.166244
 20
182.651254
 30
0.0
 10
63.613935
 20
182.651254
 30
0.0
 10
63.166302
 20
183.099403
 30
0.0
 10
63.166302
 20
183.651720
 30
0.0
  0
SPLINE
  5
318
100
AcDbEntity
  8
Layer_1
 62
7
100
AcDbSpline
 70
8
 71
3
 72
8
 73
4
 74
0
 40
0
 40
0
 40
0
 40
0
 40
1
 40
1
 40
1
 40
1
 10
63.166302
 20
183.651720
 30
0.0
 10
63.166302
 20
184.204012
 30
0.0
 10
63.613935
 20
184.651662
 30
0.0
 10
64.166244
 20
184.651662
 30
0.0
  0
SPLINE
  5
319
100
AcDbEntity
  8
Layer_1
 62
7
100
AcDbSpline
 70
8
 71
3
 72
8
 73
4
 74
0
 40
0
 40
0
 40
0
 40
0
 40
1
 40
1
 40
1
 40
1
 10
64.166244
 20
184.651662
 30
0.0
 10
64.718552
 20
184.651662
 30
0.0
 10
65.166185
 20
184.204012
 30
0.0
 10
65.166185
 20
183.651720
 30
0.0
  0
SPLINE
  5
31a
100
AcDbEntity
  8
Layer_1
 62
7
100
AcDbSpline
 70
8
 71
3
 72
8
 73
4
 74
0
 40
0
 40
0
 40
0
 40
0
 40
1
 40
1
 40
1
 40
1
 10
65.166185
 20
183.651720
 30
0.0
 10
65.166185
 20
183.099403
 30
0.0
 10
64.718552
 20
182.651254
 30
0.0
 10
64.166244
 20
182.651254
 30
0.0
  0
LINE
  5
31b
100
AcDbEntity
  8
Layer_1
 62
7
100
AcDbLine
 10
64.166244
 20
182.651254
 30
0.0
 11
64.166244
 21
182.651254
 31
0.0
  0
SPLINE
  5
31c
100
AcDbEntity
  8
Layer_1
 62
7
100
AcDbSpline
 70
8
 71
3
 72
8
 73
4
 74
0
 40
0
 40
0
 40
0
 40
0
 40
1
 40
1
 40
1
 40
1
 10
39.665403
 20
182.651254
 30
0.0
 10
39.113094
 20
182.651254
 30
0.0
 10
38.665461
 20
183.099403
 30
0.0
 10
38.665461
 20
183.651720
 30
0.0
  0
SPLINE
  5
31d
100
AcDbEntity
  8
Layer_1
 62
7
100
AcDbSpline
 70
8
 71
3
 72
8
 73
4
 74
0
 40
0
 40
0
 40
0
 40
0
 40
1
 40
1
 40
1
 40
1
 10
38.665461
 20
183.651720
 30
0.0
 10
38.665461
 20
184.204012
 30
0.0
 10
39.113094
 20
184.651662
 30
0.0
 10
39.665403
 20
184.651662
 30
0.0
  0
SPLINE
  5
31e
100
AcDbEntity
  8
Layer_1
 62
7
100
AcDbSpline
 70
8
 71
3
 72
8
 73
4
 74
0
 40
0
 40
0
 40
0
 40
0
 40
1
 40
1
 40
1
 40
1
 10
39.665403
 20
184.651662
 30
0.0
 10
40.217655
 20
184.651662
 30
0.0
 10
40.665345
 20
184.204012
 30
0.0
 10
40.665345
 20
183.651720
 30
0.0
  0
SPLINE
  5
31f
100
AcDbEntity
  8
Layer_1
 62
7
100
AcDbSpline
 70
8
 71
3
 72
8
 73
4
 74
0
 40
0
 40
0
 40
0
 40
0
 40
1
 40
1
 40
1
 40
1
 10
40.665345
 20
183.651720
 30
0.0
 10
40.665345
 20
183.099403
 30
0.0
 10
40.217655
 20
182.651254
 30
0.0
 10
39.665403
 20
182.651254
 30
0.0
  0
LINE
  5
320
100
AcDbEntity
  8
Layer_1
 62
7
100
AcDbLine
 10
39.665403
 20
182.651254
 30
0.0
 11
39.665403
 21
182.651254
 31
0.0
  0
SPLINE
  5
321
100
AcDbEntity
  8
Layer_1
 62
7
100
AcDbSpline
 70
8
 71
3
 72
8
 73
4
 74
0
 40
0
 40
0
 40
0
 40
0
 40
1
 40
1
 40
1
 40
1
 10
53.216021
 20
183.118930
 30
0.0
 10
41.203514
 20
183.118930
 30
0.0
 10
31.465380
 20
192.857053
 30
0.0
 10
31.465380
 20
204.869535
 30
0.0
  0
SPLINE
  5
322
100
AcDbEntity
  8
Layer_1
 62
7
100
AcDbSpline
 70
8
 71
3
 72
8
 73
4
 74
0
 40
0
 40
0
 40
0
 40
0
 40
1
 40
1
 40
1
 40
1
 10
31.465380
 20
204.869535
 30
0.0
 10
31.465380
 20
216.882070
 30
0.0
 10
41.203514
 20
226.620148
 30
0.0
 10
53.216021
 20
226.620148
 30
0.0
  0
SPLINE
  5
323
100
AcDbEntity
  8
Layer_1
 62
7
100
AcDbSpline
 70
8
 71
3
 72
8
 73
4
 74
0
 40
0
 40
0
 40
0
 40
0
 40
1
 40
1
 40
1
 40
1
 10
53.216021
 20
226.620148
 30
0.0
 10
65.228500
 20
226.620148
 30
0.0
 10
74.966606
 20
216.882070
 30
0.0
 10
74.966606
 20
204.869535
 30
0.0
  0
SPLINE
  5
324
100
AcDbEntity
  8
Layer_1
 62
7
100
AcDbSpline
 70
8
 71
3
 72
8
 73
4
 74
0
 40
0
 40
0
 40
0
 40
0
 40
1
 40
1
 40
1
 40
1
 10
74.966606
 20
204.869535
 30
0.0
 10
74.966606
 20
192.857053
 30
0.0
 10
65.228500
 20
183.118930
 30
0.0
 10
53.216021
 20
183.118930
 30
0.0
  0
LINE
  5
325
100
AcDbEntity
  8
Layer_1
 62
7
100
AcDbLine
 10
53.216021
 20
183.118930
 30
0.0
 11
53.216021
 21
183.118930
 31
0.0
  0
SPLINE
  5
326
100
AcDbEntity
  8
Layer_1
 62
7
100
AcDbSpline
 70
8
 71
3
 72
8
 73
4
 74
0
 40
0
 40
0
 40
0
 40
0
 40
1
 40
1
 40
1
 40
1
 10
118.417710
 20
190.869371
 30
0.0
 10
110.685526
 20
190.869371
 30
0.0
 10
104.417004
 20
197.137377
 30
0.0
 10
104.417004
 20
204.869535
 30
0.0
  0
SPLINE
  5
327
100
AcDbEntity
  8
Layer_1
 62
7
100
AcDbSpline
 70
8
 71
3
 72
8
 73
4
 74
0
 40
0
 40
0
 40
0
 40
0
 40
1
 40
1
 40
1
 40
1
 10
104.417004
 20
204.869535
 30
0.0
 10
104.417004
 20
212.601747
 30
0.0
 10
110.685526
 20
218.870213
 30
0.0
 10
118.417710
 20
218.870213
 30
0.0
  0
SPLINE
  5
328
100
AcDbEntity
  8
Layer_1
 62
7
100
AcDbSpline
 70
8
 71
3
 72
8
 73
4
 74
0
 40
0
 40
0
 40
0
 40
0
 40
1
 40
1
 40
1
 40
1
 10
118.417710
 20
218.870213
 30
0.0
 10
126.149893
 20
218.870213
 30
0.0
 10
132.417880
 20
212.601747
 30
0.0
 10
132.417880
 20
204.869535
 30
0.0
  0
SPLINE
  5
329
100
AcDbEntity
  8
Layer_1
 62
7
100
AcDbSpline
 70
8
 71
3
 72
8
 73
4
 74
0
 40
0
 40
0
 40
0
 40
0
 40
1
 40
1
 40
1
 40
1
 10
132.417880
 20
204.869535
 30
0.0
 10
132.417880
 20
197.137377
 30
0.0
 10
126.149893
 20
190.869371
 30
0.0
 10
118.417710
 20
190.869371
 30
0.0
  0
LINE
  5
32a
100
AcDbEntity
  8
Layer_1
 62
7
100
AcDbLine
 10
118.417710
 20
190.869371
 30
0.0
 11
118.417710
 21
190.869371
 31
0.0
  0
SPLINE
  5
32b
100
AcDbEntity
  8
Layer_1
 62
7
100
AcDbSpline
 70
8
 71
3
 72
8
 73
4
 74
0
 40
0
 40
0
 40
0
 40
0
 40
1
 40
1
 40
1
 40
1
 10
147.418527
 20
203.869593
 30
0.0
 10
146.866218
 20
203.869593
 30
0.0
 10
146.418078
 20
204.317254
 30
0.0
 10
146.418078
 20
204.869535
 30
0.0
  0
SPLINE
  5
32c
100
AcDbEntity
  8
Layer_1
 62
7
100
AcDbSpline
 70
8
 71
3
 72
8
 73
4
 74
0
 40
0
 40
0
 40
0
 40
0
 40
1
 40
1
 40
1
 40
1
 10
146.418078
 20
204.869535
 30
0.0
 10
146.418078
 20
205.421844
 30
0.0
 10
146.866218
 20
205.869476
 30
0.0
 10
147.418527
 20
205.869476
 30
0.0
  0
SPLINE
  5
32d
100
AcDbEntity
  8
Layer_1
 62
7
100
AcDbSpline
 70
8
 71
3
 72
8
 73
4
 74
0
 40
0
 40
0
 40
0
 40
0
 40
1
 40
1
 40
1
 40
1
 10
147.418527
 20
205.869476
 30
0.0
 10
147.970836
 20
205.869476
 30
0.0
 10
148.418469
 20
205.421844
 30
0.0
 10
148.418469
 20
204.869535
 30
0.0
  0
SPLINE
  5
32e
100
AcDbEntity
  8
Layer_1
 62
7
100
AcDbSpline
 70
8
 71
3
 72
8
 73
4
 74
0
 40
0
 40
0
 40
0
 40
0
 40
1
 40
1
 40
1
 40
1
 10
148.418469
 20
204.869535
 30
0.0
 10
148.418469
 20
204.317254
 30
0.0
 10
147.970836
 20
203.869593
 30
0.0
 10
147.418527
 20
203.869593
 30
0.0
  0
LINE
  5
32f
100
AcDbEntity
  8
Layer_1
 62
7
100
AcDbLine
 10
147.418527
 20
203.869593
 30
0.0
 11
147.418527
 21
203.869593
 31
0.0
  0
SPLINE
  5
330
100
AcDbEntity
  8
Layer_1
 62
7
100
AcDbSpline
 70
8
 71
3
 72
8
 73
4
 74
0
 40
0
 40
0
 40
0
 40
0
 40
1
 40
1
 40
1
 40
1
 10
27.414984
 20
203.869593
 30
0.0
 10
26.862732
 20
203.869593
 30
0.0
 10
26.415043
 20
204.317254
 30
0.0
 10
26.415043
 20
204.869535
 30
0.0
  0
SPLINE
  5
331
100
AcDbEntity
  8
Layer_1
 62
7
100
AcDbSpline
 70
8
 71
3
 72
8
 73
4
 74
0
 40
0
 40
0
 40
0
 40
0
 40
1
 40
1
 40
1
 40
1
 10
26.415043
 20
204.869535
 30
0.0
 10
26.415043
 20
205.421844
 30
0.0
 10
26.862732
 20
205.869476
 30
0.0
 10
27.414984
 20
205.869476
 30
0.0
  0
SPLINE
  5
332
100
AcDbEntity
  8
Layer_1
 62
7
100
AcDbSpline
 70
8
 71
3
 72
8
 73
4
 74
0
 40
0
 40
0
 40
0
 40
0
 40
1
 40
1
 40
1
 40
1
 10
27.414984
 20
205.869476
 30
0.0
 10
27.967293
 20
205.869476
 30
0.0
 10
28.414924
 20
205.421844
 30
0.0
 10
28.414924
 20
204.869535
 30
0.0
  0
SPLINE
  5
333
100
AcDbEntity
  8
Layer_1
 62
7
100
AcDbSpline
 70
8
 71
3
 72
8
 73
4
 74
0
 40
0
 40
0
 40
0
 40
0
 40
1
 40
1
 40
1
 40
1
 10
28.414924
 20
204.869535
 30
0.0
 10
28.414924
 20
204.317254
 30
0.0
 10
27.967293
 20
203.869593
 30
0.0
 10
27.414984
 20
203.869593
 30
0.0
  0
LINE
  5
334
100
AcDbEntity
  8
Layer_1
 62
7
100
AcDbLine
 10
27.414984
 20
203.869593
 30
0.0
 11
27.414984
 21
203.869593
 31
0.0
  0
SPLINE
  5
335
100
AcDbEntity
  8
Layer_1
 62
7
100
AcDbSpline
 70
8
 71
3
 72
8
 73
4
 74
0
 40
0
 40
0
 40
0
 40
0
 40
1
 40
1
 40
1
 40
1
 10
135.168107
 20
225.087935
 30
0.0
 10
134.615798
 20
225.087935
 30
0.0
 10
134.168166
 20
225.535568
 30
0.0
 10
134.168166
 20
226.087877
 30
0.0
  0
SPLINE
  5
336
100
AcDbEntity
  8
Layer_1
 62
7
100
AcDbSpline
 70
8
 71
3
 72
8
 73
4
 74
0
 40
0
 40
0
 40
0
 40
0
 40
1
 40
1
 40
1
 40
1
 10
134.168166
 20
226.087877
 30
0.0
 10
134.168166
 20
226.640186
 30
0.0
 10
134.615798
 20
227.087818
 30
0.0
 10
135.168107
 20
227.087818
 30
0.0
  0
SPLINE
  5
337
100
AcDbEntity
  8
Layer_1
 62
7
100
AcDbSpline
 70
8
 71
3
 72
8
 73
4
 74
0
 40
0
 40
0
 40
0
 40
0
 40
1
 40
1
 40
1
 40
1
 10
135.168107
 20
227.087818
 30
0.0
 10
135.720388
 20
227.087818
 30
0.0
 10
136.168049
 20
226.640186
 30
0.0
 10
136.168049
 20
226.087877
 30
0.0
  0
SPLINE
  5
338
100
AcDbEntity
  8
Layer_1
 62
7
100
AcDbSpline
 70
8
 71
3
 72
8
 73
4
 74
0
 40
0
 40
0
 40
0
 40
0
 40
1
 40
1
 40
1
 40
1
 10
136.168049
 20
226.087877
 30
0.0
 10
136.168049
 20
225.535568
 30
0.0
 10
135.720388
 20
225.087935
 30
0.0
 10
135.168107
 20
225.087935
 30
0.0
  0
LINE
  5
339
100
AcDbEntity
  8
Layer_1
 62
7
100
AcDbLine
 10
135.168107
 20
225.087935
 30
0.0
 11
135.168107
 21
225.087935
 31
0.0
  0
SPLINE
  5
33a
100
AcDbEntity
  8
Layer_1
 62
7
100
AcDbSpline
 70
8
 71
3
 72
8
 73
4
 74
0
 40
0
 40
0
 40
0
 40
0
 40
1
 40
1
 40
1
 40
1
 10
110.667266
 20
225.087935
 30
0.0
 10
110.114958
 20
225.087935
 30
0.0
 10
109.667325
 20
225.535568
 30
0.0
 10
109.667325
 20
226.087877
 30
0.0
  0
SPLINE
  5
33b
100
AcDbEntity
  8
Layer_1
 62
7
100
AcDbSpline
 70
8
 71
3
 72
8
 73
4
 74
0
 40
0
 40
0
 40
0
 40
0
 40
1
 40
1
 40
1
 40
1
 10
109.667325
 20
226.087877
 30
0.0
 10
109.667325
 20
226.640186
 30
0.0
 10
110.114958
 20
227.087818
 30
0.0
 10
110.667266
 20
227.087818
 30
0.0
  0
SPLINE
  5
33c
100
AcDbEntity
  8
Layer_1
 62
7
100
AcDbSpline
 70
8
 71
3
 72
8
 73
4
 74
0
 40
0
 40
0
 40
0
 40
0
 40
1
 40
1
 40
1
 40
1
 10
110.667266
 20
227.087818
 30
0.0
 10
111.219575
 20
227.087818
 30
0.0
 10
111.667208
 20
226.640186
 30
0.0
 10
111.667208
 20
226.087877
 30
0.0
  0
SPLINE
  5
33d
100
AcDbEntity
  8
Layer_1
 62
7
100
AcDbSpline
 70
8
 71
3
 72
8
 73
4
 74
0
 40
0
 40
0
 40
0
 40
0
 40
1
 40
1
 40
1
 40
1
 10
111.667208
 20
226.087877
 30
0.0
 10
111.667208
 20
225.535568
 30
0.0
 10
111.219575
 20
225.087935
 30
0.0
 10
110.667266
 20
225.087935
 30
0.0
  0
LINE
  5
33e
100
AcDbEntity
  8
Layer_1
 62
7
100
AcDbLine
 10
110.667266
 20
225.087935
 30
0.0
 11
110.667266
 21
225.087935
 31
0.0
  0
SPLINE
  5
33f
100
AcDbEntity
  8
Layer_1
 62
7
100
AcDbSpline
 70
8
 71
3
 72
8
 73
4
 74
0
 40
0
 40
0
 40
0
 40
0
 40
1
 40
1
 40
1
 40
1
 10
64.166244
 20
225.087935
 30
0.0
 10
63.613935
 20
225.087935
 30
0.0
 10
63.166302
 20
225.535568
 30
0.0
 10
63.166302
 20
226.087877
 30
0.0
  0
SPLINE
  5
340
100
AcDbEntity
  8
Layer_1
 62
7
100
AcDbSpline
 70
8
 71
3
 72
8
 73
4
 74
0
 40
0
 40
0
 40
0
 40
0
 40
1
 40
1
 40
1
 40
1
 10
63.166302
 20
226.087877
 30
0.0
 10
63.166302
 20
226.640186
 30
0.0
 10
63.613935
 20
227.087818
 30
0.0
 10
64.166244
 20
227.087818
 30
0.0
  0
SPLINE
  5
341
100
AcDbEntity
  8
Layer_1
 62
7
100
AcDbSpline
 70
8
 71
3
 72
8
 73
4
 74
0
 40
0
 40
0
 40
0
 40
0
 40
1
 40
1
 40
1
 40
1
 10
64.166244
 20
227.087818
 30
0.0
 10
64.718552
 20
227.087818
 30
0.0
 10
65.166185
 20
226.640186
 30
0.0
 10
65.166185
 20
226.087877
 30
0.0
  0
SPLINE
  5
342
100
AcDbEntity
  8
Layer_1
 62
7
100
AcDbSpline
 70
8
 71
3
 72
8
 73
4
 74
0
 40
0
 40
0
 40
0
 40
0
 40
1
 40
1
 40
1
 40
1
 10
65.166185
 20
226.087877
 30
0.0
 10
65.166185
 20
225.535568
 30
0.0
 10
64.718552
 20
225.087935
 30
0.0
 10
64.166244
 20
225.087935
 30
0.0
  0
LINE
  5
343
100
AcDbEntity
  8
Layer_1
 62
7
100
AcDbLine
 10
64.166244
 20
225.087935
 30
0.0
 11
64.166244
 21
225.087935
 31
0.0
  0
SPLINE
  5
344
100
AcDbEntity
  8
Layer_1
 62
7
100
AcDbSpline
 70
8
 71
3
 72
8
 73
4
 74
0
 40
0
 40
0
 40
0
 40
0
 40
1
 40
1
 40
1
 40
1
 10
39.665403
 20
225.087935
 30
0.0
 10
39.113094
 20
225.087935
 30
0.0
 10
38.665461
 20
225.535568
 30
0.0
 10
38.665461
 20
226.087877
 30
0.0
  0
SPLINE
  5
345
100
AcDbEntity
  8
Layer_1
 62
7
100
AcDbSpline
 70
8
 71
3
 72
8
 73
4
 74
0
 40
0
 40
0
 40
0
 40
0
 40
1
 40
1
 40
1
 40
1
 10
38.665461
 20
226.087877
 30
0.0
 10
38.665461
 20
226.640186
 30
0.0
 10
39.113094
 20
227.087818
 30
0.0
 10
39.665403
 20
227.087818
 30
0.0
  0
SPLINE
  5
346
100
AcDbEntity
  8
Layer_1
 62
7
100
AcDbSpline
 70
8
 71
3
 72
8
 73
4
 74
0
 40
0
 40
0
 40
0
 40
0
 40
1
 40
1
 40
1
 40
1
 10
39.665403
 20
227.087818
 30
0.0
 10
40.217655
 20
227.087818
 30
0.0
 10
40.665345
 20
226.640186
 30
0.0
 10
40.665345
 20
226.087877
 30
0.0
  0
SPLINE
  5
347
100
AcDbEntity
  8
Layer_1
 62
7
100
AcDbSpline
 70
8
 71
3
 72
8
 73
4
 74
0
 40
0
 40
0
 40
0
 40
0
 40
1
 40
1
 40
1
 40
1
 10
40.665345
 20
226.087877
 30
0.0
 10
40.665345
 20
225.535568
 30
0.0
 10
40.217655
 20
225.087935
 30
0.0
 10
39.665403
 20
225.087935
 30
0.0
  0
LINE
  5
348
100
AcDbEntity
  8
Layer_1
 62
7
100
AcDbLine
 10
39.665403
 20
225.087935
 30
0.0
 11
39.665403
 21
225.087935
 31
0.0
  0
LINE
  5
349
100
AcDbEntity
  8
Layer_1
 62
7
100
AcDbLine
 10
90.416834
 20
226.370043
 30
0.0
 11
84.416676
 21
226.370043
 31
0.0
  0
SPLINE
  5
34a
100
AcDbEntity
  8
Layer_1
 62
7
100
AcDbSpline
 70
8
 71
3
 72
8
 73
4
 74
0
 40
0
 40
0
 40
0
 40
0
 40
1
 40
1
 40
1
 40
1
 10
84.416676
 20
226.370043
 30
0.0
 10
83.035932
 20
226.370043
 30
0.0
 10
81.916582
 20
227.489392
 30
0.0
 10
81.916582
 20
228.870165
 30
0.0
  0
SPLINE
  5
34b
100
AcDbEntity
  8
Layer_1
 62
7
100
AcDbSpline
 70
8
 71
3
 72
8
 73
4
 74
0
 40
0
 40
0
 40
0
 40
0
 40
1
 40
1
 40
1
 40
1
 10
81.916582
 20
228.870165
 30
0.0
 10
81.916582
 20
230.250881
 30
0.0
 10
83.035932
 20
231.370259
 30
0.0
 10
84.416676
 20
231.370259
 30
0.0
  0
LINE
  5
34c
100
AcDbEntity
  8
Layer_1
 62
7
100
AcDbLine
 10
84.416676
 20
231.370259
 30
0.0
 11
90.416834
 21
231.370259
 31
0.0
  0
SPLINE
  5
34d
100
AcDbEntity
  8
Layer_1
 62
7
100
AcDbSpline
 70
8
 71
3
 72
8
 73
4
 74
0
 40
0
 40
0
 40
0
 40
0
 40
1
 40
1
 40
1
 40
1
 10
90.416834
 20
231.370259
 30
0.0
 10
91.797606
 20
231.370259
 30
0.0
 10
92.916928
 20
230.250881
 30
0.0
 10
92.916928
 20
228.870165
 30
0.0
  0
SPLINE
  5
34e
100
AcDbEntity
  8
Layer_1
 62
7
100
AcDbSpline
 70
8
 71
3
 72
8
 73
4
 74
0
 40
0
 40
0
 40
0
 40
0
 40
1
 40
1
 40
1
 40
1
 10
92.916928
 20
228.870165
 30
0.0
 10
92.916928
 20
227.489392
 30
0.0
 10
91.797606
 20
226.370043
 30
0.0
 10
90.416834
 20
226.370043
 30
0.0
  0
LINE
  5
34f
100
AcDbEntity
  8
Layer_1
 62
7
100
AcDbLine
 10
90.416834
 20
226.370043
 30
0.0
 11
90.416834
 21
226.370043
 31
0.0
  0
LINE
  5
350
100
AcDbEntity
  8
Layer_1
 62
7
100
AcDbLine
 10
98.102818
 20
30.691539
 30
0.0
 11
98.102818
 21
45.842039
 31
0.0
  0
LINE
  5
351
100
AcDbEntity
  8
Layer_1
 62
7
100
AcDbLine
 10
98.102818
 20
45.842039
 30
0.0
 11
93.102602
 21
45.842039
 31
0.0
  0
LINE
  5
352
100
AcDbEntity
  8
Layer_1
 62
7
100
AcDbLine
 10
93.102602
 20
45.842039
 30
0.0
 11
93.102602
 21
65.542652
 31
0.0
  0
LINE
  5
353
100
AcDbEntity
  8
Layer_1
 62
7
100
AcDbLine
 10
93.102602
 20
65.542652
 30
0.0
 11
98.102818
 21
65.542652
 31
0.0
  0
LINE
  5
354
100
AcDbEntity
  8
Layer_1
 62
7
100
AcDbLine
 10
98.102818
 20
65.542652
 30
0.0
 11
98.102818
 21
80.842991
 31
0.0
  0
LINE
  5
355
100
AcDbEntity
  8
Layer_1
 62
7
100
AcDbLine
 10
98.102818
 20
80.842991
 30
0.0
 11
93.102602
 21
80.842991
 31
0.0
  0
LINE
  5
356
100
AcDbEntity
  8
Layer_1
 62
7
100
AcDbLine
 10
93.102602
 20
80.842991
 30
0.0
 11
93.102602
 21
100.543599
 31
0.0
  0
LINE
  5
357
100
AcDbEntity
  8
Layer_1
 62
7
100
AcDbLine
 10
93.102602
 20
100.543599
 30
0.0
 11
98.102818
 21
100.543599
 31
0.0
  0
LINE
  5
358
100
AcDbEntity
  8
Layer_1
 62
7
100
AcDbLine
 10
98.102818
 20
100.543599
 30
0.0
 11
98.102818
 21
115.843966
 31
0.0
  0
LINE
  5
359
100
AcDbEntity
  8
Layer_1
 62
7
100
AcDbLine
 10
98.102818
 20
115.843966
 30
0.0
 11
93.102602
 21
115.843966
 31
0.0
  0
LINE
  5
35a
100
AcDbEntity
  8
Layer_1
 62
7
100
AcDbLine
 10
93.102602
 20
115.843966
 30
0.0
 11
93.102602
 21
135.544066
 31
0.0
  0
LINE
  5
35b
100
AcDbEntity
  8
Layer_1
 62
7
100
AcDbLine
 10
93.102602
 20
135.544066
 30
0.0
 11
98.102818
 21
135.544066
 31
0.0
  0
LINE
  5
35c
100
AcDbEntity
  8
Layer_1
 62
7
100
AcDbLine
 10
98.102818
 20
135.544066
 30
0.0
 11
98.102818
 21
150.694545
 31
0.0
  0
LINE
  5
35d
100
AcDbEntity
  8
Layer_1
 62
7
100
AcDbLine
 10
98.102818
 20
150.694545
 30
0.0
 11
81.952368
 21
150.694545
 31
0.0
  0
LINE
  5
35e
100
AcDbEntity
  8
Layer_1
 62
7
100
AcDbLine
 10
81.952368
 20
150.694545
 30
0.0
 11
81.952368
 21
145.694329
 31
0.0
  0
LINE
  5
35f
100
AcDbEntity
  8
Layer_1
 62
7
100
AcDbLine
 10
81.952368
 20
145.694329
 30
0.0
 11
62.251761
 21
145.694329
 31
0.0
  0
LINE
  5
360
100
AcDbEntity
  8
Layer_1
 62
7
100
AcDbLine
 10
62.251761
 20
145.694329
 30
0.0
 11
62.251761
 21
150.694545
 31
0.0
  0
LINE
  5
361
100
AcDbEntity
  8
Layer_1
 62
7
100
AcDbLine
 10
62.251761
 20
150.694545
 30
0.0
 11
45.951480
 21
150.694545
 31
0.0
  0
LINE
  5
362
100
AcDbEntity
  8
Layer_1
 62
7
100
AcDbLine
 10
45.951480
 20
150.694545
 30
0.0
 11
45.951480
 21
145.694329
 31
0.0
  0
LINE
  5
363
100
AcDbEntity
  8
Layer_1
 62
7
100
AcDbLine
 10
45.951480
 20
145.694329
 30
0.0
 11
26.250874
 21
145.694329
 31
0.0
  0
LINE
  5
364
100
AcDbEntity
  8
Layer_1
 62
7
100
AcDbLine
 10
26.250874
 20
145.694329
 30
0.0
 11
26.250874
 21
150.694545
 31
0.0
  0
LINE
  5
365
100
AcDbEntity
  8
Layer_1
 62
7
100
AcDbLine
 10
26.250874
 20
150.694545
 30
0.0
 11
10.100425
 21
150.694545
 31
0.0
  0
LINE
  5
366
100
AcDbEntity
  8
Layer_1
 62
7
100
AcDbLine
 10
10.100425
 20
150.694545
 30
0.0
 11
10.100425
 21
135.544066
 31
0.0
  0
LINE
  5
367
100
AcDbEntity
  8
Layer_1
 62
7
100
AcDbLine
 10
10.100425
 20
135.544066
 30
0.0
 11
15.100640
 21
135.544066
 31
0.0
  0
LINE
  5
368
100
AcDbEntity
  8
Layer_1
 62
7
100
AcDbLine
 10
15.100640
 20
135.544066
 30
0.0
 11
15.100640
 21
115.843966
 31
0.0
  0
LINE
  5
369
100
AcDbEntity
  8
Layer_1
 62
7
100
AcDbLine
 10
15.100640
 20
115.843966
 30
0.0
 11
10.100425
 21
115.843966
 31
0.0
  0
LINE
  5
36a
100
AcDbEntity
  8
Layer_1
 62
7
100
AcDbLine
 10
10.100425
 20
115.843966
 30
0.0
 11
10.100425
 21
100.543599
 31
0.0
  0
LINE
  5
36b
100
AcDbEntity
  8
Layer_1
 62
7
100
AcDbLine
 10
10.100425
 20
100.543599
 30
0.0
 11
15.100640
 21
100.543599
 31
0.0
  0
LINE
  5
36c
100
AcDbEntity
  8
Layer_1
 62
7
100
AcDbLine
 10
15.100640
 20
100.543599
 30
0.0
 11
15.100640
 21
80.842991
 31
0.0
  0
LINE
  5
36d
100
AcDbEntity
  8
Layer_1
 62
7
100
AcDbLine
 10
15.100640
 20
80.842991
 30
0.0
 11
10.100425
 21
80.842991
 31
0.0
  0
LINE
  5
36e
100
AcDbEntity
  8
Layer_1
 62
7
100
AcDbLine
 10
10.100425
 20
80.842991
 30
0.0
 11
10.100425
 21
65.542652
 31
0.0
  0
LINE
  5
36f
100
AcDbEntity
  8
Layer_1
 62
7
100
AcDbLine
 10
10.100425
 20
65.542652
 30
0.0
 11
15.100640
 21
65.542652
 31
0.0
  0
LINE
  5
370
100
AcDbEntity
  8
Layer_1
 62
7
100
AcDbLine
 10
15.100640
 20
65.542652
 30
0.0
 11
15.100640
 21
45.842039
 31
0.0
  0
LINE
  5
371
100
AcDbEntity
  8
Layer_1
 62
7
100
AcDbLine
 10
15.100640
 20
45.842039
 30
0.0
 11
10.100425
 21
45.842039
 31
0.0
  0
LINE
  5
372
100
AcDbEntity
  8
Layer_1
 62
7
100
AcDbLine
 10
10.100425
 20
45.842039
 30
0.0
 11
10.100425
 21
30.691539
 31
0.0
  0
LINE
  5
373
100
AcDbEntity
  8
Layer_1
 62
7
100
AcDbLine
 10
10.100425
 20
30.691539
 30
0.0
 11
98.102818
 21
30.691539
 31
0.0
  0
LINE
  5
374
100
AcDbEntity
  8
Layer_1
 62
7
100
AcDbLine
 10
19.338094
 20
71.454953
 30
0.0
 11
18.100465
 21
72.692583
 31
0.0
  0
LINE
  5
375
100
AcDbEntity
  8
Layer_1
 62
7
100
AcDbLine
 10
18.100465
 20
72.692583
 30
0.0
 11
82.448995
 21
137.041113
 31
0.0
  0
LINE
  5
376
100
AcDbEntity
  8
Layer_1
 62
7
100
AcDbLine
 10
82.448995
 20
137.041113
 30
0.0
 11
83.686624
 21
135.803484
 31
0.0
  0
LINE
  5
377
100
AcDbEntity
  8
Layer_1
 62
7
100
AcDbLine
 10
83.686624
 20
135.803484
 30
0.0
 11
19.338094
 21
71.454953
 31
0.0
  0
LINE
  5
378
100
AcDbEntity
  8
Layer_1
 62
7
100
AcDbLine
 10
121.382398
 20
80.491980
 30
0.0
 11
126.382529
 21
80.491980
 31
0.0
  0
LINE
  5
379
100
AcDbEntity
  8
Layer_1
 62
7
100
AcDbLine
 10
126.382529
 20
80.491980
 30
0.0
 11
126.382529
 21
100.192500
 31
0.0
  0
LINE
  5
37a
100
AcDbEntity
  8
Layer_1
 62
7
100
AcDbLine
 10
126.382529
 20
100.192500
 30
0.0
 11
121.382398
 21
100.192500
 31
0.0
  0
LINE
  5
37b
100
AcDbEntity
  8
Layer_1
 62
7
100
AcDbLine
 10
121.382398
 20
100.192500
 30
0.0
 11
121.382398
 21
115.492904
 31
0.0
  0
LINE
  5
37c
100
AcDbEntity
  8
Layer_1
 62
7
100
AcDbLine
 10
121.382398
 20
115.492904
 30
0.0
 11
126.382529
 21
115.492904
 31
0.0
  0
LINE
  5
37d
100
AcDbEntity
  8
Layer_1
 62
7
100
AcDbLine
 10
126.382529
 20
115.492904
 30
0.0
 11
126.382529
 21
135.193421
 31
0.0
  0
LINE
  5
37e
100
AcDbEntity
  8
Layer_1
 62
7
100
AcDbLine
 10
126.382529
 20
135.193421
 30
0.0
 11
121.382398
 21
135.193421
 31
0.0
  0
LINE
  5
37f
100
AcDbEntity
  8
Layer_1
 62
7
100
AcDbLine
 10
121.382398
 20
135.193421
 30
0.0
 11
121.382398
 21
150.343822
 31
0.0
  0
LINE
  5
380
100
AcDbEntity
  8
Layer_1
 62
7
100
AcDbLine
 10
121.382398
 20
150.343822
 30
0.0
 11
137.532819
 21
150.343822
 31
0.0
  0
LINE
  5
381
100
AcDbEntity
  8
Layer_1
 62
7
100
AcDbLine
 10
137.532819
 20
150.343822
 30
0.0
 11
137.532819
 21
145.343691
 31
0.0
  0
LINE
  5
382
100
AcDbEntity
  8
Layer_1
 62
7
100
AcDbLine
 10
137.532819
 20
145.343691
 30
0.0
 11
157.233342
 21
145.343691
 31
0.0
  0
LINE
  5
383
100
AcDbEntity
  8
Layer_1
 62
7
100
AcDbLine
 10
157.233342
 20
145.343691
 30
0.0
 11
157.233342
 21
150.343822
 31
0.0
  0
LINE
  5
384
100
AcDbEntity
  8
Layer_1
 62
7
100
AcDbLine
 10
157.233342
 20
150.343822
 30
0.0
 11
173.533736
 21
150.343822
 31
0.0
  0
LINE
  5
385
100
AcDbEntity
  8
Layer_1
 62
7
100
AcDbLine
 10
173.533736
 20
150.343822
 30
0.0
 11
173.533736
 21
145.343691
 31
0.0
  0
LINE
  5
386
100
AcDbEntity
  8
Layer_1
 62
7
100
AcDbLine
 10
173.533736
 20
145.343691
 30
0.0
 11
193.234258
 21
145.343691
 31
0.0
  0
LINE
  5
387
100
AcDbEntity
  8
Layer_1
 62
7
100
AcDbLine
 10
193.234258
 20
145.343691
 30
0.0
 11
193.234258
 21
150.343822
 31
0.0
  0
LINE
  5
388
100
AcDbEntity
  8
Layer_1
 62
7
100
AcDbLine
 10
193.234258
 20
150.343822
 30
0.0
 11
209.384708
 21
150.343822
 31
0.0
  0
LINE
  5
389
100
AcDbEntity
  8
Layer_1
 62
7
100
AcDbLine
 10
209.384708
 20
150.343822
 30
0.0
 11
209.384708
 21
135.193421
 31
0.0
  0
LINE
  5
38a
100
AcDbEntity
  8
Layer_1
 62
7
100
AcDbLine
 10
209.384708
 20
135.193421
 30
0.0
 11
204.384576
 21
135.193421
 31
0.0
  0
LINE
  5
38b
100
AcDbEntity
  8
Layer_1
 62
7
100
AcDbLine
 10
204.384576
 20
135.193421
 30
0.0
 11
204.384576
 21
115.492904
 31
0.0
  0
LINE
  5
38c
100
AcDbEntity
  8
Layer_1
 62
7
100
AcDbLine
 10
204.384576
 20
115.492904
 30
0.0
 11
209.384708
 21
115.492904
 31
0.0
  0
LINE
  5
38d
100
AcDbEntity
  8
Layer_1
 62
7
100
AcDbLine
 10
209.384708
 20
115.492904
 30
0.0
 11
209.384708
 21
100.192500
 31
0.0
  0
LINE
  5
38e
100
AcDbEntity
  8
Layer_1
 62
7
100
AcDbLine
 10
209.384708
 20
100.192500
 30
0.0
 11
204.384576
 21
100.192500
 31
0.0
  0
LINE
  5
38f
100
AcDbEntity
  8
Layer_1
 62
7
100
AcDbLine
 10
204.384576
 20
100.192500
 30
0.0
 11
204.384576
 21
80.491980
 31
0.0
  0
LINE
  5
390
100
AcDbEntity
  8
Layer_1
 62
7
100
AcDbLine
 10
204.384576
 20
80.491980
 30
0.0
 11
209.384708
 21
80.491980
 31
0.0
  0
LINE
  5
391
100
AcDbEntity
  8
Layer_1
 62
7
100
AcDbLine
 10
209.384708
 20
80.491980
 30
0.0
 11
209.384708
 21
65.191576
 31
0.0
  0
LINE
  5
392
100
AcDbEntity
  8
Layer_1
 62
7
100
AcDbLine
 10
209.384708
 20
65.191576
 30
0.0
 11
204.384576
 21
65.191576
 31
0.0
  0
LINE
  5
393
100
AcDbEntity
  8
Layer_1
 62
7
100
AcDbLine
 10
204.384576
 20
65.191576
 30
0.0
 11
204.384576
 21
45.491062
 31
0.0
  0
LINE
  5
394
100
AcDbEntity
  8
Layer_1
 62
7
100
AcDbLine
 10
204.384576
 20
45.491062
 30
0.0
 11
209.384708
 21
45.491062
 31
0.0
  0
LINE
  5
395
100
AcDbEntity
  8
Layer_1
 62
7
100
AcDbLine
 10
209.384708
 20
45.491062
 30
0.0
 11
209.384708
 21
30.340653
 31
0.0
  0
LINE
  5
396
100
AcDbEntity
  8
Layer_1
 62
7
100
AcDbLine
 10
209.384708
 20
30.340653
 30
0.0
 11
121.382398
 21
30.340653
 31
0.0
  0
LINE
  5
397
100
AcDbEntity
  8
Layer_1
 62
7
100
AcDbLine
 10
121.382398
 20
30.340653
 30
0.0
 11
121.382398
 21
45.491062
 31
0.0
  0
LINE
  5
398
100
AcDbEntity
  8
Layer_1
 62
7
100
AcDbLine
 10
121.382398
 20
45.491062
 30
0.0
 11
126.382529
 21
45.491062
 31
0.0
  0
LINE
  5
399
100
AcDbEntity
  8
Layer_1
 62
7
100
AcDbLine
 10
126.382529
 20
45.491062
 30
0.0
 11
126.382529
 21
65.191576
 31
0.0
  0
LINE
  5
39a
100
AcDbEntity
  8
Layer_1
 62
7
100
AcDbLine
 10
126.382529
 20
65.191576
 30
0.0
 11
121.382398
 21
65.191576
 31
0.0
  0
LINE
  5
39b
100
AcDbEntity
  8
Layer_1
 62
7
100
AcDbLine
 10
121.382398
 20
65.191576
 30
0.0
 11
121.382398
 21
80.491980
 31
0.0
  0
LINE
  5
39c
100
AcDbEntity
  8
Layer_1
 62
7
100
AcDbLine
 10
12.640312
 20
283.011649
 30
0.0
 11
12.640312
 21
273.623984
 31
0.0
  0
LINE
  5
39d
100
AcDbEntity
  8
Layer_1
 62
7
100
AcDbLine
 10
12.640312
 20
273.623984
 30
0.0
 11
7.640180
 21
273.623984
 31
0.0
  0
LINE
  5
39e
100
AcDbEntity
  8
Layer_1
 62
7
100
AcDbLine
 10
7.640180
 20
273.623984
 30
0.0
 11
7.640180
 21
267.711253
 31
0.0
  0
LINE
  5
39f
100
AcDbEntity
  8
Layer_1
 62
7
100
AcDbLine
 10
7.640180
 20
267.711253
 30
0.0
 11
137.643619
 21
267.711253
 31
0.0
  0
LINE
  5
3a0
100
AcDbEntity
  8
Layer_1
 62
7
100
AcDbLine
 10
137.643619
 20
267.711253
 30
0.0
 11
137.643619
 21
273.623984
 31
0.0
  0
LINE
  5
3a1
100
AcDbEntity
  8
Layer_1
 62
7
100
AcDbLine
 10
137.643619
 20
273.623984
 30
0.0
 11
132.643488
 21
273.623984
 31
0.0
  0
LINE
  5
3a2
100
AcDbEntity
  8
Layer_1
 62
7
100
AcDbLine
 10
132.643488
 20
273.623984
 30
0.0
 11
132.643488
 21
283.011649
 31
0.0
  0
LINE
  5
3a3
100
AcDbEntity
  8
Layer_1
 62
7
100
AcDbLine
 10
132.643488
 20
283.011649
 30
0.0
 11
12.640312
 21
283.011649
 31
0.0
  0
LINE
  5
3a4
100
AcDbEntity
  8
Layer_1
 62
7
100
AcDbLine
 10
136.926803
 20
256.655550
 30
0.0
 11
136.926803
 21
262.568247
 31
0.0
  0
LINE
  5
3a5
100
AcDbEntity
  8
Layer_1
 62
7
100
AcDbLine
 10
136.926803
 20
262.568247
 30
0.0
 11
6.923392
 21
262.568247
 31
0.0
  0
LINE
  5
3a6
100
AcDbEntity
  8
Layer_1
 62
7
100
AcDbLine
 10
6.923392
 20
262.568247
 30
0.0
 11
6.923392
 21
256.655550
 31
0.0
  0
LINE
  5
3a7
100
AcDbEntity
  8
Layer_1
 62
7
100
AcDbLine
 10
6.923392
 20
256.655550
 30
0.0
 11
136.926803
 21
256.655550
 31
0.0
  0
LINE
  5
3a8
100
AcDbEntity
  8
Layer_1
 62
7
100
AcDbLine
 10
8.537421
 20
315.250556
 30
0.0
 11
138.540860
 21
315.250556
 31
0.0
  0
LINE
  5
3a9
100
AcDbEntity
  8
Layer_1
 62
7
100
AcDbLine
 10
138.540860
 20
315.250556
 30
0.0
 11
138.540860
 21
305.834468
 31
0.0
  0
LINE
  5
3aa
100
AcDbEntity
  8
Layer_1
 62
7
100
AcDbLine
 10
138.540860
 20
305.834468
 30
0.0
 11
133.540729
 21
305.834468
 31
0.0
  0
LINE
  5
3ab
100
AcDbEntity
  8
Layer_1
 62
7
100
AcDbLine
 10
133.540729
 20
305.834468
 30
0.0
 11
133.540729
 21
302.250220
 31
0.0
  0
LINE
  5
3ac
100
AcDbEntity
  8
Layer_1
 62
7
100
AcDbLine
 10
133.540729
 20
302.250220
 30
0.0
 11
13.537553
 21
302.250220
 31
0.0
  0
LINE
  5
3ad
100
AcDbEntity
  8
Layer_1
 62
7
100
AcDbLine
 10
13.537553
 20
302.250220
 30
0.0
 11
13.537553
 21
305.834468
 31
0.0
  0
LINE
  5
3ae
100
AcDbEntity
  8
Layer_1
 62
7
100
AcDbLine
 10
13.537553
 20
305.834468
 30
0.0
 11
8.537421
 21
305.834468
 31
0.0
  0
LINE
  5
3af
100
AcDbEntity
  8
Layer_1
 62
7
100
AcDbLine
 10
8.537421
 20
305.834468
 30
0.0
 11
8.537421
 21
315.250556
 31
0.0
  0
LINE
  5
3b0
100
AcDbEntity
  8
Layer_1
 62
7
100
AcDbLine
 10
7.993410
 20
288.035944
 30
0.0
 11
7.993410
 21
297.452045
 31
0.0
  0
LINE
  5
3b1
100
AcDbEntity
  8
Layer_1
 62
7
100
AcDbLine
 10
7.993410
 20
297.452045
 30
0.0
 11
137.996849
 21
297.452045
 31
0.0
  0
LINE
  5
3b2
100
AcDbEntity
  8
Layer_1
 62
7
100
AcDbLine
 10
137.996849
 20
297.452045
 30
0.0
 11
137.996849
 21
288.035944
 31
0.0
  0
LINE
  5
3b3
100
AcDbEntity
  8
Layer_1
 62
7
100
AcDbLine
 10
137.996849
 20
288.035944
 30
0.0
 11
7.993410
 21
288.035944
 31
0.0
  0
ENDSEC
  0
SECTION
  2
OBJECTS
  0
DICTIONARY
  5
C
330
0
100
AcDbDictionary
  3
ACAD_GROUP
350
D
  3
ACAD_MLINESTYLE
350
17
  0
DICTIONARY
  5
D
330
C
100
AcDbDictionary
  0
DICTIONARY
  5
1A
330
C
100
AcDbDictionary
  0
DICTIONARY
  5
17
330
C
100
AcDbDictionary
  3
STANDARD
350
18
  0
DICTIONARY
  5
19
330
C
100
AcDbDictionary
  0
ENDSEC
  0
EOF
