  0
SECTION
  2
HEADER
  9
$ACADVER
  1
AC1014
  9
$HANDSEED
  5
FFFF
  9
$MEASUREMENT
 70
     1
  0
ENDSEC
  0
SECTION
  2
TABLES
  0
TABLE
  2
VPORT
  5
8
330
0
100
AcDbSymbolTable
 70
     4
  0
VPORT
  5
2E
330
8
100
AcDbSymbolTableRecord
100
AcDbViewportTableRecord
  2
*ACTIVE
 70
     0
 10
0.0
 20
0.0
 11
1.0
 21
1.0
 12
210.0
 22
148.5
 13
0.0
 23
0.0
 14
10.0
 24
10.0
 15
10.0
 25
10.0
 16
0.0
 26
0.0
 36
1.0
 17
0.0
 27
0.0
 37
0.0
 40
341.0
 41
1.24
 42
50.0
 43
0.0
 44
0.0
 50
0.0
 51
0.0
 71
     0
 72
   100
 73
     1
 74
     3
 75
     0
 76
     0
 77
     0
 78
     0
  0
ENDTAB
  0
TABLE
  2
LTYPE
  5
5
330
0
100
AcDbSymbolTable
 70
     1
  0
LTYPE
  5
14
330
5
100
AcDbSymbolTableRecord
100
AcDbLinetypeTableRecord
  2
BYBLOCK
 70
     0
  3

 72
    65
 73
     0
 40
0.0
  0
LTYPE
  5
15
330
5
100
AcDbSymbolTableRecord
100
AcDbLinetypeTableRecord
  2
BYLAYER
 70
     0
  3

 72
    65
 73
     0
 40
0.0
  0
LTYPE
  5
16
330
5
100
AcDbSymbolTableRecord
100
AcDbLinetypeTableRecord
  2
CONTINUOUS
 70
     0
  3
Solid line
 72
    65
 73
     0
 40
0.0
  0
ENDTAB
  0
TABLE
  2
LAYER
  5
2
100
AcDbSymbolTable
 70
2
  0
LAYER
  5
50
100
AcDbSymbolTableRecord
100
AcDbLayerTableRecord
  2
0
 70
0
  6
CONTINUOUS
  0
LAYER
  5
51
100
AcDbSymbolTableRecord
100
AcDbLayerTableRecord
  2
viewfinder_final_cuts
 70
0
  6
CONTINUOUS
  0
ENDTAB
  0
TABLE
  2
STYLE
  5
3
330
0
100
AcDbSymbolTable
 70
     1
  0
STYLE
  5
11
330
3
100
AcDbSymbolTableRecord
100
AcDbTextStyleTableRecord
  2
STANDARD
 70
     0
 40
0.0
 41
1.0
 50
0.0
 71
     0
 42
2.5
  3
txt
  4

  0
ENDTAB
  0
TABLE
  2
VIEW
  5
6
330
0
100
AcDbSymbolTable
 70
     0
  0
ENDTAB
  0
TABLE
  2
UCS
  5
7
330
0
100
AcDbSymbolTable
 70
     0
  0
ENDTAB
  0
TABLE
  2
APPID
  5
9
330
0
100
AcDbSymbolTable
 70
     2
  0
APPID
  5
12
330
9
100
AcDbSymbolTableRecord
100
AcDbRegAppTableRecord
  2
ACAD
 70
     0
  0
ENDTAB
  0
TABLE
  2
DIMSTYLE
  5
A
330
0
100
AcDbSymbolTable
 70
     1
  0
DIMSTYLE
105
27
330
A
100
AcDbSymbolTableRecord
100
AcDbDimStyleTableRecord
  2
ISO-25
 70
     0
  3

  4

  5

  6

  7

 40
1.0
 41
2.5
 42
0.625
 43
3.75
 44
1.25
 45
0.0
 46
0.0
 47
0.0
 48
0.0
140
2.5
141
2.5
142
0.0
143
0.03937007874016
144
1.0
145
0.0
146
1.0
147
0.625
 71
     0
 72
     0
 73
     0
 74
     0
 75
     0
 76
     0
 77
     1
 78
     8
170
     0
171
     3
172
     1
173
     0
174
     0
175
     0
176
     0
177
     0
178
     0
270
     2
271
     2
272
     2
273
     2
274
     3
340
11
275
     0
280
     0
281
     0
282
     0
283
     0
284
     8
285
     0
286
     0
287
     3
288
     0
  0
ENDTAB
  0
TABLE
  2
BLOCK_RECORD
  5
1
330
0
100
AcDbSymbolTable
 70
     1
  0
BLOCK_RECORD
  5
1F
330
1
100
AcDbSymbolTableRecord
100
AcDbBlockTableRecord
  2
*MODEL_SPACE
  0
BLOCK_RECORD
  5
1B
330
1
100
AcDbSymbolTableRecord
100
AcDbBlockTableRecord
  2
*PAPER_SPACE
  0
ENDTAB
  0
ENDSEC
  0
SECTION
  2
BLOCKS
  0
BLOCK
  5
20
330
1F
100
AcDbEntity
  8
0
100
AcDbBlockBegin
  2
*MODEL_SPACE
 70
     0
 10
0.0
 20
0.0
 30
0.0
  3
*MODEL_SPACE
  1

  0
ENDBLK
  5
21
330
1F
100
AcDbEntity
  8
0
100
AcDbBlockEnd
  0
BLOCK
  5
1C
330
1B
100
AcDbEntity
 67
     1
  8
0
100
AcDbBlockBegin
  2
*PAPER_SPACE
  1

  0
ENDBLK
  5
1D
330
1B
100
AcDbEntity
 67
     1
  8
0
100
AcDbBlockEnd
  0
ENDSEC
  0
SECTION
  2
ENTITIES
  0
SPLINE
  5
100
100
AcDbEntity
  8
viewfinder_final_cuts
 62
7
100
AcDbSpline
 70
8
 71
3
 72
8
 73
4
 74
0
 40
0
 40
0
 40
0
 40
0
 40
1
 40
1
 40
1
 40
1
 10
609.289823
 20
328.854406
 30
0.0
 10
608.185205
 20
328.854406
 30
0.0
 10
607.289925
 20
329.750204
 30
0.0
 10
607.289925
 20
330.854800
 30
0.0
  0
LINE
  5
101
100
AcDbEntity
  8
viewfinder_final_cuts
 62
7
100
AcDbLine
 10
607.289925
 20
330.854800
 30
0.0
 11
607.289925
 21
352.229207
 31
0.0
  0
SPLINE
  5
102
100
AcDbEntity
  8
viewfinder_final_cuts
 62
7
100
AcDbSpline
 70
8
 71
3
 72
8
 73
4
 74
0
 40
0
 40
0
 40
0
 40
0
 40
1
 40
1
 40
1
 40
1
 10
607.289925
 20
352.229207
 30
0.0
 10
607.289925
 20
353.333817
 30
0.0
 10
608.185205
 20
354.229097
 30
0.0
 10
609.289823
 20
354.229097
 30
0.0
  0
LINE
  5
103
100
AcDbEntity
  8
viewfinder_final_cuts
 62
7
100
AcDbLine
 10
609.289823
 20
354.229097
 30
0.0
 11
616.996853
 21
354.229097
 31
0.0
  0
SPLINE
  5
104
100
AcDbEntity
  8
viewfinder_final_cuts
 62
7
100
AcDbSpline
 70
8
 71
3
 72
8
 73
4
 74
0
 40
0
 40
0
 40
0
 40
0
 40
1
 40
1
 40
1
 40
1
 10
616.996853
 20
354.229097
 30
0.0
 10
617.392317
 20
354.229097
 30
0.0
 10
617.750668
 20
353.996334
 30
0.0
 10
617.911006
 20
353.634807
 30
0.0
  0
SPLINE
  5
105
100
AcDbEntity
  8
viewfinder_final_cuts
 62
7
100
AcDbSpline
 70
8
 71
3
 72
8
 73
4
 74
0
 40
0
 40
0
 40
0
 40
0
 40
1
 40
1
 40
1
 40
1
 10
617.911006
 20
353.634807
 30
0.0
 10
618.231681
 20
352.911789
 30
0.0
 10
618.948384
 20
352.445742
 30
0.0
 10
619.739312
 20
352.445742
 30
0.0
  0
LINE
  5
106
100
AcDbEntity
  8
viewfinder_final_cuts
 62
7
100
AcDbLine
 10
619.739312
 20
352.445742
 30
0.0
 11
622.739157
 21
352.445742
 31
0.0
  0
SPLINE
  5
107
100
AcDbEntity
  8
viewfinder_final_cuts
 62
7
100
AcDbSpline
 70
8
 71
3
 72
8
 73
4
 74
0
 40
0
 40
0
 40
0
 40
0
 40
1
 40
1
 40
1
 40
1
 10
622.739157
 20
352.445742
 30
0.0
 10
623.530085
 20
352.445742
 30
0.0
 10
624.246753
 20
352.911789
 30
0.0
 10
624.567428
 20
353.634807
 30
0.0
  0
SPLINE
  5
108
100
AcDbEntity
  8
viewfinder_final_cuts
 62
7
100
AcDbSpline
 70
8
 71
3
 72
8
 73
4
 74
0
 40
0
 40
0
 40
0
 40
0
 40
1
 40
1
 40
1
 40
1
 10
624.567428
 20
353.634807
 30
0.0
 10
624.727766
 20
353.996334
 30
0.0
 10
625.086117
 20
354.229097
 30
0.0
 10
625.481617
 20
354.229097
 30
0.0
  0
LINE
  5
109
100
AcDbEntity
  8
viewfinder_final_cuts
 62
7
100
AcDbLine
 10
625.481617
 20
354.229097
 30
0.0
 11
642.371029
 21
354.229097
 31
0.0
  0
SPLINE
  5
10a
100
AcDbEntity
  8
viewfinder_final_cuts
 62
7
100
AcDbSpline
 70
8
 71
3
 72
8
 73
4
 74
0
 40
0
 40
0
 40
0
 40
0
 40
1
 40
1
 40
1
 40
1
 10
642.371029
 20
354.229097
 30
0.0
 10
643.475611
 20
354.229097
 30
0.0
 10
644.371384
 20
355.124870
 30
0.0
 10
644.371384
 20
356.229452
 30
0.0
  0
LINE
  5
10b
100
AcDbEntity
  8
viewfinder_final_cuts
 62
7
100
AcDbLine
 10
644.371384
 20
356.229452
 30
0.0
 11
644.371384
 21
387.258092
 31
0.0
  0
SPLINE
  5
10c
100
AcDbEntity
  8
viewfinder_final_cuts
 62
7
100
AcDbSpline
 70
8
 71
3
 72
8
 73
4
 74
0
 40
0
 40
0
 40
0
 40
0
 40
1
 40
1
 40
1
 40
1
 10
644.371384
 20
387.258092
 30
0.0
 10
644.371384
 20
388.362674
 30
0.0
 10
645.266699
 20
389.257954
 30
0.0
 10
646.371282
 20
389.257954
 30
0.0
  0
LINE
  5
10d
100
AcDbEntity
  8
viewfinder_final_cuts
 62
7
100
AcDbLine
 10
646.371282
 20
389.257954
 30
0.0
 11
653.240112
 21
389.257954
 31
0.0
  0
SPLINE
  5
10e
100
AcDbEntity
  8
viewfinder_final_cuts
 62
7
100
AcDbSpline
 70
8
 71
3
 72
8
 73
4
 74
0
 40
0
 40
0
 40
0
 40
0
 40
1
 40
1
 40
1
 40
1
 10
653.240112
 20
389.257954
 30
0.0
 10
654.344694
 20
389.257954
 30
0.0
 10
655.240009
 20
388.362674
 30
0.0
 10
655.240009
 20
387.258092
 30
0.0
  0
LINE
  5
10f
100
AcDbEntity
  8
viewfinder_final_cuts
 62
7
100
AcDbLine
 10
655.240009
 20
387.258092
 30
0.0
 11
655.240009
 21
330.854800
 31
0.0
  0
SPLINE
  5
110
100
AcDbEntity
  8
viewfinder_final_cuts
 62
7
100
AcDbSpline
 70
8
 71
3
 72
8
 73
4
 74
0
 40
0
 40
0
 40
0
 40
0
 40
1
 40
1
 40
1
 40
1
 10
655.240009
 20
330.854800
 30
0.0
 10
655.240009
 20
329.750204
 30
0.0
 10
654.344694
 20
328.854406
 30
0.0
 10
653.240112
 20
328.854406
 30
0.0
  0
LINE
  5
111
100
AcDbEntity
  8
viewfinder_final_cuts
 62
7
100
AcDbLine
 10
653.240112
 20
328.854406
 30
0.0
 11
609.289823
 21
328.854406
 31
0.0
  0
LINE
  5
112
100
AcDbEntity
  8
viewfinder_final_cuts
 62
7
100
AcDbLine
 10
647.522113
 20
339.165405
 30
0.0
 11
651.240250
 21
339.165405
 31
0.0
  0
SPLINE
  5
113
100
AcDbEntity
  8
viewfinder_final_cuts
 62
7
100
AcDbSpline
 70
8
 71
3
 72
8
 73
4
 74
0
 40
0
 40
0
 40
0
 40
0
 40
1
 40
1
 40
1
 40
1
 10
651.240250
 20
339.165405
 30
0.0
 10
651.792523
 20
339.165405
 30
0.0
 10
652.240198
 20
339.613045
 30
0.0
 10
652.240198
 20
340.165343
 30
0.0
  0
LINE
  5
114
100
AcDbEntity
  8
viewfinder_final_cuts
 62
7
100
AcDbLine
 10
652.240198
 20
340.165343
 30
0.0
 11
652.240198
 21
342.782756
 31
0.0
  0
SPLINE
  5
115
100
AcDbEntity
  8
viewfinder_final_cuts
 62
7
100
AcDbSpline
 70
8
 71
3
 72
8
 73
4
 74
0
 40
0
 40
0
 40
0
 40
0
 40
1
 40
1
 40
1
 40
1
 10
652.240198
 20
342.782756
 30
0.0
 10
652.240198
 20
343.335058
 30
0.0
 10
651.792523
 20
343.782694
 30
0.0
 10
651.240250
 20
343.782694
 30
0.0
  0
LINE
  5
116
100
AcDbEntity
  8
viewfinder_final_cuts
 62
7
100
AcDbLine
 10
651.240250
 20
343.782694
 30
0.0
 11
647.522113
 21
343.782694
 31
0.0
  0
SPLINE
  5
117
100
AcDbEntity
  8
viewfinder_final_cuts
 62
7
100
AcDbSpline
 70
8
 71
3
 72
8
 73
4
 74
0
 40
0
 40
0
 40
0
 40
0
 40
1
 40
1
 40
1
 40
1
 10
647.522113
 20
343.782694
 30
0.0
 10
646.969804
 20
343.782694
 30
0.0
 10
646.522165
 20
343.335058
 30
0.0
 10
646.522165
 20
342.782756
 30
0.0
  0
LINE
  5
118
100
AcDbEntity
  8
viewfinder_final_cuts
 62
7
100
AcDbLine
 10
646.522165
 20
342.782756
 30
0.0
 11
646.522165
 21
340.165343
 31
0.0
  0
SPLINE
  5
119
100
AcDbEntity
  8
viewfinder_final_cuts
 62
7
100
AcDbSpline
 70
8
 71
3
 72
8
 73
4
 74
0
 40
0
 40
0
 40
0
 40
0
 40
1
 40
1
 40
1
 40
1
 10
646.522165
 20
340.165343
 30
0.0
 10
646.522165
 20
339.613045
 30
0.0
 10
646.969804
 20
339.165405
 30
0.0
 10
647.522113
 20
339.165405
 30
0.0
  0
LINE
  5
11a
100
AcDbEntity
  8
viewfinder_final_cuts
 62
7
100
AcDbLine
 10
647.522113
 20
339.165405
 30
0.0
 11
647.522113
 21
339.165405
 31
0.0
  0
LINE
  5
11b
100
AcDbEntity
  8
viewfinder_final_cuts
 62
7
100
AcDbLine
 10
632.367486
 20
339.446523
 30
0.0
 11
639.495220
 21
339.446523
 31
0.0
  0
SPLINE
  5
11c
100
AcDbEntity
  8
viewfinder_final_cuts
 62
7
100
AcDbSpline
 70
8
 71
3
 72
8
 73
4
 74
0
 40
0
 40
0
 40
0
 40
0
 40
1
 40
1
 40
1
 40
1
 10
639.495220
 20
339.446523
 30
0.0
 10
640.047528
 20
339.446523
 30
0.0
 10
640.495133
 20
339.894685
 30
0.0
 10
640.495133
 20
340.446979
 30
0.0
  0
LINE
  5
11d
100
AcDbEntity
  8
viewfinder_final_cuts
 62
7
100
AcDbLine
 10
640.495133
 20
340.446979
 30
0.0
 11
640.495133
 21
342.072205
 31
0.0
  0
SPLINE
  5
11e
100
AcDbEntity
  8
viewfinder_final_cuts
 62
7
100
AcDbSpline
 70
8
 71
3
 72
8
 73
4
 74
0
 40
0
 40
0
 40
0
 40
0
 40
1
 40
1
 40
1
 40
1
 10
640.495133
 20
342.072205
 30
0.0
 10
640.495133
 20
342.624504
 30
0.0
 10
640.942808
 20
343.072143
 30
0.0
 10
641.495081
 20
343.072143
 30
0.0
  0
LINE
  5
11f
100
AcDbEntity
  8
viewfinder_final_cuts
 62
7
100
AcDbLine
 10
641.495081
 20
343.072143
 30
0.0
 11
643.370942
 21
343.072143
 31
0.0
  0
SPLINE
  5
120
100
AcDbEntity
  8
viewfinder_final_cuts
 62
7
100
AcDbSpline
 70
8
 71
3
 72
8
 73
4
 74
0
 40
0
 40
0
 40
0
 40
0
 40
1
 40
1
 40
1
 40
1
 10
643.370942
 20
343.072143
 30
0.0
 10
643.923216
 20
343.072143
 30
0.0
 10
644.371384
 20
343.520302
 30
0.0
 10
644.371384
 20
344.072600
 30
0.0
  0
LINE
  5
121
100
AcDbEntity
  8
viewfinder_final_cuts
 62
7
100
AcDbLine
 10
644.371384
 20
344.072600
 30
0.0
 11
644.371384
 21
350.977604
 31
0.0
  0
SPLINE
  5
122
100
AcDbEntity
  8
viewfinder_final_cuts
 62
7
100
AcDbSpline
 70
8
 71
3
 72
8
 73
4
 74
0
 40
0
 40
0
 40
0
 40
0
 40
1
 40
1
 40
1
 40
1
 10
644.371384
 20
350.977604
 30
0.0
 10
644.371384
 20
351.529913
 30
0.0
 10
643.923216
 20
351.978064
 30
0.0
 10
643.370942
 20
351.978064
 30
0.0
  0
LINE
  5
123
100
AcDbEntity
  8
viewfinder_final_cuts
 62
7
100
AcDbLine
 10
643.370942
 20
351.978064
 30
0.0
 11
632.367486
 21
351.978064
 31
0.0
  0
SPLINE
  5
124
100
AcDbEntity
  8
viewfinder_final_cuts
 62
7
100
AcDbSpline
 70
8
 71
3
 72
8
 73
4
 74
0
 40
0
 40
0
 40
0
 40
0
 40
1
 40
1
 40
1
 40
1
 10
632.367486
 20
351.978064
 30
0.0
 10
631.815177
 20
351.978064
 30
0.0
 10
631.367537
 20
351.529913
 30
0.0
 10
631.367537
 20
350.977604
 30
0.0
  0
LINE
  5
125
100
AcDbEntity
  8
viewfinder_final_cuts
 62
7
100
AcDbLine
 10
631.367537
 20
350.977604
 30
0.0
 11
631.367537
 21
340.446979
 31
0.0
  0
SPLINE
  5
126
100
AcDbEntity
  8
viewfinder_final_cuts
 62
7
100
AcDbSpline
 70
8
 71
3
 72
8
 73
4
 74
0
 40
0
 40
0
 40
0
 40
0
 40
1
 40
1
 40
1
 40
1
 10
631.367537
 20
340.446979
 30
0.0
 10
631.367537
 20
339.894685
 30
0.0
 10
631.815177
 20
339.446523
 30
0.0
 10
632.367486
 20
339.446523
 30
0.0
  0
LINE
  5
127
100
AcDbEntity
  8
viewfinder_final_cuts
 62
7
100
AcDbLine
 10
632.367486
 20
339.446523
 30
0.0
 11
632.367486
 21
339.446523
 31
0.0
  0
LINE
  5
128
100
AcDbEntity
  8
viewfinder_final_cuts
 62
7
100
AcDbLine
 10
647.522113
 20
352.121204
 30
0.0
 11
651.240250
 21
352.121204
 31
0.0
  0
SPLINE
  5
129
100
AcDbEntity
  8
viewfinder_final_cuts
 62
7
100
AcDbSpline
 70
8
 71
3
 72
8
 73
4
 74
0
 40
0
 40
0
 40
0
 40
0
 40
1
 40
1
 40
1
 40
1
 10
651.240250
 20
352.121204
 30
0.0
 10
651.792523
 20
352.121204
 30
0.0
 10
652.240198
 20
352.568850
 30
0.0
 10
652.240198
 20
353.121128
 30
0.0
  0
LINE
  5
12a
100
AcDbEntity
  8
viewfinder_final_cuts
 62
7
100
AcDbLine
 10
652.240198
 20
353.121128
 30
0.0
 11
652.240198
 21
355.738033
 31
0.0
  0
SPLINE
  5
12b
100
AcDbEntity
  8
viewfinder_final_cuts
 62
7
100
AcDbSpline
 70
8
 71
3
 72
8
 73
4
 74
0
 40
0
 40
0
 40
0
 40
0
 40
1
 40
1
 40
1
 40
1
 10
652.240198
 20
355.738033
 30
0.0
 10
652.240198
 20
356.290307
 30
0.0
 10
651.792523
 20
356.737982
 30
0.0
 10
651.240250
 20
356.737982
 30
0.0
  0
LINE
  5
12c
100
AcDbEntity
  8
viewfinder_final_cuts
 62
7
100
AcDbLine
 10
651.240250
 20
356.737982
 30
0.0
 11
647.522113
 21
356.737982
 31
0.0
  0
SPLINE
  5
12d
100
AcDbEntity
  8
viewfinder_final_cuts
 62
7
100
AcDbSpline
 70
8
 71
3
 72
8
 73
4
 74
0
 40
0
 40
0
 40
0
 40
0
 40
1
 40
1
 40
1
 40
1
 10
647.522113
 20
356.737982
 30
0.0
 10
646.969804
 20
356.737982
 30
0.0
 10
646.522165
 20
356.290307
 30
0.0
 10
646.522165
 20
355.738033
 30
0.0
  0
LINE
  5
12e
100
AcDbEntity
  8
viewfinder_final_cuts
 62
7
100
AcDbLine
 10
646.522165
 20
355.738033
 30
0.0
 11
646.522165
 21
353.121128
 31
0.0
  0
SPLINE
  5
12f
100
AcDbEntity
  8
viewfinder_final_cuts
 62
7
100
AcDbSpline
 70
8
 71
3
 72
8
 73
4
 74
0
 40
0
 40
0
 40
0
 40
0
 40
1
 40
1
 40
1
 40
1
 10
646.522165
 20
353.121128
 30
0.0
 10
646.522165
 20
352.568850
 30
0.0
 10
646.969804
 20
352.121204
 30
0.0
 10
647.522113
 20
352.121204
 30
0.0
  0
LINE
  5
130
100
AcDbEntity
  8
viewfinder_final_cuts
 62
7
100
AcDbLine
 10
647.522113
 20
352.121204
 30
0.0
 11
647.522113
 21
352.121204
 31
0.0
  0
LINE
  5
131
100
AcDbEntity
  8
viewfinder_final_cuts
 62
7
100
AcDbLine
 10
647.522113
 20
378.998647
 30
0.0
 11
651.240250
 21
378.998647
 31
0.0
  0
SPLINE
  5
132
100
AcDbEntity
  8
viewfinder_final_cuts
 62
7
100
AcDbSpline
 70
8
 71
3
 72
8
 73
4
 74
0
 40
0
 40
0
 40
0
 40
0
 40
1
 40
1
 40
1
 40
1
 10
651.240250
 20
378.998647
 30
0.0
 10
651.792523
 20
378.998647
 30
0.0
 10
652.240198
 20
379.446781
 30
0.0
 10
652.240198
 20
379.999089
 30
0.0
  0
LINE
  5
133
100
AcDbEntity
  8
viewfinder_final_cuts
 62
7
100
AcDbLine
 10
652.240198
 20
379.999089
 30
0.0
 11
652.240198
 21
382.615995
 31
0.0
  0
SPLINE
  5
134
100
AcDbEntity
  8
viewfinder_final_cuts
 62
7
100
AcDbSpline
 70
8
 71
3
 72
8
 73
4
 74
0
 40
0
 40
0
 40
0
 40
0
 40
1
 40
1
 40
1
 40
1
 10
652.240198
 20
382.615995
 30
0.0
 10
652.240198
 20
383.168304
 30
0.0
 10
651.792523
 20
383.615943
 30
0.0
 10
651.240250
 20
383.615943
 30
0.0
  0
LINE
  5
135
100
AcDbEntity
  8
viewfinder_final_cuts
 62
7
100
AcDbLine
 10
651.240250
 20
383.615943
 30
0.0
 11
647.522113
 21
383.615943
 31
0.0
  0
SPLINE
  5
136
100
AcDbEntity
  8
viewfinder_final_cuts
 62
7
100
AcDbSpline
 70
8
 71
3
 72
8
 73
4
 74
0
 40
0
 40
0
 40
0
 40
0
 40
1
 40
1
 40
1
 40
1
 10
647.522113
 20
383.615943
 30
0.0
 10
646.969804
 20
383.615943
 30
0.0
 10
646.522165
 20
383.168304
 30
0.0
 10
646.522165
 20
382.615995
 30
0.0
  0
LINE
  5
137
100
AcDbEntity
  8
viewfinder_final_cuts
 62
7
100
AcDbLine
 10
646.522165
 20
382.615995
 30
0.0
 11
646.522165
 21
379.999089
 31
0.0
  0
SPLINE
  5
138
100
AcDbEntity
  8
viewfinder_final_cuts
 62
7
100
AcDbSpline
 70
8
 71
3
 72
8
 73
4
 74
0
 40
0
 40
0
 40
0
 40
0
 40
1
 40
1
 40
1
 40
1
 10
646.522165
 20
379.999089
 30
0.0
 10
646.522165
 20
379.446781
 30
0.0
 10
646.969804
 20
378.998647
 30
0.0
 10
647.522113
 20
378.998647
 30
0.0
  0
LINE
  5
139
100
AcDbEntity
  8
viewfinder_final_cuts
 62
7
100
AcDbLine
 10
647.522113
 20
378.998647
 30
0.0
 11
647.522113
 21
378.998647
 31
0.0
  0
LINE
  5
13a
100
AcDbEntity
  8
viewfinder_final_cuts
 62
7
100
AcDbLine
 10
511.765657
 20
443.602055
 30
0.0
 11
511.765657
 21
437.689239
 31
0.0
  0
LINE
  5
13b
100
AcDbEntity
  8
viewfinder_final_cuts
 62
7
100
AcDbLine
 10
511.765657
 20
437.689239
 30
0.0
 11
516.765885
 21
437.689239
 31
0.0
  0
LINE
  5
13c
100
AcDbEntity
  8
viewfinder_final_cuts
 62
7
100
AcDbLine
 10
516.765885
 20
437.689239
 30
0.0
 11
516.765885
 21
363.449842
 31
0.0
  0
LINE
  5
13d
100
AcDbEntity
  8
viewfinder_final_cuts
 62
7
100
AcDbLine
 10
516.765885
 20
363.449842
 30
0.0
 11
556.766546
 21
363.449842
 31
0.0
  0
LINE
  5
13e
100
AcDbEntity
  8
viewfinder_final_cuts
 62
7
100
AcDbLine
 10
556.766546
 20
363.449842
 30
0.0
 11
568.068170
 21
383.382476
 31
0.0
  0
SPLINE
  5
13f
100
AcDbEntity
  8
viewfinder_final_cuts
 62
7
100
AcDbSpline
 70
8
 71
3
 72
8
 73
4
 74
0
 40
0
 40
0
 40
0
 40
0
 40
1
 40
1
 40
1
 40
1
 10
568.068170
 20
383.382476
 30
0.0
 10
570.792188
 20
388.186992
 30
0.0
 10
576.894855
 20
389.873697
 30
0.0
 10
581.699371
 20
387.149687
 30
0.0
  0
SPLINE
  5
140
100
AcDbEntity
  8
viewfinder_final_cuts
 62
7
100
AcDbSpline
 70
8
 71
3
 72
8
 73
4
 74
0
 40
0
 40
0
 40
0
 40
0
 40
1
 40
1
 40
1
 40
1
 10
581.699371
 20
387.149687
 30
0.0
 10
583.272583
 20
386.257724
 30
0.0
 10
584.574625
 20
384.955688
 30
0.0
 10
585.466588
 20
383.382476
 30
0.0
  0
LINE
  5
141
100
AcDbEntity
  8
viewfinder_final_cuts
 62
7
100
AcDbLine
 10
585.466588
 20
383.382476
 30
0.0
 11
596.767709
 21
363.449842
 31
0.0
  0
LINE
  5
142
100
AcDbEntity
  8
viewfinder_final_cuts
 62
7
100
AcDbLine
 10
596.767709
 20
363.449842
 30
0.0
 11
624.637833
 21
363.449842
 31
0.0
  0
LINE
  5
143
100
AcDbEntity
  8
viewfinder_final_cuts
 62
7
100
AcDbLine
 10
624.637833
 20
363.449842
 30
0.0
 11
624.637833
 21
369.375061
 31
0.0
  0
SPLINE
  5
144
100
AcDbEntity
  8
viewfinder_final_cuts
 62
7
100
AcDbSpline
 70
8
 71
3
 72
8
 73
4
 74
0
 40
0
 40
0
 40
0
 40
0
 40
1
 40
1
 40
1
 40
1
 10
624.637833
 20
369.375061
 30
0.0
 10
624.857516
 20
371.768519
 30
0.0
 10
626.865016
 20
373.600126
 30
0.0
 10
629.268570
 20
373.600126
 30
0.0
  0
LINE
  5
145
100
AcDbEntity
  8
viewfinder_final_cuts
 62
7
100
AcDbLine
 10
629.268570
 20
373.600126
 30
0.0
 11
636.768873
 21
373.600126
 31
0.0
  0
LINE
  5
146
100
AcDbEntity
  8
viewfinder_final_cuts
 62
7
100
AcDbLine
 10
636.768873
 20
373.600126
 30
0.0
 11
636.768873
 21
437.689239
 31
0.0
  0
LINE
  5
147
100
AcDbEntity
  8
viewfinder_final_cuts
 62
7
100
AcDbLine
 10
636.768873
 20
437.689239
 30
0.0
 11
641.769101
 21
437.689239
 31
0.0
  0
LINE
  5
148
100
AcDbEntity
  8
viewfinder_final_cuts
 62
7
100
AcDbLine
 10
641.769101
 20
437.689239
 30
0.0
 11
641.769101
 21
443.602055
 31
0.0
  0
LINE
  5
149
100
AcDbEntity
  8
viewfinder_final_cuts
 62
7
100
AcDbLine
 10
641.769101
 20
443.602055
 30
0.0
 11
511.765657
 21
443.602055
 31
0.0
  0
LINE
  5
14a
100
AcDbEntity
  8
viewfinder_final_cuts
 62
7
100
AcDbLine
 10
511.765657
 20
443.602055
 30
0.0
 11
511.765657
 21
443.602055
 31
0.0
  0
LINE
  5
14b
100
AcDbEntity
  8
viewfinder_final_cuts
 62
7
100
AcDbLine
 10
574.515828
 20
422.351674
 30
0.0
 11
579.018930
 21
422.351674
 31
0.0
  0
LINE
  5
14c
100
AcDbEntity
  8
viewfinder_final_cuts
 62
7
100
AcDbLine
 10
579.018930
 20
422.351674
 30
0.0
 11
581.270984
 21
418.451137
 31
0.0
  0
LINE
  5
14d
100
AcDbEntity
  8
viewfinder_final_cuts
 62
7
100
AcDbLine
 10
581.270984
 20
418.451137
 30
0.0
 11
579.018930
 21
414.551115
 31
0.0
  0
LINE
  5
14e
100
AcDbEntity
  8
viewfinder_final_cuts
 62
7
100
AcDbLine
 10
579.018930
 20
414.551115
 30
0.0
 11
574.515828
 21
414.551115
 31
0.0
  0
LINE
  5
14f
100
AcDbEntity
  8
viewfinder_final_cuts
 62
7
100
AcDbLine
 10
574.515828
 20
414.551115
 30
0.0
 11
572.263774
 21
418.451137
 31
0.0
  0
LINE
  5
150
100
AcDbEntity
  8
viewfinder_final_cuts
 62
7
100
AcDbLine
 10
572.263774
 20
418.451137
 30
0.0
 11
574.515828
 21
422.351674
 31
0.0
  0
LINE
  5
151
100
AcDbEntity
  8
viewfinder_final_cuts
 62
7
100
AcDbLine
 10
574.515828
 20
422.351674
 30
0.0
 11
574.515828
 21
422.351674
 31
0.0
  0
LINE
  5
152
100
AcDbEntity
  8
viewfinder_final_cuts
 62
7
100
AcDbLine
 10
610.268180
 20
412.860779
 30
0.0
 11
613.268502
 21
412.860779
 31
0.0
  0
SPLINE
  5
153
100
AcDbEntity
  8
viewfinder_final_cuts
 62
7
100
AcDbSpline
 70
8
 71
3
 72
8
 73
4
 74
0
 40
0
 40
0
 40
0
 40
0
 40
1
 40
1
 40
1
 40
1
 10
613.268502
 20
412.860779
 30
0.0
 10
614.289370
 20
412.860779
 30
0.0
 10
615.146091
 20
412.091781
 30
0.0
 10
615.256502
 20
411.076911
 30
0.0
  0
SPLINE
  5
154
100
AcDbEntity
  8
viewfinder_final_cuts
 62
7
100
AcDbSpline
 70
8
 71
3
 72
8
 73
4
 74
0
 40
0
 40
0
 40
0
 40
0
 40
1
 40
1
 40
1
 40
1
 10
615.256502
 20
411.076911
 30
0.0
 10
615.298121
 20
410.694286
 30
0.0
 10
615.555481
 20
410.369629
 30
0.0
 10
615.918489
 20
410.241819
 30
0.0
  0
SPLINE
  5
155
100
AcDbEntity
  8
viewfinder_final_cuts
 62
7
100
AcDbSpline
 70
8
 71
3
 72
8
 73
4
 74
0
 40
0
 40
0
 40
0
 40
0
 40
1
 40
1
 40
1
 40
1
 10
615.918489
 20
410.241819
 30
0.0
 10
622.430546
 20
407.949575
 30
0.0
 10
625.851609
 20
400.812223
 30
0.0
 10
623.559365
 20
394.300155
 30
0.0
  0
SPLINE
  5
156
100
AcDbEntity
  8
viewfinder_final_cuts
 62
7
100
AcDbSpline
 70
8
 71
3
 72
8
 73
4
 74
0
 40
0
 40
0
 40
0
 40
0
 40
1
 40
1
 40
1
 40
1
 10
623.559365
 20
394.300155
 30
0.0
 10
621.267121
 20
387.788055
 30
0.0
 10
614.129747
 20
384.367517
 30
0.0
 10
607.617690
 20
386.659795
 30
0.0
  0
SPLINE
  5
157
100
AcDbEntity
  8
viewfinder_final_cuts
 62
7
100
AcDbSpline
 70
8
 71
3
 72
8
 73
4
 74
0
 40
0
 40
0
 40
0
 40
0
 40
1
 40
1
 40
1
 40
1
 10
607.617690
 20
386.659795
 30
0.0
 10
601.105580
 20
388.952040
 30
0.0
 10
597.684570
 20
396.089358
 30
0.0
 10
599.976814
 20
402.601457
 30
0.0
  0
SPLINE
  5
158
100
AcDbEntity
  8
viewfinder_final_cuts
 62
7
100
AcDbSpline
 70
8
 71
3
 72
8
 73
4
 74
0
 40
0
 40
0
 40
0
 40
0
 40
1
 40
1
 40
1
 40
1
 10
599.976814
 20
402.601457
 30
0.0
 10
601.234537
 20
406.174462
 30
0.0
 10
604.044677
 20
408.984131
 30
0.0
 10
607.617690
 20
410.241819
 30
0.0
  0
SPLINE
  5
159
100
AcDbEntity
  8
viewfinder_final_cuts
 62
7
100
AcDbSpline
 70
8
 71
3
 72
8
 73
4
 74
0
 40
0
 40
0
 40
0
 40
0
 40
1
 40
1
 40
1
 40
1
 10
607.617690
 20
410.241819
 30
0.0
 10
607.980698
 20
410.369629
 30
0.0
 10
608.238032
 20
410.694286
 30
0.0
 10
608.279677
 20
411.076911
 30
0.0
  0
SPLINE
  5
15a
100
AcDbEntity
  8
viewfinder_final_cuts
 62
7
100
AcDbSpline
 70
8
 71
3
 72
8
 73
4
 74
0
 40
0
 40
0
 40
0
 40
0
 40
1
 40
1
 40
1
 40
1
 10
608.279677
 20
411.076911
 30
0.0
 10
608.390061
 20
412.091781
 30
0.0
 10
609.247285
 20
412.860779
 30
0.0
 10
610.268180
 20
412.860779
 30
0.0
  0
LINE
  5
15b
100
AcDbEntity
  8
viewfinder_final_cuts
 62
7
100
AcDbLine
 10
610.268180
 20
412.860779
 30
0.0
 11
610.268180
 21
412.860779
 31
0.0
  0
LINE
  5
15c
100
AcDbEntity
  8
viewfinder_final_cuts
 62
7
100
AcDbLine
 10
544.514565
 20
379.350165
 30
0.0
 11
549.018170
 21
379.350165
 31
0.0
  0
LINE
  5
15d
100
AcDbEntity
  8
viewfinder_final_cuts
 62
7
100
AcDbLine
 10
549.018170
 20
379.350165
 30
0.0
 11
551.270224
 21
375.450143
 31
0.0
  0
LINE
  5
15e
100
AcDbEntity
  8
viewfinder_final_cuts
 62
7
100
AcDbLine
 10
551.270224
 20
375.450143
 30
0.0
 11
549.018170
 21
371.550124
 31
0.0
  0
LINE
  5
15f
100
AcDbEntity
  8
viewfinder_final_cuts
 62
7
100
AcDbLine
 10
549.018170
 20
371.550124
 30
0.0
 11
544.514565
 21
371.550124
 31
0.0
  0
LINE
  5
160
100
AcDbEntity
  8
viewfinder_final_cuts
 62
7
100
AcDbLine
 10
544.514565
 20
371.550124
 30
0.0
 11
542.263013
 21
375.450143
 31
0.0
  0
LINE
  5
161
100
AcDbEntity
  8
viewfinder_final_cuts
 62
7
100
AcDbLine
 10
542.263013
 20
375.450143
 30
0.0
 11
544.514565
 21
379.350165
 31
0.0
  0
LINE
  5
162
100
AcDbEntity
  8
viewfinder_final_cuts
 62
7
100
AcDbLine
 10
544.514565
 20
379.350165
 30
0.0
 11
544.514565
 21
379.350165
 31
0.0
  0
LINE
  5
163
100
AcDbEntity
  8
viewfinder_final_cuts
 62
7
100
AcDbLine
 10
604.516588
 20
379.350165
 30
0.0
 11
609.019664
 21
379.350165
 31
0.0
  0
LINE
  5
164
100
AcDbEntity
  8
viewfinder_final_cuts
 62
7
100
AcDbLine
 10
609.019664
 20
379.350165
 30
0.0
 11
611.271744
 21
375.450143
 31
0.0
  0
LINE
  5
165
100
AcDbEntity
  8
viewfinder_final_cuts
 62
7
100
AcDbLine
 10
611.271744
 20
375.450143
 30
0.0
 11
609.019664
 21
371.550124
 31
0.0
  0
LINE
  5
166
100
AcDbEntity
  8
viewfinder_final_cuts
 62
7
100
AcDbLine
 10
609.019664
 20
371.550124
 30
0.0
 11
604.516588
 21
371.550124
 31
0.0
  0
LINE
  5
167
100
AcDbEntity
  8
viewfinder_final_cuts
 62
7
100
AcDbLine
 10
604.516588
 20
371.550124
 30
0.0
 11
602.264534
 21
375.450143
 31
0.0
  0
LINE
  5
168
100
AcDbEntity
  8
viewfinder_final_cuts
 62
7
100
AcDbLine
 10
602.264534
 20
375.450143
 30
0.0
 11
604.516588
 21
379.350165
 31
0.0
  0
LINE
  5
169
100
AcDbEntity
  8
viewfinder_final_cuts
 62
7
100
AcDbLine
 10
604.516588
 20
379.350165
 30
0.0
 11
604.516588
 21
379.350165
 31
0.0
  0
LINE
  5
16a
100
AcDbEntity
  8
viewfinder_final_cuts
 62
7
100
AcDbLine
 10
511.916561
 20
455.223551
 30
0.0
 11
511.916561
 21
449.310855
 31
0.0
  0
LINE
  5
16b
100
AcDbEntity
  8
viewfinder_final_cuts
 62
7
100
AcDbLine
 10
511.916561
 20
449.310855
 30
0.0
 11
641.920002
 21
449.310855
 31
0.0
  0
LINE
  5
16c
100
AcDbEntity
  8
viewfinder_final_cuts
 62
7
100
AcDbLine
 10
641.920002
 20
449.310855
 30
0.0
 11
641.920002
 21
455.223551
 31
0.0
  0
LINE
  5
16d
100
AcDbEntity
  8
viewfinder_final_cuts
 62
7
100
AcDbLine
 10
641.920002
 20
455.223551
 30
0.0
 11
511.916561
 21
455.223551
 31
0.0
  0
LINE
  5
16e
100
AcDbEntity
  8
viewfinder_final_cuts
 62
7
100
AcDbLine
 10
641.334426
 20
461.501337
 30
0.0
 11
511.331021
 21
461.501337
 31
0.0
  0
LINE
  5
16f
100
AcDbEntity
  8
viewfinder_final_cuts
 62
7
100
AcDbLine
 10
511.331021
 20
461.501337
 30
0.0
 11
511.331021
 21
470.917435
 31
0.0
  0
LINE
  5
170
100
AcDbEntity
  8
viewfinder_final_cuts
 62
7
100
AcDbLine
 10
511.331021
 20
470.917435
 30
0.0
 11
516.331152
 21
470.917435
 31
0.0
  0
LINE
  5
171
100
AcDbEntity
  8
viewfinder_final_cuts
 62
7
100
AcDbLine
 10
516.331152
 20
470.917435
 30
0.0
 11
516.331152
 21
474.501657
 31
0.0
  0
LINE
  5
172
100
AcDbEntity
  8
viewfinder_final_cuts
 62
7
100
AcDbLine
 10
516.331152
 20
474.501657
 30
0.0
 11
636.334295
 21
474.501657
 31
0.0
  0
LINE
  5
173
100
AcDbEntity
  8
viewfinder_final_cuts
 62
7
100
AcDbLine
 10
636.334295
 20
474.501657
 30
0.0
 11
636.334295
 21
470.917435
 31
0.0
  0
LINE
  5
174
100
AcDbEntity
  8
viewfinder_final_cuts
 62
7
100
AcDbLine
 10
636.334295
 20
470.917435
 30
0.0
 11
641.334426
 21
470.917435
 31
0.0
  0
LINE
  5
175
100
AcDbEntity
  8
viewfinder_final_cuts
 62
7
100
AcDbLine
 10
641.334426
 20
470.917435
 30
0.0
 11
641.334426
 21
461.501337
 31
0.0
  0
LINE
  5
176
100
AcDbEntity
  8
viewfinder_final_cuts
 62
7
100
AcDbLine
 10
641.067585
 20
492.364771
 30
0.0
 11
641.067585
 21
482.948673
 31
0.0
  0
LINE
  5
177
100
AcDbEntity
  8
viewfinder_final_cuts
 62
7
100
AcDbLine
 10
641.067585
 20
482.948673
 30
0.0
 11
511.064144
 21
482.948673
 31
0.0
  0
LINE
  5
178
100
AcDbEntity
  8
viewfinder_final_cuts
 62
7
100
AcDbLine
 10
511.064144
 20
482.948673
 30
0.0
 11
511.064144
 21
492.364771
 31
0.0
  0
LINE
  5
179
100
AcDbEntity
  8
viewfinder_final_cuts
 62
7
100
AcDbLine
 10
511.064144
 20
492.364771
 30
0.0
 11
641.067585
 21
492.364771
 31
0.0
  0
ENDSEC
  0
SECTION
  2
OBJECTS
  0
DICTIONARY
  5
C
330
0
100
AcDbDictionary
  3
ACAD_GROUP
350
D
  3
ACAD_MLINESTYLE
350
17
  0
DICTIONARY
  5
D
330
C
100
AcDbDictionary
  0
DICTIONARY
  5
1A
330
C
100
AcDbDictionary
  0
DICTIONARY
  5
17
330
C
100
AcDbDictionary
  3
STANDARD
350
18
  0
DICTIONARY
  5
19
330
C
100
AcDbDictionary
  0
ENDSEC
  0
EOF
