  0
SECTION
  2
HEADER
  9
$ACADVER
  1
AC1014
  9
$HANDSEED
  5
FFFF
  9
$MEASUREMENT
 70
     1
  0
ENDSEC
  0
SECTION
  2
TABLES
  0
TABLE
  2
VPORT
  5
8
330
0
100
AcDbSymbolTable
 70
     4
  0
VPORT
  5
2E
330
8
100
AcDbSymbolTableRecord
100
AcDbViewportTableRecord
  2
*ACTIVE
 70
     0
 10
0.0
 20
0.0
 11
1.0
 21
1.0
 12
210.0
 22
148.5
 13
0.0
 23
0.0
 14
10.0
 24
10.0
 15
10.0
 25
10.0
 16
0.0
 26
0.0
 36
1.0
 17
0.0
 27
0.0
 37
0.0
 40
341.0
 41
1.24
 42
50.0
 43
0.0
 44
0.0
 50
0.0
 51
0.0
 71
     0
 72
   100
 73
     1
 74
     3
 75
     0
 76
     0
 77
     0
 78
     0
  0
ENDTAB
  0
TABLE
  2
LTYPE
  5
5
330
0
100
AcDbSymbolTable
 70
     1
  0
LTYPE
  5
14
330
5
100
AcDbSymbolTableRecord
100
AcDbLinetypeTableRecord
  2
BYBLOCK
 70
     0
  3

 72
    65
 73
     0
 40
0.0
  0
LTYPE
  5
15
330
5
100
AcDbSymbolTableRecord
100
AcDbLinetypeTableRecord
  2
BYLAYER
 70
     0
  3

 72
    65
 73
     0
 40
0.0
  0
LTYPE
  5
16
330
5
100
AcDbSymbolTableRecord
100
AcDbLinetypeTableRecord
  2
CONTINUOUS
 70
     0
  3
Solid line
 72
    65
 73
     0
 40
0.0
  0
ENDTAB
  0
TABLE
  2
LAYER
  5
2
100
AcDbSymbolTable
 70
2
  0
LAYER
  5
50
100
AcDbSymbolTableRecord
100
AcDbLayerTableRecord
  2
0
 70
0
  6
CONTINUOUS
  0
LAYER
  5
51
100
AcDbSymbolTableRecord
100
AcDbLayerTableRecord
  2
pc_bracket
 70
0
  6
CONTINUOUS
  0
ENDTAB
  0
TABLE
  2
STYLE
  5
3
330
0
100
AcDbSymbolTable
 70
     1
  0
STYLE
  5
11
330
3
100
AcDbSymbolTableRecord
100
AcDbTextStyleTableRecord
  2
STANDARD
 70
     0
 40
0.0
 41
1.0
 50
0.0
 71
     0
 42
2.5
  3
txt
  4

  0
ENDTAB
  0
TABLE
  2
VIEW
  5
6
330
0
100
AcDbSymbolTable
 70
     0
  0
ENDTAB
  0
TABLE
  2
UCS
  5
7
330
0
100
AcDbSymbolTable
 70
     0
  0
ENDTAB
  0
TABLE
  2
APPID
  5
9
330
0
100
AcDbSymbolTable
 70
     2
  0
APPID
  5
12
330
9
100
AcDbSymbolTableRecord
100
AcDbRegAppTableRecord
  2
ACAD
 70
     0
  0
ENDTAB
  0
TABLE
  2
DIMSTYLE
  5
A
330
0
100
AcDbSymbolTable
 70
     1
  0
DIMSTYLE
105
27
330
A
100
AcDbSymbolTableRecord
100
AcDbDimStyleTableRecord
  2
ISO-25
 70
     0
  3

  4

  5

  6

  7

 40
1.0
 41
2.5
 42
0.625
 43
3.75
 44
1.25
 45
0.0
 46
0.0
 47
0.0
 48
0.0
140
2.5
141
2.5
142
0.0
143
0.03937007874016
144
1.0
145
0.0
146
1.0
147
0.625
 71
     0
 72
     0
 73
     0
 74
     0
 75
     0
 76
     0
 77
     1
 78
     8
170
     0
171
     3
172
     1
173
     0
174
     0
175
     0
176
     0
177
     0
178
     0
270
     2
271
     2
272
     2
273
     2
274
     3
340
11
275
     0
280
     0
281
     0
282
     0
283
     0
284
     8
285
     0
286
     0
287
     3
288
     0
  0
ENDTAB
  0
TABLE
  2
BLOCK_RECORD
  5
1
330
0
100
AcDbSymbolTable
 70
     1
  0
BLOCK_RECORD
  5
1F
330
1
100
AcDbSymbolTableRecord
100
AcDbBlockTableRecord
  2
*MODEL_SPACE
  0
BLOCK_RECORD
  5
1B
330
1
100
AcDbSymbolTableRecord
100
AcDbBlockTableRecord
  2
*PAPER_SPACE
  0
ENDTAB
  0
ENDSEC
  0
SECTION
  2
BLOCKS
  0
BLOCK
  5
20
330
1F
100
AcDbEntity
  8
0
100
AcDbBlockBegin
  2
*MODEL_SPACE
 70
     0
 10
0.0
 20
0.0
 30
0.0
  3
*MODEL_SPACE
  1

  0
ENDBLK
  5
21
330
1F
100
AcDbEntity
  8
0
100
AcDbBlockEnd
  0
BLOCK
  5
1C
330
1B
100
AcDbEntity
 67
     1
  8
0
100
AcDbBlockBegin
  2
*PAPER_SPACE
  1

  0
ENDBLK
  5
1D
330
1B
100
AcDbEntity
 67
     1
  8
0
100
AcDbBlockEnd
  0
ENDSEC
  0
SECTION
  2
ENTITIES
  0
SPLINE
  5
100
100
AcDbEntity
  8
pc_bracket
 62
7
100
AcDbSpline
 70
8
 71
3
 72
8
 73
4
 74
0
 40
0
 40
0
 40
0
 40
0
 40
1
 40
1
 40
1
 40
1
 10
47.702116
 20
66.288853
 30
0.0
 10
49.082186
 20
66.288853
 30
0.0
 10
50.200957
 20
67.407624
 30
0.0
 10
50.200957
 20
68.787698
 30
0.0
  0
SPLINE
  5
101
100
AcDbEntity
  8
pc_bracket
 62
7
100
AcDbSpline
 70
8
 71
3
 72
8
 73
4
 74
0
 40
0
 40
0
 40
0
 40
0
 40
1
 40
1
 40
1
 40
1
 10
50.200957
 20
68.787698
 30
0.0
 10
50.200957
 20
70.167768
 30
0.0
 10
49.082186
 20
71.286539
 30
0.0
 10
47.702116
 20
71.286539
 30
0.0
  0
SPLINE
  5
102
100
AcDbEntity
  8
pc_bracket
 62
7
100
AcDbSpline
 70
8
 71
3
 72
8
 73
4
 74
0
 40
0
 40
0
 40
0
 40
0
 40
1
 40
1
 40
1
 40
1
 10
47.702116
 20
71.286539
 30
0.0
 10
46.322042
 20
71.286539
 30
0.0
 10
45.203271
 20
70.167768
 30
0.0
 10
45.203271
 20
68.787698
 30
0.0
  0
SPLINE
  5
103
100
AcDbEntity
  8
pc_bracket
 62
7
100
AcDbSpline
 70
8
 71
3
 72
8
 73
4
 74
0
 40
0
 40
0
 40
0
 40
0
 40
1
 40
1
 40
1
 40
1
 10
45.203271
 20
68.787698
 30
0.0
 10
45.203271
 20
67.407624
 30
0.0
 10
46.322042
 20
66.288853
 30
0.0
 10
47.702116
 20
66.288853
 30
0.0
  0
LINE
  5
104
100
AcDbEntity
  8
pc_bracket
 62
7
100
AcDbLine
 10
47.702116
 20
66.288853
 30
0.0
 11
47.702116
 21
66.288853
 31
0.0
  0
SPLINE
  5
105
100
AcDbEntity
  8
pc_bracket
 62
7
100
AcDbSpline
 70
8
 71
3
 72
8
 73
4
 74
0
 40
0
 40
0
 40
0
 40
0
 40
1
 40
1
 40
1
 40
1
 10
88.661326
 20
167.265785
 30
0.0
 10
90.041400
 20
167.265785
 30
0.0
 10
91.160171
 20
168.384553
 30
0.0
 10
91.160171
 20
169.764626
 30
0.0
  0
SPLINE
  5
106
100
AcDbEntity
  8
pc_bracket
 62
7
100
AcDbSpline
 70
8
 71
3
 72
8
 73
4
 74
0
 40
0
 40
0
 40
0
 40
0
 40
1
 40
1
 40
1
 40
1
 10
91.160171
 20
169.764626
 30
0.0
 10
91.160171
 20
171.144700
 30
0.0
 10
90.041400
 20
172.263468
 30
0.0
 10
88.661326
 20
172.263468
 30
0.0
  0
SPLINE
  5
107
100
AcDbEntity
  8
pc_bracket
 62
7
100
AcDbSpline
 70
8
 71
3
 72
8
 73
4
 74
0
 40
0
 40
0
 40
0
 40
0
 40
1
 40
1
 40
1
 40
1
 10
88.661326
 20
172.263468
 30
0.0
 10
87.281256
 20
172.263468
 30
0.0
 10
86.162485
 20
171.144700
 30
0.0
 10
86.162485
 20
169.764626
 30
0.0
  0
SPLINE
  5
108
100
AcDbEntity
  8
pc_bracket
 62
7
100
AcDbSpline
 70
8
 71
3
 72
8
 73
4
 74
0
 40
0
 40
0
 40
0
 40
0
 40
1
 40
1
 40
1
 40
1
 10
86.162485
 20
169.764626
 30
0.0
 10
86.162485
 20
168.384553
 30
0.0
 10
87.281256
 20
167.265785
 30
0.0
 10
88.661326
 20
167.265785
 30
0.0
  0
LINE
  5
109
100
AcDbEntity
  8
pc_bracket
 62
7
100
AcDbLine
 10
88.661326
 20
167.265785
 30
0.0
 11
88.661326
 21
167.265785
 31
0.0
  0
SPLINE
  5
10a
100
AcDbEntity
  8
pc_bracket
 62
7
100
AcDbSpline
 70
8
 71
3
 72
8
 73
4
 74
0
 40
0
 40
0
 40
0
 40
0
 40
1
 40
1
 40
1
 40
1
 10
139.183442
 20
41.776506
 30
0.0
 10
140.563515
 20
41.776506
 30
0.0
 10
141.682287
 20
42.895277
 30
0.0
 10
141.682287
 20
44.275351
 30
0.0
  0
SPLINE
  5
10b
100
AcDbEntity
  8
pc_bracket
 62
7
100
AcDbSpline
 70
8
 71
3
 72
8
 73
4
 74
0
 40
0
 40
0
 40
0
 40
0
 40
1
 40
1
 40
1
 40
1
 10
141.682287
 20
44.275351
 30
0.0
 10
141.682287
 20
45.655421
 30
0.0
 10
140.563515
 20
46.774192
 30
0.0
 10
139.183442
 20
46.774192
 30
0.0
  0
SPLINE
  5
10c
100
AcDbEntity
  8
pc_bracket
 62
7
100
AcDbSpline
 70
8
 71
3
 72
8
 73
4
 74
0
 40
0
 40
0
 40
0
 40
0
 40
1
 40
1
 40
1
 40
1
 10
139.183442
 20
46.774192
 30
0.0
 10
137.803368
 20
46.774192
 30
0.0
 10
136.684600
 20
45.655421
 30
0.0
 10
136.684600
 20
44.275351
 30
0.0
  0
SPLINE
  5
10d
100
AcDbEntity
  8
pc_bracket
 62
7
100
AcDbSpline
 70
8
 71
3
 72
8
 73
4
 74
0
 40
0
 40
0
 40
0
 40
0
 40
1
 40
1
 40
1
 40
1
 10
136.684600
 20
44.275351
 30
0.0
 10
136.684600
 20
42.895277
 30
0.0
 10
137.803368
 20
41.776506
 30
0.0
 10
139.183442
 20
41.776506
 30
0.0
  0
LINE
  5
10e
100
AcDbEntity
  8
pc_bracket
 62
7
100
AcDbLine
 10
139.183442
 20
41.776506
 30
0.0
 11
139.183442
 21
41.776506
 31
0.0
  0
SPLINE
  5
10f
100
AcDbEntity
  8
pc_bracket
 62
7
100
AcDbSpline
 70
8
 71
3
 72
8
 73
4
 74
0
 40
0
 40
0
 40
0
 40
0
 40
1
 40
1
 40
1
 40
1
 10
146.080095
 20
51.510237
 30
0.0
 10
150.075812
 20
47.701324
 30
0.0
 10
150.227248
 20
41.374417
 30
0.0
 10
146.418332
 20
37.378697
 30
0.0
  0
SPLINE
  5
110
100
AcDbEntity
  8
pc_bracket
 62
7
100
AcDbSpline
 70
8
 71
3
 72
8
 73
4
 74
0
 40
0
 40
0
 40
0
 40
0
 40
1
 40
1
 40
1
 40
1
 10
146.418332
 20
37.378697
 30
0.0
 10
142.609415
 20
33.382979
 30
0.0
 10
136.282511
 20
33.231545
 30
0.0
 10
132.286791
 20
37.040461
 30
0.0
  0
LINE
  5
111
100
AcDbEntity
  8
pc_bracket
 62
7
100
AcDbLine
 10
132.286791
 20
37.040461
 30
0.0
 11
92.595144
 21
74.876487
 31
0.0
  0
SPLINE
  5
112
100
AcDbEntity
  8
pc_bracket
 62
7
100
AcDbSpline
 70
8
 71
3
 72
8
 73
4
 74
0
 40
0
 40
0
 40
0
 40
0
 40
1
 40
1
 40
1
 40
1
 10
92.595144
 20
74.876487
 30
0.0
 10
89.384824
 20
77.936721
 30
0.0
 10
84.541820
 20
78.515453
 30
0.0
 10
80.700807
 20
76.297843
 30
0.0
  0
LINE
  5
113
100
AcDbEntity
  8
pc_bracket
 62
7
100
AcDbLine
 10
80.700807
 20
76.297843
 30
0.0
 11
52.699799
 21
60.131452
 31
0.0
  0
SPLINE
  5
114
100
AcDbEntity
  8
pc_bracket
 62
7
100
AcDbSpline
 70
8
 71
3
 72
8
 73
4
 74
0
 40
0
 40
0
 40
0
 40
0
 40
1
 40
1
 40
1
 40
1
 10
52.699799
 20
60.131452
 30
0.0
 10
47.919088
 20
57.371308
 30
0.0
 10
41.806014
 20
59.009301
 30
0.0
 10
39.045870
 20
63.790012
 30
0.0
  0
SPLINE
  5
115
100
AcDbEntity
  8
pc_bracket
 62
7
100
AcDbSpline
 70
8
 71
3
 72
8
 73
4
 74
0
 40
0
 40
0
 40
0
 40
0
 40
1
 40
1
 40
1
 40
1
 10
39.045870
 20
63.790012
 30
0.0
 10
36.285726
 20
68.570726
 30
0.0
 10
37.923716
 20
74.683796
 30
0.0
 10
42.704430
 20
77.443940
 30
0.0
  0
LINE
  5
116
100
AcDbEntity
  8
pc_bracket
 62
7
100
AcDbLine
 10
42.704430
 20
77.443940
 30
0.0
 11
73.668271
 21
95.320925
 31
0.0
  0
SPLINE
  5
117
100
AcDbEntity
  8
pc_bracket
 62
7
100
AcDbSpline
 70
8
 71
3
 72
8
 73
4
 74
0
 40
0
 40
0
 40
0
 40
0
 40
1
 40
1
 40
1
 40
1
 10
73.668271
 20
95.320925
 30
0.0
 10
76.760851
 20
97.106425
 30
0.0
 10
78.665957
 20
100.406168
 30
0.0
 10
78.665957
 20
103.977168
 30
0.0
  0
LINE
  5
118
100
AcDbEntity
  8
pc_bracket
 62
7
100
AcDbLine
 10
78.665957
 20
103.977168
 30
0.0
 11
78.665957
 21
169.764626
 31
0.0
  0
SPLINE
  5
119
100
AcDbEntity
  8
pc_bracket
 62
7
100
AcDbSpline
 70
8
 71
3
 72
8
 73
4
 74
0
 40
0
 40
0
 40
0
 40
0
 40
1
 40
1
 40
1
 40
1
 10
78.665957
 20
169.764626
 30
0.0
 10
78.665957
 20
175.284918
 30
0.0
 10
83.141035
 20
179.759995
 30
0.0
 10
88.661326
 20
179.759995
 30
0.0
  0
SPLINE
  5
11a
100
AcDbEntity
  8
pc_bracket
 62
7
100
AcDbSpline
 70
8
 71
3
 72
8
 73
4
 74
0
 40
0
 40
0
 40
0
 40
0
 40
1
 40
1
 40
1
 40
1
 10
88.661326
 20
179.759995
 30
0.0
 10
94.181617
 20
179.759995
 30
0.0
 10
98.656698
 20
175.284918
 30
0.0
 10
98.656698
 20
169.764626
 30
0.0
  0
LINE
  5
11b
100
AcDbEntity
  8
pc_bracket
 62
7
100
AcDbLine
 10
98.656698
 20
169.764626
 30
0.0
 11
98.656698
 21
100.997585
 31
0.0
  0
SPLINE
  5
11c
100
AcDbEntity
  8
pc_bracket
 62
7
100
AcDbSpline
 70
8
 71
3
 72
8
 73
4
 74
0
 40
0
 40
0
 40
0
 40
0
 40
1
 40
1
 40
1
 40
1
 10
98.656698
 20
100.997585
 30
0.0
 10
98.656698
 20
98.263663
 30
0.0
 10
99.776535
 20
95.649062
 30
0.0
 10
101.755417
 20
93.762699
 30
0.0
  0
LINE
  5
11d
100
AcDbEntity
  8
pc_bracket
 62
7
100
AcDbLine
 10
101.755417
 20
93.762699
 30
0.0
 11
146.080095
 21
51.510237
 31
0.0
  0
LINE
  5
11e
100
AcDbEntity
  8
pc_bracket
 62
7
100
AcDbLine
 10
0.000000
 20
199.999988
 30
0.0
 11
200.000001
 21
199.999988
 31
0.0
  0
LINE
  5
11f
100
AcDbEntity
  8
pc_bracket
 62
7
100
AcDbLine
 10
200.000001
 20
199.999988
 30
0.0
 11
200.000001
 21
-0.000005
 31
0.0
  0
LINE
  5
120
100
AcDbEntity
  8
pc_bracket
 62
7
100
AcDbLine
 10
200.000001
 20
-0.000005
 30
0.0
 11
0.000000
 21
-0.000005
 31
0.0
  0
LINE
  5
121
100
AcDbEntity
  8
pc_bracket
 62
7
100
AcDbLine
 10
0.000000
 20
-0.000005
 30
0.0
 11
0.000000
 21
199.999988
 31
0.0
  0
ENDSEC
  0
SECTION
  2
OBJECTS
  0
DICTIONARY
  5
C
330
0
100
AcDbDictionary
  3
ACAD_GROUP
350
D
  3
ACAD_MLINESTYLE
350
17
  0
DICTIONARY
  5
D
330
C
100
AcDbDictionary
  0
DICTIONARY
  5
1A
330
C
100
AcDbDictionary
  0
DICTIONARY
  5
17
330
C
100
AcDbDictionary
  3
STANDARD
350
18
  0
DICTIONARY
  5
19
330
C
100
AcDbDictionary
  0
ENDSEC
  0
EOF
