  0
SECTION
  2
HEADER
  9
$ACADVER
  1
AC1014
  9
$HANDSEED
  5
FFFF
  9
$MEASUREMENT
 70
     1
  0
ENDSEC
  0
SECTION
  2
TABLES
  0
TABLE
  2
VPORT
  5
8
330
0
100
AcDbSymbolTable
 70
     4
  0
VPORT
  5
2E
330
8
100
AcDbSymbolTableRecord
100
AcDbViewportTableRecord
  2
*ACTIVE
 70
     0
 10
0.0
 20
0.0
 11
1.0
 21
1.0
 12
210.0
 22
148.5
 13
0.0
 23
0.0
 14
10.0
 24
10.0
 15
10.0
 25
10.0
 16
0.0
 26
0.0
 36
1.0
 17
0.0
 27
0.0
 37
0.0
 40
341.0
 41
1.24
 42
50.0
 43
0.0
 44
0.0
 50
0.0
 51
0.0
 71
     0
 72
   100
 73
     1
 74
     3
 75
     0
 76
     0
 77
     0
 78
     0
  0
ENDTAB
  0
TABLE
  2
LTYPE
  5
5
330
0
100
AcDbSymbolTable
 70
     1
  0
LTYPE
  5
14
330
5
100
AcDbSymbolTableRecord
100
AcDbLinetypeTableRecord
  2
BYBLOCK
 70
     0
  3

 72
    65
 73
     0
 40
0.0
  0
LTYPE
  5
15
330
5
100
AcDbSymbolTableRecord
100
AcDbLinetypeTableRecord
  2
BYLAYER
 70
     0
  3

 72
    65
 73
     0
 40
0.0
  0
LTYPE
  5
16
330
5
100
AcDbSymbolTableRecord
100
AcDbLinetypeTableRecord
  2
CONTINUOUS
 70
     0
  3
Solid line
 72
    65
 73
     0
 40
0.0
  0
ENDTAB
  0
TABLE
  2
LAYER
  5
2
100
AcDbSymbolTable
 70
2
  0
LAYER
  5
50
100
AcDbSymbolTableRecord
100
AcDbLayerTableRecord
  2
0
 70
0
  6
CONTINUOUS
  0
LAYER
  5
51
100
AcDbSymbolTableRecord
100
AcDbLayerTableRecord
  2
Layer_1
 70
0
  6
CONTINUOUS
  0
ENDTAB
  0
TABLE
  2
STYLE
  5
3
330
0
100
AcDbSymbolTable
 70
     1
  0
STYLE
  5
11
330
3
100
AcDbSymbolTableRecord
100
AcDbTextStyleTableRecord
  2
STANDARD
 70
     0
 40
0.0
 41
1.0
 50
0.0
 71
     0
 42
2.5
  3
txt
  4

  0
ENDTAB
  0
TABLE
  2
VIEW
  5
6
330
0
100
AcDbSymbolTable
 70
     0
  0
ENDTAB
  0
TABLE
  2
UCS
  5
7
330
0
100
AcDbSymbolTable
 70
     0
  0
ENDTAB
  0
TABLE
  2
APPID
  5
9
330
0
100
AcDbSymbolTable
 70
     2
  0
APPID
  5
12
330
9
100
AcDbSymbolTableRecord
100
AcDbRegAppTableRecord
  2
ACAD
 70
     0
  0
ENDTAB
  0
TABLE
  2
DIMSTYLE
  5
A
330
0
100
AcDbSymbolTable
 70
     1
  0
DIMSTYLE
105
27
330
A
100
AcDbSymbolTableRecord
100
AcDbDimStyleTableRecord
  2
ISO-25
 70
     0
  3

  4

  5

  6

  7

 40
1.0
 41
2.5
 42
0.625
 43
3.75
 44
1.25
 45
0.0
 46
0.0
 47
0.0
 48
0.0
140
2.5
141
2.5
142
0.0
143
0.03937007874016
144
1.0
145
0.0
146
1.0
147
0.625
 71
     0
 72
     0
 73
     0
 74
     0
 75
     0
 76
     0
 77
     1
 78
     8
170
     0
171
     3
172
     1
173
     0
174
     0
175
     0
176
     0
177
     0
178
     0
270
     2
271
     2
272
     2
273
     2
274
     3
340
11
275
     0
280
     0
281
     0
282
     0
283
     0
284
     8
285
     0
286
     0
287
     3
288
     0
  0
ENDTAB
  0
TABLE
  2
BLOCK_RECORD
  5
1
330
0
100
AcDbSymbolTable
 70
     1
  0
BLOCK_RECORD
  5
1F
330
1
100
AcDbSymbolTableRecord
100
AcDbBlockTableRecord
  2
*MODEL_SPACE
  0
BLOCK_RECORD
  5
1B
330
1
100
AcDbSymbolTableRecord
100
AcDbBlockTableRecord
  2
*PAPER_SPACE
  0
ENDTAB
  0
ENDSEC
  0
SECTION
  2
BLOCKS
  0
BLOCK
  5
20
330
1F
100
AcDbEntity
  8
0
100
AcDbBlockBegin
  2
*MODEL_SPACE
 70
     0
 10
0.0
 20
0.0
 30
0.0
  3
*MODEL_SPACE
  1

  0
ENDBLK
  5
21
330
1F
100
AcDbEntity
  8
0
100
AcDbBlockEnd
  0
BLOCK
  5
1C
330
1B
100
AcDbEntity
 67
     1
  8
0
100
AcDbBlockBegin
  2
*PAPER_SPACE
  1

  0
ENDBLK
  5
1D
330
1B
100
AcDbEntity
 67
     1
  8
0
100
AcDbBlockEnd
  0
ENDSEC
  0
SECTION
  2
ENTITIES
  0
SPLINE
  5
100
100
AcDbEntity
  8
Layer_1
 62
7
100
AcDbSpline
 70
8
 71
3
 72
8
 73
4
 74
0
 40
0
 40
0
 40
0
 40
0
 40
1
 40
1
 40
1
 40
1
 10
221.349776
 20
108.536025
 30
0.0
 10
209.343139
 20
108.536025
 30
0.0
 10
199.610028
 20
98.802900
 30
0.0
 10
199.610028
 20
86.796266
 30
0.0
  0
SPLINE
  5
101
100
AcDbEntity
  8
Layer_1
 62
7
100
AcDbSpline
 70
8
 71
3
 72
8
 73
4
 74
0
 40
0
 40
0
 40
0
 40
0
 40
1
 40
1
 40
1
 40
1
 10
199.610028
 20
86.796266
 30
0.0
 10
199.610028
 20
74.789632
 30
0.0
 10
209.343139
 20
65.055991
 30
0.0
 10
221.349776
 20
65.055991
 30
0.0
  0
SPLINE
  5
102
100
AcDbEntity
  8
Layer_1
 62
7
100
AcDbSpline
 70
8
 71
3
 72
8
 73
4
 74
0
 40
0
 40
0
 40
0
 40
0
 40
1
 40
1
 40
1
 40
1
 10
221.349776
 20
65.055991
 30
0.0
 10
233.356413
 20
65.055991
 30
0.0
 10
243.090060
 20
74.789632
 30
0.0
 10
243.090060
 20
86.796266
 30
0.0
  0
SPLINE
  5
103
100
AcDbEntity
  8
Layer_1
 62
7
100
AcDbSpline
 70
8
 71
3
 72
8
 73
4
 74
0
 40
0
 40
0
 40
0
 40
0
 40
1
 40
1
 40
1
 40
1
 10
243.090060
 20
86.796266
 30
0.0
 10
243.090060
 20
98.802900
 30
0.0
 10
233.356413
 20
108.536025
 30
0.0
 10
221.349776
 20
108.536025
 30
0.0
  0
LINE
  5
104
100
AcDbEntity
  8
Layer_1
 62
7
100
AcDbLine
 10
221.349776
 20
108.536025
 30
0.0
 11
221.349776
 21
108.536025
 31
0.0
  0
SPLINE
  5
105
100
AcDbEntity
  8
Layer_1
 62
7
100
AcDbSpline
 70
8
 71
3
 72
8
 73
4
 74
0
 40
0
 40
0
 40
0
 40
0
 40
1
 40
1
 40
1
 40
1
 10
215.416279
 20
106.598677
 30
0.0
 10
216.244347
 20
106.598677
 30
0.0
 10
216.915415
 20
105.927069
 30
0.0
 10
216.915415
 20
105.099024
 30
0.0
  0
SPLINE
  5
106
100
AcDbEntity
  8
Layer_1
 62
7
100
AcDbSpline
 70
8
 71
3
 72
8
 73
4
 74
0
 40
0
 40
0
 40
0
 40
0
 40
1
 40
1
 40
1
 40
1
 10
216.915415
 20
105.099024
 30
0.0
 10
216.915415
 20
104.270981
 30
0.0
 10
216.244347
 20
103.599893
 30
0.0
 10
215.416279
 20
103.599893
 30
0.0
  0
SPLINE
  5
107
100
AcDbEntity
  8
Layer_1
 62
7
100
AcDbSpline
 70
8
 71
3
 72
8
 73
4
 74
0
 40
0
 40
0
 40
0
 40
0
 40
1
 40
1
 40
1
 40
1
 10
215.416279
 20
103.599893
 30
0.0
 10
214.588239
 20
103.599893
 30
0.0
 10
213.916635
 20
104.270981
 30
0.0
 10
213.916635
 20
105.099024
 30
0.0
  0
SPLINE
  5
108
100
AcDbEntity
  8
Layer_1
 62
7
100
AcDbSpline
 70
8
 71
3
 72
8
 73
4
 74
0
 40
0
 40
0
 40
0
 40
0
 40
1
 40
1
 40
1
 40
1
 10
213.916635
 20
105.099024
 30
0.0
 10
213.916635
 20
105.927069
 30
0.0
 10
214.588239
 20
106.598677
 30
0.0
 10
215.416279
 20
106.598677
 30
0.0
  0
LINE
  5
109
100
AcDbEntity
  8
Layer_1
 62
7
100
AcDbLine
 10
215.416279
 20
106.598677
 30
0.0
 11
215.416279
 21
106.598677
 31
0.0
  0
SPLINE
  5
10a
100
AcDbEntity
  8
Layer_1
 62
7
100
AcDbSpline
 70
8
 71
3
 72
8
 73
4
 74
0
 40
0
 40
0
 40
0
 40
0
 40
1
 40
1
 40
1
 40
1
 10
228.569500
 20
106.130487
 30
0.0
 10
229.397540
 20
106.130487
 30
0.0
 10
230.068636
 20
105.459399
 30
0.0
 10
230.068636
 20
104.631353
 30
0.0
  0
SPLINE
  5
10b
100
AcDbEntity
  8
Layer_1
 62
7
100
AcDbSpline
 70
8
 71
3
 72
8
 73
4
 74
0
 40
0
 40
0
 40
0
 40
0
 40
1
 40
1
 40
1
 40
1
 10
230.068636
 20
104.631353
 30
0.0
 10
230.068636
 20
103.803311
 30
0.0
 10
229.397540
 20
103.132220
 30
0.0
 10
228.569500
 20
103.132220
 30
0.0
  0
SPLINE
  5
10c
100
AcDbEntity
  8
Layer_1
 62
7
100
AcDbSpline
 70
8
 71
3
 72
8
 73
4
 74
0
 40
0
 40
0
 40
0
 40
0
 40
1
 40
1
 40
1
 40
1
 10
228.569500
 20
103.132220
 30
0.0
 10
227.741460
 20
103.132220
 30
0.0
 10
227.069856
 20
103.803311
 30
0.0
 10
227.069856
 20
104.631353
 30
0.0
  0
SPLINE
  5
10d
100
AcDbEntity
  8
Layer_1
 62
7
100
AcDbSpline
 70
8
 71
3
 72
8
 73
4
 74
0
 40
0
 40
0
 40
0
 40
0
 40
1
 40
1
 40
1
 40
1
 10
227.069856
 20
104.631353
 30
0.0
 10
227.069856
 20
105.459399
 30
0.0
 10
227.741460
 20
106.130487
 30
0.0
 10
228.569500
 20
106.130487
 30
0.0
  0
LINE
  5
10e
100
AcDbEntity
  8
Layer_1
 62
7
100
AcDbLine
 10
228.569500
 20
106.130487
 30
0.0
 11
228.569500
 21
106.130487
 31
0.0
  0
SPLINE
  5
10f
100
AcDbEntity
  8
Layer_1
 62
7
100
AcDbSpline
 70
8
 71
3
 72
8
 73
4
 74
0
 40
0
 40
0
 40
0
 40
0
 40
1
 40
1
 40
1
 40
1
 10
218.151521
 20
100.789727
 30
0.0
 10
225.879922
 20
100.789727
 30
0.0
 10
232.144974
 20
94.524671
 30
0.0
 10
232.144974
 20
86.796266
 30
0.0
  0
SPLINE
  5
110
100
AcDbEntity
  8
Layer_1
 62
7
100
AcDbSpline
 70
8
 71
3
 72
8
 73
4
 74
0
 40
0
 40
0
 40
0
 40
0
 40
1
 40
1
 40
1
 40
1
 10
232.144974
 20
86.796266
 30
0.0
 10
232.144974
 20
79.067859
 30
0.0
 10
225.879922
 20
72.802291
 30
0.0
 10
218.151521
 20
72.802291
 30
0.0
  0
SPLINE
  5
111
100
AcDbEntity
  8
Layer_1
 62
7
100
AcDbSpline
 70
8
 71
3
 72
8
 73
4
 74
0
 40
0
 40
0
 40
0
 40
0
 40
1
 40
1
 40
1
 40
1
 10
218.151521
 20
72.802291
 30
0.0
 10
210.423119
 20
72.802291
 30
0.0
 10
204.158068
 20
79.067859
 30
0.0
 10
204.158068
 20
86.796266
 30
0.0
  0
SPLINE
  5
112
100
AcDbEntity
  8
Layer_1
 62
7
100
AcDbSpline
 70
8
 71
3
 72
8
 73
4
 74
0
 40
0
 40
0
 40
0
 40
0
 40
1
 40
1
 40
1
 40
1
 10
204.158068
 20
86.796266
 30
0.0
 10
204.158068
 20
94.524671
 30
0.0
 10
210.423119
 20
100.789727
 30
0.0
 10
218.151521
 20
100.789727
 30
0.0
  0
LINE
  5
113
100
AcDbEntity
  8
Layer_1
 62
7
100
AcDbLine
 10
218.151521
 20
100.789727
 30
0.0
 11
218.151521
 21
100.789727
 31
0.0
  0
SPLINE
  5
114
100
AcDbEntity
  8
Layer_1
 62
7
100
AcDbSpline
 70
8
 71
3
 72
8
 73
4
 74
0
 40
0
 40
0
 40
0
 40
0
 40
1
 40
1
 40
1
 40
1
 10
205.039137
 20
98.502011
 30
0.0
 10
205.867205
 20
98.502011
 30
0.0
 10
206.538273
 20
97.830924
 30
0.0
 10
206.538273
 20
97.002878
 30
0.0
  0
SPLINE
  5
115
100
AcDbEntity
  8
Layer_1
 62
7
100
AcDbSpline
 70
8
 71
3
 72
8
 73
4
 74
0
 40
0
 40
0
 40
0
 40
0
 40
1
 40
1
 40
1
 40
1
 10
206.538273
 20
97.002878
 30
0.0
 10
206.538273
 20
96.174835
 30
0.0
 10
205.867205
 20
95.503745
 30
0.0
 10
205.039137
 20
95.503745
 30
0.0
  0
SPLINE
  5
116
100
AcDbEntity
  8
Layer_1
 62
7
100
AcDbSpline
 70
8
 71
3
 72
8
 73
4
 74
0
 40
0
 40
0
 40
0
 40
0
 40
1
 40
1
 40
1
 40
1
 10
205.039137
 20
95.503745
 30
0.0
 10
204.211097
 20
95.503745
 30
0.0
 10
203.540001
 20
96.174835
 30
0.0
 10
203.540001
 20
97.002878
 30
0.0
  0
SPLINE
  5
117
100
AcDbEntity
  8
Layer_1
 62
7
100
AcDbSpline
 70
8
 71
3
 72
8
 73
4
 74
0
 40
0
 40
0
 40
0
 40
0
 40
1
 40
1
 40
1
 40
1
 10
203.540001
 20
97.002878
 30
0.0
 10
203.540001
 20
97.830924
 30
0.0
 10
204.211097
 20
98.502011
 30
0.0
 10
205.039137
 20
98.502011
 30
0.0
  0
LINE
  5
118
100
AcDbEntity
  8
Layer_1
 62
7
100
AcDbLine
 10
205.039137
 20
98.502011
 30
0.0
 11
205.039137
 21
98.502011
 31
0.0
  0
SPLINE
  5
119
100
AcDbEntity
  8
Layer_1
 62
7
100
AcDbSpline
 70
8
 71
3
 72
8
 73
4
 74
0
 40
0
 40
0
 40
0
 40
0
 40
1
 40
1
 40
1
 40
1
 10
238.344606
 20
97.317590
 30
0.0
 10
239.172646
 20
97.317590
 30
0.0
 10
239.844250
 20
96.645980
 30
0.0
 10
239.844250
 20
95.817940
 30
0.0
  0
SPLINE
  5
11a
100
AcDbEntity
  8
Layer_1
 62
7
100
AcDbSpline
 70
8
 71
3
 72
8
 73
4
 74
0
 40
0
 40
0
 40
0
 40
0
 40
1
 40
1
 40
1
 40
1
 10
239.844250
 20
95.817940
 30
0.0
 10
239.844250
 20
94.989894
 30
0.0
 10
239.172646
 20
94.318804
 30
0.0
 10
238.344606
 20
94.318804
 30
0.0
  0
SPLINE
  5
11b
100
AcDbEntity
  8
Layer_1
 62
7
100
AcDbSpline
 70
8
 71
3
 72
8
 73
4
 74
0
 40
0
 40
0
 40
0
 40
0
 40
1
 40
1
 40
1
 40
1
 10
238.344606
 20
94.318804
 30
0.0
 10
237.516566
 20
94.318804
 30
0.0
 10
236.845470
 20
94.989894
 30
0.0
 10
236.845470
 20
95.817940
 30
0.0
  0
SPLINE
  5
11c
100
AcDbEntity
  8
Layer_1
 62
7
100
AcDbSpline
 70
8
 71
3
 72
8
 73
4
 74
0
 40
0
 40
0
 40
0
 40
0
 40
1
 40
1
 40
1
 40
1
 10
236.845470
 20
95.817940
 30
0.0
 10
236.845470
 20
96.645980
 30
0.0
 10
237.516566
 20
97.317590
 30
0.0
 10
238.344606
 20
97.317590
 30
0.0
  0
LINE
  5
11d
100
AcDbEntity
  8
Layer_1
 62
7
100
AcDbLine
 10
238.344606
 20
97.317590
 30
0.0
 11
238.344606
 21
97.317590
 31
0.0
  0
SPLINE
  5
11e
100
AcDbEntity
  8
Layer_1
 62
7
100
AcDbSpline
 70
8
 71
3
 72
8
 73
4
 74
0
 40
0
 40
0
 40
0
 40
0
 40
1
 40
1
 40
1
 40
1
 10
202.294611
 20
85.629929
 30
0.0
 10
203.122651
 20
85.629929
 30
0.0
 10
203.793747
 20
84.958841
 30
0.0
 10
203.793747
 20
84.130796
 30
0.0
  0
SPLINE
  5
11f
100
AcDbEntity
  8
Layer_1
 62
7
100
AcDbSpline
 70
8
 71
3
 72
8
 73
4
 74
0
 40
0
 40
0
 40
0
 40
0
 40
1
 40
1
 40
1
 40
1
 10
203.793747
 20
84.130796
 30
0.0
 10
203.793747
 20
83.302753
 30
0.0
 10
203.122651
 20
82.631146
 30
0.0
 10
202.294611
 20
82.631146
 30
0.0
  0
SPLINE
  5
120
100
AcDbEntity
  8
Layer_1
 62
7
100
AcDbSpline
 70
8
 71
3
 72
8
 73
4
 74
0
 40
0
 40
0
 40
0
 40
0
 40
1
 40
1
 40
1
 40
1
 10
202.294611
 20
82.631146
 30
0.0
 10
201.466571
 20
82.631146
 30
0.0
 10
200.794966
 20
83.302753
 30
0.0
 10
200.794966
 20
84.130796
 30
0.0
  0
SPLINE
  5
121
100
AcDbEntity
  8
Layer_1
 62
7
100
AcDbSpline
 70
8
 71
3
 72
8
 73
4
 74
0
 40
0
 40
0
 40
0
 40
0
 40
1
 40
1
 40
1
 40
1
 10
200.794966
 20
84.130796
 30
0.0
 10
200.794966
 20
84.958841
 30
0.0
 10
201.466571
 20
85.629929
 30
0.0
 10
202.294611
 20
85.629929
 30
0.0
  0
LINE
  5
122
100
AcDbEntity
  8
Layer_1
 62
7
100
AcDbLine
 10
202.294611
 20
85.629929
 30
0.0
 11
202.294611
 21
85.629929
 31
0.0
  0
SPLINE
  5
123
100
AcDbEntity
  8
Layer_1
 62
7
100
AcDbSpline
 70
8
 71
3
 72
8
 73
4
 74
0
 40
0
 40
0
 40
0
 40
0
 40
1
 40
1
 40
1
 40
1
 10
240.167761
 20
84.282724
 30
0.0
 10
240.995801
 20
84.282724
 30
0.0
 10
241.667406
 20
83.611636
 30
0.0
 10
241.667406
 20
82.783591
 30
0.0
  0
SPLINE
  5
124
100
AcDbEntity
  8
Layer_1
 62
7
100
AcDbSpline
 70
8
 71
3
 72
8
 73
4
 74
0
 40
0
 40
0
 40
0
 40
0
 40
1
 40
1
 40
1
 40
1
 10
241.667406
 20
82.783591
 30
0.0
 10
241.667406
 20
81.955548
 30
0.0
 10
240.995801
 20
81.283941
 30
0.0
 10
240.167761
 20
81.283941
 30
0.0
  0
SPLINE
  5
125
100
AcDbEntity
  8
Layer_1
 62
7
100
AcDbSpline
 70
8
 71
3
 72
8
 73
4
 74
0
 40
0
 40
0
 40
0
 40
0
 40
1
 40
1
 40
1
 40
1
 10
240.167761
 20
81.283941
 30
0.0
 10
239.339721
 20
81.283941
 30
0.0
 10
238.668625
 20
81.955548
 30
0.0
 10
238.668625
 20
82.783591
 30
0.0
  0
SPLINE
  5
126
100
AcDbEntity
  8
Layer_1
 62
7
100
AcDbSpline
 70
8
 71
3
 72
8
 73
4
 74
0
 40
0
 40
0
 40
0
 40
0
 40
1
 40
1
 40
1
 40
1
 10
238.668625
 20
82.783591
 30
0.0
 10
238.668625
 20
83.611636
 30
0.0
 10
239.339721
 20
84.282724
 30
0.0
 10
240.167761
 20
84.282724
 30
0.0
  0
LINE
  5
127
100
AcDbEntity
  8
Layer_1
 62
7
100
AcDbLine
 10
240.167761
 20
84.282724
 30
0.0
 11
240.167761
 21
84.282724
 31
0.0
  0
SPLINE
  5
128
100
AcDbEntity
  8
Layer_1
 62
7
100
AcDbSpline
 70
8
 71
3
 72
8
 73
4
 74
0
 40
0
 40
0
 40
0
 40
0
 40
1
 40
1
 40
1
 40
1
 10
208.465823
 20
74.004800
 30
0.0
 10
209.293863
 20
74.004800
 30
0.0
 10
209.964931
 20
73.333710
 30
0.0
 10
209.964931
 20
72.505664
 30
0.0
  0
SPLINE
  5
129
100
AcDbEntity
  8
Layer_1
 62
7
100
AcDbSpline
 70
8
 71
3
 72
8
 73
4
 74
0
 40
0
 40
0
 40
0
 40
0
 40
1
 40
1
 40
1
 40
1
 10
209.964931
 20
72.505664
 30
0.0
 10
209.964931
 20
71.677621
 30
0.0
 10
209.293863
 20
71.006014
 30
0.0
 10
208.465823
 20
71.006014
 30
0.0
  0
SPLINE
  5
12a
100
AcDbEntity
  8
Layer_1
 62
7
100
AcDbSpline
 70
8
 71
3
 72
8
 73
4
 74
0
 40
0
 40
0
 40
0
 40
0
 40
1
 40
1
 40
1
 40
1
 10
208.465823
 20
71.006014
 30
0.0
 10
207.637783
 20
71.006014
 30
0.0
 10
206.966687
 20
71.677621
 30
0.0
 10
206.966687
 20
72.505664
 30
0.0
  0
SPLINE
  5
12b
100
AcDbEntity
  8
Layer_1
 62
7
100
AcDbSpline
 70
8
 71
3
 72
8
 73
4
 74
0
 40
0
 40
0
 40
0
 40
0
 40
1
 40
1
 40
1
 40
1
 10
206.966687
 20
72.505664
 30
0.0
 10
206.966687
 20
73.333710
 30
0.0
 10
207.637783
 20
74.004800
 30
0.0
 10
208.465823
 20
74.004800
 30
0.0
  0
LINE
  5
12c
100
AcDbEntity
  8
Layer_1
 62
7
100
AcDbLine
 10
208.465823
 20
74.004800
 30
0.0
 11
208.465823
 21
74.004800
 31
0.0
  0
SPLINE
  5
12d
100
AcDbEntity
  8
Layer_1
 62
7
100
AcDbSpline
 70
8
 71
3
 72
8
 73
4
 74
0
 40
0
 40
0
 40
0
 40
0
 40
1
 40
1
 40
1
 40
1
 10
233.186261
 20
73.125266
 30
0.0
 10
234.014301
 20
73.125266
 30
0.0
 10
234.685397
 20
72.454178
 30
0.0
 10
234.685397
 20
71.626133
 30
0.0
  0
SPLINE
  5
12e
100
AcDbEntity
  8
Layer_1
 62
7
100
AcDbSpline
 70
8
 71
3
 72
8
 73
4
 74
0
 40
0
 40
0
 40
0
 40
0
 40
1
 40
1
 40
1
 40
1
 10
234.685397
 20
71.626133
 30
0.0
 10
234.685397
 20
70.798090
 30
0.0
 10
234.014301
 20
70.126999
 30
0.0
 10
233.186261
 20
70.126999
 30
0.0
  0
SPLINE
  5
12f
100
AcDbEntity
  8
Layer_1
 62
7
100
AcDbSpline
 70
8
 71
3
 72
8
 73
4
 74
0
 40
0
 40
0
 40
0
 40
0
 40
1
 40
1
 40
1
 40
1
 10
233.186261
 20
70.126999
 30
0.0
 10
232.358221
 20
70.126999
 30
0.0
 10
231.686616
 20
70.798090
 30
0.0
 10
231.686616
 20
71.626133
 30
0.0
  0
SPLINE
  5
130
100
AcDbEntity
  8
Layer_1
 62
7
100
AcDbSpline
 70
8
 71
3
 72
8
 73
4
 74
0
 40
0
 40
0
 40
0
 40
0
 40
1
 40
1
 40
1
 40
1
 10
231.686616
 20
71.626133
 30
0.0
 10
231.686616
 20
72.454178
 30
0.0
 10
232.358221
 20
73.125266
 30
0.0
 10
233.186261
 20
73.125266
 30
0.0
  0
LINE
  5
131
100
AcDbEntity
  8
Layer_1
 62
7
100
AcDbLine
 10
233.186261
 20
73.125266
 30
0.0
 11
233.186261
 21
73.125266
 31
0.0
  0
SPLINE
  5
132
100
AcDbEntity
  8
Layer_1
 62
7
100
AcDbSpline
 70
8
 71
3
 72
8
 73
4
 74
0
 40
0
 40
0
 40
0
 40
0
 40
1
 40
1
 40
1
 40
1
 10
220.666092
 20
69.066600
 30
0.0
 10
221.494161
 20
69.066597
 30
0.0
 10
222.165229
 20
68.394993
 30
0.0
 10
222.165229
 20
67.566950
 30
0.0
  0
SPLINE
  5
133
100
AcDbEntity
  8
Layer_1
 62
7
100
AcDbSpline
 70
8
 71
3
 72
8
 73
4
 74
0
 40
0
 40
0
 40
0
 40
0
 40
1
 40
1
 40
1
 40
1
 10
222.165229
 20
67.566950
 30
0.0
 10
222.165229
 20
66.738904
 30
0.0
 10
221.494161
 20
66.067817
 30
0.0
 10
220.666092
 20
66.067817
 30
0.0
  0
SPLINE
  5
134
100
AcDbEntity
  8
Layer_1
 62
7
100
AcDbSpline
 70
8
 71
3
 72
8
 73
4
 74
0
 40
0
 40
0
 40
0
 40
0
 40
1
 40
1
 40
1
 40
1
 10
220.666092
 20
66.067817
 30
0.0
 10
219.838052
 20
66.067817
 30
0.0
 10
219.166448
 20
66.738904
 30
0.0
 10
219.166448
 20
67.566950
 30
0.0
  0
SPLINE
  5
135
100
AcDbEntity
  8
Layer_1
 62
7
100
AcDbSpline
 70
8
 71
3
 72
8
 73
4
 74
0
 40
0
 40
0
 40
0
 40
0
 40
1
 40
1
 40
1
 40
1
 10
219.166448
 20
67.566950
 30
0.0
 10
219.166448
 20
68.394993
 30
0.0
 10
219.838052
 20
69.066600
 30
0.0
 10
220.666092
 20
69.066600
 30
0.0
  0
LINE
  5
136
100
AcDbEntity
  8
Layer_1
 62
7
100
AcDbLine
 10
220.666092
 20
69.066600
 30
0.0
 11
220.666092
 21
69.066600
 31
0.0
  0
LINE
  5
137
100
AcDbEntity
  8
Layer_1
 62
7
100
AcDbLine
 10
28.558965
 20
128.190122
 30
0.0
 11
28.558965
 21
112.197302
 31
0.0
  0
LINE
  5
138
100
AcDbEntity
  8
Layer_1
 62
7
100
AcDbLine
 10
28.558965
 20
112.197302
 30
0.0
 11
23.561336
 21
112.197302
 31
0.0
  0
LINE
  5
139
100
AcDbEntity
  8
Layer_1
 62
7
100
AcDbLine
 10
23.561336
 20
112.197302
 30
0.0
 11
23.561336
 21
92.206788
 31
0.0
  0
LINE
  5
13a
100
AcDbEntity
  8
Layer_1
 62
7
100
AcDbLine
 10
23.561336
 20
92.206788
 30
0.0
 11
28.558965
 21
92.206788
 31
0.0
  0
LINE
  5
13b
100
AcDbEntity
  8
Layer_1
 62
7
100
AcDbLine
 10
28.558965
 20
92.206788
 30
0.0
 11
28.558965
 21
76.213968
 31
0.0
  0
LINE
  5
13c
100
AcDbEntity
  8
Layer_1
 62
7
100
AcDbLine
 10
28.558965
 20
76.213968
 30
0.0
 11
23.561336
 21
76.213968
 31
0.0
  0
LINE
  5
13d
100
AcDbEntity
  8
Layer_1
 62
7
100
AcDbLine
 10
23.561336
 20
76.213968
 30
0.0
 11
23.561336
 21
56.223456
 31
0.0
  0
LINE
  5
13e
100
AcDbEntity
  8
Layer_1
 62
7
100
AcDbLine
 10
23.561336
 20
56.223456
 30
0.0
 11
28.558965
 21
56.223456
 31
0.0
  0
LINE
  5
13f
100
AcDbEntity
  8
Layer_1
 62
7
100
AcDbLine
 10
28.558965
 20
56.223456
 30
0.0
 11
28.558965
 21
45.228262
 31
0.0
  0
LINE
  5
140
100
AcDbEntity
  8
Layer_1
 62
7
100
AcDbLine
 10
28.558965
 20
45.228262
 30
0.0
 11
43.551849
 21
45.228262
 31
0.0
  0
LINE
  5
141
100
AcDbEntity
  8
Layer_1
 62
7
100
AcDbLine
 10
43.551849
 20
45.228262
 30
0.0
 11
43.551849
 21
40.230634
 31
0.0
  0
LINE
  5
142
100
AcDbEntity
  8
Layer_1
 62
7
100
AcDbLine
 10
43.551849
 20
40.230634
 30
0.0
 11
63.542874
 21
40.230634
 31
0.0
  0
LINE
  5
143
100
AcDbEntity
  8
Layer_1
 62
7
100
AcDbLine
 10
63.542874
 20
40.230634
 30
0.0
 11
63.542874
 21
45.228262
 31
0.0
  0
LINE
  5
144
100
AcDbEntity
  8
Layer_1
 62
7
100
AcDbLine
 10
63.542874
 20
45.228262
 30
0.0
 11
78.535758
 21
45.228262
 31
0.0
  0
LINE
  5
145
100
AcDbEntity
  8
Layer_1
 62
7
100
AcDbLine
 10
78.535758
 20
45.228262
 30
0.0
 11
87.978592
 21
77.318809
 31
0.0
  0
SPLINE
  5
146
100
AcDbEntity
  8
Layer_1
 62
7
100
AcDbSpline
 70
8
 71
3
 72
8
 73
4
 74
0
 40
0
 40
0
 40
0
 40
0
 40
1
 40
1
 40
1
 40
1
 10
87.978592
 20
77.318809
 30
0.0
 10
89.033567
 20
80.903946
 30
0.0
 10
91.837447
 20
83.707823
 30
0.0
 10
95.422584
 20
84.762798
 30
0.0
  0
SPLINE
  5
147
100
AcDbEntity
  8
Layer_1
 62
7
100
AcDbSpline
 70
8
 71
3
 72
8
 73
4
 74
0
 40
0
 40
0
 40
0
 40
0
 40
1
 40
1
 40
1
 40
1
 10
95.422584
 20
84.762798
 30
0.0
 10
101.247927
 20
86.476985
 30
0.0
 10
107.359760
 20
83.144149
 30
0.0
 10
109.073944
 20
77.318809
 30
0.0
  0
LINE
  5
148
100
AcDbEntity
  8
Layer_1
 62
7
100
AcDbLine
 10
109.073944
 20
77.318809
 30
0.0
 11
118.517298
 21
45.228262
 31
0.0
  0
LINE
  5
149
100
AcDbEntity
  8
Layer_1
 62
7
100
AcDbLine
 10
118.517298
 20
45.228262
 30
0.0
 11
133.510178
 21
45.228262
 31
0.0
  0
LINE
  5
14a
100
AcDbEntity
  8
Layer_1
 62
7
100
AcDbLine
 10
133.510178
 20
45.228262
 30
0.0
 11
133.510178
 21
40.230634
 31
0.0
  0
LINE
  5
14b
100
AcDbEntity
  8
Layer_1
 62
7
100
AcDbLine
 10
133.510178
 20
40.230634
 30
0.0
 11
153.501209
 21
40.230634
 31
0.0
  0
LINE
  5
14c
100
AcDbEntity
  8
Layer_1
 62
7
100
AcDbLine
 10
153.501209
 20
40.230634
 30
0.0
 11
153.501209
 21
45.228262
 31
0.0
  0
LINE
  5
14d
100
AcDbEntity
  8
Layer_1
 62
7
100
AcDbLine
 10
153.501209
 20
45.228262
 30
0.0
 11
168.494096
 21
45.228262
 31
0.0
  0
LINE
  5
14e
100
AcDbEntity
  8
Layer_1
 62
7
100
AcDbLine
 10
168.494096
 20
45.228262
 30
0.0
 11
168.494096
 21
56.223456
 31
0.0
  0
LINE
  5
14f
100
AcDbEntity
  8
Layer_1
 62
7
100
AcDbLine
 10
168.494096
 20
56.223456
 30
0.0
 11
173.491716
 21
56.223456
 31
0.0
  0
LINE
  5
150
100
AcDbEntity
  8
Layer_1
 62
7
100
AcDbLine
 10
173.491716
 20
56.223456
 30
0.0
 11
173.491716
 21
76.213968
 31
0.0
  0
LINE
  5
151
100
AcDbEntity
  8
Layer_1
 62
7
100
AcDbLine
 10
173.491716
 20
76.213968
 30
0.0
 11
168.494096
 21
76.213968
 31
0.0
  0
LINE
  5
152
100
AcDbEntity
  8
Layer_1
 62
7
100
AcDbLine
 10
168.494096
 20
76.213968
 30
0.0
 11
168.494096
 21
92.206788
 31
0.0
  0
LINE
  5
153
100
AcDbEntity
  8
Layer_1
 62
7
100
AcDbLine
 10
168.494096
 20
92.206788
 30
0.0
 11
173.491716
 21
92.206788
 31
0.0
  0
LINE
  5
154
100
AcDbEntity
  8
Layer_1
 62
7
100
AcDbLine
 10
173.491716
 20
92.206788
 30
0.0
 11
173.491716
 21
112.197302
 31
0.0
  0
LINE
  5
155
100
AcDbEntity
  8
Layer_1
 62
7
100
AcDbLine
 10
173.491716
 20
112.197302
 30
0.0
 11
168.494096
 21
112.197302
 31
0.0
  0
LINE
  5
156
100
AcDbEntity
  8
Layer_1
 62
7
100
AcDbLine
 10
168.494096
 20
112.197302
 30
0.0
 11
168.494096
 21
128.190122
 31
0.0
  0
LINE
  5
157
100
AcDbEntity
  8
Layer_1
 62
7
100
AcDbLine
 10
168.494096
 20
128.190122
 30
0.0
 11
148.503062
 21
128.190122
 31
0.0
  0
LINE
  5
158
100
AcDbEntity
  8
Layer_1
 62
7
100
AcDbLine
 10
148.503062
 20
128.190122
 30
0.0
 11
148.503062
 21
123.191978
 31
0.0
  0
LINE
  5
159
100
AcDbEntity
  8
Layer_1
 62
7
100
AcDbLine
 10
148.503062
 20
123.191978
 30
0.0
 11
128.512551
 21
123.191978
 31
0.0
  0
LINE
  5
15a
100
AcDbEntity
  8
Layer_1
 62
7
100
AcDbLine
 10
128.512551
 20
123.191978
 30
0.0
 11
128.512551
 21
128.190122
 31
0.0
  0
LINE
  5
15b
100
AcDbEntity
  8
Layer_1
 62
7
100
AcDbLine
 10
128.512551
 20
128.190122
 30
0.0
 11
108.522039
 21
128.190122
 31
0.0
  0
LINE
  5
15c
100
AcDbEntity
  8
Layer_1
 62
7
100
AcDbLine
 10
108.522039
 20
128.190122
 30
0.0
 11
108.522039
 21
123.191978
 31
0.0
  0
LINE
  5
15d
100
AcDbEntity
  8
Layer_1
 62
7
100
AcDbLine
 10
108.522039
 20
123.191978
 30
0.0
 11
88.531014
 21
123.191978
 31
0.0
  0
LINE
  5
15e
100
AcDbEntity
  8
Layer_1
 62
7
100
AcDbLine
 10
88.531014
 20
123.191978
 30
0.0
 11
88.531014
 21
128.190122
 31
0.0
  0
LINE
  5
15f
100
AcDbEntity
  8
Layer_1
 62
7
100
AcDbLine
 10
88.531014
 20
128.190122
 30
0.0
 11
68.540505
 21
128.190122
 31
0.0
  0
LINE
  5
160
100
AcDbEntity
  8
Layer_1
 62
7
100
AcDbLine
 10
68.540505
 20
128.190122
 30
0.0
 11
68.540505
 21
123.191978
 31
0.0
  0
LINE
  5
161
100
AcDbEntity
  8
Layer_1
 62
7
100
AcDbLine
 10
68.540505
 20
123.191978
 30
0.0
 11
48.549477
 21
123.191978
 31
0.0
  0
LINE
  5
162
100
AcDbEntity
  8
Layer_1
 62
7
100
AcDbLine
 10
48.549477
 20
123.191978
 30
0.0
 11
48.549477
 21
128.190122
 31
0.0
  0
LINE
  5
163
100
AcDbEntity
  8
Layer_1
 62
7
100
AcDbLine
 10
48.549477
 20
128.190122
 30
0.0
 11
28.558965
 21
128.190122
 31
0.0
  0
LINE
  5
164
100
AcDbEntity
  8
Layer_1
 62
7
100
AcDbLine
 10
93.528641
 20
115.995520
 30
0.0
 11
103.523897
 21
115.995520
 31
0.0
  0
LINE
  5
165
100
AcDbEntity
  8
Layer_1
 62
7
100
AcDbLine
 10
103.523897
 20
115.995520
 30
0.0
 11
103.523897
 21
110.397927
 31
0.0
  0
LINE
  5
166
100
AcDbEntity
  8
Layer_1
 62
7
100
AcDbLine
 10
103.523897
 20
110.397927
 30
0.0
 11
93.528641
 21
110.397927
 31
0.0
  0
LINE
  5
167
100
AcDbEntity
  8
Layer_1
 62
7
100
AcDbLine
 10
93.528641
 20
110.397927
 30
0.0
 11
93.528641
 21
115.995520
 31
0.0
  0
SPLINE
  5
168
100
AcDbEntity
  8
Layer_1
 62
7
100
AcDbSpline
 70
8
 71
3
 72
8
 73
4
 74
0
 40
0
 40
0
 40
0
 40
0
 40
1
 40
1
 40
1
 40
1
 10
50.798435
 20
106.417809
 30
0.0
 10
51.350462
 20
106.417809
 30
0.0
 10
51.797854
 20
105.969900
 30
0.0
 10
51.797854
 20
105.417870
 30
0.0
  0
SPLINE
  5
169
100
AcDbEntity
  8
Layer_1
 62
7
100
AcDbSpline
 70
8
 71
3
 72
8
 73
4
 74
0
 40
0
 40
0
 40
0
 40
0
 40
1
 40
1
 40
1
 40
1
 10
51.797854
 20
105.417870
 30
0.0
 10
51.797854
 20
104.865843
 30
0.0
 10
51.350462
 20
104.418448
 30
0.0
 10
50.798435
 20
104.418448
 30
0.0
  0
SPLINE
  5
16a
100
AcDbEntity
  8
Layer_1
 62
7
100
AcDbSpline
 70
8
 71
3
 72
8
 73
4
 74
0
 40
0
 40
0
 40
0
 40
0
 40
1
 40
1
 40
1
 40
1
 10
50.798435
 20
104.418448
 30
0.0
 10
50.246403
 20
104.418448
 30
0.0
 10
49.799013
 20
104.865843
 30
0.0
 10
49.799013
 20
105.417870
 30
0.0
  0
SPLINE
  5
16b
100
AcDbEntity
  8
Layer_1
 62
7
100
AcDbSpline
 70
8
 71
3
 72
8
 73
4
 74
0
 40
0
 40
0
 40
0
 40
0
 40
1
 40
1
 40
1
 40
1
 10
49.799013
 20
105.417870
 30
0.0
 10
49.799013
 20
105.969900
 30
0.0
 10
50.246403
 20
106.417809
 30
0.0
 10
50.798435
 20
106.417809
 30
0.0
  0
LINE
  5
16c
100
AcDbEntity
  8
Layer_1
 62
7
100
AcDbLine
 10
50.798435
 20
106.417809
 30
0.0
 11
50.798435
 21
106.417809
 31
0.0
  0
SPLINE
  5
16d
100
AcDbEntity
  8
Layer_1
 62
7
100
AcDbSpline
 70
8
 71
3
 72
8
 73
4
 74
0
 40
0
 40
0
 40
0
 40
0
 40
1
 40
1
 40
1
 40
1
 10
75.287380
 20
106.417809
 30
0.0
 10
75.839409
 20
106.417809
 30
0.0
 10
76.286799
 20
105.969900
 30
0.0
 10
76.286799
 20
105.417870
 30
0.0
  0
SPLINE
  5
16e
100
AcDbEntity
  8
Layer_1
 62
7
100
AcDbSpline
 70
8
 71
3
 72
8
 73
4
 74
0
 40
0
 40
0
 40
0
 40
0
 40
1
 40
1
 40
1
 40
1
 10
76.286799
 20
105.417870
 30
0.0
 10
76.286799
 20
104.865843
 30
0.0
 10
75.839409
 20
104.418448
 30
0.0
 10
75.287380
 20
104.418448
 30
0.0
  0
SPLINE
  5
16f
100
AcDbEntity
  8
Layer_1
 62
7
100
AcDbSpline
 70
8
 71
3
 72
8
 73
4
 74
0
 40
0
 40
0
 40
0
 40
0
 40
1
 40
1
 40
1
 40
1
 10
75.287380
 20
104.418448
 30
0.0
 10
74.735353
 20
104.418448
 30
0.0
 10
74.287438
 20
104.865843
 30
0.0
 10
74.287438
 20
105.417870
 30
0.0
  0
SPLINE
  5
170
100
AcDbEntity
  8
Layer_1
 62
7
100
AcDbSpline
 70
8
 71
3
 72
8
 73
4
 74
0
 40
0
 40
0
 40
0
 40
0
 40
1
 40
1
 40
1
 40
1
 10
74.287438
 20
105.417870
 30
0.0
 10
74.287438
 20
105.969900
 30
0.0
 10
74.735353
 20
106.417809
 30
0.0
 10
75.287380
 20
106.417809
 30
0.0
  0
LINE
  5
171
100
AcDbEntity
  8
Layer_1
 62
7
100
AcDbLine
 10
75.287380
 20
106.417809
 30
0.0
 11
75.287380
 21
106.417809
 31
0.0
  0
SPLINE
  5
172
100
AcDbEntity
  8
Layer_1
 62
7
100
AcDbSpline
 70
8
 71
3
 72
8
 73
4
 74
0
 40
0
 40
0
 40
0
 40
0
 40
1
 40
1
 40
1
 40
1
 10
121.765678
 20
106.417809
 30
0.0
 10
122.317705
 20
106.417809
 30
0.0
 10
122.765101
 20
105.969900
 30
0.0
 10
122.765101
 20
105.417870
 30
0.0
  0
SPLINE
  5
173
100
AcDbEntity
  8
Layer_1
 62
7
100
AcDbSpline
 70
8
 71
3
 72
8
 73
4
 74
0
 40
0
 40
0
 40
0
 40
0
 40
1
 40
1
 40
1
 40
1
 10
122.765101
 20
105.417870
 30
0.0
 10
122.765101
 20
104.865843
 30
0.0
 10
122.317705
 20
104.418448
 30
0.0
 10
121.765678
 20
104.418448
 30
0.0
  0
SPLINE
  5
174
100
AcDbEntity
  8
Layer_1
 62
7
100
AcDbSpline
 70
8
 71
3
 72
8
 73
4
 74
0
 40
0
 40
0
 40
0
 40
0
 40
1
 40
1
 40
1
 40
1
 10
121.765678
 20
104.418448
 30
0.0
 10
121.213649
 20
104.418448
 30
0.0
 10
120.766256
 20
104.865843
 30
0.0
 10
120.766256
 20
105.417870
 30
0.0
  0
SPLINE
  5
175
100
AcDbEntity
  8
Layer_1
 62
7
100
AcDbSpline
 70
8
 71
3
 72
8
 73
4
 74
0
 40
0
 40
0
 40
0
 40
0
 40
1
 40
1
 40
1
 40
1
 10
120.766256
 20
105.417870
 30
0.0
 10
120.766256
 20
105.969900
 30
0.0
 10
121.213649
 20
106.417809
 30
0.0
 10
121.765678
 20
106.417809
 30
0.0
  0
LINE
  5
176
100
AcDbEntity
  8
Layer_1
 62
7
100
AcDbLine
 10
121.765678
 20
106.417809
 30
0.0
 11
121.765678
 21
106.417809
 31
0.0
  0
SPLINE
  5
177
100
AcDbEntity
  8
Layer_1
 62
7
100
AcDbSpline
 70
8
 71
3
 72
8
 73
4
 74
0
 40
0
 40
0
 40
0
 40
0
 40
1
 40
1
 40
1
 40
1
 10
146.254104
 20
106.417809
 30
0.0
 10
146.806133
 20
106.417809
 30
0.0
 10
147.254045
 20
105.969900
 30
0.0
 10
147.254045
 20
105.417870
 30
0.0
  0
SPLINE
  5
178
100
AcDbEntity
  8
Layer_1
 62
7
100
AcDbSpline
 70
8
 71
3
 72
8
 73
4
 74
0
 40
0
 40
0
 40
0
 40
0
 40
1
 40
1
 40
1
 40
1
 10
147.254045
 20
105.417870
 30
0.0
 10
147.254045
 20
104.865843
 30
0.0
 10
146.806133
 20
104.418448
 30
0.0
 10
146.254104
 20
104.418448
 30
0.0
  0
SPLINE
  5
179
100
AcDbEntity
  8
Layer_1
 62
7
100
AcDbSpline
 70
8
 71
3
 72
8
 73
4
 74
0
 40
0
 40
0
 40
0
 40
0
 40
1
 40
1
 40
1
 40
1
 10
146.254104
 20
104.418448
 30
0.0
 10
145.702074
 20
104.418448
 30
0.0
 10
145.254684
 20
104.865843
 30
0.0
 10
145.254684
 20
105.417870
 30
0.0
  0
SPLINE
  5
17a
100
AcDbEntity
  8
Layer_1
 62
7
100
AcDbSpline
 70
8
 71
3
 72
8
 73
4
 74
0
 40
0
 40
0
 40
0
 40
0
 40
1
 40
1
 40
1
 40
1
 10
145.254684
 20
105.417870
 30
0.0
 10
145.254684
 20
105.969900
 30
0.0
 10
145.702074
 20
106.417809
 30
0.0
 10
146.254104
 20
106.417809
 30
0.0
  0
LINE
  5
17b
100
AcDbEntity
  8
Layer_1
 62
7
100
AcDbLine
 10
146.254104
 20
106.417809
 30
0.0
 11
146.254104
 21
106.417809
 31
0.0
  0
SPLINE
  5
17c
100
AcDbEntity
  8
Layer_1
 62
7
100
AcDbSpline
 70
8
 71
3
 72
8
 73
4
 74
0
 40
0
 40
0
 40
0
 40
0
 40
1
 40
1
 40
1
 40
1
 10
132.710745
 20
105.950135
 30
0.0
 10
144.717378
 20
105.950135
 30
0.0
 10
154.450492
 20
96.217010
 30
0.0
 10
154.450492
 20
84.210377
 30
0.0
  0
SPLINE
  5
17d
100
AcDbEntity
  8
Layer_1
 62
7
100
AcDbSpline
 70
8
 71
3
 72
8
 73
4
 74
0
 40
0
 40
0
 40
0
 40
0
 40
1
 40
1
 40
1
 40
1
 10
154.450492
 20
84.210377
 30
0.0
 10
154.450520
 20
72.203743
 30
0.0
 10
144.717378
 20
62.470101
 30
0.0
 10
132.710745
 20
62.470101
 30
0.0
  0
SPLINE
  5
17e
100
AcDbEntity
  8
Layer_1
 62
7
100
AcDbSpline
 70
8
 71
3
 72
8
 73
4
 74
0
 40
0
 40
0
 40
0
 40
0
 40
1
 40
1
 40
1
 40
1
 10
132.710745
 20
62.470101
 30
0.0
 10
120.704116
 20
62.470101
 30
0.0
 10
110.970472
 20
72.203743
 30
0.0
 10
110.970472
 20
84.210377
 30
0.0
  0
SPLINE
  5
17f
100
AcDbEntity
  8
Layer_1
 62
7
100
AcDbSpline
 70
8
 71
3
 72
8
 73
4
 74
0
 40
0
 40
0
 40
0
 40
0
 40
1
 40
1
 40
1
 40
1
 10
110.970472
 20
84.210377
 30
0.0
 10
110.970472
 20
96.217010
 30
0.0
 10
120.704116
 20
105.950135
 30
0.0
 10
132.710745
 20
105.950135
 30
0.0
  0
LINE
  5
180
100
AcDbEntity
  8
Layer_1
 62
7
100
AcDbLine
 10
132.710745
 20
105.950135
 30
0.0
 11
132.710745
 21
105.950135
 31
0.0
  0
SPLINE
  5
181
100
AcDbEntity
  8
Layer_1
 62
7
100
AcDbSpline
 70
8
 71
3
 72
8
 73
4
 74
0
 40
0
 40
0
 40
0
 40
0
 40
1
 40
1
 40
1
 40
1
 10
67.540563
 20
98.203841
 30
0.0
 10
75.268970
 20
98.203835
 30
0.0
 10
81.534541
 20
91.938781
 30
0.0
 10
81.534541
 20
84.210377
 30
0.0
  0
SPLINE
  5
182
100
AcDbEntity
  8
Layer_1
 62
7
100
AcDbSpline
 70
8
 71
3
 72
8
 73
4
 74
0
 40
0
 40
0
 40
0
 40
0
 40
1
 40
1
 40
1
 40
1
 10
81.534541
 20
84.210377
 30
0.0
 10
81.534541
 20
76.481969
 30
0.0
 10
75.268970
 20
70.216915
 30
0.0
 10
67.540563
 20
70.216915
 30
0.0
  0
SPLINE
  5
183
100
AcDbEntity
  8
Layer_1
 62
7
100
AcDbSpline
 70
8
 71
3
 72
8
 73
4
 74
0
 40
0
 40
0
 40
0
 40
0
 40
1
 40
1
 40
1
 40
1
 10
67.540563
 20
70.216915
 30
0.0
 10
59.812159
 20
70.216915
 30
0.0
 10
53.547104
 20
76.481969
 30
0.0
 10
53.547104
 20
84.210377
 30
0.0
  0
SPLINE
  5
184
100
AcDbEntity
  8
Layer_1
 62
7
100
AcDbSpline
 70
8
 71
3
 72
8
 73
4
 74
0
 40
0
 40
0
 40
0
 40
0
 40
1
 40
1
 40
1
 40
1
 10
53.547104
 20
84.210377
 30
0.0
 10
53.547104
 20
91.938781
 30
0.0
 10
59.812159
 20
98.203841
 30
0.0
 10
67.540563
 20
98.203841
 30
0.0
  0
LINE
  5
185
100
AcDbEntity
  8
Layer_1
 62
7
100
AcDbLine
 10
67.540563
 20
98.203841
 30
0.0
 11
67.540563
 21
98.203841
 31
0.0
  0
SPLINE
  5
186
100
AcDbEntity
  8
Layer_1
 62
7
100
AcDbSpline
 70
8
 71
3
 72
8
 73
4
 74
0
 40
0
 40
0
 40
0
 40
0
 40
1
 40
1
 40
1
 40
1
 10
38.554221
 20
85.209802
 30
0.0
 10
39.106253
 20
85.209802
 30
0.0
 10
39.553643
 20
84.762403
 30
0.0
 10
39.553643
 20
84.210377
 30
0.0
  0
SPLINE
  5
187
100
AcDbEntity
  8
Layer_1
 62
7
100
AcDbSpline
 70
8
 71
3
 72
8
 73
4
 74
0
 40
0
 40
0
 40
0
 40
0
 40
1
 40
1
 40
1
 40
1
 10
39.553643
 20
84.210377
 30
0.0
 10
39.553643
 20
83.658347
 30
0.0
 10
39.106253
 20
83.210954
 30
0.0
 10
38.554221
 20
83.210954
 30
0.0
  0
SPLINE
  5
188
100
AcDbEntity
  8
Layer_1
 62
7
100
AcDbSpline
 70
8
 71
3
 72
8
 73
4
 74
0
 40
0
 40
0
 40
0
 40
0
 40
1
 40
1
 40
1
 40
1
 10
38.554221
 20
83.210954
 30
0.0
 10
38.002194
 20
83.210954
 30
0.0
 10
37.554798
 20
83.658347
 30
0.0
 10
37.554798
 20
84.210377
 30
0.0
  0
SPLINE
  5
189
100
AcDbEntity
  8
Layer_1
 62
7
100
AcDbSpline
 70
8
 71
3
 72
8
 73
4
 74
0
 40
0
 40
0
 40
0
 40
0
 40
1
 40
1
 40
1
 40
1
 10
37.554798
 20
84.210377
 30
0.0
 10
37.554798
 20
84.762403
 30
0.0
 10
38.002194
 20
85.209802
 30
0.0
 10
38.554221
 20
85.209802
 30
0.0
  0
LINE
  5
18a
100
AcDbEntity
  8
Layer_1
 62
7
100
AcDbLine
 10
38.554221
 20
85.209802
 30
0.0
 11
38.554221
 21
85.209802
 31
0.0
  0
SPLINE
  5
18b
100
AcDbEntity
  8
Layer_1
 62
7
100
AcDbSpline
 70
8
 71
3
 72
8
 73
4
 74
0
 40
0
 40
0
 40
0
 40
0
 40
1
 40
1
 40
1
 40
1
 10
158.498829
 20
85.209802
 30
0.0
 10
159.050856
 20
85.209802
 30
0.0
 10
159.498263
 20
84.762403
 30
0.0
 10
159.498263
 20
84.210377
 30
0.0
  0
SPLINE
  5
18c
100
AcDbEntity
  8
Layer_1
 62
7
100
AcDbSpline
 70
8
 71
3
 72
8
 73
4
 74
0
 40
0
 40
0
 40
0
 40
0
 40
1
 40
1
 40
1
 40
1
 10
159.498263
 20
84.210377
 30
0.0
 10
159.498263
 20
83.658347
 30
0.0
 10
159.050856
 20
83.210954
 30
0.0
 10
158.498829
 20
83.210954
 30
0.0
  0
SPLINE
  5
18d
100
AcDbEntity
  8
Layer_1
 62
7
100
AcDbSpline
 70
8
 71
3
 72
8
 73
4
 74
0
 40
0
 40
0
 40
0
 40
0
 40
1
 40
1
 40
1
 40
1
 10
158.498829
 20
83.210954
 30
0.0
 10
157.946802
 20
83.210954
 30
0.0
 10
157.498887
 20
83.658347
 30
0.0
 10
157.498887
 20
84.210377
 30
0.0
  0
SPLINE
  5
18e
100
AcDbEntity
  8
Layer_1
 62
7
100
AcDbSpline
 70
8
 71
3
 72
8
 73
4
 74
0
 40
0
 40
0
 40
0
 40
0
 40
1
 40
1
 40
1
 40
1
 10
157.498887
 20
84.210377
 30
0.0
 10
157.498887
 20
84.762403
 30
0.0
 10
157.946802
 20
85.209802
 30
0.0
 10
158.498829
 20
85.209802
 30
0.0
  0
LINE
  5
18f
100
AcDbEntity
  8
Layer_1
 62
7
100
AcDbLine
 10
158.498829
 20
85.209802
 30
0.0
 11
158.498829
 21
85.209802
 31
0.0
  0
SPLINE
  5
190
100
AcDbEntity
  8
Layer_1
 62
7
100
AcDbSpline
 70
8
 71
3
 72
8
 73
4
 74
0
 40
0
 40
0
 40
0
 40
0
 40
1
 40
1
 40
1
 40
1
 10
50.798435
 20
64.001792
 30
0.0
 10
51.350462
 20
64.001792
 30
0.0
 10
51.797854
 20
63.554402
 30
0.0
 10
51.797854
 20
63.002369
 30
0.0
  0
SPLINE
  5
191
100
AcDbEntity
  8
Layer_1
 62
7
100
AcDbSpline
 70
8
 71
3
 72
8
 73
4
 74
0
 40
0
 40
0
 40
0
 40
0
 40
1
 40
1
 40
1
 40
1
 10
51.797854
 20
63.002369
 30
0.0
 10
51.797854
 20
62.450340
 30
0.0
 10
51.350462
 20
62.002947
 30
0.0
 10
50.798435
 20
62.002947
 30
0.0
  0
SPLINE
  5
192
100
AcDbEntity
  8
Layer_1
 62
7
100
AcDbSpline
 70
8
 71
3
 72
8
 73
4
 74
0
 40
0
 40
0
 40
0
 40
0
 40
1
 40
1
 40
1
 40
1
 10
50.798435
 20
62.002947
 30
0.0
 10
50.246403
 20
62.002947
 30
0.0
 10
49.799013
 20
62.450340
 30
0.0
 10
49.799013
 20
63.002369
 30
0.0
  0
SPLINE
  5
193
100
AcDbEntity
  8
Layer_1
 62
7
100
AcDbSpline
 70
8
 71
3
 72
8
 73
4
 74
0
 40
0
 40
0
 40
0
 40
0
 40
1
 40
1
 40
1
 40
1
 10
49.799013
 20
63.002369
 30
0.0
 10
49.799013
 20
63.554402
 30
0.0
 10
50.246403
 20
64.001792
 30
0.0
 10
50.798435
 20
64.001792
 30
0.0
  0
LINE
  5
194
100
AcDbEntity
  8
Layer_1
 62
7
100
AcDbLine
 10
50.798435
 20
64.001792
 30
0.0
 11
50.798435
 21
64.001792
 31
0.0
  0
SPLINE
  5
195
100
AcDbEntity
  8
Layer_1
 62
7
100
AcDbSpline
 70
8
 71
3
 72
8
 73
4
 74
0
 40
0
 40
0
 40
0
 40
0
 40
1
 40
1
 40
1
 40
1
 10
75.287380
 20
64.001792
 30
0.0
 10
75.839409
 20
64.001792
 30
0.0
 10
76.286799
 20
63.554402
 30
0.0
 10
76.286799
 20
63.002369
 30
0.0
  0
SPLINE
  5
196
100
AcDbEntity
  8
Layer_1
 62
7
100
AcDbSpline
 70
8
 71
3
 72
8
 73
4
 74
0
 40
0
 40
0
 40
0
 40
0
 40
1
 40
1
 40
1
 40
1
 10
76.286799
 20
63.002369
 30
0.0
 10
76.286799
 20
62.450340
 30
0.0
 10
75.839409
 20
62.002947
 30
0.0
 10
75.287380
 20
62.002947
 30
0.0
  0
SPLINE
  5
197
100
AcDbEntity
  8
Layer_1
 62
7
100
AcDbSpline
 70
8
 71
3
 72
8
 73
4
 74
0
 40
0
 40
0
 40
0
 40
0
 40
1
 40
1
 40
1
 40
1
 10
75.287380
 20
62.002947
 30
0.0
 10
74.735353
 20
62.002947
 30
0.0
 10
74.287438
 20
62.450340
 30
0.0
 10
74.287438
 20
63.002369
 30
0.0
  0
SPLINE
  5
198
100
AcDbEntity
  8
Layer_1
 62
7
100
AcDbSpline
 70
8
 71
3
 72
8
 73
4
 74
0
 40
0
 40
0
 40
0
 40
0
 40
1
 40
1
 40
1
 40
1
 10
74.287438
 20
63.002369
 30
0.0
 10
74.287438
 20
63.554402
 30
0.0
 10
74.735353
 20
64.001792
 30
0.0
 10
75.287380
 20
64.001792
 30
0.0
  0
LINE
  5
199
100
AcDbEntity
  8
Layer_1
 62
7
100
AcDbLine
 10
75.287380
 20
64.001792
 30
0.0
 11
75.287380
 21
64.001792
 31
0.0
  0
SPLINE
  5
19a
100
AcDbEntity
  8
Layer_1
 62
7
100
AcDbSpline
 70
8
 71
3
 72
8
 73
4
 74
0
 40
0
 40
0
 40
0
 40
0
 40
1
 40
1
 40
1
 40
1
 10
121.765678
 20
64.001792
 30
0.0
 10
122.317705
 20
64.001792
 30
0.0
 10
122.765101
 20
63.554402
 30
0.0
 10
122.765101
 20
63.002369
 30
0.0
  0
SPLINE
  5
19b
100
AcDbEntity
  8
Layer_1
 62
7
100
AcDbSpline
 70
8
 71
3
 72
8
 73
4
 74
0
 40
0
 40
0
 40
0
 40
0
 40
1
 40
1
 40
1
 40
1
 10
122.765101
 20
63.002369
 30
0.0
 10
122.765101
 20
62.450340
 30
0.0
 10
122.317705
 20
62.002947
 30
0.0
 10
121.765678
 20
62.002947
 30
0.0
  0
SPLINE
  5
19c
100
AcDbEntity
  8
Layer_1
 62
7
100
AcDbSpline
 70
8
 71
3
 72
8
 73
4
 74
0
 40
0
 40
0
 40
0
 40
0
 40
1
 40
1
 40
1
 40
1
 10
121.765678
 20
62.002947
 30
0.0
 10
121.213649
 20
62.002947
 30
0.0
 10
120.766256
 20
62.450340
 30
0.0
 10
120.766256
 20
63.002369
 30
0.0
  0
SPLINE
  5
19d
100
AcDbEntity
  8
Layer_1
 62
7
100
AcDbSpline
 70
8
 71
3
 72
8
 73
4
 74
0
 40
0
 40
0
 40
0
 40
0
 40
1
 40
1
 40
1
 40
1
 10
120.766256
 20
63.002369
 30
0.0
 10
120.766256
 20
63.554402
 30
0.0
 10
121.213649
 20
64.001792
 30
0.0
 10
121.765678
 20
64.001792
 30
0.0
  0
LINE
  5
19e
100
AcDbEntity
  8
Layer_1
 62
7
100
AcDbLine
 10
121.765678
 20
64.001792
 30
0.0
 11
121.765678
 21
64.001792
 31
0.0
  0
SPLINE
  5
19f
100
AcDbEntity
  8
Layer_1
 62
7
100
AcDbSpline
 70
8
 71
3
 72
8
 73
4
 74
0
 40
0
 40
0
 40
0
 40
0
 40
1
 40
1
 40
1
 40
1
 10
146.254104
 20
64.001792
 30
0.0
 10
146.806133
 20
64.001792
 30
0.0
 10
147.254045
 20
63.554402
 30
0.0
 10
147.254045
 20
63.002369
 30
0.0
  0
SPLINE
  5
1a0
100
AcDbEntity
  8
Layer_1
 62
7
100
AcDbSpline
 70
8
 71
3
 72
8
 73
4
 74
0
 40
0
 40
0
 40
0
 40
0
 40
1
 40
1
 40
1
 40
1
 10
147.254045
 20
63.002369
 30
0.0
 10
147.254045
 20
62.450340
 30
0.0
 10
146.806133
 20
62.002947
 30
0.0
 10
146.254104
 20
62.002947
 30
0.0
  0
SPLINE
  5
1a1
100
AcDbEntity
  8
Layer_1
 62
7
100
AcDbSpline
 70
8
 71
3
 72
8
 73
4
 74
0
 40
0
 40
0
 40
0
 40
0
 40
1
 40
1
 40
1
 40
1
 10
146.254104
 20
62.002947
 30
0.0
 10
145.702074
 20
62.002947
 30
0.0
 10
145.254684
 20
62.450340
 30
0.0
 10
145.254684
 20
63.002369
 30
0.0
  0
SPLINE
  5
1a2
100
AcDbEntity
  8
Layer_1
 62
7
100
AcDbSpline
 70
8
 71
3
 72
8
 73
4
 74
0
 40
0
 40
0
 40
0
 40
0
 40
1
 40
1
 40
1
 40
1
 10
145.254684
 20
63.002369
 30
0.0
 10
145.254684
 20
63.554402
 30
0.0
 10
145.702074
 20
64.001792
 30
0.0
 10
146.254104
 20
64.001792
 30
0.0
  0
LINE
  5
1a3
100
AcDbEntity
  8
Layer_1
 62
7
100
AcDbLine
 10
146.254104
 20
64.001792
 30
0.0
 11
146.254104
 21
64.001792
 31
0.0
  0
LINE
  5
1a4
100
AcDbEntity
  8
Layer_1
 62
7
100
AcDbLine
 10
0.000000
 20
320.000008
 30
0.0
 11
499.999972
 21
320.000008
 31
0.0
  0
LINE
  5
1a5
100
AcDbEntity
  8
Layer_1
 62
7
100
AcDbLine
 10
499.999972
 20
320.000008
 30
0.0
 11
499.999972
 21
20.000030
 31
0.0
  0
LINE
  5
1a6
100
AcDbEntity
  8
Layer_1
 62
7
100
AcDbLine
 10
499.999972
 20
20.000030
 30
0.0
 11
0.000000
 21
20.000030
 31
0.0
  0
LINE
  5
1a7
100
AcDbEntity
  8
Layer_1
 62
7
100
AcDbLine
 10
0.000000
 20
20.000030
 30
0.0
 11
0.000000
 21
320.000008
 31
0.0
  0
ENDSEC
  0
SECTION
  2
OBJECTS
  0
DICTIONARY
  5
C
330
0
100
AcDbDictionary
  3
ACAD_GROUP
350
D
  3
ACAD_MLINESTYLE
350
17
  0
DICTIONARY
  5
D
330
C
100
AcDbDictionary
  0
DICTIONARY
  5
1A
330
C
100
AcDbDictionary
  0
DICTIONARY
  5
17
330
C
100
AcDbDictionary
  3
STANDARD
350
18
  0
DICTIONARY
  5
19
330
C
100
AcDbDictionary
  0
ENDSEC
  0
EOF
