  0
SECTION
  2
HEADER
  9
$ACADVER
  1
AC1014
  9
$HANDSEED
  5
FFFF
  9
$MEASUREMENT
 70
     1
  0
ENDSEC
  0
SECTION
  2
TABLES
  0
TABLE
  2
VPORT
  5
8
330
0
100
AcDbSymbolTable
 70
     4
  0
VPORT
  5
2E
330
8
100
AcDbSymbolTableRecord
100
AcDbViewportTableRecord
  2
*ACTIVE
 70
     0
 10
0.0
 20
0.0
 11
1.0
 21
1.0
 12
210.0
 22
148.5
 13
0.0
 23
0.0
 14
10.0
 24
10.0
 15
10.0
 25
10.0
 16
0.0
 26
0.0
 36
1.0
 17
0.0
 27
0.0
 37
0.0
 40
341.0
 41
1.24
 42
50.0
 43
0.0
 44
0.0
 50
0.0
 51
0.0
 71
     0
 72
   100
 73
     1
 74
     3
 75
     0
 76
     0
 77
     0
 78
     0
  0
ENDTAB
  0
TABLE
  2
LTYPE
  5
5
330
0
100
AcDbSymbolTable
 70
     1
  0
LTYPE
  5
14
330
5
100
AcDbSymbolTableRecord
100
AcDbLinetypeTableRecord
  2
BYBLOCK
 70
     0
  3

 72
    65
 73
     0
 40
0.0
  0
LTYPE
  5
15
330
5
100
AcDbSymbolTableRecord
100
AcDbLinetypeTableRecord
  2
BYLAYER
 70
     0
  3

 72
    65
 73
     0
 40
0.0
  0
LTYPE
  5
16
330
5
100
AcDbSymbolTableRecord
100
AcDbLinetypeTableRecord
  2
CONTINUOUS
 70
     0
  3
Solid line
 72
    65
 73
     0
 40
0.0
  0
ENDTAB
  0
TABLE
  2
LAYER
  5
2
100
AcDbSymbolTable
 70
2
  0
LAYER
  5
50
100
AcDbSymbolTableRecord
100
AcDbLayerTableRecord
  2
0
 70
0
  6
CONTINUOUS
  0
LAYER
  5
51
100
AcDbSymbolTableRecord
100
AcDbLayerTableRecord
  2
Layer_1
 70
0
  6
CONTINUOUS
  0
ENDTAB
  0
TABLE
  2
STYLE
  5
3
330
0
100
AcDbSymbolTable
 70
     1
  0
STYLE
  5
11
330
3
100
AcDbSymbolTableRecord
100
AcDbTextStyleTableRecord
  2
STANDARD
 70
     0
 40
0.0
 41
1.0
 50
0.0
 71
     0
 42
2.5
  3
txt
  4

  0
ENDTAB
  0
TABLE
  2
VIEW
  5
6
330
0
100
AcDbSymbolTable
 70
     0
  0
ENDTAB
  0
TABLE
  2
UCS
  5
7
330
0
100
AcDbSymbolTable
 70
     0
  0
ENDTAB
  0
TABLE
  2
APPID
  5
9
330
0
100
AcDbSymbolTable
 70
     2
  0
APPID
  5
12
330
9
100
AcDbSymbolTableRecord
100
AcDbRegAppTableRecord
  2
ACAD
 70
     0
  0
ENDTAB
  0
TABLE
  2
DIMSTYLE
  5
A
330
0
100
AcDbSymbolTable
 70
     1
  0
DIMSTYLE
105
27
330
A
100
AcDbSymbolTableRecord
100
AcDbDimStyleTableRecord
  2
ISO-25
 70
     0
  3

  4

  5

  6

  7

 40
1.0
 41
2.5
 42
0.625
 43
3.75
 44
1.25
 45
0.0
 46
0.0
 47
0.0
 48
0.0
140
2.5
141
2.5
142
0.0
143
0.03937007874016
144
1.0
145
0.0
146
1.0
147
0.625
 71
     0
 72
     0
 73
     0
 74
     0
 75
     0
 76
     0
 77
     1
 78
     8
170
     0
171
     3
172
     1
173
     0
174
     0
175
     0
176
     0
177
     0
178
     0
270
     2
271
     2
272
     2
273
     2
274
     3
340
11
275
     0
280
     0
281
     0
282
     0
283
     0
284
     8
285
     0
286
     0
287
     3
288
     0
  0
ENDTAB
  0
TABLE
  2
BLOCK_RECORD
  5
1
330
0
100
AcDbSymbolTable
 70
     1
  0
BLOCK_RECORD
  5
1F
330
1
100
AcDbSymbolTableRecord
100
AcDbBlockTableRecord
  2
*MODEL_SPACE
  0
BLOCK_RECORD
  5
1B
330
1
100
AcDbSymbolTableRecord
100
AcDbBlockTableRecord
  2
*PAPER_SPACE
  0
ENDTAB
  0
ENDSEC
  0
SECTION
  2
BLOCKS
  0
BLOCK
  5
20
330
1F
100
AcDbEntity
  8
0
100
AcDbBlockBegin
  2
*MODEL_SPACE
 70
     0
 10
0.0
 20
0.0
 30
0.0
  3
*MODEL_SPACE
  1

  0
ENDBLK
  5
21
330
1F
100
AcDbEntity
  8
0
100
AcDbBlockEnd
  0
BLOCK
  5
1C
330
1B
100
AcDbEntity
 67
     1
  8
0
100
AcDbBlockBegin
  2
*PAPER_SPACE
  1

  0
ENDBLK
  5
1D
330
1B
100
AcDbEntity
 67
     1
  8
0
100
AcDbBlockEnd
  0
ENDSEC
  0
SECTION
  2
ENTITIES
  0
LINE
  5
100
100
AcDbEntity
  8
Layer_1
 62
7
100
AcDbLine
 10
255.425551
 20
294.716786
 30
0.0
 11
255.425551
 21
290.028604
 31
0.0
  0
LINE
  5
101
100
AcDbEntity
  8
Layer_1
 62
7
100
AcDbLine
 10
255.425551
 20
290.028604
 30
0.0
 11
241.361016
 21
290.028604
 31
0.0
  0
LINE
  5
102
100
AcDbEntity
  8
Layer_1
 62
7
100
AcDbLine
 10
241.361016
 20
290.028604
 30
0.0
 11
241.361016
 21
279.714794
 31
0.0
  0
LINE
  5
103
100
AcDbEntity
  8
Layer_1
 62
7
100
AcDbLine
 10
241.361016
 20
279.714794
 30
0.0
 11
236.673313
 21
279.714794
 31
0.0
  0
LINE
  5
104
100
AcDbEntity
  8
Layer_1
 62
7
100
AcDbLine
 10
236.673313
 20
279.714794
 30
0.0
 11
236.673313
 21
260.962541
 31
0.0
  0
LINE
  5
105
100
AcDbEntity
  8
Layer_1
 62
7
100
AcDbLine
 10
236.673313
 20
260.962541
 30
0.0
 11
241.361016
 21
260.962541
 31
0.0
  0
LINE
  5
106
100
AcDbEntity
  8
Layer_1
 62
7
100
AcDbLine
 10
241.361016
 20
260.962541
 30
0.0
 11
241.361016
 21
245.960560
 31
0.0
  0
LINE
  5
107
100
AcDbEntity
  8
Layer_1
 62
7
100
AcDbLine
 10
241.361016
 20
245.960560
 30
0.0
 11
236.673313
 21
245.960560
 31
0.0
  0
LINE
  5
108
100
AcDbEntity
  8
Layer_1
 62
7
100
AcDbLine
 10
236.673313
 20
245.960560
 30
0.0
 11
236.673313
 21
227.207846
 31
0.0
  0
LINE
  5
109
100
AcDbEntity
  8
Layer_1
 62
7
100
AcDbLine
 10
236.673313
 20
227.207846
 30
0.0
 11
241.361016
 21
227.207846
 31
0.0
  0
LINE
  5
10a
100
AcDbEntity
  8
Layer_1
 62
7
100
AcDbLine
 10
241.361016
 20
227.207846
 30
0.0
 11
241.361016
 21
212.205839
 31
0.0
  0
LINE
  5
10b
100
AcDbEntity
  8
Layer_1
 62
7
100
AcDbLine
 10
241.361016
 20
212.205839
 30
0.0
 11
260.113756
 21
212.205839
 31
0.0
  0
LINE
  5
10c
100
AcDbEntity
  8
Layer_1
 62
7
100
AcDbLine
 10
260.113756
 20
212.205839
 30
0.0
 11
260.113756
 21
216.894018
 31
0.0
  0
LINE
  5
10d
100
AcDbEntity
  8
Layer_1
 62
7
100
AcDbLine
 10
260.113756
 20
216.894018
 30
0.0
 11
278.865991
 21
216.894018
 31
0.0
  0
LINE
  5
10e
100
AcDbEntity
  8
Layer_1
 62
7
100
AcDbLine
 10
278.865991
 20
216.894018
 30
0.0
 11
278.865991
 21
212.205839
 31
0.0
  0
LINE
  5
10f
100
AcDbEntity
  8
Layer_1
 62
7
100
AcDbLine
 10
278.865991
 20
212.205839
 30
0.0
 11
297.618732
 21
212.205839
 31
0.0
  0
LINE
  5
110
100
AcDbEntity
  8
Layer_1
 62
7
100
AcDbLine
 10
297.618732
 20
212.205839
 30
0.0
 11
297.618732
 21
216.894018
 31
0.0
  0
LINE
  5
111
100
AcDbEntity
  8
Layer_1
 62
7
100
AcDbLine
 10
297.618732
 20
216.894018
 30
0.0
 11
316.370970
 21
216.894018
 31
0.0
  0
LINE
  5
112
100
AcDbEntity
  8
Layer_1
 62
7
100
AcDbLine
 10
316.370970
 20
216.894018
 30
0.0
 11
316.370970
 21
212.205839
 31
0.0
  0
LINE
  5
113
100
AcDbEntity
  8
Layer_1
 62
7
100
AcDbLine
 10
316.370970
 20
212.205839
 30
0.0
 11
335.123711
 21
212.205839
 31
0.0
  0
LINE
  5
114
100
AcDbEntity
  8
Layer_1
 62
7
100
AcDbLine
 10
335.123711
 20
212.205839
 30
0.0
 11
335.123711
 21
216.894018
 31
0.0
  0
LINE
  5
115
100
AcDbEntity
  8
Layer_1
 62
7
100
AcDbLine
 10
335.123711
 20
216.894018
 30
0.0
 11
353.875949
 21
216.894018
 31
0.0
  0
LINE
  5
116
100
AcDbEntity
  8
Layer_1
 62
7
100
AcDbLine
 10
353.875949
 20
216.894018
 30
0.0
 11
353.875949
 21
212.205839
 31
0.0
  0
LINE
  5
117
100
AcDbEntity
  8
Layer_1
 62
7
100
AcDbLine
 10
353.875949
 20
212.205839
 30
0.0
 11
372.628186
 21
212.205839
 31
0.0
  0
LINE
  5
118
100
AcDbEntity
  8
Layer_1
 62
7
100
AcDbLine
 10
372.628186
 20
212.205839
 30
0.0
 11
372.628186
 21
227.207846
 31
0.0
  0
LINE
  5
119
100
AcDbEntity
  8
Layer_1
 62
7
100
AcDbLine
 10
372.628186
 20
227.207846
 30
0.0
 11
377.316365
 21
227.207846
 31
0.0
  0
LINE
  5
11a
100
AcDbEntity
  8
Layer_1
 62
7
100
AcDbLine
 10
377.316365
 20
227.207846
 30
0.0
 11
377.316365
 21
245.960560
 31
0.0
  0
LINE
  5
11b
100
AcDbEntity
  8
Layer_1
 62
7
100
AcDbLine
 10
377.316365
 20
245.960560
 30
0.0
 11
372.628186
 21
245.960560
 31
0.0
  0
LINE
  5
11c
100
AcDbEntity
  8
Layer_1
 62
7
100
AcDbLine
 10
372.628186
 20
245.960560
 30
0.0
 11
372.628186
 21
260.962541
 31
0.0
  0
LINE
  5
11d
100
AcDbEntity
  8
Layer_1
 62
7
100
AcDbLine
 10
372.628186
 20
260.962541
 30
0.0
 11
377.316365
 21
260.962541
 31
0.0
  0
LINE
  5
11e
100
AcDbEntity
  8
Layer_1
 62
7
100
AcDbLine
 10
377.316365
 20
260.962541
 30
0.0
 11
377.316365
 21
279.714794
 31
0.0
  0
LINE
  5
11f
100
AcDbEntity
  8
Layer_1
 62
7
100
AcDbLine
 10
377.316365
 20
279.714794
 30
0.0
 11
372.628186
 21
279.714794
 31
0.0
  0
LINE
  5
120
100
AcDbEntity
  8
Layer_1
 62
7
100
AcDbLine
 10
372.628186
 20
279.714794
 30
0.0
 11
372.628186
 21
290.028604
 31
0.0
  0
LINE
  5
121
100
AcDbEntity
  8
Layer_1
 62
7
100
AcDbLine
 10
372.628186
 20
290.028604
 30
0.0
 11
358.564127
 21
290.028604
 31
0.0
  0
LINE
  5
122
100
AcDbEntity
  8
Layer_1
 62
7
100
AcDbLine
 10
358.564127
 20
290.028604
 30
0.0
 11
358.564127
 21
294.716786
 31
0.0
  0
LINE
  5
123
100
AcDbEntity
  8
Layer_1
 62
7
100
AcDbLine
 10
358.564127
 20
294.716786
 30
0.0
 11
339.811386
 21
294.716786
 31
0.0
  0
LINE
  5
124
100
AcDbEntity
  8
Layer_1
 62
7
100
AcDbLine
 10
339.811386
 20
294.716786
 30
0.0
 11
339.811386
 21
290.028604
 31
0.0
  0
LINE
  5
125
100
AcDbEntity
  8
Layer_1
 62
7
100
AcDbLine
 10
339.811386
 20
290.028604
 30
0.0
 11
325.747327
 21
290.028604
 31
0.0
  0
LINE
  5
126
100
AcDbEntity
  8
Layer_1
 62
7
100
AcDbLine
 10
325.747327
 20
290.028604
 30
0.0
 11
312.931254
 21
262.851005
 31
0.0
  0
SPLINE
  5
127
100
AcDbEntity
  8
Layer_1
 62
7
100
AcDbSpline
 70
8
 71
3
 72
8
 73
4
 74
0
 40
0
 40
0
 40
0
 40
0
 40
1
 40
1
 40
1
 40
1
 10
312.931254
 20
262.851005
 30
0.0
 10
311.385188
 20
259.572420
 30
0.0
 10
307.473932
 20
258.168012
 30
0.0
 10
304.195348
 20
259.714078
 30
0.0
  0
SPLINE
  5
128
100
AcDbEntity
  8
Layer_1
 62
7
100
AcDbSpline
 70
8
 71
3
 72
8
 73
4
 74
0
 40
0
 40
0
 40
0
 40
0
 40
1
 40
1
 40
1
 40
1
 10
304.195348
 20
259.714078
 30
0.0
 10
302.817265
 20
260.363948
 30
0.0
 10
301.708291
 20
261.472923
 30
0.0
 10
301.058421
 20
262.851005
 30
0.0
  0
LINE
  5
129
100
AcDbEntity
  8
Layer_1
 62
7
100
AcDbLine
 10
301.058421
 20
262.851005
 30
0.0
 11
288.242349
 21
290.028604
 31
0.0
  0
LINE
  5
12a
100
AcDbEntity
  8
Layer_1
 62
7
100
AcDbLine
 10
288.242349
 20
290.028604
 30
0.0
 11
274.177813
 21
290.028604
 31
0.0
  0
LINE
  5
12b
100
AcDbEntity
  8
Layer_1
 62
7
100
AcDbLine
 10
274.177813
 20
290.028604
 30
0.0
 11
274.177813
 21
294.716786
 31
0.0
  0
LINE
  5
12c
100
AcDbEntity
  8
Layer_1
 62
7
100
AcDbLine
 10
274.177813
 20
294.716786
 30
0.0
 11
255.425551
 21
294.716786
 31
0.0
  0
SPLINE
  5
12d
100
AcDbEntity
  8
Layer_1
 62
7
100
AcDbSpline
 70
8
 71
3
 72
8
 73
4
 74
0
 40
0
 40
0
 40
0
 40
0
 40
1
 40
1
 40
1
 40
1
 10
340.727030
 20
280.987487
 30
0.0
 10
343.252266
 20
281.008654
 30
0.0
 10
345.821556
 20
280.476424
 30
0.0
 10
348.258553
 20
279.327222
 30
0.0
  0
SPLINE
  5
12e
100
AcDbEntity
  8
Layer_1
 62
7
100
AcDbSpline
 70
8
 71
3
 72
8
 73
4
 74
0
 40
0
 40
0
 40
0
 40
0
 40
1
 40
1
 40
1
 40
1
 10
348.258553
 20
279.327222
 30
0.0
 10
356.923393
 20
275.241177
 30
0.0
 10
360.635285
 20
264.904330
 30
0.0
 10
356.549219
 20
256.239491
 30
0.0
  0
LINE
  5
12f
100
AcDbEntity
  8
Layer_1
 62
7
100
AcDbLine
 10
356.549219
 20
256.239491
 30
0.0
 11
351.750101
 21
246.062769
 31
0.0
  0
SPLINE
  5
130
100
AcDbEntity
  8
Layer_1
 62
7
100
AcDbSpline
 70
8
 71
3
 72
8
 73
4
 74
0
 40
0
 40
0
 40
0
 40
0
 40
1
 40
1
 40
1
 40
1
 10
351.750101
 20
246.062769
 30
0.0
 10
347.664035
 20
237.397956
 30
0.0
 10
337.327690
 20
233.686063
 30
0.0
 10
328.662850
 20
237.772103
 30
0.0
  0
SPLINE
  5
131
100
AcDbEntity
  8
Layer_1
 62
7
100
AcDbSpline
 70
8
 71
3
 72
8
 73
4
 74
0
 40
0
 40
0
 40
0
 40
0
 40
1
 40
1
 40
1
 40
1
 10
328.662850
 20
237.772103
 30
0.0
 10
319.998011
 20
241.858143
 30
0.0
 10
316.286118
 20
252.194990
 30
0.0
 10
320.372184
 20
260.859830
 30
0.0
  0
LINE
  5
132
100
AcDbEntity
  8
Layer_1
 62
7
100
AcDbLine
 10
320.372184
 20
260.859830
 30
0.0
 11
325.170826
 21
271.036551
 31
0.0
  0
SPLINE
  5
133
100
AcDbEntity
  8
Layer_1
 62
7
100
AcDbSpline
 70
8
 71
3
 72
8
 73
4
 74
0
 40
0
 40
0
 40
0
 40
0
 40
1
 40
1
 40
1
 40
1
 10
325.170826
 20
271.036551
 30
0.0
 10
328.107675
 20
277.264400
 30
0.0
 10
334.273710
 20
280.933417
 30
0.0
 10
340.727030
 20
280.987487
 30
0.0
  0
LINE
  5
134
100
AcDbEntity
  8
Layer_1
 62
7
100
AcDbLine
 10
340.727030
 20
280.987487
 30
0.0
 11
340.727030
 21
280.987487
 31
0.0
  0
SPLINE
  5
135
100
AcDbEntity
  8
Layer_1
 62
7
100
AcDbSpline
 70
8
 71
3
 72
8
 73
4
 74
0
 40
0
 40
0
 40
0
 40
0
 40
1
 40
1
 40
1
 40
1
 10
277.928546
 20
270.807395
 30
0.0
 10
287.508474
 20
270.807395
 30
0.0
 10
295.274391
 20
263.041505
 30
0.0
 10
295.274391
 20
253.461551
 30
0.0
  0
SPLINE
  5
136
100
AcDbEntity
  8
Layer_1
 62
7
100
AcDbSpline
 70
8
 71
3
 72
8
 73
4
 74
0
 40
0
 40
0
 40
0
 40
0
 40
1
 40
1
 40
1
 40
1
 10
295.274391
 20
253.461551
 30
0.0
 10
295.274391
 20
243.881623
 30
0.0
 10
287.508474
 20
236.115229
 30
0.0
 10
277.928546
 20
236.115229
 30
0.0
  0
SPLINE
  5
137
100
AcDbEntity
  8
Layer_1
 62
7
100
AcDbSpline
 70
8
 71
3
 72
8
 73
4
 74
0
 40
0
 40
0
 40
0
 40
0
 40
1
 40
1
 40
1
 40
1
 10
277.928546
 20
236.115229
 30
0.0
 10
268.348592
 20
236.115229
 30
0.0
 10
260.582704
 20
243.881623
 30
0.0
 10
260.582704
 20
253.461551
 30
0.0
  0
SPLINE
  5
138
100
AcDbEntity
  8
Layer_1
 62
7
100
AcDbSpline
 70
8
 71
3
 72
8
 73
4
 74
0
 40
0
 40
0
 40
0
 40
0
 40
1
 40
1
 40
1
 40
1
 10
260.582704
 20
253.461551
 30
0.0
 10
260.582704
 20
263.041505
 30
0.0
 10
268.348592
 20
270.807395
 30
0.0
 10
277.928546
 20
270.807395
 30
0.0
  0
LINE
  5
139
100
AcDbEntity
  8
Layer_1
 62
7
100
AcDbLine
 10
277.928546
 20
270.807395
 30
0.0
 11
277.928546
 21
270.807395
 31
0.0
  0
LINE
  5
13a
100
AcDbEntity
  8
Layer_1
 62
7
100
AcDbLine
 10
86.908471
 20
185.014824
 30
0.0
 11
105.379639
 21
185.014824
 31
0.0
  0
LINE
  5
13b
100
AcDbEntity
  8
Layer_1
 62
7
100
AcDbLine
 10
105.379639
 20
185.014824
 30
0.0
 11
105.379639
 21
180.326712
 31
0.0
  0
LINE
  5
13c
100
AcDbEntity
  8
Layer_1
 62
7
100
AcDbLine
 10
105.379639
 20
180.326712
 30
0.0
 11
124.413380
 21
180.326712
 31
0.0
  0
LINE
  5
13d
100
AcDbEntity
  8
Layer_1
 62
7
100
AcDbLine
 10
124.413380
 20
180.326712
 30
0.0
 11
124.413380
 21
185.014824
 31
0.0
  0
LINE
  5
13e
100
AcDbEntity
  8
Layer_1
 62
7
100
AcDbLine
 10
124.413380
 20
185.014824
 30
0.0
 11
143.025180
 21
185.014824
 31
0.0
  0
LINE
  5
13f
100
AcDbEntity
  8
Layer_1
 62
7
100
AcDbLine
 10
143.025180
 20
185.014824
 30
0.0
 11
143.025180
 21
194.391052
 31
0.0
  0
LINE
  5
140
100
AcDbEntity
  8
Layer_1
 62
7
100
AcDbLine
 10
143.025180
 20
194.391052
 30
0.0
 11
147.713306
 21
194.391052
 31
0.0
  0
LINE
  5
141
100
AcDbEntity
  8
Layer_1
 62
7
100
AcDbLine
 10
147.713306
 20
194.391052
 30
0.0
 11
147.713306
 21
213.143506
 31
0.0
  0
LINE
  5
142
100
AcDbEntity
  8
Layer_1
 62
7
100
AcDbLine
 10
147.713306
 20
213.143506
 30
0.0
 11
143.025180
 21
213.143506
 31
0.0
  0
LINE
  5
143
100
AcDbEntity
  8
Layer_1
 62
7
100
AcDbLine
 10
143.025180
 20
213.143506
 30
0.0
 11
143.025180
 21
227.207846
 31
0.0
  0
LINE
  5
144
100
AcDbEntity
  8
Layer_1
 62
7
100
AcDbLine
 10
143.025180
 20
227.207846
 30
0.0
 11
147.713306
 21
227.207846
 31
0.0
  0
LINE
  5
145
100
AcDbEntity
  8
Layer_1
 62
7
100
AcDbLine
 10
147.713306
 20
227.207846
 30
0.0
 11
147.713306
 21
245.960301
 31
0.0
  0
LINE
  5
146
100
AcDbEntity
  8
Layer_1
 62
7
100
AcDbLine
 10
147.713306
 20
245.960301
 30
0.0
 11
143.025180
 21
245.960301
 31
0.0
  0
LINE
  5
147
100
AcDbEntity
  8
Layer_1
 62
7
100
AcDbLine
 10
143.025180
 20
245.960301
 30
0.0
 11
143.025180
 21
260.024641
 31
0.0
  0
LINE
  5
148
100
AcDbEntity
  8
Layer_1
 62
7
100
AcDbLine
 10
143.025180
 20
260.024641
 30
0.0
 11
147.713306
 21
260.024641
 31
0.0
  0
LINE
  5
149
100
AcDbEntity
  8
Layer_1
 62
7
100
AcDbLine
 10
147.713306
 20
260.024641
 30
0.0
 11
147.713306
 21
278.777088
 31
0.0
  0
LINE
  5
14a
100
AcDbEntity
  8
Layer_1
 62
7
100
AcDbLine
 10
147.713306
 20
278.777088
 30
0.0
 11
143.025180
 21
278.777088
 31
0.0
  0
LINE
  5
14b
100
AcDbEntity
  8
Layer_1
 62
7
100
AcDbLine
 10
143.025180
 20
278.777088
 30
0.0
 11
143.025180
 21
292.841444
 31
0.0
  0
LINE
  5
14c
100
AcDbEntity
  8
Layer_1
 62
7
100
AcDbLine
 10
143.025180
 20
292.841444
 30
0.0
 11
11.758015
 21
292.841444
 31
0.0
  0
LINE
  5
14d
100
AcDbEntity
  8
Layer_1
 62
7
100
AcDbLine
 10
11.758015
 20
292.841444
 30
0.0
 11
11.758015
 21
278.777088
 31
0.0
  0
LINE
  5
14e
100
AcDbEntity
  8
Layer_1
 62
7
100
AcDbLine
 10
11.758015
 20
278.777088
 30
0.0
 11
7.069900
 21
278.777088
 31
0.0
  0
LINE
  5
14f
100
AcDbEntity
  8
Layer_1
 62
7
100
AcDbLine
 10
7.069900
 20
278.777088
 30
0.0
 11
7.069900
 21
260.024641
 31
0.0
  0
LINE
  5
150
100
AcDbEntity
  8
Layer_1
 62
7
100
AcDbLine
 10
7.069900
 20
260.024641
 30
0.0
 11
11.758015
 21
260.024641
 31
0.0
  0
LINE
  5
151
100
AcDbEntity
  8
Layer_1
 62
7
100
AcDbLine
 10
11.758015
 20
260.024641
 30
0.0
 11
11.758015
 21
245.960301
 31
0.0
  0
LINE
  5
152
100
AcDbEntity
  8
Layer_1
 62
7
100
AcDbLine
 10
11.758015
 20
245.960301
 30
0.0
 11
7.069900
 21
245.960301
 31
0.0
  0
LINE
  5
153
100
AcDbEntity
  8
Layer_1
 62
7
100
AcDbLine
 10
7.069900
 20
245.960301
 30
0.0
 11
7.069900
 21
227.207846
 31
0.0
  0
LINE
  5
154
100
AcDbEntity
  8
Layer_1
 62
7
100
AcDbLine
 10
7.069900
 20
227.207846
 30
0.0
 11
11.758015
 21
227.207846
 31
0.0
  0
LINE
  5
155
100
AcDbEntity
  8
Layer_1
 62
7
100
AcDbLine
 10
11.758015
 20
227.207846
 30
0.0
 11
11.758015
 21
213.143506
 31
0.0
  0
LINE
  5
156
100
AcDbEntity
  8
Layer_1
 62
7
100
AcDbLine
 10
11.758015
 20
213.143506
 30
0.0
 11
7.069900
 21
213.143506
 31
0.0
  0
LINE
  5
157
100
AcDbEntity
  8
Layer_1
 62
7
100
AcDbLine
 10
7.069900
 20
213.143506
 30
0.0
 11
7.069900
 21
194.391052
 31
0.0
  0
LINE
  5
158
100
AcDbEntity
  8
Layer_1
 62
7
100
AcDbLine
 10
7.069900
 20
194.391052
 30
0.0
 11
11.758015
 21
194.391052
 31
0.0
  0
LINE
  5
159
100
AcDbEntity
  8
Layer_1
 62
7
100
AcDbLine
 10
11.758015
 20
194.391052
 30
0.0
 11
11.758015
 21
185.014824
 31
0.0
  0
LINE
  5
15a
100
AcDbEntity
  8
Layer_1
 62
7
100
AcDbLine
 10
11.758015
 20
185.014824
 30
0.0
 11
30.369825
 21
185.014824
 31
0.0
  0
LINE
  5
15b
100
AcDbEntity
  8
Layer_1
 62
7
100
AcDbLine
 10
30.369825
 20
185.014824
 30
0.0
 11
30.369825
 21
180.326712
 31
0.0
  0
LINE
  5
15c
100
AcDbEntity
  8
Layer_1
 62
7
100
AcDbLine
 10
30.369825
 20
180.326712
 30
0.0
 11
49.403564
 21
180.326712
 31
0.0
  0
LINE
  5
15d
100
AcDbEntity
  8
Layer_1
 62
7
100
AcDbLine
 10
49.403564
 20
180.326712
 30
0.0
 11
49.403564
 21
185.014824
 31
0.0
  0
LINE
  5
15e
100
AcDbEntity
  8
Layer_1
 62
7
100
AcDbLine
 10
49.403564
 20
185.014824
 30
0.0
 11
67.874729
 21
185.014824
 31
0.0
  0
LINE
  5
15f
100
AcDbEntity
  8
Layer_1
 62
7
100
AcDbLine
 10
67.874729
 20
185.014824
 30
0.0
 11
67.874729
 21
180.326712
 31
0.0
  0
LINE
  5
160
100
AcDbEntity
  8
Layer_1
 62
7
100
AcDbLine
 10
67.874729
 20
180.326712
 30
0.0
 11
86.908471
 21
180.326712
 31
0.0
  0
LINE
  5
161
100
AcDbEntity
  8
Layer_1
 62
7
100
AcDbLine
 10
86.908471
 20
180.326712
 30
0.0
 11
86.908471
 21
185.014824
 31
0.0
  0
LINE
  5
162
100
AcDbEntity
  8
Layer_1
 62
7
100
AcDbLine
 10
11.758015
 20
176.085137
 30
0.0
 11
11.758015
 21
162.021072
 31
0.0
  0
LINE
  5
163
100
AcDbEntity
  8
Layer_1
 62
7
100
AcDbLine
 10
11.758015
 20
162.021072
 30
0.0
 11
7.070316
 21
162.021072
 31
0.0
  0
LINE
  5
164
100
AcDbEntity
  8
Layer_1
 62
7
100
AcDbLine
 10
7.070316
 20
162.021072
 30
0.0
 11
7.070316
 21
143.268339
 31
0.0
  0
LINE
  5
165
100
AcDbEntity
  8
Layer_1
 62
7
100
AcDbLine
 10
7.070316
 20
143.268339
 30
0.0
 11
11.758015
 21
143.268339
 31
0.0
  0
LINE
  5
166
100
AcDbEntity
  8
Layer_1
 62
7
100
AcDbLine
 10
11.758015
 20
143.268339
 30
0.0
 11
11.758015
 21
129.204280
 31
0.0
  0
LINE
  5
167
100
AcDbEntity
  8
Layer_1
 62
7
100
AcDbLine
 10
11.758015
 20
129.204280
 30
0.0
 11
7.070316
 21
129.204280
 31
0.0
  0
LINE
  5
168
100
AcDbEntity
  8
Layer_1
 62
7
100
AcDbLine
 10
7.070316
 20
129.204280
 30
0.0
 11
7.070316
 21
110.451547
 31
0.0
  0
LINE
  5
169
100
AcDbEntity
  8
Layer_1
 62
7
100
AcDbLine
 10
7.070316
 20
110.451547
 30
0.0
 11
11.758015
 21
110.451547
 31
0.0
  0
LINE
  5
16a
100
AcDbEntity
  8
Layer_1
 62
7
100
AcDbLine
 10
11.758015
 20
110.451547
 30
0.0
 11
11.758015
 21
96.387483
 31
0.0
  0
LINE
  5
16b
100
AcDbEntity
  8
Layer_1
 62
7
100
AcDbLine
 10
11.758015
 20
96.387483
 30
0.0
 11
7.070316
 21
96.387483
 31
0.0
  0
LINE
  5
16c
100
AcDbEntity
  8
Layer_1
 62
7
100
AcDbLine
 10
7.070316
 20
96.387483
 30
0.0
 11
7.070316
 21
77.634753
 31
0.0
  0
LINE
  5
16d
100
AcDbEntity
  8
Layer_1
 62
7
100
AcDbLine
 10
7.070316
 20
77.634753
 30
0.0
 11
11.758015
 21
77.634753
 31
0.0
  0
LINE
  5
16e
100
AcDbEntity
  8
Layer_1
 62
7
100
AcDbLine
 10
11.758015
 20
77.634753
 30
0.0
 11
11.758015
 21
63.570688
 31
0.0
  0
LINE
  5
16f
100
AcDbEntity
  8
Layer_1
 62
7
100
AcDbLine
 10
11.758015
 20
63.570688
 30
0.0
 11
25.963059
 21
63.570688
 31
0.0
  0
LINE
  5
170
100
AcDbEntity
  8
Layer_1
 62
7
100
AcDbLine
 10
25.963059
 20
63.570688
 30
0.0
 11
25.963059
 21
68.258388
 31
0.0
  0
LINE
  5
171
100
AcDbEntity
  8
Layer_1
 62
7
100
AcDbLine
 10
25.963059
 20
68.258388
 30
0.0
 11
44.434313
 21
68.258388
 31
0.0
  0
LINE
  5
172
100
AcDbEntity
  8
Layer_1
 62
7
100
AcDbLine
 10
44.434313
 20
68.258388
 30
0.0
 11
44.434313
 21
63.570688
 31
0.0
  0
LINE
  5
173
100
AcDbEntity
  8
Layer_1
 62
7
100
AcDbLine
 10
44.434313
 20
63.570688
 30
0.0
 11
58.639355
 21
63.570688
 31
0.0
  0
LINE
  5
174
100
AcDbEntity
  8
Layer_1
 62
7
100
AcDbLine
 10
58.639355
 20
63.570688
 30
0.0
 11
58.639355
 21
68.258388
 31
0.0
  0
LINE
  5
175
100
AcDbEntity
  8
Layer_1
 62
7
100
AcDbLine
 10
58.639355
 20
68.258388
 30
0.0
 11
69.235608
 21
86.947168
 31
0.0
  0
SPLINE
  5
176
100
AcDbEntity
  8
Layer_1
 62
7
100
AcDbSpline
 70
8
 71
3
 72
8
 73
4
 74
0
 40
0
 40
0
 40
0
 40
0
 40
1
 40
1
 40
1
 40
1
 10
69.235608
 20
86.947168
 30
0.0
 10
71.789634
 20
91.451860
 30
0.0
 10
77.511627
 20
93.033436
 30
0.0
 10
82.016320
 20
90.479413
 30
0.0
  0
SPLINE
  5
177
100
AcDbEntity
  8
Layer_1
 62
7
100
AcDbSpline
 70
8
 71
3
 72
8
 73
4
 74
0
 40
0
 40
0
 40
0
 40
0
 40
1
 40
1
 40
1
 40
1
 10
82.016320
 20
90.479413
 30
0.0
 10
83.491364
 20
89.643111
 30
0.0
 10
84.711775
 20
88.422215
 30
0.0
 10
85.548081
 20
86.947168
 30
0.0
  0
LINE
  5
178
100
AcDbEntity
  8
Layer_1
 62
7
100
AcDbLine
 10
85.548081
 20
86.947168
 30
0.0
 11
96.144334
 21
68.258388
 31
0.0
  0
LINE
  5
179
100
AcDbEntity
  8
Layer_1
 62
7
100
AcDbLine
 10
96.144334
 20
68.258388
 30
0.0
 11
96.144334
 21
63.570688
 31
0.0
  0
LINE
  5
17a
100
AcDbEntity
  8
Layer_1
 62
7
100
AcDbLine
 10
96.144334
 20
63.570688
 30
0.0
 11
110.349377
 21
63.570688
 31
0.0
  0
LINE
  5
17b
100
AcDbEntity
  8
Layer_1
 62
7
100
AcDbLine
 10
110.349377
 20
63.570688
 30
0.0
 11
110.349377
 21
68.258388
 31
0.0
  0
LINE
  5
17c
100
AcDbEntity
  8
Layer_1
 62
7
100
AcDbLine
 10
110.349377
 20
68.258388
 30
0.0
 11
128.820640
 21
68.258388
 31
0.0
  0
LINE
  5
17d
100
AcDbEntity
  8
Layer_1
 62
7
100
AcDbLine
 10
128.820640
 20
68.258388
 30
0.0
 11
128.820640
 21
63.570688
 31
0.0
  0
LINE
  5
17e
100
AcDbEntity
  8
Layer_1
 62
7
100
AcDbLine
 10
128.820640
 20
63.570688
 30
0.0
 11
147.713377
 21
63.570688
 31
0.0
  0
LINE
  5
17f
100
AcDbEntity
  8
Layer_1
 62
7
100
AcDbLine
 10
147.713377
 20
63.570688
 30
0.0
 11
147.713377
 21
84.198306
 31
0.0
  0
LINE
  5
180
100
AcDbEntity
  8
Layer_1
 62
7
100
AcDbLine
 10
147.713377
 20
84.198306
 30
0.0
 11
114.096726
 21
84.198306
 31
0.0
  0
SPLINE
  5
181
100
AcDbEntity
  8
Layer_1
 62
7
100
AcDbSpline
 70
8
 71
3
 72
8
 73
4
 74
0
 40
0
 40
0
 40
0
 40
0
 40
1
 40
1
 40
1
 40
1
 10
114.096726
 20
84.198306
 30
0.0
 10
112.071121
 20
84.198306
 30
0.0
 10
110.202189
 20
85.287296
 30
0.0
 10
109.203130
 20
87.049392
 30
0.0
  0
LINE
  5
182
100
AcDbEntity
  8
Layer_1
 62
7
100
AcDbLine
 10
109.203130
 20
87.049392
 30
0.0
 11
105.585617
 21
93.429817
 31
0.0
  0
SPLINE
  5
183
100
AcDbEntity
  8
Layer_1
 62
7
100
AcDbSpline
 70
8
 71
3
 72
8
 73
4
 74
0
 40
0
 40
0
 40
0
 40
0
 40
1
 40
1
 40
1
 40
1
 10
105.585617
 20
93.429817
 30
0.0
 10
104.773026
 20
94.863033
 30
0.0
 10
104.629223
 20
96.580467
 30
0.0
 10
105.192716
 20
98.128658
 30
0.0
  0
LINE
  5
184
100
AcDbEntity
  8
Layer_1
 62
7
100
AcDbLine
 10
105.192716
 20
98.128658
 30
0.0
 11
109.013218
 21
108.625107
 31
0.0
  0
SPLINE
  5
185
100
AcDbEntity
  8
Layer_1
 62
7
100
AcDbSpline
 70
8
 71
3
 72
8
 73
4
 74
0
 40
0
 40
0
 40
0
 40
0
 40
1
 40
1
 40
1
 40
1
 10
109.013218
 20
108.625107
 30
0.0
 10
109.822112
 20
110.847528
 30
0.0
 10
111.934667
 20
112.326917
 30
0.0
 10
114.299717
 20
112.326917
 30
0.0
  0
LINE
  5
186
100
AcDbEntity
  8
Layer_1
 62
7
100
AcDbLine
 10
114.299717
 20
112.326917
 30
0.0
 11
147.713377
 21
112.326917
 31
0.0
  0
LINE
  5
187
100
AcDbEntity
  8
Layer_1
 62
7
100
AcDbLine
 10
147.713377
 20
112.326917
 30
0.0
 11
147.713377
 21
129.204280
 31
0.0
  0
LINE
  5
188
100
AcDbEntity
  8
Layer_1
 62
7
100
AcDbLine
 10
147.713377
 20
129.204280
 30
0.0
 11
143.025193
 21
129.204280
 31
0.0
  0
LINE
  5
189
100
AcDbEntity
  8
Layer_1
 62
7
100
AcDbLine
 10
143.025193
 20
129.204280
 30
0.0
 11
143.025193
 21
143.268339
 31
0.0
  0
LINE
  5
18a
100
AcDbEntity
  8
Layer_1
 62
7
100
AcDbLine
 10
143.025193
 20
143.268339
 30
0.0
 11
147.713377
 21
143.268339
 31
0.0
  0
LINE
  5
18b
100
AcDbEntity
  8
Layer_1
 62
7
100
AcDbLine
 10
147.713377
 20
143.268339
 30
0.0
 11
147.713377
 21
162.021072
 31
0.0
  0
LINE
  5
18c
100
AcDbEntity
  8
Layer_1
 62
7
100
AcDbLine
 10
147.713377
 20
162.021072
 30
0.0
 11
143.025193
 21
162.021072
 31
0.0
  0
LINE
  5
18d
100
AcDbEntity
  8
Layer_1
 62
7
100
AcDbLine
 10
143.025193
 20
162.021072
 30
0.0
 11
143.025193
 21
176.085137
 31
0.0
  0
LINE
  5
18e
100
AcDbEntity
  8
Layer_1
 62
7
100
AcDbLine
 10
143.025193
 20
176.085137
 30
0.0
 11
11.758015
 21
176.085137
 31
0.0
  0
SPLINE
  5
18f
100
AcDbEntity
  8
Layer_1
 62
7
100
AcDbSpline
 70
8
 71
3
 72
8
 73
4
 74
0
 40
0
 40
0
 40
0
 40
0
 40
1
 40
1
 40
1
 40
1
 10
77.391604
 20
139.986567
 30
0.0
 10
78.168357
 20
139.986567
 30
0.0
 10
78.798494
 20
139.356909
 30
0.0
 10
78.798494
 20
138.580158
 30
0.0
  0
SPLINE
  5
190
100
AcDbEntity
  8
Layer_1
 62
7
100
AcDbSpline
 70
8
 71
3
 72
8
 73
4
 74
0
 40
0
 40
0
 40
0
 40
0
 40
1
 40
1
 40
1
 40
1
 10
78.798494
 20
138.580158
 30
0.0
 10
78.798494
 20
137.803405
 30
0.0
 10
78.168357
 20
137.173752
 30
0.0
 10
77.391604
 20
137.173752
 30
0.0
  0
SPLINE
  5
191
100
AcDbEntity
  8
Layer_1
 62
7
100
AcDbSpline
 70
8
 71
3
 72
8
 73
4
 74
0
 40
0
 40
0
 40
0
 40
0
 40
1
 40
1
 40
1
 40
1
 10
77.391604
 20
137.173752
 30
0.0
 10
76.614851
 20
137.173752
 30
0.0
 10
75.985198
 20
137.803405
 30
0.0
 10
75.985198
 20
138.580158
 30
0.0
  0
SPLINE
  5
192
100
AcDbEntity
  8
Layer_1
 62
7
100
AcDbSpline
 70
8
 71
3
 72
8
 73
4
 74
0
 40
0
 40
0
 40
0
 40
0
 40
1
 40
1
 40
1
 40
1
 10
75.985198
 20
138.580158
 30
0.0
 10
75.985198
 20
139.356909
 30
0.0
 10
76.614851
 20
139.986567
 30
0.0
 10
77.391604
 20
139.986567
 30
0.0
  0
LINE
  5
193
100
AcDbEntity
  8
Layer_1
 62
7
100
AcDbLine
 10
77.391604
 20
139.986567
 30
0.0
 11
77.391604
 21
139.986567
 31
0.0
  0
LINE
  5
194
100
AcDbEntity
  8
Layer_1
 62
7
100
AcDbLine
 10
77.391604
 20
125.701583
 30
0.0
 11
82.478502
 21
122.764750
 31
0.0
  0
LINE
  5
195
100
AcDbEntity
  8
Layer_1
 62
7
100
AcDbLine
 10
82.478502
 20
122.764750
 30
0.0
 11
82.478502
 21
116.891077
 31
0.0
  0
LINE
  5
196
100
AcDbEntity
  8
Layer_1
 62
7
100
AcDbLine
 10
82.478502
 20
116.891077
 30
0.0
 11
77.391604
 21
113.954242
 31
0.0
  0
LINE
  5
197
100
AcDbEntity
  8
Layer_1
 62
7
100
AcDbLine
 10
77.391604
 20
113.954242
 30
0.0
 11
72.305188
 21
116.891077
 31
0.0
  0
LINE
  5
198
100
AcDbEntity
  8
Layer_1
 62
7
100
AcDbLine
 10
72.305188
 20
116.891077
 30
0.0
 11
72.305188
 21
122.764750
 31
0.0
  0
LINE
  5
199
100
AcDbEntity
  8
Layer_1
 62
7
100
AcDbLine
 10
72.305188
 20
122.764750
 30
0.0
 11
77.391604
 21
125.701583
 31
0.0
  0
SPLINE
  5
19a
100
AcDbEntity
  8
Layer_1
 62
7
100
AcDbSpline
 70
8
 71
3
 72
8
 73
4
 74
0
 40
0
 40
0
 40
0
 40
0
 40
1
 40
1
 40
1
 40
1
 10
118.968038
 20
121.234321
 30
0.0
 10
119.744805
 20
121.234321
 30
0.0
 10
120.374447
 20
120.604665
 30
0.0
 10
120.374447
 20
119.827912
 30
0.0
  0
SPLINE
  5
19b
100
AcDbEntity
  8
Layer_1
 62
7
100
AcDbSpline
 70
8
 71
3
 72
8
 73
4
 74
0
 40
0
 40
0
 40
0
 40
0
 40
1
 40
1
 40
1
 40
1
 10
120.374447
 20
119.827912
 30
0.0
 10
120.374447
 20
119.051162
 30
0.0
 10
119.744805
 20
118.421506
 30
0.0
 10
118.968038
 20
118.421506
 30
0.0
  0
SPLINE
  5
19c
100
AcDbEntity
  8
Layer_1
 62
7
100
AcDbSpline
 70
8
 71
3
 72
8
 73
4
 74
0
 40
0
 40
0
 40
0
 40
0
 40
1
 40
1
 40
1
 40
1
 10
118.968038
 20
118.421506
 30
0.0
 10
118.191288
 20
118.421506
 30
0.0
 10
117.561630
 20
119.051162
 30
0.0
 10
117.561630
 20
119.827912
 30
0.0
  0
SPLINE
  5
19d
100
AcDbEntity
  8
Layer_1
 62
7
100
AcDbSpline
 70
8
 71
3
 72
8
 73
4
 74
0
 40
0
 40
0
 40
0
 40
0
 40
1
 40
1
 40
1
 40
1
 10
117.561630
 20
119.827912
 30
0.0
 10
117.561630
 20
120.604665
 30
0.0
 10
118.191288
 20
121.234321
 30
0.0
 10
118.968038
 20
121.234321
 30
0.0
  0
LINE
  5
19e
100
AcDbEntity
  8
Layer_1
 62
7
100
AcDbLine
 10
118.968038
 20
121.234321
 30
0.0
 11
118.968038
 21
121.234321
 31
0.0
  0
SPLINE
  5
19f
100
AcDbEntity
  8
Layer_1
 62
7
100
AcDbSpline
 70
8
 71
3
 72
8
 73
4
 74
0
 40
0
 40
0
 40
0
 40
0
 40
1
 40
1
 40
1
 40
1
 10
135.845402
 20
121.234321
 30
0.0
 10
136.622136
 20
121.234321
 30
0.0
 10
137.251802
 20
120.604665
 30
0.0
 10
137.251802
 20
119.827912
 30
0.0
  0
SPLINE
  5
1a0
100
AcDbEntity
  8
Layer_1
 62
7
100
AcDbSpline
 70
8
 71
3
 72
8
 73
4
 74
0
 40
0
 40
0
 40
0
 40
0
 40
1
 40
1
 40
1
 40
1
 10
137.251802
 20
119.827912
 30
0.0
 10
137.251802
 20
119.051162
 30
0.0
 10
136.622136
 20
118.421506
 30
0.0
 10
135.845402
 20
118.421506
 30
0.0
  0
SPLINE
  5
1a1
100
AcDbEntity
  8
Layer_1
 62
7
100
AcDbSpline
 70
8
 71
3
 72
8
 73
4
 74
0
 40
0
 40
0
 40
0
 40
0
 40
1
 40
1
 40
1
 40
1
 10
135.845402
 20
118.421506
 30
0.0
 10
135.068643
 20
118.421506
 30
0.0
 10
134.439001
 20
119.051162
 30
0.0
 10
134.439001
 20
119.827912
 30
0.0
  0
SPLINE
  5
1a2
100
AcDbEntity
  8
Layer_1
 62
7
100
AcDbSpline
 70
8
 71
3
 72
8
 73
4
 74
0
 40
0
 40
0
 40
0
 40
0
 40
1
 40
1
 40
1
 40
1
 10
134.439001
 20
119.827912
 30
0.0
 10
134.439001
 20
120.604665
 30
0.0
 10
135.068643
 20
121.234321
 30
0.0
 10
135.845402
 20
121.234321
 30
0.0
  0
LINE
  5
1a3
100
AcDbEntity
  8
Layer_1
 62
7
100
AcDbLine
 10
135.845402
 20
121.234321
 30
0.0
 11
135.845402
 21
121.234321
 31
0.0
  0
SPLINE
  5
1a4
100
AcDbEntity
  8
Layer_1
 62
7
100
AcDbSpline
 70
8
 71
3
 72
8
 73
4
 74
0
 40
0
 40
0
 40
0
 40
0
 40
1
 40
1
 40
1
 40
1
 10
77.391604
 20
102.481588
 30
0.0
 10
78.168357
 20
102.481588
 30
0.0
 10
78.798494
 20
101.851933
 30
0.0
 10
78.798494
 20
101.075182
 30
0.0
  0
SPLINE
  5
1a5
100
AcDbEntity
  8
Layer_1
 62
7
100
AcDbSpline
 70
8
 71
3
 72
8
 73
4
 74
0
 40
0
 40
0
 40
0
 40
0
 40
1
 40
1
 40
1
 40
1
 10
78.798494
 20
101.075182
 30
0.0
 10
78.798494
 20
100.298426
 30
0.0
 10
78.168357
 20
99.668776
 30
0.0
 10
77.391604
 20
99.668776
 30
0.0
  0
SPLINE
  5
1a6
100
AcDbEntity
  8
Layer_1
 62
7
100
AcDbSpline
 70
8
 71
3
 72
8
 73
4
 74
0
 40
0
 40
0
 40
0
 40
0
 40
1
 40
1
 40
1
 40
1
 10
77.391604
 20
99.668776
 30
0.0
 10
76.614851
 20
99.668776
 30
0.0
 10
75.985198
 20
100.298426
 30
0.0
 10
75.985198
 20
101.075182
 30
0.0
  0
SPLINE
  5
1a7
100
AcDbEntity
  8
Layer_1
 62
7
100
AcDbSpline
 70
8
 71
3
 72
8
 73
4
 74
0
 40
0
 40
0
 40
0
 40
0
 40
1
 40
1
 40
1
 40
1
 10
75.985198
 20
101.075182
 30
0.0
 10
75.985198
 20
101.851933
 30
0.0
 10
76.614851
 20
102.481588
 30
0.0
 10
77.391604
 20
102.481588
 30
0.0
  0
LINE
  5
1a8
100
AcDbEntity
  8
Layer_1
 62
7
100
AcDbLine
 10
77.391604
 20
102.481588
 30
0.0
 11
77.391604
 21
102.481588
 31
0.0
  0
LINE
  5
1a9
100
AcDbEntity
  8
Layer_1
 62
7
100
AcDbLine
 10
185.295807
 20
184.874182
 30
0.0
 11
185.295807
 21
180.186067
 31
0.0
  0
LINE
  5
1aa
100
AcDbEntity
  8
Layer_1
 62
7
100
AcDbLine
 10
185.295807
 20
180.186067
 30
0.0
 11
200.579067
 21
180.186067
 31
0.0
  0
LINE
  5
1ab
100
AcDbEntity
  8
Layer_1
 62
7
100
AcDbLine
 10
200.579067
 20
180.186067
 30
0.0
 11
200.579067
 21
184.874182
 31
0.0
  0
LINE
  5
1ac
100
AcDbEntity
  8
Layer_1
 62
7
100
AcDbLine
 10
200.579067
 20
184.874182
 30
0.0
 11
219.050238
 21
184.874182
 31
0.0
  0
LINE
  5
1ad
100
AcDbEntity
  8
Layer_1
 62
7
100
AcDbLine
 10
219.050238
 20
184.874182
 30
0.0
 11
219.050238
 21
180.186067
 31
0.0
  0
LINE
  5
1ae
100
AcDbEntity
  8
Layer_1
 62
7
100
AcDbLine
 10
219.050238
 20
180.186067
 30
0.0
 11
234.192845
 21
180.186067
 31
0.0
  0
LINE
  5
1af
100
AcDbEntity
  8
Layer_1
 62
7
100
AcDbLine
 10
234.192845
 20
180.186067
 30
0.0
 11
234.192845
 21
194.391052
 31
0.0
  0
LINE
  5
1b0
100
AcDbEntity
  8
Layer_1
 62
7
100
AcDbLine
 10
234.192845
 20
194.391052
 30
0.0
 11
229.504719
 21
194.391052
 31
0.0
  0
LINE
  5
1b1
100
AcDbEntity
  8
Layer_1
 62
7
100
AcDbLine
 10
229.504719
 20
194.391052
 30
0.0
 11
229.504719
 21
212.862220
 31
0.0
  0
LINE
  5
1b2
100
AcDbEntity
  8
Layer_1
 62
7
100
AcDbLine
 10
229.504719
 20
212.862220
 30
0.0
 11
234.192845
 21
212.862220
 31
0.0
  0
LINE
  5
1b3
100
AcDbEntity
  8
Layer_1
 62
7
100
AcDbLine
 10
234.192845
 20
212.862220
 30
0.0
 11
234.192845
 21
227.207846
 31
0.0
  0
LINE
  5
1b4
100
AcDbEntity
  8
Layer_1
 62
7
100
AcDbLine
 10
234.192845
 20
227.207846
 30
0.0
 11
229.504719
 21
227.207846
 31
0.0
  0
LINE
  5
1b5
100
AcDbEntity
  8
Layer_1
 62
7
100
AcDbLine
 10
229.504719
 20
227.207846
 30
0.0
 11
229.504719
 21
245.679012
 31
0.0
  0
LINE
  5
1b6
100
AcDbEntity
  8
Layer_1
 62
7
100
AcDbLine
 10
229.504719
 20
245.679012
 30
0.0
 11
234.192845
 21
245.679012
 31
0.0
  0
LINE
  5
1b7
100
AcDbEntity
  8
Layer_1
 62
7
100
AcDbLine
 10
234.192845
 20
245.679012
 30
0.0
 11
234.192845
 21
260.024641
 31
0.0
  0
LINE
  5
1b8
100
AcDbEntity
  8
Layer_1
 62
7
100
AcDbLine
 10
234.192845
 20
260.024641
 30
0.0
 11
229.504719
 21
260.024641
 31
0.0
  0
LINE
  5
1b9
100
AcDbEntity
  8
Layer_1
 62
7
100
AcDbLine
 10
229.504719
 20
260.024641
 30
0.0
 11
229.504719
 21
278.495806
 31
0.0
  0
LINE
  5
1ba
100
AcDbEntity
  8
Layer_1
 62
7
100
AcDbLine
 10
229.504719
 20
278.495806
 30
0.0
 11
234.192845
 21
278.495806
 31
0.0
  0
LINE
  5
1bb
100
AcDbEntity
  8
Layer_1
 62
7
100
AcDbLine
 10
234.192845
 20
278.495806
 30
0.0
 11
234.192845
 21
292.700787
 31
0.0
  0
LINE
  5
1bc
100
AcDbEntity
  8
Layer_1
 62
7
100
AcDbLine
 10
234.192845
 20
292.700787
 30
0.0
 11
151.682056
 21
292.700787
 31
0.0
  0
LINE
  5
1bd
100
AcDbEntity
  8
Layer_1
 62
7
100
AcDbLine
 10
151.682056
 20
292.700787
 30
0.0
 11
151.682056
 21
278.495806
 31
0.0
  0
LINE
  5
1be
100
AcDbEntity
  8
Layer_1
 62
7
100
AcDbLine
 10
151.682056
 20
278.495806
 30
0.0
 11
156.370155
 21
278.495806
 31
0.0
  0
LINE
  5
1bf
100
AcDbEntity
  8
Layer_1
 62
7
100
AcDbLine
 10
156.370155
 20
278.495806
 30
0.0
 11
156.370155
 21
260.024641
 31
0.0
  0
LINE
  5
1c0
100
AcDbEntity
  8
Layer_1
 62
7
100
AcDbLine
 10
156.370155
 20
260.024641
 30
0.0
 11
151.682056
 21
260.024641
 31
0.0
  0
LINE
  5
1c1
100
AcDbEntity
  8
Layer_1
 62
7
100
AcDbLine
 10
151.682056
 20
260.024641
 30
0.0
 11
151.682056
 21
245.679012
 31
0.0
  0
LINE
  5
1c2
100
AcDbEntity
  8
Layer_1
 62
7
100
AcDbLine
 10
151.682056
 20
245.679012
 30
0.0
 11
156.370155
 21
245.679012
 31
0.0
  0
LINE
  5
1c3
100
AcDbEntity
  8
Layer_1
 62
7
100
AcDbLine
 10
156.370155
 20
245.679012
 30
0.0
 11
156.370155
 21
227.207846
 31
0.0
  0
LINE
  5
1c4
100
AcDbEntity
  8
Layer_1
 62
7
100
AcDbLine
 10
156.370155
 20
227.207846
 30
0.0
 11
151.682056
 21
227.207846
 31
0.0
  0
LINE
  5
1c5
100
AcDbEntity
  8
Layer_1
 62
7
100
AcDbLine
 10
151.682056
 20
227.207846
 30
0.0
 11
151.682056
 21
212.862220
 31
0.0
  0
LINE
  5
1c6
100
AcDbEntity
  8
Layer_1
 62
7
100
AcDbLine
 10
151.682056
 20
212.862220
 30
0.0
 11
156.370155
 21
212.862220
 31
0.0
  0
LINE
  5
1c7
100
AcDbEntity
  8
Layer_1
 62
7
100
AcDbLine
 10
156.370155
 20
212.862220
 30
0.0
 11
156.370155
 21
194.391052
 31
0.0
  0
LINE
  5
1c8
100
AcDbEntity
  8
Layer_1
 62
7
100
AcDbLine
 10
156.370155
 20
194.391052
 30
0.0
 11
151.682056
 21
194.391052
 31
0.0
  0
LINE
  5
1c9
100
AcDbEntity
  8
Layer_1
 62
7
100
AcDbLine
 10
151.682056
 20
194.391052
 30
0.0
 11
151.682056
 21
180.186067
 31
0.0
  0
LINE
  5
1ca
100
AcDbEntity
  8
Layer_1
 62
7
100
AcDbLine
 10
151.682056
 20
180.186067
 30
0.0
 11
166.824663
 21
180.186067
 31
0.0
  0
LINE
  5
1cb
100
AcDbEntity
  8
Layer_1
 62
7
100
AcDbLine
 10
166.824663
 20
180.186067
 30
0.0
 11
166.824663
 21
184.874182
 31
0.0
  0
LINE
  5
1cc
100
AcDbEntity
  8
Layer_1
 62
7
100
AcDbLine
 10
166.824663
 20
184.874182
 30
0.0
 11
185.295807
 21
184.874182
 31
0.0
  0
LINE
  5
1cd
100
AcDbEntity
  8
Layer_1
 62
7
100
AcDbLine
 10
166.824663
 20
171.033108
 30
0.0
 11
166.824663
 21
175.721223
 31
0.0
  0
LINE
  5
1ce
100
AcDbEntity
  8
Layer_1
 62
7
100
AcDbLine
 10
166.824663
 20
175.721223
 30
0.0
 11
151.682056
 21
175.721223
 31
0.0
  0
LINE
  5
1cf
100
AcDbEntity
  8
Layer_1
 62
7
100
AcDbLine
 10
151.682056
 20
175.721223
 30
0.0
 11
151.682056
 21
161.516239
 31
0.0
  0
LINE
  5
1d0
100
AcDbEntity
  8
Layer_1
 62
7
100
AcDbLine
 10
151.682056
 20
161.516239
 30
0.0
 11
156.370128
 21
161.516239
 31
0.0
  0
LINE
  5
1d1
100
AcDbEntity
  8
Layer_1
 62
7
100
AcDbLine
 10
156.370128
 20
161.516239
 30
0.0
 11
156.370128
 21
143.045071
 31
0.0
  0
LINE
  5
1d2
100
AcDbEntity
  8
Layer_1
 62
7
100
AcDbLine
 10
156.370128
 20
143.045071
 30
0.0
 11
151.682056
 21
143.045071
 31
0.0
  0
LINE
  5
1d3
100
AcDbEntity
  8
Layer_1
 62
7
100
AcDbLine
 10
151.682056
 20
143.045071
 30
0.0
 11
151.682056
 21
128.699444
 31
0.0
  0
LINE
  5
1d4
100
AcDbEntity
  8
Layer_1
 62
7
100
AcDbLine
 10
151.682056
 20
128.699444
 30
0.0
 11
156.370128
 21
128.699444
 31
0.0
  0
LINE
  5
1d5
100
AcDbEntity
  8
Layer_1
 62
7
100
AcDbLine
 10
156.370128
 20
128.699444
 30
0.0
 11
156.370128
 21
110.228279
 31
0.0
  0
LINE
  5
1d6
100
AcDbEntity
  8
Layer_1
 62
7
100
AcDbLine
 10
156.370128
 20
110.228279
 30
0.0
 11
151.682056
 21
110.228279
 31
0.0
  0
LINE
  5
1d7
100
AcDbEntity
  8
Layer_1
 62
7
100
AcDbLine
 10
151.682056
 20
110.228279
 30
0.0
 11
151.682056
 21
95.882650
 31
0.0
  0
LINE
  5
1d8
100
AcDbEntity
  8
Layer_1
 62
7
100
AcDbLine
 10
151.682056
 20
95.882650
 30
0.0
 11
156.370128
 21
95.882650
 31
0.0
  0
LINE
  5
1d9
100
AcDbEntity
  8
Layer_1
 62
7
100
AcDbLine
 10
156.370128
 20
95.882650
 30
0.0
 11
156.370128
 21
77.411484
 31
0.0
  0
LINE
  5
1da
100
AcDbEntity
  8
Layer_1
 62
7
100
AcDbLine
 10
156.370128
 20
77.411484
 30
0.0
 11
151.682056
 21
77.411484
 31
0.0
  0
LINE
  5
1db
100
AcDbEntity
  8
Layer_1
 62
7
100
AcDbLine
 10
151.682056
 20
77.411484
 30
0.0
 11
151.682056
 21
63.206502
 31
0.0
  0
LINE
  5
1dc
100
AcDbEntity
  8
Layer_1
 62
7
100
AcDbLine
 10
151.682056
 20
63.206502
 30
0.0
 11
234.192845
 21
63.206502
 31
0.0
  0
LINE
  5
1dd
100
AcDbEntity
  8
Layer_1
 62
7
100
AcDbLine
 10
234.192845
 20
63.206502
 30
0.0
 11
234.192845
 21
77.411484
 31
0.0
  0
LINE
  5
1de
100
AcDbEntity
  8
Layer_1
 62
7
100
AcDbLine
 10
234.192845
 20
77.411484
 30
0.0
 11
229.504719
 21
77.411484
 31
0.0
  0
LINE
  5
1df
100
AcDbEntity
  8
Layer_1
 62
7
100
AcDbLine
 10
229.504719
 20
77.411484
 30
0.0
 11
229.504719
 21
95.882650
 31
0.0
  0
LINE
  5
1e0
100
AcDbEntity
  8
Layer_1
 62
7
100
AcDbLine
 10
229.504719
 20
95.882650
 30
0.0
 11
234.192845
 21
95.882650
 31
0.0
  0
LINE
  5
1e1
100
AcDbEntity
  8
Layer_1
 62
7
100
AcDbLine
 10
234.192845
 20
95.882650
 30
0.0
 11
234.192845
 21
110.228279
 31
0.0
  0
LINE
  5
1e2
100
AcDbEntity
  8
Layer_1
 62
7
100
AcDbLine
 10
234.192845
 20
110.228279
 30
0.0
 11
229.504719
 21
110.228279
 31
0.0
  0
LINE
  5
1e3
100
AcDbEntity
  8
Layer_1
 62
7
100
AcDbLine
 10
229.504719
 20
110.228279
 30
0.0
 11
229.504719
 21
128.699444
 31
0.0
  0
LINE
  5
1e4
100
AcDbEntity
  8
Layer_1
 62
7
100
AcDbLine
 10
229.504719
 20
128.699444
 30
0.0
 11
234.192845
 21
128.699444
 31
0.0
  0
LINE
  5
1e5
100
AcDbEntity
  8
Layer_1
 62
7
100
AcDbLine
 10
234.192845
 20
128.699444
 30
0.0
 11
234.192845
 21
155.234168
 31
0.0
  0
LINE
  5
1e6
100
AcDbEntity
  8
Layer_1
 62
7
100
AcDbLine
 10
234.192845
 20
155.234168
 30
0.0
 11
229.504719
 21
155.234168
 31
0.0
  0
LINE
  5
1e7
100
AcDbEntity
  8
Layer_1
 62
7
100
AcDbLine
 10
229.504719
 20
155.234168
 30
0.0
 11
229.504719
 21
175.721223
 31
0.0
  0
LINE
  5
1e8
100
AcDbEntity
  8
Layer_1
 62
7
100
AcDbLine
 10
229.504719
 20
175.721223
 30
0.0
 11
219.050238
 21
175.721223
 31
0.0
  0
LINE
  5
1e9
100
AcDbEntity
  8
Layer_1
 62
7
100
AcDbLine
 10
219.050238
 20
175.721223
 30
0.0
 11
219.050238
 21
171.033108
 31
0.0
  0
LINE
  5
1ea
100
AcDbEntity
  8
Layer_1
 62
7
100
AcDbLine
 10
219.050238
 20
171.033108
 30
0.0
 11
200.579067
 21
171.033108
 31
0.0
  0
LINE
  5
1eb
100
AcDbEntity
  8
Layer_1
 62
7
100
AcDbLine
 10
200.579067
 20
171.033108
 30
0.0
 11
200.579067
 21
175.721223
 31
0.0
  0
LINE
  5
1ec
100
AcDbEntity
  8
Layer_1
 62
7
100
AcDbLine
 10
200.579067
 20
175.721223
 30
0.0
 11
185.295807
 21
175.721223
 31
0.0
  0
LINE
  5
1ed
100
AcDbEntity
  8
Layer_1
 62
7
100
AcDbLine
 10
185.295807
 20
175.721223
 30
0.0
 11
185.295807
 21
171.033108
 31
0.0
  0
LINE
  5
1ee
100
AcDbEntity
  8
Layer_1
 62
7
100
AcDbLine
 10
185.295807
 20
171.033108
 30
0.0
 11
166.824663
 21
171.033108
 31
0.0
  0
ENDSEC
  0
SECTION
  2
OBJECTS
  0
DICTIONARY
  5
C
330
0
100
AcDbDictionary
  3
ACAD_GROUP
350
D
  3
ACAD_MLINESTYLE
350
17
  0
DICTIONARY
  5
D
330
C
100
AcDbDictionary
  0
DICTIONARY
  5
1A
330
C
100
AcDbDictionary
  0
DICTIONARY
  5
17
330
C
100
AcDbDictionary
  3
STANDARD
350
18
  0
DICTIONARY
  5
19
330
C
100
AcDbDictionary
  0
ENDSEC
  0
EOF
